<svg width="341" height="87" viewBox="0 0 341 87" fill="none" xmlns="http://www.w3.org/2000/svg">
<path d="M34.2211 32.0653C32.3144 30.8183 30.9838 29.6123 29.8517 28.5698C28.1437 26.9958 27.5479 26.1986 25.2242 23.7252C24.3106 22.7441 22.9799 21.3745 21.3514 19.7596C21.0535 19.4735 20.5172 19.3917 20.1597 19.6165C15.9493 22.1104 11.7388 24.6042 7.5284 27.1185C7.15105 27.3433 6.95244 27.8952 7.0716 28.3245C7.88589 30.8797 8.70017 33.4348 9.51446 35.99C10.4678 35.7447 11.2622 35.5403 12.3942 35.1519C12.8709 34.9883 13.3873 34.8044 13.9235 34.6204C13.4071 32.9647 12.8709 31.3089 12.3545 29.6532L20.1796 25.0335C21.7287 26.9754 23.119 28.5289 24.1914 29.6532C25.82 31.3907 26.9521 32.5763 28.6998 34.0072C30.4873 35.4585 31.9967 36.3784 32.5528 36.7054C34.082 37.6253 36.227 38.7291 38.9677 39.6081C39.2458 38.0137 39.5834 36.6645 40.0601 34.9883C37.5576 34.0889 35.6113 32.9851 34.2211 32.0653Z" fill="white"/>
<path d="M17.5171 35.2538C15.5111 36.3167 13.8428 36.9095 12.393 37.4001C10.2084 38.136 9.25504 38.2587 5.9979 39.0967C4.70696 39.4238 2.89965 39.9144 0.714981 40.5685C0.317769 40.6912 0 41.1204 0 41.5497C0 46.5578 0 51.5455 0 56.5536C0 57.0033 0.357491 57.453 0.794424 57.5552C3.35644 58.1071 5.8986 58.659 8.46062 59.2109C8.73867 58.2502 8.95713 57.4121 9.19546 56.2265C9.29476 55.7155 9.41393 55.1636 9.51323 54.5912C7.8648 54.2233 6.21637 53.8758 4.56794 53.5078L4.5878 44.2275C6.99093 43.8187 8.99685 43.3485 10.4864 42.9601C12.7505 42.3878 14.3394 41.9585 16.4049 41.1204C18.5101 40.2415 20.0394 39.3625 20.5954 39.0354C22.1247 38.136 24.1306 36.7664 26.2557 34.7632C25.0442 33.7207 24.0909 32.7395 22.8993 31.4722C20.8934 33.271 18.9867 34.4566 17.5171 35.2538Z" fill="white"/>
<path d="M11.8967 51.6466C11.7974 53.9565 11.4399 55.7553 11.1221 57.2884C10.6455 59.5983 10.288 60.5181 9.35452 63.8296C8.99703 65.1378 8.50051 66.998 7.94442 69.267C7.84511 69.6758 8.06358 70.1868 8.42107 70.3912C12.6117 72.8851 16.8022 75.3789 20.9928 77.8727C21.4099 78.118 21.966 77.9954 22.2639 77.6274C23.2172 76.3805 24.2897 75.0927 25.4813 73.7845C26.1566 73.0486 26.8517 72.3536 27.5071 71.6995C27.2092 71.3724 26.8319 70.984 26.3949 70.5343C26.097 70.2277 25.7594 69.9211 25.3622 69.5531C24.9848 69.2056 24.5876 68.8377 24.1308 68.4493C23.5151 69.0012 22.82 69.6758 22.1447 70.473C21.6085 71.1067 21.1319 71.7404 20.7346 72.3127C18.1329 70.7592 15.5312 69.2056 12.9294 67.6317C13.7834 65.2809 14.3991 63.2572 14.8162 61.7446C15.4517 59.4347 15.9085 57.8199 16.2263 55.5509C16.5441 53.241 16.5639 51.4422 16.5639 50.7676C16.5639 48.9484 16.4249 46.475 15.8092 43.5928C14.3197 44.1447 13.0089 44.5126 11.3803 44.9419C11.8967 47.6606 11.9563 49.95 11.8967 51.6466Z" fill="white"/>
<path d="M22.8003 64.955C24.7069 66.2019 26.0376 67.4079 27.1696 68.4504C28.8776 70.0244 29.4735 70.8216 31.7971 73.295C32.7107 74.2762 34.0414 75.6458 35.67 77.2606C35.9679 77.5468 36.5041 77.6286 36.8616 77.4037C41.072 74.9099 45.2825 72.416 49.4929 69.9018C49.8703 69.6769 50.0689 69.125 49.9497 68.6957C49.1355 66.1406 48.3212 63.5854 47.5069 61.0303C46.5536 61.2756 45.7592 61.48 44.6271 61.8684C44.1504 62.0319 43.6341 62.2159 43.0978 62.3998C43.6142 64.0556 44.1504 65.7113 44.6668 67.3671L36.8219 72.0072C35.2727 70.0653 33.8825 68.5118 32.81 67.3875C31.1815 65.65 30.0494 64.4644 28.3017 63.0335C26.5142 61.5822 25.0048 60.6623 24.4487 60.3353C22.9195 59.4154 20.7745 58.3116 18.0337 57.4326C17.7557 59.027 17.4181 60.3761 16.9414 62.0523C19.4438 62.9517 21.41 64.0351 22.8003 64.955Z" fill="white"/>
<path d="M39.4828 61.9093C41.4887 60.8463 43.157 60.2535 44.6068 59.7629C46.7915 59.0271 47.7448 58.9044 51.002 58.0663C52.2929 57.7393 54.1002 57.2487 56.2849 56.5946C56.6821 56.4719 56.9999 56.0426 56.9999 55.6134C56.9999 50.6053 56.9999 45.6176 56.9999 40.6095C56.9999 40.1598 56.6424 39.7101 56.2054 39.6079C53.6434 39.056 51.1013 38.5041 48.5392 37.9521C48.2612 38.9129 48.0427 39.751 47.8044 40.9366C47.7051 41.4476 47.5859 41.9995 47.4866 42.5719C49.1351 42.9398 50.7835 43.2873 52.4319 43.6553L52.4121 52.9356C50.0089 53.3444 48.003 53.8145 46.5135 54.2029C44.2494 54.7753 42.6605 55.2045 40.595 56.0426C38.4898 56.9216 36.9605 57.8006 36.4044 58.1276C34.8752 59.0271 32.8692 60.3966 30.7441 62.3999C31.9556 63.4424 32.9089 64.4235 34.1006 65.6909C36.1264 63.8921 38.0131 62.686 39.4828 61.9093Z" fill="white"/>
<path d="M45.122 45.3723C45.2213 43.0625 45.5788 41.2636 45.8966 39.7305C46.3732 37.4207 46.7307 36.5008 47.6642 33.1893C48.0216 31.8811 48.5182 30.0209 49.0743 27.752C49.1736 27.3431 48.9551 26.8321 48.5976 26.6277C44.3872 24.1339 40.1767 21.6196 35.9663 19.1258C35.5889 18.9009 35.0328 18.9827 34.7349 19.3302C32.9872 21.3334 31.2394 23.3367 29.4917 25.3399C30.167 26.0758 30.7429 26.6686 31.6366 27.4862C32.014 27.8337 32.4112 28.2017 32.868 28.5901C34.0001 27.3023 35.1321 26.0145 36.2642 24.7062L44.0694 29.3873C43.2154 31.738 42.5997 33.7617 42.1826 35.2743C41.5471 37.5842 41.0903 39.1991 40.7725 41.468C40.4548 43.7779 40.4349 45.5767 40.4349 46.2513C40.4349 48.0706 40.5739 50.544 41.1896 53.4262C42.6791 52.8743 43.9899 52.5063 45.6185 52.077C45.1021 49.3788 45.0426 47.0894 45.122 45.3723Z" fill="white"/>
<path d="M83.122 36.566C84.166 35.0193 85.5967 33.7627 87.414 32.796C89.27 31.8293 91.3773 31.346 93.736 31.346C96.4813 31.346 98.956 32.0227 101.16 33.376C103.403 34.7293 105.162 36.6627 106.438 39.176C107.753 41.6507 108.41 44.5313 108.41 47.818C108.41 51.1047 107.753 54.024 106.438 56.576C105.162 59.0893 103.403 61.042 101.16 62.434C98.956 63.826 96.4813 64.522 93.736 64.522C91.3387 64.522 89.2313 64.058 87.414 63.13C85.6353 62.1633 84.2047 60.926 83.122 59.418V64H75.002V21.08H83.122V36.566ZM100.116 47.818C100.116 45.8847 99.71 44.222 98.898 42.83C98.1247 41.3993 97.0807 40.3167 95.766 39.582C94.49 38.8473 93.098 38.48 91.59 38.48C90.1207 38.48 88.7287 38.8667 87.414 39.64C86.138 40.3747 85.094 41.4573 84.282 42.888C83.5087 44.3187 83.122 46.0007 83.122 47.934C83.122 49.8673 83.5087 51.5493 84.282 52.98C85.094 54.4107 86.138 55.5127 87.414 56.286C88.7287 57.0207 90.1207 57.388 91.59 57.388C93.098 57.388 94.49 57.0013 95.766 56.228C97.0807 55.4547 98.1247 54.3527 98.898 52.922C99.71 51.4913 100.116 49.79 100.116 47.818ZM122.431 21.08V64H114.311V21.08H122.431ZM160.787 31.868V64H152.609V59.94C151.565 61.332 150.193 62.434 148.491 63.246C146.829 64.0193 145.011 64.406 143.039 64.406C140.526 64.406 138.303 63.884 136.369 62.84C134.436 61.7573 132.909 60.1913 131.787 58.142C130.705 56.054 130.163 53.5793 130.163 50.718V31.868H138.283V49.558C138.283 52.11 138.921 54.082 140.197 55.474C141.473 56.8273 143.213 57.504 145.417 57.504C147.66 57.504 149.419 56.8273 150.695 55.474C151.971 54.082 152.609 52.11 152.609 49.558V31.868H160.787ZM198.669 47.238C198.669 48.398 198.592 49.442 198.437 50.37H174.947C175.14 52.69 175.952 54.5073 177.383 55.822C178.814 57.1367 180.573 57.794 182.661 57.794C185.677 57.794 187.823 56.4987 189.099 53.908H197.857C196.929 57.0013 195.15 59.5533 192.521 61.564C189.892 63.536 186.663 64.522 182.835 64.522C179.742 64.522 176.958 63.8453 174.483 62.492C172.047 61.1 170.133 59.1473 168.741 56.634C167.388 54.1207 166.711 51.2207 166.711 47.934C166.711 44.6087 167.388 41.6893 168.741 39.176C170.094 36.6627 171.989 34.7293 174.425 33.376C176.861 32.0227 179.664 31.346 182.835 31.346C185.89 31.346 188.616 32.0033 191.013 33.318C193.449 34.6327 195.324 36.508 196.639 38.944C197.992 41.3413 198.669 44.106 198.669 47.238ZM190.259 44.918C190.22 42.83 189.466 41.1673 187.997 39.93C186.528 38.654 184.73 38.016 182.603 38.016C180.592 38.016 178.891 38.6347 177.499 39.872C176.146 41.0707 175.314 42.7527 175.005 44.918H190.259ZM212.716 36.508C213.76 35.0387 215.19 33.8207 217.008 32.854C218.864 31.8487 220.971 31.346 223.33 31.346C226.075 31.346 228.55 32.0227 230.754 33.376C232.996 34.7293 234.756 36.6627 236.032 39.176C237.346 41.6507 238.004 44.5313 238.004 47.818C238.004 51.1047 237.346 54.024 236.032 56.576C234.756 59.0893 232.996 61.042 230.754 62.434C228.55 63.826 226.075 64.522 223.33 64.522C220.971 64.522 218.883 64.0387 217.066 63.072C215.287 62.1053 213.837 60.8873 212.716 59.418V79.312H204.596V31.868H212.716V36.508ZM229.71 47.818C229.71 45.8847 229.304 44.222 228.492 42.83C227.718 41.3993 226.674 40.3167 225.36 39.582C224.084 38.8473 222.692 38.48 221.184 38.48C219.714 38.48 218.322 38.8667 217.008 39.64C215.732 40.3747 214.688 41.4573 213.876 42.888C213.102 44.3187 212.716 46.0007 212.716 47.934C212.716 49.8673 213.102 51.5493 213.876 52.98C214.688 54.4107 215.732 55.5127 217.008 56.286C218.322 57.0207 219.714 57.388 221.184 57.388C222.692 57.388 224.084 57.0013 225.36 56.228C226.674 55.4547 227.718 54.3527 228.492 52.922C229.304 51.4913 229.71 49.79 229.71 47.818ZM252.024 36.856C253.068 35.1547 254.422 33.8207 256.084 32.854C257.786 31.8873 259.719 31.404 261.884 31.404V39.93H259.738C257.186 39.93 255.253 40.5293 253.938 41.728C252.662 42.9267 252.024 45.0147 252.024 47.992V64H243.904V31.868H252.024V36.856ZM271.472 28.04C270.041 28.04 268.842 27.5953 267.876 26.706C266.948 25.778 266.484 24.6373 266.484 23.284C266.484 21.9307 266.948 20.8093 267.876 19.92C268.842 18.992 270.041 18.528 271.472 18.528C272.902 18.528 274.082 18.992 275.01 19.92C275.976 20.8093 276.46 21.9307 276.46 23.284C276.46 24.6373 275.976 25.778 275.01 26.706C274.082 27.5953 272.902 28.04 271.472 28.04ZM275.474 31.868V64H267.354V31.868H275.474ZM301.302 31.404C305.13 31.404 308.223 32.622 310.582 35.058C312.941 37.4553 314.12 40.8193 314.12 45.15V64H306V46.252C306 43.7 305.362 41.7473 304.086 40.394C302.81 39.002 301.07 38.306 298.866 38.306C296.623 38.306 294.845 39.002 293.53 40.394C292.254 41.7473 291.616 43.7 291.616 46.252V64H283.496V31.868H291.616V35.87C292.699 34.478 294.071 33.3953 295.734 32.622C297.435 31.81 299.291 31.404 301.302 31.404ZM331.296 38.538V54.082C331.296 55.1647 331.547 55.9573 332.05 56.46C332.591 56.924 333.481 57.156 334.718 57.156H338.488V64H333.384C326.54 64 323.118 60.6747 323.118 54.024V38.538H319.29V31.868H323.118V23.922H331.296V31.868H338.488V38.538H331.296Z" fill="white"/>
</svg>
