<svg width="1440" height="2715" viewBox="0 0 1440 2715" fill="none" xmlns="http://www.w3.org/2000/svg">
<circle cx="1357.1" cy="331.946" r="118.469" transform="rotate(98.9021 1357.1 331.946)" stroke="#BDDEFF" stroke-dasharray="8.44 8.44"/>
<circle cx="1329.79" cy="499.048" r="192.719" transform="rotate(98.9021 1329.79 499.048)" stroke="#BDDEFF" stroke-dasharray="8.44 8.44"/>
<circle cx="1329.79" cy="499.046" r="20.5938" transform="rotate(98.9021 1329.79 499.046)" stroke="#BDDEFF" stroke-dasharray="8.44 8.44"/>
<circle cx="1355.84" cy="330.895" r="10.1875" transform="rotate(98.9021 1355.84 330.895)" stroke="#BDDEFF" stroke-dasharray="8.44 8.44"/>
<path d="M1379.7 334.916L1331.07 327.299" stroke="#BDDEFF" stroke-dasharray="5.06 5.06"/>
<path d="M1351.63 354.148L1358.86 308.023" stroke="#BDDEFF" stroke-dasharray="5.06 5.06"/>
<path d="M1365.68 504.382L1293.43 493.067" stroke="#BDDEFF" stroke-dasharray="5.06 5.06"/>
<path d="M1324.16 533.177L1334.87 464.823" stroke="#BDDEFF" stroke-dasharray="5.06 5.06"/>
<circle cx="259.168" cy="556.995" r="13.125" transform="rotate(170.328 259.168 556.995)" stroke="#BDDEFF" stroke-width="1.5" stroke-dasharray="11.25 11.25"/>
<path d="M263.635 580.96L255.444 532.903" stroke="#BDDEFF" stroke-width="1.5" stroke-dasharray="6.75 6.75"/>
<path d="M236.557 560.469L281.656 552.782" stroke="#BDDEFF" stroke-width="1.5" stroke-dasharray="6.75 6.75"/>
<circle cx="259.167" cy="556.996" r="221.625" transform="rotate(170.328 259.167 556.996)" stroke="#BDDEFF" stroke-width="1.5" stroke-dasharray="45 45"/>
<path d="M317.781 771.446L310.788 730.412L339.29 719.088L358.411 755.391M275.269 778.691L268.276 737.658L236.522 736.603L230.01 776.514M188.855 767.171L198.757 727.062L166.277 712.816L148.532 749.316M394.887 732.817L371.645 699.118L396.644 673.935L426.957 702.244M451.427 667.261L417.128 644.576L430.336 614.935L468.911 627.001M479.607 584.855L439.57 577.603L439.508 543.758L480.864 540.894M473.682 498.751L434.505 507.711L421.992 474.466L457.871 457.319M433.692 420.356L401.228 444.148L378.885 420.186L403.859 388.16M369.56 365.475L349.517 397.422L318.155 385.268L328.985 346.143M288.263 337.106L280.886 376.404L250.43 376.269L243.437 335.236M200.925 342.481L207.918 383.514L180.029 393.974L159.555 358.662M114.351 725.09L138.767 692.018L115.369 666.334L83.409 693.084M60.4021 656.301L96.6426 636.81L85.2549 607.938L44.961 614.806M37.7155 572.294L78.0095 565.426L79.5056 536.26L38.6658 528.765M48.3159 487.178L87.6307 499.117L100.713 468.737L66.4767 446.422M90.9469 411.439L121.259 439.748L147.43 414.746L123.386 380.803" stroke="#BDDEFF" stroke-width="1.5"/>
<circle cx="258.736" cy="556.688" r="146.5" transform="rotate(170.328 258.736 556.688)" stroke="#BDDEFF"/>
<path d="M183.275 594.581C180.835 589.67 178.844 584.466 177.363 579.013L177.724 578.914C177.006 576.269 176.408 573.565 175.938 570.806C175.468 568.048 175.136 565.298 174.938 562.565L174.564 562.592C174.155 556.955 174.31 551.385 174.986 545.944L175.358 545.99C176.047 540.443 177.279 535.03 179.007 529.818L178.651 529.7C180.409 524.397 182.679 519.301 185.411 514.482L185.738 514.667C188.47 509.846 191.668 505.303 195.281 501.108L194.996 500.864C198.615 496.662 202.648 492.808 207.047 489.371L207.278 489.666C211.607 486.283 216.292 483.306 221.286 480.801L221.118 480.466C226.021 478.007 231.22 476.003 236.67 474.515L236.769 474.877C239.413 474.155 242.117 473.555 244.875 473.085C247.633 472.615 250.383 472.285 253.117 472.09L253.09 471.716C258.726 471.315 264.295 471.484 269.736 472.18L269.688 472.552C275.229 473.261 280.636 474.518 285.842 476.276L285.962 475.921C291.251 477.707 296.333 480.008 301.139 482.774L300.952 483.099C305.75 485.86 310.272 489.087 314.447 492.73L314.694 492.448C318.868 496.09 322.698 500.147 326.114 504.568L325.817 504.797C329.174 509.142 332.129 513.841 334.617 518.847L334.952 518.68C337.392 523.591 339.384 528.795 340.865 534.249L340.503 534.347C341.221 536.992 341.819 539.696 342.289 542.455C342.76 545.213 343.091 547.963 343.29 550.696L343.664 550.669C344.073 556.306 343.917 561.876 343.242 567.317L342.87 567.271C342.181 572.818 340.949 578.231 339.221 583.443L339.577 583.561C337.818 588.864 335.548 593.96 332.816 598.779L332.49 598.594C329.757 603.415 326.56 607.958 322.947 612.153L323.231 612.397C319.613 616.599 315.579 620.453 311.181 623.891L310.95 623.595C306.62 626.978 301.935 629.955 296.942 632.46L297.11 632.795C292.207 635.254 287.008 637.258 281.557 638.746L281.459 638.384C278.814 639.106 276.111 639.706 273.353 640.176C270.594 640.646 267.845 640.976 265.111 641.171L265.138 641.545C259.502 641.946 253.932 641.777 248.492 641.081L248.539 640.709C242.998 640 237.591 638.743 232.386 636.985L232.266 637.34C226.977 635.554 221.895 633.253 217.089 630.488L217.276 630.163C212.477 627.401 207.956 624.174 203.78 620.531L203.534 620.813C199.359 617.171 195.53 613.114 192.114 608.693L192.411 608.464C189.054 604.119 186.098 599.42 183.611 594.414L183.275 594.581Z" stroke="#BDDEFF" stroke-width="0.75" stroke-dasharray="15 15"/>
<path d="M-78.0489 290.229C-79.6762 285.943 -81.0425 281.509 -82.1255 276.944L-81.7606 276.857C-82.2906 274.623 -82.7526 272.357 -83.1438 270.062C-83.5351 267.766 -83.8498 265.475 -84.0897 263.191L-84.4627 263.231C-84.9531 258.564 -85.1325 253.928 -85.0169 249.345L-84.642 249.355C-84.5243 244.694 -84.1003 240.088 -83.3866 235.56L-83.757 235.502C-83.0305 230.894 -82.005 226.367 -80.6979 221.946L-80.3383 222.052C-79.0232 217.604 -77.422 213.263 -75.5526 209.056L-75.8953 208.903C-74.0087 204.657 -71.85 200.546 -69.4375 196.595L-69.1174 196.791C-66.7082 192.846 -64.0449 189.062 -61.1459 185.465L-61.4379 185.229C-58.5315 181.623 -55.389 178.205 -52.0288 174.999L-51.77 175.27C-48.4368 172.091 -44.8887 169.122 -41.1436 166.389L-41.3647 166.086C-37.6387 163.368 -33.7185 160.882 -29.6217 158.655L-29.4425 158.984C-25.4149 156.794 -21.216 154.854 -16.8626 153.189L-16.9966 152.839C-12.7142 151.2 -8.28302 149.827 -3.71886 148.74L-3.63199 149.104C-1.39847 148.573 0.867056 148.11 3.16269 147.718C5.45832 147.327 7.74927 147.014 10.0329 146.776L9.99401 146.403C14.6605 145.916 19.2967 145.745 23.8799 145.872L23.8695 146.247C28.5288 146.376 33.1332 146.816 37.6588 147.548L37.7187 147.178C42.3221 147.922 46.8444 148.969 51.2606 150.3L51.1524 150.659C55.5911 151.997 59.9223 153.623 64.1206 155.519L64.2749 155.177C68.5072 157.089 72.6047 159.273 76.5416 161.713L76.344 162.032C80.2708 164.466 84.0371 167.154 87.6171 170.078L87.8544 169.787C91.4393 172.716 94.8379 175.88 98.0246 179.262L97.7516 179.519C100.909 182.87 103.858 186.435 106.572 190.196L106.876 189.977C109.574 193.715 112.041 197.647 114.253 201.755L113.923 201.932C116.096 205.968 118.022 210.173 119.677 214.532L120.027 214.399C121.655 218.685 123.021 223.118 124.104 227.684L123.739 227.771C124.269 230.005 124.731 232.271 125.122 234.566C125.513 236.862 125.828 239.153 126.068 241.436L126.441 241.397C126.931 246.064 127.111 250.7 126.995 255.283L126.62 255.273C126.503 259.934 126.079 264.54 125.365 269.067L125.735 269.126C125.009 273.734 123.983 278.261 122.676 282.682L122.317 282.576C121.002 287.024 119.4 291.365 117.531 295.572L117.874 295.725C115.987 299.971 113.828 304.082 111.416 308.033L111.096 307.837C108.687 311.782 106.023 315.566 103.124 319.163L103.416 319.398C100.51 323.004 97.3674 326.423 94.0072 329.629L93.7483 329.357C90.4152 332.537 86.867 335.506 83.122 338.238L83.343 338.541C79.6171 341.26 75.6968 343.746 71.6 345.973L71.4209 345.644C67.3933 347.834 63.1943 349.773 58.841 351.439L58.975 351.789C54.6926 353.427 50.2614 354.801 45.6972 355.888L45.6104 355.523C43.3768 356.055 41.1113 356.518 38.8157 356.909C36.52 357.301 34.2291 357.614 31.9455 357.852L31.9844 358.225C27.3179 358.712 22.6817 358.883 18.0984 358.756L18.1089 358.381C13.4496 358.252 8.84519 357.812 4.31954 357.08L4.25965 357.45C-0.343775 356.705 -4.86603 355.659 -9.2822 354.328L-9.17399 353.969C-13.6127 352.631 -17.944 351.005 -22.1422 349.109L-22.2966 349.451C-26.5288 347.539 -30.6264 345.354 -34.5632 342.915L-34.3657 342.596C-38.2924 340.162 -42.0588 337.474 -45.6388 334.55L-45.876 334.84C-49.4609 331.912 -52.8596 328.748 -56.0462 325.366L-55.7733 325.109C-58.9309 321.758 -61.8795 318.193 -64.5938 314.431L-64.8979 314.651C-67.5957 310.912 -70.0629 306.981 -72.2747 302.873L-71.9446 302.695C-74.1176 298.66 -76.0434 294.455 -77.6983 290.096L-78.0489 290.229Z" stroke="#BDDEFF" stroke-width="0.75" stroke-dasharray="15 15"/>
<path d="M95.1399 596.525C93.7493 594.305 92.6293 591.88 91.834 589.287L92.1925 589.177C91.8118 587.937 91.5064 586.657 91.2824 585.343C91.0584 584.028 90.9227 582.72 90.8709 581.423L90.4962 581.438C90.3879 578.729 90.6412 576.069 91.2179 573.514L91.5837 573.596C92.1673 571.01 93.086 568.532 94.2994 566.22L93.9674 566.045C95.2054 563.686 96.7464 561.497 98.548 559.538L98.8241 559.791C100.594 557.867 102.618 556.168 104.855 554.752L104.655 554.435C106.87 553.033 109.292 551.905 111.881 551.106L111.992 551.464C113.232 551.081 114.511 550.775 115.825 550.551C117.139 550.327 118.448 550.192 119.745 550.143L119.73 549.768C122.439 549.664 125.097 549.927 127.652 550.516L127.567 550.881C130.148 551.476 132.62 552.409 134.927 553.638L135.104 553.307C137.453 554.559 139.632 556.114 141.582 557.93L141.326 558.205C143.237 559.985 144.925 562.019 146.332 564.265L146.65 564.066C148.04 566.286 149.16 568.712 149.956 571.304L149.597 571.414C149.978 572.655 150.283 573.935 150.507 575.249C150.731 576.563 150.867 577.872 150.919 579.169L151.293 579.154C151.402 581.863 151.148 584.523 150.572 587.078L150.206 586.995C149.622 589.581 148.703 592.059 147.49 594.372L147.822 594.546C146.584 596.906 145.043 599.095 143.241 601.054L142.965 600.8C141.196 602.724 139.172 604.424 136.934 605.84L137.135 606.157C134.92 607.559 132.498 608.687 129.908 609.486L129.798 609.128C128.557 609.51 127.278 609.817 125.964 610.041C124.65 610.265 123.342 610.399 122.045 610.449L122.059 610.824C119.351 610.927 116.692 610.665 114.138 610.076L114.222 609.711C111.642 609.116 109.169 608.183 106.862 606.953L106.686 607.284C104.337 606.033 102.158 604.477 100.208 602.661L100.463 602.387C98.5526 600.607 96.8648 598.573 95.4577 596.326L95.1399 596.525Z" stroke="#BDDEFF" stroke-width="0.75" stroke-dasharray="9 9"/>
<path d="M256.944 711.314C255.553 709.094 254.433 706.669 253.638 704.077L253.996 703.967C253.616 702.726 253.31 701.446 253.086 700.132C252.862 698.818 252.726 697.509 252.675 696.212L252.3 696.227C252.192 693.518 252.445 690.858 253.022 688.303L253.387 688.385C253.971 685.799 254.89 683.321 256.103 681.009L255.771 680.834C257.009 678.475 258.55 676.286 260.352 674.327L260.628 674.58C262.397 672.656 264.422 670.957 266.659 669.541L266.459 669.224C268.674 667.822 271.095 666.694 273.685 665.895L273.796 666.253C275.036 665.87 276.315 665.564 277.629 665.34C278.943 665.116 280.251 664.981 281.548 664.932L281.534 664.557C284.242 664.453 286.901 664.716 289.455 665.305L289.371 665.67C291.951 666.265 294.424 667.198 296.731 668.427L296.908 668.096C299.256 669.348 301.436 670.903 303.385 672.719L303.13 672.994C305.041 674.774 306.728 676.808 308.136 679.054L308.453 678.855C309.844 681.075 310.964 683.501 311.759 686.093L311.401 686.203C311.781 687.444 312.087 688.724 312.311 690.038C312.535 691.352 312.671 692.661 312.722 693.958L313.097 693.943C313.205 696.652 312.952 699.312 312.375 701.867L312.01 701.784C311.426 704.37 310.507 706.848 309.294 709.161L309.626 709.335C308.388 711.695 306.847 713.884 305.045 715.843L304.769 715.589C302.999 717.513 300.975 719.213 298.738 720.629L298.938 720.946C296.723 722.348 294.302 723.476 291.712 724.275L291.601 723.917C290.361 724.299 289.082 724.606 287.768 724.83C286.454 725.054 285.145 725.188 283.849 725.238L283.863 725.613C281.155 725.716 278.496 725.454 275.942 724.865L276.026 724.5C273.446 723.905 270.973 722.972 268.666 721.742L268.489 722.073C266.141 720.822 263.961 719.267 262.012 717.45L262.267 717.176C260.356 715.396 258.669 713.362 257.261 711.115L256.944 711.314Z" stroke="#BDDEFF" stroke-width="0.75" stroke-dasharray="9 9"/>
<path d="M281.041 857.016C279.942 854.121 279.019 851.127 278.287 848.043L278.652 847.956C278.295 846.45 277.983 844.922 277.719 843.374C277.456 841.826 277.243 840.281 277.082 838.741L276.709 838.78C276.377 835.628 276.256 832.496 276.334 829.401L276.709 829.41C276.788 826.267 277.074 823.161 277.556 820.109L277.185 820.05C277.676 816.938 278.369 813.88 279.252 810.893L279.611 811C280.498 808 281.578 805.073 282.838 802.236L282.496 802.084C283.77 799.215 285.228 796.438 286.858 793.77L287.178 793.965C288.802 791.305 290.598 788.754 292.553 786.328L292.261 786.093C294.224 783.657 296.347 781.348 298.617 779.183L298.875 779.454C301.123 777.31 303.516 775.308 306.041 773.465L305.82 773.162C308.337 771.326 310.985 769.647 313.752 768.142L313.931 768.472C316.647 766.995 319.478 765.687 322.414 764.564L322.28 764.214C325.172 763.107 328.165 762.179 331.248 761.445L331.335 761.81C332.841 761.451 334.369 761.139 335.917 760.875C337.465 760.612 339.01 760.4 340.55 760.24L340.511 759.867C343.663 759.538 346.794 759.422 349.89 759.508L349.88 759.883C353.022 759.97 356.126 760.267 359.178 760.76L359.238 760.39C362.347 760.893 365.402 761.6 368.385 762.499L368.277 762.858C371.27 763.76 374.19 764.857 377.021 766.135L377.176 765.794C380.034 767.085 382.802 768.56 385.461 770.208L385.264 770.527C387.912 772.168 390.452 773.981 392.866 775.953L393.103 775.662C395.524 777.64 397.82 779.778 399.972 782.062L399.7 782.319C401.829 784.579 403.817 786.983 405.647 789.519L405.951 789.3C407.774 791.825 409.44 794.481 410.934 797.255L410.604 797.433C412.069 800.154 413.368 802.99 414.484 805.929L414.835 805.796C415.934 808.691 416.857 811.686 417.588 814.769L417.223 814.856C417.581 816.363 417.892 817.89 418.156 819.439C418.42 820.987 418.632 822.532 418.794 824.071L419.167 824.032C419.498 827.184 419.619 830.316 419.541 833.411L419.166 833.402C419.087 836.545 418.801 839.651 418.32 842.704L418.69 842.762C418.199 845.875 417.507 848.932 416.624 851.919L416.264 851.812C415.377 854.812 414.298 857.739 413.037 860.576L413.38 860.728C412.106 863.597 410.647 866.374 409.018 869.042L408.698 868.847C407.073 871.507 405.277 874.059 403.322 876.484L403.614 876.719C401.651 879.155 399.529 881.464 397.259 883.63L397 883.358C394.752 885.502 392.36 887.504 389.835 889.347L390.056 889.65C387.539 891.486 384.891 893.165 382.124 894.67L381.944 894.34C379.229 895.817 376.397 897.125 373.462 898.248L373.596 898.598C370.703 899.705 367.71 900.633 364.627 901.367L364.54 901.002C363.034 901.361 361.506 901.673 359.958 901.937C358.41 902.201 356.866 902.412 355.326 902.573L355.365 902.946C352.212 903.274 349.081 903.39 345.985 903.304L345.996 902.929C342.854 902.842 339.749 902.546 336.697 902.052L336.637 902.422C333.528 901.919 330.473 901.212 327.49 900.313L327.599 899.954C324.606 899.052 321.685 897.955 318.854 896.677L318.7 897.019C315.841 895.728 313.073 894.252 310.414 892.604L310.612 892.285C307.964 890.644 305.424 888.831 303.01 886.859L302.773 887.15C300.351 885.172 298.055 883.035 295.903 880.75L296.176 880.493C294.047 878.234 292.058 875.83 290.228 873.293L289.924 873.513C288.102 870.987 286.435 868.332 284.941 865.557L285.271 865.379C283.806 862.658 282.507 859.823 281.391 856.883L281.041 857.016Z" stroke="#BDDEFF" stroke-width="0.75" stroke-dasharray="9 9"/>
<path d="M288.572 857.108C287.303 854.123 286.252 851.008 285.441 847.779L285.805 847.688C285.411 846.116 285.074 844.517 284.797 842.893C284.52 841.268 284.308 839.648 284.16 838.035L283.786 838.069C283.481 834.754 283.441 831.466 283.65 828.23L284.025 828.254C284.237 824.966 284.708 821.731 285.421 818.574L285.055 818.491C285.782 815.269 286.759 812.127 287.968 809.091L288.316 809.23C289.528 806.188 290.973 803.253 292.634 800.452L292.312 800.261C293.988 797.434 295.882 794.743 297.976 792.213L298.265 792.452C300.343 789.941 302.619 787.591 305.073 785.428L304.825 785.146C307.278 782.984 309.908 781.008 312.698 779.242L312.898 779.559C315.634 777.827 318.525 776.3 321.552 775.002L321.404 774.657C324.385 773.378 327.498 772.321 330.726 771.507L330.817 771.871C332.388 771.475 333.987 771.137 335.611 770.86C337.236 770.584 338.856 770.373 340.469 770.226L340.435 769.852C343.751 769.551 347.038 769.518 350.274 769.736L350.249 770.111C353.535 770.333 356.768 770.817 359.923 771.544L360.007 771.179C363.225 771.921 366.361 772.915 369.391 774.142L369.251 774.49C372.283 775.718 375.209 777.182 378.001 778.862L378.195 778.541C381.008 780.234 383.687 782.146 386.205 784.258L385.964 784.545C388.459 786.638 390.795 788.929 392.946 791.398L393.229 791.152C395.375 793.615 397.337 796.256 399.091 799.056L398.773 799.255C400.491 801.998 402.007 804.894 403.297 807.926L403.642 807.78C404.911 810.764 405.963 813.879 406.773 817.108L406.409 817.199C406.803 818.771 407.14 820.37 407.417 821.994C407.694 823.619 407.906 825.239 408.054 826.852L408.428 826.818C408.733 830.134 408.773 833.421 408.564 836.657L408.189 836.633C407.977 839.921 407.506 843.156 406.793 846.313L407.159 846.396C406.432 849.618 405.455 852.76 404.246 855.796L403.898 855.657C402.686 858.699 401.241 861.634 399.58 864.435L399.902 864.627C398.226 867.453 396.332 870.144 394.238 872.674L393.949 872.435C391.871 874.946 389.596 877.296 387.141 879.46L387.389 879.741C384.936 881.903 382.306 883.88 379.516 885.645L379.316 885.328C376.58 887.06 373.689 888.587 370.662 889.886L370.81 890.23C367.829 891.509 364.717 892.566 361.488 893.38L361.397 893.016C359.826 893.412 358.227 893.75 356.603 894.027C354.979 894.303 353.358 894.514 351.745 894.661L351.779 895.035C348.464 895.336 345.176 895.37 341.94 895.151L341.965 894.776C338.679 894.554 335.446 894.07 332.291 893.343L332.207 893.708C328.99 892.966 325.853 891.973 322.823 890.745L322.963 890.398C319.931 889.169 317.005 887.705 314.213 886.025L314.019 886.346C311.206 884.653 308.527 882.741 306.009 880.629L306.25 880.342C303.755 878.249 301.419 875.958 299.268 873.489L298.985 873.736C296.839 871.272 294.877 868.631 293.123 865.832L293.441 865.632C291.723 862.889 290.207 859.993 288.917 856.961L288.572 857.108Z" stroke="#BDDEFF" stroke-width="0.75" stroke-dasharray="9 9"/>
<path d="M298.365 856.586C297.314 854.117 296.445 851.54 295.774 848.867L296.138 848.776C295.812 847.477 295.533 846.156 295.305 844.813C295.076 843.471 294.901 842.132 294.778 840.799L294.405 840.833C294.152 838.089 294.119 835.369 294.292 832.692L294.666 832.716C294.842 829.998 295.231 827.325 295.82 824.715L295.454 824.633C296.056 821.967 296.865 819.367 297.865 816.855L298.213 816.994C299.214 814.48 300.409 812.054 301.782 809.739L301.459 809.548C302.846 807.209 304.414 804.982 306.146 802.889L306.435 803.128C308.152 801.053 310.033 799.111 312.061 797.323L311.813 797.041C313.843 795.253 316.019 793.617 318.328 792.156L318.528 792.473C320.789 791.042 323.178 789.779 325.679 788.707L325.532 788.362C327.998 787.304 330.574 786.429 333.245 785.756L333.337 786.119C334.635 785.792 335.956 785.513 337.299 785.284C338.641 785.056 339.98 784.881 341.313 784.76L341.279 784.386C344.023 784.137 346.743 784.109 349.421 784.29L349.395 784.665C352.111 784.848 354.783 785.248 357.39 785.849L357.475 785.484C360.137 786.098 362.732 786.92 365.239 787.936L365.099 788.283C367.605 789.299 370.023 790.508 372.33 791.897L372.524 791.576C374.852 792.977 377.068 794.559 379.152 796.306L378.911 796.594C380.973 798.323 382.904 800.216 384.681 802.257L384.964 802.011C386.74 804.049 388.364 806.234 389.814 808.551L389.497 808.75C390.917 811.017 392.169 813.41 393.235 815.916L393.58 815.77C394.631 818.239 395.501 820.816 396.171 823.489L395.807 823.58C396.133 824.879 396.412 826.2 396.64 827.543C396.869 828.885 397.044 830.224 397.167 831.557L397.54 831.523C397.793 834.267 397.826 836.987 397.653 839.665L397.279 839.64C397.103 842.358 396.714 845.031 396.125 847.641L396.491 847.723C395.889 850.389 395.081 852.989 394.08 855.501L393.732 855.362C392.731 857.876 391.536 860.302 390.163 862.617L390.486 862.808C389.099 865.147 387.532 867.374 385.799 869.467L385.51 869.228C383.793 871.303 381.912 873.245 379.884 875.033L380.132 875.315C378.102 877.104 375.926 878.739 373.617 880.2L373.417 879.883C371.156 881.314 368.767 882.577 366.266 883.649L366.413 883.994C363.947 885.052 361.371 885.927 358.7 886.6L358.608 886.237C357.31 886.564 355.989 886.843 354.647 887.072C353.304 887.301 351.965 887.475 350.632 887.596L350.666 887.97C347.922 888.219 345.202 888.247 342.524 888.066L342.55 887.691C339.834 887.508 337.162 887.108 334.555 886.507L334.471 886.872C331.809 886.258 329.213 885.436 326.706 884.42L326.846 884.073C324.34 883.057 321.922 881.848 319.615 880.459L319.421 880.78C317.093 879.379 314.877 877.797 312.793 876.05L313.034 875.762C310.972 874.033 309.041 872.14 307.264 870.099L306.981 870.345C305.206 868.307 303.582 866.122 302.131 863.805L302.448 863.606C301.029 861.339 299.776 858.946 298.71 856.44L298.365 856.586Z" stroke="#BDDEFF" stroke-width="0.75" stroke-dasharray="9 9"/>
<circle cx="20.7776" cy="252.823" r="8.9625" transform="rotate(170.328 20.7776 252.823)" stroke="#BDDEFF" stroke-width="1.5" stroke-dasharray="7.88 7.88"/>
<path d="M23.9048 269.602L18.1714 235.962" stroke="#BDDEFF" stroke-width="1.5" stroke-dasharray="4.72 4.72"/>
<path d="M4.94922 255.257L36.519 249.877" stroke="#BDDEFF" stroke-width="1.5" stroke-dasharray="4.72 4.72"/>
<circle cx="20.7772" cy="252.824" r="154.913" transform="rotate(170.328 20.7772 252.824)" stroke="#BDDEFF" stroke-width="1.5" stroke-dasharray="31.5 31.5"/>
<path d="M61.8078 402.941L56.9124 374.217L76.8641 366.29L90.2489 391.702M32.0494 408.012L27.154 379.289L4.92642 378.551L0.367996 406.489M-28.4404 399.948L-21.5089 371.872L-44.245 361.9L-56.6664 387.45M115.782 375.901L99.5124 352.311L117.012 334.683L138.231 354.5M155.36 330.011L131.35 314.132L140.596 293.384L167.599 301.829M175.086 272.327L147.06 267.251L147.016 243.559L175.966 241.554M170.938 212.055L143.515 218.326L134.755 195.055L159.871 183.052M142.945 157.178L120.221 173.833L104.58 157.059L122.062 134.641M98.053 118.762L84.0232 141.124L62.0693 132.617L69.6506 105.229M41.1451 98.9029L35.9809 126.412L14.662 126.317L9.76659 97.5937M-19.9918 102.665L-15.0964 131.389L-34.6188 138.71L-48.9505 113.992M-80.5932 370.492L-63.5023 347.341L-79.8807 329.362L-102.253 348.087M-118.358 322.34L-92.9892 308.696L-100.961 288.485L-129.166 293.293M-134.238 263.534L-106.032 258.727L-104.985 238.311L-133.573 233.064M-126.818 203.953L-99.2976 212.311L-90.1403 191.045L-114.105 175.424M-96.9762 150.936L-75.7577 170.753L-57.4377 153.251L-74.2689 129.491" stroke="#BDDEFF"/>
<path d="M-29.6346 318.039C-16.9183 329.435 -0.170529 335.37 16.5204 335.177C19.7595 335.14 22.1537 332.294 21.9415 329.062L18.5916 278.021C18.2595 272.961 12.1908 270.569 8.49584 274.041L-29.5398 309.781C-31.9432 312.039 -32.0905 315.838 -29.6346 318.039Z" stroke="#BDDEFF"/>
<path d="M55.5202 328.3C70.9041 320.89 82.7774 307.671 88.9643 292.168C90.1649 289.159 88.4476 285.861 85.3785 284.825L36.9166 268.457C32.113 266.835 27.5873 271.533 29.3879 276.272L47.9225 325.063C49.0937 328.146 52.549 329.731 55.5202 328.3Z" stroke="#BDDEFF"/>
<path d="M70.921 190.539C58.4545 178.87 41.8392 172.574 25.148 172.405C21.9088 172.372 19.4536 175.165 19.5957 178.401L21.8396 229.503C22.062 234.569 28.0775 237.092 31.8468 233.701L70.6475 198.793C73.0992 196.587 73.3287 192.793 70.921 190.539Z" stroke="#BDDEFF"/>
<path d="M-10.4084 177.973C-26.6076 183.373 -40.0611 194.98 -48.1636 209.573C-49.736 212.405 -48.4507 215.895 -45.5379 217.312L0.457828 239.692C5.01703 241.91 10.1018 237.824 8.91673 232.894L-3.28242 182.147C-4.05326 178.941 -7.27976 176.931 -10.4084 177.973Z" stroke="#BDDEFF"/>
<path d="M-57.9228 240.722C-61.3874 257.442 -58.105 274.905 -49.553 289.239C-47.8933 292.021 -44.2303 292.662 -41.542 290.855L0.907073 262.315C5.11473 259.486 4.13417 253.037 -0.724158 251.586L-50.7353 236.655C-53.8953 235.712 -57.2537 237.493 -57.9228 240.722Z" stroke="#BDDEFF"/>
<path d="M99.7129 264.441C103.177 247.72 99.8951 230.258 91.343 215.923C89.6833 213.141 86.0203 212.501 83.3321 214.308L40.883 242.848C36.6753 245.677 37.6559 252.126 42.5142 253.576L92.5253 268.507C95.6854 269.451 99.0438 267.67 99.7129 264.441Z" stroke="#BDDEFF"/>
<path d="M-84 1032.82L-84 596.128M-48.2588 1013.43L-48.2588 533M-6.46903 641.76L-6.469 1082M18 939.903L18 562.791M5.76547 611.733L5.76549 829.252" stroke="#BDDEFF" stroke-width="0.5"/>
<path d="M1261 3116.82L1261 2680.13M1296.74 3097.43L1296.74 2617M1338.53 2725.76L1338.53 3166M1363 3023.9L1363 2646.79M1350.77 2695.73L1350.77 2913.25" stroke="#BDDEFF" stroke-width="0.5"/>
</svg>
