<svg width="1440" height="1597" viewBox="0 0 1440 1597" fill="none" xmlns="http://www.w3.org/2000/svg">
<path d="M-17.8633 759L369.336 759M-46 834L261.266 834M101.078 807.943L534 807.943" stroke="#BDDEFF" stroke-dasharray="12 12"/>
<path d="M1050.14 1L1437.34 0.999993M1022 76L1329.27 76M1169.08 49.9426L1602 49.9426" stroke="#BDDEFF" stroke-dasharray="12 12"/>
<path d="M-102.444 738L488.565 738M-76.205 795.817L574 795.817M426.808 863.418L-169 863.418M23.3096 903L533.682 903M467.446 883.209L173.062 883.209" stroke="#BDDEFF" stroke-width="0.5"/>
<circle cx="1034.16" cy="1028.17" r="13.125" transform="rotate(-99.6721 1034.16 1028.17)" stroke="#BDDEFF" stroke-width="1.5" stroke-dasharray="11.25 11.25"/>
<path d="M1010.2 1032.63L1058.25 1024.44" stroke="#BDDEFF" stroke-width="1.5" stroke-dasharray="6.75 6.75"/>
<path d="M1030.69 1005.56L1038.38 1050.66" stroke="#BDDEFF" stroke-width="1.5" stroke-dasharray="6.75 6.75"/>
<circle cx="1034.16" cy="1028.17" r="221.625" transform="rotate(-99.6721 1034.16 1028.17)" stroke="#BDDEFF" stroke-width="1.5" stroke-dasharray="45 45"/>
<path d="M819.712 1086.78L860.745 1079.79L872.07 1108.29L835.766 1127.41M812.467 1044.27L853.5 1037.27L854.555 1005.52L814.643 999.009M823.987 957.854L864.096 967.756L878.341 935.276L841.841 917.531M858.341 1163.89L892.04 1140.64L917.223 1165.64L888.913 1195.96M923.897 1220.43L946.582 1186.13L976.222 1199.33L964.157 1237.91M1006.3 1248.61L1013.55 1208.57L1047.4 1208.51L1050.26 1249.86M1092.41 1242.68L1083.45 1203.5L1116.69 1190.99L1133.84 1226.87M1170.8 1202.69L1147.01 1170.23L1170.97 1147.88L1203 1172.86M1225.68 1138.56L1193.74 1118.52L1205.89 1087.15L1245.01 1097.98M1254.05 1057.26L1214.75 1049.88L1214.89 1019.43L1255.92 1012.44M1248.68 969.924L1207.64 976.917L1197.18 949.028L1232.5 928.554M866.068 883.35L899.14 907.766L924.824 884.368L898.074 852.408M934.856 829.401L954.347 865.642L983.219 854.254L976.352 813.96M1018.86 806.715L1025.73 847.009L1054.9 848.505L1062.39 807.665M1103.98 817.315L1092.04 856.63L1122.42 869.712L1144.74 835.476M1179.72 859.946L1151.41 890.258L1176.41 916.429L1210.35 892.385" stroke="#BDDEFF" stroke-width="1.5"/>
<circle cx="1034.47" cy="1027.74" r="146.5" transform="rotate(-99.6721 1034.47 1027.74)" stroke="#BDDEFF"/>
<path d="M996.577 952.274C1001.49 949.834 1006.69 947.843 1012.15 946.362L1012.24 946.724C1014.89 946.005 1017.59 945.407 1020.35 944.937C1023.11 944.467 1025.86 944.135 1028.59 943.937L1028.57 943.563C1034.2 943.154 1039.77 943.309 1045.21 943.985L1045.17 944.357C1050.71 945.046 1056.13 946.278 1061.34 948.006L1061.46 947.65C1066.76 949.408 1071.86 951.678 1076.68 954.41L1076.49 954.737C1081.31 957.469 1085.85 960.667 1090.05 964.28L1090.29 963.995C1094.5 967.614 1098.35 971.647 1101.79 976.046L1101.49 976.277C1104.87 980.606 1107.85 985.291 1110.36 990.285L1110.69 990.117C1113.15 995.02 1115.16 1000.22 1116.64 1005.67L1116.28 1005.77C1117 1008.41 1117.6 1011.12 1118.07 1013.87C1118.54 1016.63 1118.87 1019.38 1119.07 1022.12L1119.44 1022.09C1119.84 1027.72 1119.67 1033.29 1118.98 1038.73L1118.61 1038.69C1117.9 1044.23 1116.64 1049.64 1114.88 1054.84L1115.24 1054.96C1113.45 1060.25 1111.15 1065.33 1108.38 1070.14L1108.06 1069.95C1105.3 1074.75 1102.07 1079.27 1098.43 1083.45L1098.71 1083.69C1095.07 1087.87 1091.01 1091.7 1086.59 1095.11L1086.36 1094.82C1082.02 1098.17 1077.32 1101.13 1072.31 1103.62L1072.48 1103.95C1067.57 1106.39 1062.36 1108.38 1056.91 1109.86L1056.81 1109.5C1054.17 1110.22 1051.46 1110.82 1048.7 1111.29C1045.94 1111.76 1043.2 1112.09 1040.46 1112.29L1040.49 1112.66C1034.85 1113.07 1029.28 1112.92 1023.84 1112.24L1023.89 1111.87C1018.34 1111.18 1012.93 1109.95 1007.71 1108.22L1007.6 1108.58C1002.29 1106.82 997.198 1104.55 992.378 1101.82L992.563 1101.49C987.743 1098.76 983.2 1095.56 979.005 1091.95L978.76 1092.23C974.559 1088.61 970.704 1084.58 967.267 1080.18L967.563 1079.95C964.179 1075.62 961.202 1070.93 958.698 1065.94L958.363 1066.11C955.904 1061.21 953.899 1056.01 952.411 1050.56L952.773 1050.46C952.052 1047.81 951.452 1045.11 950.982 1042.35C950.512 1039.59 950.182 1036.84 949.987 1034.11L949.613 1034.14C949.211 1028.5 949.381 1022.93 950.077 1017.49L950.449 1017.54C951.157 1012 952.415 1006.59 954.173 1001.38L953.817 1001.26C955.604 995.976 957.904 990.894 960.67 986.088L960.995 986.275C963.757 981.476 966.984 976.955 970.627 972.779L970.344 972.533C973.987 968.358 978.043 964.529 982.464 961.113L982.694 961.41C987.039 958.053 991.738 955.097 996.744 952.61L996.577 952.274Z" stroke="#BDDEFF" stroke-width="0.75" stroke-dasharray="15 15"/>
<path d="M1300.93 690.95C1305.21 689.323 1309.65 687.957 1314.21 686.874L1314.3 687.239C1316.53 686.709 1318.8 686.247 1321.1 685.855C1323.39 685.464 1325.68 685.15 1327.97 684.91L1327.93 684.537C1332.59 684.046 1337.23 683.867 1341.81 683.982L1341.8 684.357C1346.46 684.475 1351.07 684.899 1355.6 685.613L1355.66 685.242C1360.26 685.969 1364.79 686.994 1369.21 688.301L1369.11 688.661C1373.55 689.976 1377.89 691.577 1382.1 693.447L1382.25 693.104C1386.5 694.991 1390.61 697.149 1394.56 699.562L1394.37 699.882C1398.31 702.291 1402.1 704.954 1405.69 707.853L1405.93 707.561C1409.53 710.468 1412.95 713.61 1416.16 716.97L1415.89 717.229C1419.07 720.562 1422.04 724.111 1424.77 727.856L1425.07 727.635C1427.79 731.361 1430.28 735.281 1432.5 739.378L1432.17 739.557C1434.36 743.584 1436.3 747.783 1437.97 752.137L1438.32 752.003C1439.96 756.285 1441.33 760.716 1442.42 765.28L1442.05 765.367C1442.59 767.601 1443.05 769.866 1443.44 772.162C1443.83 774.458 1444.14 776.749 1444.38 779.032L1444.76 778.993C1445.24 783.66 1445.41 788.296 1445.29 792.879L1444.91 792.869C1444.78 797.528 1444.34 802.132 1443.61 806.658L1443.98 806.718C1443.24 811.321 1442.19 815.844 1440.86 820.26L1440.5 820.152C1439.16 824.59 1437.53 828.922 1435.64 833.12L1435.98 833.274C1434.07 837.506 1431.88 841.604 1429.44 845.541L1429.13 845.343C1426.69 849.27 1424 853.036 1421.08 856.616L1421.37 856.854C1418.44 860.439 1415.28 863.837 1411.9 867.024L1411.64 866.751C1408.29 869.908 1404.72 872.857 1400.96 875.571L1401.18 875.876C1397.44 878.573 1393.51 881.04 1389.4 883.252L1389.23 882.922C1385.19 885.095 1380.98 887.021 1376.63 888.676L1376.76 889.027C1372.47 890.654 1368.04 892.02 1363.47 893.103L1363.39 892.738C1361.15 893.268 1358.89 893.73 1356.59 894.121C1354.3 894.513 1352 894.827 1349.72 895.067L1349.76 895.44C1345.09 895.931 1340.46 896.11 1335.88 895.994L1335.88 895.62C1331.22 895.502 1326.62 895.078 1322.09 894.364L1322.03 894.735C1317.42 894.008 1312.9 892.983 1308.48 891.676L1308.58 891.316C1304.13 890.001 1299.79 888.4 1295.59 886.53L1295.43 886.873C1291.19 884.986 1287.08 882.828 1283.13 880.415L1283.32 880.095C1279.38 877.686 1275.59 875.023 1271.99 872.124L1271.76 872.416C1268.15 869.509 1264.73 866.367 1261.53 863.006L1261.8 862.748C1258.62 859.414 1255.65 855.866 1252.92 852.121L1252.62 852.342C1249.9 848.616 1247.41 844.696 1245.18 840.599L1245.51 840.42C1243.32 836.393 1241.38 832.194 1239.72 827.84L1239.37 827.974C1237.73 823.692 1236.36 819.261 1235.27 814.696L1235.63 814.61C1235.1 812.376 1234.64 810.111 1234.25 807.815C1233.86 805.519 1233.54 803.228 1233.31 800.945L1232.93 800.984C1232.45 796.317 1232.27 791.681 1232.4 787.098L1232.78 787.108C1232.91 782.449 1233.35 777.844 1234.08 773.319L1233.71 773.259C1234.45 768.655 1235.5 764.133 1236.83 759.717L1237.19 759.825C1238.53 755.387 1240.15 751.055 1242.05 746.857L1241.71 746.703C1243.62 742.47 1245.8 738.373 1248.24 734.436L1248.56 734.634C1251 730.707 1253.68 726.94 1256.61 723.361L1256.32 723.123C1259.25 719.538 1262.41 716.14 1265.79 712.953L1266.05 713.226C1269.4 710.068 1272.96 707.12 1276.73 704.405L1276.51 704.101C1280.25 701.404 1284.18 698.936 1288.28 696.725L1288.46 697.055C1292.5 694.882 1296.7 692.956 1301.06 691.301L1300.93 690.95Z" stroke="#BDDEFF" stroke-width="0.75" stroke-dasharray="15 15"/>
<path d="M994.633 864.139C996.853 862.749 999.278 861.629 1001.87 860.833L1001.98 861.192C1003.22 860.811 1004.5 860.506 1005.82 860.282C1007.13 860.058 1008.44 859.922 1009.73 859.87L1009.72 859.495C1012.43 859.387 1015.09 859.64 1017.64 860.217L1017.56 860.583C1020.15 861.167 1022.63 862.085 1024.94 863.299L1025.11 862.967C1027.47 864.205 1029.66 865.746 1031.62 867.547L1031.37 867.823C1033.29 869.593 1034.99 871.617 1036.41 873.855L1036.72 873.654C1038.12 875.869 1039.25 878.291 1040.05 880.881L1039.69 880.991C1040.08 882.231 1040.38 883.51 1040.61 884.824C1040.83 886.139 1040.97 887.447 1041.02 888.744L1041.39 888.73C1041.49 891.438 1041.23 894.096 1040.64 896.651L1040.28 896.567C1039.68 899.147 1038.75 901.62 1037.52 903.927L1037.85 904.103C1036.6 906.452 1035.04 908.631 1033.23 910.581L1032.95 910.325C1031.17 912.236 1029.14 913.924 1026.89 915.331L1027.09 915.649C1024.87 917.04 1022.45 918.16 1019.85 918.955L1019.74 918.596C1018.5 918.977 1017.22 919.282 1015.91 919.506C1014.59 919.73 1013.29 919.866 1011.99 919.918L1012 920.293C1009.29 920.401 1006.64 920.148 1004.08 919.571L1004.16 919.205C1001.58 918.622 999.099 917.703 996.786 916.489L996.612 916.821C994.252 915.583 992.063 914.042 990.104 912.241L990.358 911.965C988.434 910.195 986.734 908.171 985.318 905.933L985.001 906.134C983.599 903.919 982.471 901.497 981.672 898.907L982.03 898.797C981.648 897.557 981.341 896.278 981.117 894.964C980.893 893.65 980.759 892.341 980.709 891.044L980.334 891.059C980.231 888.35 980.493 885.692 981.082 883.137L981.447 883.221C982.042 880.641 982.975 878.168 984.205 875.861L983.874 875.685C985.125 873.336 986.68 871.157 988.497 869.207L988.771 869.463C990.551 867.552 992.585 865.864 994.832 864.457L994.633 864.139Z" stroke="#BDDEFF" stroke-width="0.75" stroke-dasharray="9 9"/>
<path d="M879.843 1025.94C882.063 1024.55 884.489 1023.43 887.081 1022.64L887.191 1023C888.432 1022.61 889.711 1022.31 891.026 1022.09C892.34 1021.86 893.649 1021.73 894.945 1021.67L894.93 1021.3C897.64 1021.19 900.299 1021.44 902.855 1022.02L902.772 1022.39C905.358 1022.97 907.836 1023.89 910.149 1025.1L910.323 1024.77C912.683 1026.01 914.872 1027.55 916.831 1029.35L916.577 1029.63C918.501 1031.4 920.2 1033.42 921.617 1035.66L921.933 1035.46C923.335 1037.67 924.463 1040.09 925.263 1042.68L924.904 1042.79C925.287 1044.03 925.594 1045.31 925.818 1046.63C926.042 1047.94 926.176 1049.25 926.226 1050.55L926.6 1050.53C926.704 1053.24 926.442 1055.9 925.853 1058.45L925.487 1058.37C924.892 1060.95 923.96 1063.42 922.73 1065.73L923.061 1065.91C921.81 1068.26 920.254 1070.43 918.438 1072.38L918.164 1072.13C916.384 1074.04 914.35 1075.73 912.103 1077.13L912.302 1077.45C910.082 1078.84 907.657 1079.96 905.064 1080.76L904.954 1080.4C903.713 1080.78 902.434 1081.09 901.12 1081.31C899.805 1081.53 898.497 1081.67 897.2 1081.72L897.215 1082.1C894.505 1082.2 891.846 1081.95 889.29 1081.37L889.373 1081.01C886.787 1080.42 884.309 1079.51 881.996 1078.29L881.822 1078.62C879.463 1077.39 877.273 1075.85 875.314 1074.04L875.568 1073.77C873.644 1072 871.945 1069.97 870.529 1067.74L870.212 1067.94C868.81 1065.72 867.682 1063.3 866.882 1060.71L867.241 1060.6C866.858 1059.36 866.552 1058.08 866.328 1056.77C866.104 1055.45 865.969 1054.14 865.919 1052.85L865.545 1052.86C865.441 1050.15 865.703 1047.5 866.292 1044.94L866.658 1045.02C867.253 1042.44 868.186 1039.97 869.415 1037.66L869.084 1037.49C870.336 1035.14 871.891 1032.96 873.707 1031.01L873.982 1031.27C875.762 1029.36 877.795 1027.67 880.042 1026.26L879.843 1025.94Z" stroke="#BDDEFF" stroke-width="0.75" stroke-dasharray="9 9"/>
<path d="M734.141 1050.04C737.036 1048.94 740.031 1048.02 743.115 1047.29L743.202 1047.65C744.708 1047.29 746.236 1046.98 747.784 1046.72C749.332 1046.45 750.877 1046.24 752.417 1046.08L752.378 1045.71C755.53 1045.38 758.661 1045.26 761.757 1045.33L761.747 1045.71C764.89 1045.79 767.996 1046.07 771.049 1046.55L771.107 1046.18C774.22 1046.67 777.278 1047.37 780.264 1048.25L780.158 1048.61C783.157 1049.5 786.084 1050.58 788.922 1051.84L789.074 1051.49C791.942 1052.77 794.719 1054.23 797.388 1055.86L797.192 1056.18C799.852 1057.8 802.404 1059.6 804.83 1061.55L805.065 1061.26C807.501 1063.22 809.81 1065.35 811.975 1067.62L811.704 1067.87C813.848 1070.12 815.85 1072.51 817.692 1075.04L817.995 1074.82C819.832 1077.34 821.511 1079.98 823.015 1082.75L822.686 1082.93C824.162 1085.65 825.47 1088.48 826.593 1091.41L826.944 1091.28C828.05 1094.17 828.978 1097.16 829.712 1100.25L829.348 1100.33C829.706 1101.84 830.018 1103.37 830.282 1104.92C830.546 1106.46 830.758 1108.01 830.918 1109.55L831.291 1109.51C831.62 1112.66 831.735 1115.79 831.649 1118.89L831.275 1118.88C831.187 1122.02 830.891 1125.13 830.397 1128.18L830.768 1128.24C830.264 1131.35 829.557 1134.4 828.658 1137.38L828.299 1137.28C827.397 1140.27 826.301 1143.19 825.022 1146.02L825.364 1146.17C824.073 1149.03 822.597 1151.8 820.949 1154.46L820.63 1154.26C818.989 1156.91 817.177 1159.45 815.205 1161.86L815.495 1162.1C813.517 1164.52 811.38 1166.82 809.096 1168.97L808.839 1168.7C806.579 1170.83 804.175 1172.82 801.639 1174.65L801.858 1174.95C799.333 1176.77 796.677 1178.44 793.903 1179.93L793.725 1179.6C791.004 1181.07 788.168 1182.37 785.229 1183.48L785.362 1183.83C782.467 1184.93 779.472 1185.86 776.388 1186.59L776.302 1186.22C774.795 1186.58 773.267 1186.89 771.719 1187.15C770.171 1187.42 768.626 1187.63 767.086 1187.79L767.126 1188.17C763.973 1188.5 760.842 1188.62 757.746 1188.54L757.756 1188.17C754.613 1188.09 751.507 1187.8 748.454 1187.32L748.396 1187.69C745.283 1187.2 742.225 1186.51 739.239 1185.62L739.345 1185.26C736.346 1184.38 733.419 1183.3 730.582 1182.04L730.429 1182.38C727.561 1181.1 724.784 1179.65 722.116 1178.02L722.311 1177.7C719.651 1176.07 717.099 1174.28 714.674 1172.32L714.438 1172.61C712.003 1170.65 709.693 1168.53 707.528 1166.26L707.8 1166C705.655 1163.75 703.654 1161.36 701.811 1158.83L701.508 1159.05C699.672 1156.54 697.993 1153.89 696.488 1151.12L696.817 1150.94C695.341 1148.23 694.033 1145.4 692.91 1142.46L692.56 1142.59C691.453 1139.7 690.525 1136.71 689.791 1133.63L690.156 1133.54C689.797 1132.03 689.485 1130.51 689.221 1128.96C688.957 1127.41 688.746 1125.86 688.585 1124.32L688.212 1124.36C687.884 1121.21 687.768 1118.08 687.854 1114.98L688.229 1114.99C688.316 1111.85 688.612 1108.75 689.106 1105.7L688.736 1105.64C689.239 1102.53 689.946 1099.47 690.845 1096.49L691.204 1096.6C692.106 1093.6 693.202 1090.68 694.481 1087.85L694.139 1087.7C695.43 1084.84 696.906 1082.07 698.554 1079.41L698.873 1079.61C700.514 1076.96 702.326 1074.42 704.298 1072.01L704.008 1071.77C705.986 1069.35 708.123 1067.05 710.407 1064.9L710.665 1065.17C712.924 1063.05 715.328 1061.06 717.865 1059.23L717.645 1058.92C720.17 1057.1 722.826 1055.43 725.601 1053.94L725.778 1054.27C728.499 1052.8 731.335 1051.51 734.274 1050.39L734.141 1050.04Z" stroke="#BDDEFF" stroke-width="0.75" stroke-dasharray="9 9"/>
<path d="M734.05 1057.57C737.035 1056.3 740.15 1055.25 743.379 1054.44L743.47 1054.8C745.042 1054.41 746.641 1054.07 748.265 1053.8C749.889 1053.52 751.51 1053.31 753.123 1053.16L753.089 1052.79C756.404 1052.48 759.692 1052.44 762.928 1052.65L762.904 1053.02C766.192 1053.24 769.427 1053.71 772.584 1054.42L772.667 1054.05C775.889 1054.78 779.031 1055.76 782.067 1056.97L781.928 1057.32C784.97 1058.53 787.905 1059.97 790.706 1061.63L790.897 1061.31C793.724 1062.99 796.415 1064.88 798.945 1066.98L798.706 1067.26C801.216 1069.34 803.567 1071.62 805.73 1074.07L806.012 1073.82C808.174 1076.28 810.15 1078.91 811.916 1081.7L811.599 1081.9C813.331 1084.63 814.858 1087.52 816.156 1090.55L816.501 1090.4C817.78 1093.38 818.837 1096.5 819.651 1099.72L819.287 1099.82C819.683 1101.39 820.021 1102.99 820.298 1104.61C820.574 1106.23 820.785 1107.85 820.932 1109.47L821.305 1109.43C821.607 1112.75 821.64 1116.04 821.421 1119.27L821.047 1119.25C820.825 1122.53 820.341 1125.77 819.614 1128.92L819.979 1129.01C819.237 1132.22 818.243 1135.36 817.016 1138.39L816.668 1138.25C815.44 1141.28 813.976 1144.21 812.296 1147L812.617 1147.19C810.924 1150.01 809.012 1152.69 806.9 1155.2L806.613 1154.96C804.52 1157.46 802.229 1159.79 799.76 1161.94L800.006 1162.23C797.543 1164.37 794.902 1166.34 792.102 1168.09L791.903 1167.77C789.16 1169.49 786.264 1171.01 783.232 1172.3L783.378 1172.64C780.394 1173.91 777.279 1174.96 774.05 1175.77L773.959 1175.41C772.387 1175.8 770.788 1176.14 769.164 1176.42C767.539 1176.69 765.919 1176.9 764.306 1177.05L764.34 1177.43C761.024 1177.73 757.737 1177.77 754.501 1177.56L754.525 1177.19C751.237 1176.98 748.002 1176.5 744.844 1175.79L744.762 1176.16C741.54 1175.43 738.398 1174.45 735.362 1173.25L735.501 1172.9C732.459 1171.69 729.524 1170.24 726.723 1168.58L726.531 1168.9C723.705 1167.23 721.013 1165.33 718.484 1163.24L718.723 1162.95C716.212 1160.87 713.862 1158.59 711.698 1156.14L711.417 1156.39C709.255 1153.94 707.278 1151.31 705.513 1148.52L705.83 1148.31C704.098 1145.58 702.571 1142.69 701.272 1139.66L700.928 1139.81C699.649 1136.83 698.592 1133.72 697.778 1130.49L698.142 1130.4C697.746 1128.82 697.408 1127.23 697.131 1125.6C696.855 1123.98 696.644 1122.36 696.497 1120.74L696.123 1120.78C695.822 1117.46 695.788 1114.18 696.007 1110.94L696.381 1110.96C696.604 1107.68 697.087 1104.45 697.815 1101.29L697.45 1101.21C698.192 1097.99 699.185 1094.85 700.413 1091.82L700.76 1091.96C701.989 1088.93 703.453 1086 705.133 1083.21L704.812 1083.02C706.505 1080.2 708.417 1077.53 710.529 1075.01L710.816 1075.25C712.909 1072.75 715.2 1070.42 717.669 1068.27L717.422 1067.98C719.886 1065.84 722.527 1063.88 725.326 1062.12L725.526 1062.44C728.269 1060.72 731.165 1059.21 734.197 1057.92L734.05 1057.57Z" stroke="#BDDEFF" stroke-width="0.75" stroke-dasharray="9 9"/>
<path d="M734.571 1067.36C737.041 1066.31 739.618 1065.44 742.291 1064.77L742.382 1065.14C743.681 1064.81 745.002 1064.53 746.344 1064.3C747.687 1064.07 749.026 1063.9 750.359 1063.78L750.325 1063.4C753.069 1063.15 755.789 1063.12 758.466 1063.29L758.442 1063.67C761.16 1063.84 763.833 1064.23 766.443 1064.82L766.525 1064.45C769.191 1065.06 771.791 1065.86 774.303 1066.86L774.164 1067.21C776.678 1068.21 779.104 1069.41 781.419 1070.78L781.61 1070.46C783.949 1071.85 786.176 1073.41 788.269 1075.15L788.03 1075.43C790.105 1077.15 792.047 1079.03 793.835 1081.06L794.117 1080.81C795.905 1082.84 797.541 1085.02 799.002 1087.33L798.685 1087.53C800.116 1089.79 801.378 1092.18 802.451 1094.68L802.796 1094.53C803.854 1097 804.729 1099.57 805.402 1102.24L805.039 1102.34C805.366 1103.63 805.645 1104.96 805.874 1106.3C806.102 1107.64 806.277 1108.98 806.398 1110.31L806.772 1110.28C807.021 1113.02 807.049 1115.74 806.867 1118.42L806.493 1118.39C806.31 1121.11 805.91 1123.78 805.309 1126.39L805.674 1126.47C805.06 1129.14 804.238 1131.73 803.222 1134.24L802.875 1134.1C801.859 1136.6 800.65 1139.02 799.261 1141.33L799.582 1141.52C798.181 1143.85 796.599 1146.07 794.851 1148.15L794.564 1147.91C792.834 1149.97 790.942 1151.9 788.901 1153.68L789.147 1153.96C787.109 1155.74 784.924 1157.36 782.607 1158.81L782.408 1158.5C780.141 1159.92 777.748 1161.17 775.242 1162.23L775.388 1162.58C772.919 1163.63 770.342 1164.5 767.669 1165.17L767.578 1164.81C766.279 1165.13 764.958 1165.41 763.615 1165.64C762.273 1165.87 760.934 1166.04 759.6 1166.17L759.635 1166.54C756.891 1166.79 754.171 1166.82 751.493 1166.65L751.518 1166.28C748.8 1166.1 746.127 1165.71 743.517 1165.12L743.435 1165.49C740.769 1164.89 738.169 1164.08 735.657 1163.08L735.796 1162.73C733.282 1161.73 730.856 1160.54 728.541 1159.16L728.35 1159.48C726.011 1158.1 723.784 1156.53 721.691 1154.8L721.93 1154.51C719.855 1152.79 717.913 1150.91 716.125 1148.88L715.843 1149.13C714.054 1147.1 712.419 1144.92 710.958 1142.62L711.275 1142.42C709.844 1140.15 708.581 1137.77 707.509 1135.26L707.164 1135.41C706.106 1132.95 705.231 1130.37 704.558 1127.7L704.921 1127.61C704.594 1126.31 704.315 1124.99 704.086 1123.65C703.857 1122.3 703.683 1120.96 703.562 1119.63L703.188 1119.66C702.939 1116.92 702.911 1114.2 703.092 1111.52L703.467 1111.55C703.65 1108.83 704.05 1106.16 704.651 1103.55L704.286 1103.47C704.9 1100.81 705.722 1098.21 706.738 1095.7L707.085 1095.85C708.101 1093.34 709.31 1090.92 710.699 1088.61L710.378 1088.42C711.779 1086.09 713.361 1083.88 715.108 1081.79L715.396 1082.03C717.125 1079.97 719.018 1078.04 721.059 1076.26L720.812 1075.98C722.851 1074.2 725.036 1072.58 727.353 1071.13L727.552 1071.45C729.819 1070.03 732.212 1068.77 734.718 1067.71L734.571 1067.36Z" stroke="#BDDEFF" stroke-width="0.75" stroke-dasharray="9 9"/>
<circle cx="1338.33" cy="789.776" r="8.9625" transform="rotate(-99.6721 1338.33 789.776)" stroke="#BDDEFF" stroke-width="1.5" stroke-dasharray="7.88 7.88"/>
<path d="M1321.56 792.904L1355.2 787.17" stroke="#BDDEFF" stroke-width="1.5" stroke-dasharray="4.72 4.72"/>
<path d="M1335.9 773.948L1341.28 805.518" stroke="#BDDEFF" stroke-width="1.5" stroke-dasharray="4.72 4.72"/>
<circle cx="1338.33" cy="789.776" r="154.913" transform="rotate(-99.6721 1338.33 789.776)" stroke="#BDDEFF" stroke-width="1.5" stroke-dasharray="31.5 31.5"/>
<path d="M1188.22 830.807L1216.94 825.911L1224.87 845.863L1199.46 859.248M1183.15 801.048L1211.87 796.153L1212.61 773.925L1184.67 769.367M1191.21 740.559L1219.29 747.49L1229.26 724.754L1203.71 712.333M1215.26 884.781L1238.85 868.511L1256.47 886.011L1236.66 907.23M1261.15 924.359L1277.03 900.35L1297.77 909.595L1289.33 936.598M1318.83 944.085L1323.91 916.059L1347.6 916.015L1349.6 944.965M1379.1 939.937L1372.83 912.514L1396.1 903.754L1408.11 928.87M1433.98 911.944L1417.33 889.22L1434.1 873.579L1456.52 891.061M1472.4 867.052L1450.03 853.022L1458.54 831.068L1485.93 838.65M1492.25 810.144L1464.75 804.98L1464.84 783.661L1493.56 778.766M1488.49 749.007L1459.77 753.903L1452.45 734.38L1477.17 720.049M1220.67 688.406L1243.82 705.497L1261.8 689.118L1243.07 666.746M1268.82 650.641L1282.46 676.01L1302.67 668.038L1297.87 639.833M1327.62 634.761L1332.43 662.967L1352.85 664.014L1358.09 635.426M1387.2 642.181L1378.85 669.701L1400.11 678.859L1415.73 654.894M1440.22 672.023L1420.41 693.241L1437.91 711.561L1461.67 694.73" stroke="#BDDEFF"/>
<path d="M1273.12 739.365C1261.72 752.081 1255.79 768.829 1255.98 785.52C1256.02 788.759 1258.86 791.153 1262.1 790.941L1313.14 787.591C1318.2 787.259 1320.59 781.19 1317.12 777.495L1281.38 739.459C1279.12 737.056 1275.32 736.909 1273.12 739.365Z" stroke="#BDDEFF"/>
<path d="M1262.86 824.519C1270.27 839.903 1283.49 851.776 1298.99 857.963C1302 859.164 1305.3 857.447 1306.33 854.378L1322.7 805.916C1324.32 801.112 1319.63 796.586 1314.89 798.387L1266.09 816.922C1263.01 818.093 1261.43 821.548 1262.86 824.519Z" stroke="#BDDEFF"/>
<path d="M1400.62 839.92C1412.29 827.454 1418.58 810.838 1418.75 794.147C1418.79 790.908 1415.99 788.453 1412.76 788.595L1361.65 790.839C1356.59 791.061 1354.07 797.077 1357.46 800.846L1392.36 839.647C1394.57 842.098 1398.37 842.328 1400.62 839.92Z" stroke="#BDDEFF"/>
<path d="M1413.18 758.591C1407.78 742.391 1396.18 728.938 1381.58 720.835C1378.75 719.263 1375.26 720.548 1373.85 723.461L1351.47 769.457C1349.25 774.016 1353.33 779.101 1358.26 777.916L1409.01 765.717C1412.22 764.946 1414.23 761.719 1413.18 758.591Z" stroke="#BDDEFF"/>
<path d="M1350.44 711.076C1333.72 707.612 1316.25 710.894 1301.92 719.446C1299.14 721.106 1298.5 724.769 1300.3 727.457L1328.84 769.906C1331.67 774.114 1338.12 773.133 1339.57 768.275L1354.5 718.264C1355.45 715.104 1353.67 711.746 1350.44 711.076Z" stroke="#BDDEFF"/>
<path d="M1326.72 868.712C1343.44 872.176 1360.9 868.894 1375.23 860.342C1378.02 858.682 1378.66 855.019 1376.85 852.331L1348.31 809.882C1345.48 805.674 1339.03 806.655 1337.58 811.513L1322.65 861.524C1321.71 864.684 1323.49 868.043 1326.72 868.712Z" stroke="#BDDEFF"/>
</svg>
