<svg width="301" height="126" viewBox="0 0 301 126" fill="none" xmlns="http://www.w3.org/2000/svg">
<path d="M26.6832 105.974C18.3791 103.252 11.1027 101.307 6.58248 101.584C-0.16788 101.997 -0.817284 104.484 5.89683 107.524C8.76729 108.823 7.20597 107.438 12.1275 110.892C12.1275 110.892 12.7078 111.124 13.6852 111.435L47.34 123.174L51.7427 122.046L32.7863 112.463L60.858 119.501L67.4044 119.101C56.2376 116.756 40.8331 110.671 27.7496 106.326L26.9678 105.778C26.8732 105.845 26.7783 105.91 26.6832 105.974Z" fill="black" fill-opacity="0.1"/>
<path fill-rule="evenodd" clip-rule="evenodd" d="M67.4735 47.7748C63.2871 37.8748 60.8049 36.3628 61.5129 28.9148L63.9849 27.2998C65.5381 30.6142 67.9032 36.7498 71.66 44.1753C76.6685 54.0748 78.8942 57.8729 83.9631 63.1753L81.4287 66.887C75.0926 61.5846 71.66 54.9748 67.4735 47.7748Z" fill="#9D6D4B"/>
<path d="M66.5113 12.5361C63.8246 9.41362 62.3354 9.76162 61.8099 9.76151C61.1046 9.76138 60.8695 9.99257 60.8695 9.99257C60.8695 9.99257 60.4306 9.68926 59.6941 9.76159C57.3433 9.99246 53.6846 10.871 52.6418 13.6917C47.9402 26.408 47.7052 32.188 47.7052 32.188C47.7052 32.188 51.2778 30.0585 53.8172 34.5H69.5674C69.5674 34.5 69.0972 15.5413 66.5113 12.5361Z" fill="#2B1603"/>
<ellipse rx="6.43292" ry="6.90346" transform="matrix(-0.999111 -0.0421654 -0.0983917 0.995148 60.3076 17.8497)" fill="#9D6D4B"/>
<line y1="-1.8" x2="9.45" y2="-1.8" transform="matrix(0 1 1 0 66.7754 107.451)" stroke="#8A5935" stroke-width="3.6"/>
<path d="M45.8438 108.801L43.0528 120.051" stroke="#9D6D4B" stroke-width="3.6"/>
<path d="M55.1465 123.65L45.8434 118.25H41.1919V122.879L55.1465 123.65Z" fill="white"/>
<path d="M69.9805 63L59.9805 67.7059L62.4195 111H69.0049L69.9805 63Z" fill="#1F3C5F"/>
<path d="M56.9805 69L44.9805 64C44.9805 64 45.5519 97.7904 40.9805 111.623C43.6052 112.022 48.0662 112 48.0662 112C51.4947 99.4849 56.9805 69 56.9805 69Z" fill="#1F3C5F"/>
<path d="M76.5439 122.75L66.9308 116.9H62.1242V121.915L76.5439 122.75Z" fill="white"/>
<path fill-rule="evenodd" clip-rule="evenodd" d="M44.9805 62.8477V71.0004L54.6898 70.3666L69.2539 67.8314V61.5264L44.9805 62.8477Z" fill="#1F3C5F"/>
<path d="M49.4805 33.501C52.8954 29.5574 60.4233 27.5318 63.9805 28.0013L70.4805 64.001L44.0909 65.6492C43.7352 56.7291 46.0655 37.4446 49.4805 33.501Z" fill="black"/>
<path fill-rule="evenodd" clip-rule="evenodd" d="M29.8744 27.123C36.1848 32.2774 44.6547 35.7674 53.3564 35.575L54.2882 30.4088C46.4317 30.6628 39.2149 27.6369 33.3291 22.7814C27.4701 17.9728 23.4226 11.5809 22.238 5.40856L17.4664 7.45214C18.8786 14.8097 23.537 21.9218 29.8744 27.123Z" fill="#9D6D4B"/>
<path fill-rule="evenodd" clip-rule="evenodd" d="M36.6566 32.3012C41.5554 35.0665 47.3095 36.6602 53.5176 36.4873L55.8919 29.9658C50.3912 30.1798 45.4602 28.8846 41.1936 26.482L36.6566 32.3012Z" fill="black"/>
<path d="M64.915 22.5605C62.1817 24.1027 61.3659 23.1959 59.6771 22.2347" stroke="black" stroke-width="1.20192"/>
<path d="M63.4556 18.1889C63.4099 18.8709 63.9042 20.2144 64.1571 20.8009L61.5381 20.6379" stroke="black" stroke-width="1.20192"/>
<path d="M62.8218 14.4825C62.8218 14.4825 62.3566 9.98242 60.496 10.2074C58.6354 10.4323 56.4135 10.7816 54.9142 12.2321C52.0148 17.1893 52.267 20.0503 51.6581 25.5078C51.3457 28.3074 50.9604 34.2821 50.9604 34.2821H57.9377C57.9377 34.2821 56.7748 31.5828 56.7748 24.608C56.7748 17.6333 57.0074 14.4452 60.0309 14.0321C61.1101 13.8847 62.8218 14.4825 62.8218 14.4825Z" fill="#2A1603"/>
<path d="M62.8222 14.4829C62.8222 14.4829 62.1245 12.008 61.6083 10.8219C61.0921 9.63591 63.5201 10.208 65.0968 12.1723C65.8126 13.0642 66.311 14.033 66.9574 15.772C67.6144 17.54 68.6366 34.2829 68.6366 34.2829H63.2874C63.2874 34.2829 63.9851 32.2579 65.6133 24.383C67.2415 16.5081 65.7434 13.8079 63.9851 13.8079C63.7525 13.8079 62.8222 14.4829 62.8222 14.4829Z" fill="#2A1603"/>
<path d="M71.9805 44.0633C71.9805 44.0633 64.4607 28 63.733 28C63.0053 28 61.7102 49.4105 66.1587 46.7753L71.9805 44.0633Z" fill="black" stroke="black" stroke-width="0.45"/>
<path d="M74.8213 28L96.8213 22L94.8213 15L74.8213 28Z" fill="#99CEFF"/>
<rect width="207" height="34" rx="17" transform="matrix(-1 0 0 1 300.981 0)" fill="#99CEFF"/>
<path d="M113.825 24.216C112.709 24.216 111.821 23.814 111.161 23.01C110.513 22.194 110.189 21.054 110.189 19.59C110.189 18.87 110.291 18.222 110.495 17.646C110.711 17.07 110.993 16.584 111.341 16.188C111.689 15.792 112.085 15.486 112.529 15.27C112.985 15.054 113.453 14.946 113.933 14.946C114.437 14.946 114.863 15.036 115.211 15.216C115.559 15.384 115.907 15.618 116.255 15.918L116.183 14.496V11.292H118.253V24H116.543L116.399 23.046H116.327C116.003 23.37 115.625 23.646 115.193 23.874C114.761 24.102 114.305 24.216 113.825 24.216ZM114.329 22.506C114.989 22.506 115.607 22.176 116.183 21.516V17.394C115.871 17.118 115.565 16.926 115.265 16.818C114.977 16.71 114.683 16.656 114.383 16.656C113.807 16.656 113.321 16.908 112.925 17.412C112.529 17.916 112.331 18.636 112.331 19.572C112.331 20.532 112.499 21.264 112.835 21.768C113.183 22.26 113.681 22.506 114.329 22.506ZM124.507 24.216C123.955 24.216 123.427 24.114 122.923 23.91C122.419 23.706 121.969 23.406 121.573 23.01C121.189 22.614 120.883 22.128 120.655 21.552C120.427 20.976 120.313 20.322 120.313 19.59C120.313 18.858 120.427 18.204 120.655 17.628C120.883 17.052 121.189 16.566 121.573 16.17C121.969 15.774 122.419 15.474 122.923 15.27C123.427 15.054 123.955 14.946 124.507 14.946C125.059 14.946 125.587 15.054 126.091 15.27C126.607 15.474 127.057 15.774 127.441 16.17C127.825 16.566 128.131 17.052 128.359 17.628C128.599 18.204 128.719 18.858 128.719 19.59C128.719 20.322 128.599 20.976 128.359 21.552C128.131 22.128 127.825 22.614 127.441 23.01C127.057 23.406 126.607 23.706 126.091 23.91C125.587 24.114 125.059 24.216 124.507 24.216ZM124.507 22.524C125.155 22.524 125.665 22.26 126.037 21.732C126.409 21.192 126.595 20.478 126.595 19.59C126.595 18.69 126.409 17.976 126.037 17.448C125.665 16.908 125.155 16.638 124.507 16.638C123.859 16.638 123.349 16.908 122.977 17.448C122.617 17.976 122.437 18.69 122.437 19.59C122.437 20.478 122.617 21.192 122.977 21.732C123.349 22.26 123.859 22.524 124.507 22.524ZM130.768 24V15.162H132.478L132.622 16.35H132.694C133.09 15.966 133.516 15.636 133.972 15.36C134.44 15.084 134.98 14.946 135.592 14.946C136.54 14.946 137.23 15.252 137.662 15.864C138.094 16.464 138.31 17.328 138.31 18.456V24H136.24V18.726C136.24 17.994 136.132 17.478 135.916 17.178C135.7 16.878 135.346 16.728 134.854 16.728C134.47 16.728 134.128 16.824 133.828 17.016C133.54 17.196 133.21 17.466 132.838 17.826V24H130.768ZM140.884 16.962L140.38 16.044C140.884 15.756 141.256 15.438 141.496 15.09C141.748 14.742 141.874 14.304 141.874 13.776C141.838 13.788 141.784 13.794 141.712 13.794C141.4 13.794 141.124 13.698 140.884 13.506C140.656 13.302 140.542 13.026 140.542 12.678C140.542 12.294 140.65 11.994 140.866 11.778C141.082 11.55 141.364 11.436 141.712 11.436C142.168 11.436 142.516 11.61 142.756 11.958C143.008 12.306 143.134 12.798 143.134 13.434C143.134 15.006 142.384 16.182 140.884 16.962ZM148.559 24.216C148.043 24.216 147.605 24.138 147.245 23.982C146.897 23.826 146.609 23.61 146.381 23.334C146.165 23.046 146.003 22.71 145.895 22.326C145.799 21.93 145.751 21.492 145.751 21.012V16.8H144.491V15.252L145.859 15.162L146.111 12.75H147.839V15.162H150.089V16.8H147.839V21.012C147.839 22.044 148.253 22.56 149.081 22.56C149.237 22.56 149.393 22.542 149.549 22.506C149.717 22.47 149.867 22.422 149.999 22.362L150.359 23.892C150.119 23.976 149.843 24.048 149.531 24.108C149.231 24.18 148.907 24.216 148.559 24.216ZM159.837 24.216C159.429 24.216 159.015 24.12 158.595 23.928C158.187 23.724 157.797 23.436 157.425 23.064H157.371L157.191 24H155.553V11.292H157.623V14.568L157.569 16.044C157.941 15.72 158.343 15.456 158.775 15.252C159.219 15.048 159.669 14.946 160.125 14.946C160.677 14.946 161.169 15.054 161.601 15.27C162.033 15.474 162.399 15.774 162.699 16.17C162.999 16.554 163.227 17.022 163.383 17.574C163.539 18.126 163.617 18.744 163.617 19.428C163.617 20.184 163.509 20.862 163.293 21.462C163.089 22.05 162.813 22.548 162.465 22.956C162.117 23.364 161.715 23.676 161.259 23.892C160.803 24.108 160.329 24.216 159.837 24.216ZM159.405 22.506C159.993 22.506 160.485 22.254 160.881 21.75C161.277 21.234 161.475 20.472 161.475 19.464C161.475 18.576 161.325 17.886 161.025 17.394C160.725 16.902 160.239 16.656 159.567 16.656C158.943 16.656 158.295 16.986 157.623 17.646V21.768C157.935 22.044 158.241 22.236 158.541 22.344C158.853 22.452 159.141 22.506 159.405 22.506ZM169.475 24.216C168.863 24.216 168.293 24.114 167.765 23.91C167.237 23.694 166.775 23.388 166.379 22.992C165.983 22.596 165.671 22.116 165.443 21.552C165.227 20.976 165.119 20.322 165.119 19.59C165.119 18.87 165.233 18.222 165.461 17.646C165.689 17.07 165.989 16.584 166.361 16.188C166.745 15.792 167.183 15.486 167.675 15.27C168.167 15.054 168.671 14.946 169.187 14.946C169.787 14.946 170.315 15.048 170.771 15.252C171.227 15.456 171.605 15.744 171.905 16.116C172.217 16.488 172.451 16.932 172.607 17.448C172.763 17.964 172.841 18.528 172.841 19.14C172.841 19.344 172.829 19.536 172.805 19.716C172.793 19.896 172.775 20.04 172.751 20.148H167.135C167.231 20.94 167.507 21.552 167.963 21.984C168.431 22.404 169.025 22.614 169.745 22.614C170.129 22.614 170.483 22.56 170.807 22.452C171.143 22.332 171.473 22.17 171.797 21.966L172.499 23.262C172.079 23.538 171.611 23.766 171.095 23.946C170.579 24.126 170.039 24.216 169.475 24.216ZM167.117 18.744H171.041C171.041 18.06 170.891 17.526 170.591 17.142C170.303 16.746 169.853 16.548 169.241 16.548C168.713 16.548 168.251 16.734 167.855 17.106C167.459 17.478 167.213 18.024 167.117 18.744ZM180.888 24.216C180.276 24.216 179.67 24.102 179.07 23.874C178.482 23.634 177.972 23.34 177.54 22.992L178.512 21.66C178.908 21.972 179.298 22.218 179.682 22.398C180.078 22.566 180.504 22.65 180.96 22.65C181.44 22.65 181.794 22.554 182.022 22.362C182.25 22.158 182.364 21.9 182.364 21.588C182.364 21.408 182.31 21.252 182.202 21.12C182.094 20.976 181.95 20.85 181.77 20.742C181.59 20.634 181.386 20.538 181.158 20.454C180.93 20.358 180.702 20.262 180.474 20.166C180.186 20.058 179.892 19.932 179.592 19.788C179.292 19.644 179.022 19.47 178.782 19.266C178.554 19.062 178.362 18.828 178.206 18.564C178.062 18.288 177.99 17.964 177.99 17.592C177.99 16.812 178.278 16.176 178.854 15.684C179.43 15.192 180.216 14.946 181.212 14.946C181.824 14.946 182.376 15.054 182.868 15.27C183.36 15.486 183.786 15.732 184.146 16.008L183.192 17.268C182.88 17.04 182.562 16.86 182.238 16.728C181.926 16.584 181.596 16.512 181.248 16.512C180.804 16.512 180.474 16.608 180.258 16.8C180.054 16.98 179.952 17.208 179.952 17.484C179.952 17.664 180 17.82 180.096 17.952C180.204 18.072 180.342 18.18 180.51 18.276C180.678 18.372 180.87 18.462 181.086 18.546C181.314 18.63 181.548 18.714 181.788 18.798C182.088 18.906 182.388 19.032 182.688 19.176C182.988 19.308 183.258 19.476 183.498 19.68C183.75 19.884 183.948 20.136 184.092 20.436C184.248 20.724 184.326 21.072 184.326 21.48C184.326 21.864 184.248 22.224 184.092 22.56C183.948 22.884 183.732 23.172 183.444 23.424C183.156 23.664 182.796 23.856 182.364 24C181.932 24.144 181.44 24.216 180.888 24.216ZM186.174 24V11.292H188.244V14.568L188.172 16.278C188.544 15.93 188.952 15.624 189.396 15.36C189.852 15.084 190.386 14.946 190.998 14.946C191.946 14.946 192.636 15.252 193.068 15.864C193.5 16.464 193.716 17.328 193.716 18.456V24H191.646V18.726C191.646 17.994 191.538 17.478 191.322 17.178C191.106 16.878 190.752 16.728 190.26 16.728C189.876 16.728 189.534 16.824 189.234 17.016C188.946 17.196 188.616 17.466 188.244 17.826V24H186.174ZM196.805 27.636C196.565 27.636 196.355 27.618 196.175 27.582C195.995 27.558 195.821 27.516 195.653 27.456L196.031 25.836C196.115 25.86 196.211 25.884 196.319 25.908C196.439 25.944 196.553 25.962 196.661 25.962C197.129 25.962 197.501 25.818 197.777 25.53C198.065 25.254 198.281 24.894 198.425 24.45L198.587 23.892L195.113 15.162H197.219L198.749 19.5C198.881 19.884 199.007 20.292 199.127 20.724C199.259 21.144 199.391 21.564 199.523 21.984H199.595C199.703 21.576 199.811 21.162 199.919 20.742C200.039 20.31 200.153 19.896 200.261 19.5L201.593 15.162H203.591L200.387 24.396C200.207 24.9 200.009 25.35 199.793 25.746C199.577 26.142 199.325 26.478 199.037 26.754C198.761 27.042 198.437 27.258 198.065 27.402C197.705 27.558 197.285 27.636 196.805 27.636ZM204.244 27.276L203.794 26.142C204.382 25.914 204.832 25.608 205.144 25.224C205.468 24.84 205.624 24.42 205.612 23.964H205.45C205.102 23.964 204.79 23.856 204.514 23.64C204.25 23.412 204.118 23.094 204.118 22.686C204.118 22.302 204.25 21.996 204.514 21.768C204.79 21.528 205.12 21.408 205.504 21.408C205.996 21.408 206.374 21.594 206.638 21.966C206.914 22.338 207.052 22.86 207.052 23.532C207.052 24.42 206.806 25.188 206.314 25.836C205.834 26.484 205.144 26.964 204.244 27.276ZM215.288 24.216C214.676 24.216 214.07 24.102 213.47 23.874C212.882 23.634 212.372 23.34 211.94 22.992L212.912 21.66C213.308 21.972 213.698 22.218 214.082 22.398C214.478 22.566 214.904 22.65 215.36 22.65C215.84 22.65 216.194 22.554 216.422 22.362C216.65 22.158 216.764 21.9 216.764 21.588C216.764 21.408 216.71 21.252 216.602 21.12C216.494 20.976 216.35 20.85 216.17 20.742C215.99 20.634 215.786 20.538 215.558 20.454C215.33 20.358 215.102 20.262 214.874 20.166C214.586 20.058 214.292 19.932 213.992 19.788C213.692 19.644 213.422 19.47 213.182 19.266C212.954 19.062 212.762 18.828 212.606 18.564C212.462 18.288 212.39 17.964 212.39 17.592C212.39 16.812 212.678 16.176 213.254 15.684C213.83 15.192 214.616 14.946 215.612 14.946C216.224 14.946 216.776 15.054 217.268 15.27C217.76 15.486 218.186 15.732 218.546 16.008L217.592 17.268C217.28 17.04 216.962 16.86 216.638 16.728C216.326 16.584 215.996 16.512 215.648 16.512C215.204 16.512 214.874 16.608 214.658 16.8C214.454 16.98 214.352 17.208 214.352 17.484C214.352 17.664 214.4 17.82 214.496 17.952C214.604 18.072 214.742 18.18 214.91 18.276C215.078 18.372 215.27 18.462 215.486 18.546C215.714 18.63 215.948 18.714 216.188 18.798C216.488 18.906 216.788 19.032 217.088 19.176C217.388 19.308 217.658 19.476 217.898 19.68C218.15 19.884 218.348 20.136 218.492 20.436C218.648 20.724 218.726 21.072 218.726 21.48C218.726 21.864 218.648 22.224 218.492 22.56C218.348 22.884 218.132 23.172 217.844 23.424C217.556 23.664 217.196 23.856 216.764 24C216.332 24.144 215.84 24.216 215.288 24.216ZM222.716 24.216C221.936 24.216 221.306 23.982 220.826 23.514C220.346 23.034 220.106 22.404 220.106 21.624C220.106 21.156 220.202 20.742 220.394 20.382C220.598 20.01 220.91 19.692 221.33 19.428C221.762 19.164 222.302 18.942 222.95 18.762C223.61 18.582 224.396 18.444 225.308 18.348C225.296 18.12 225.26 17.904 225.2 17.7C225.152 17.484 225.062 17.298 224.93 17.142C224.81 16.974 224.648 16.848 224.444 16.764C224.24 16.668 223.988 16.62 223.688 16.62C223.256 16.62 222.83 16.704 222.41 16.872C222.002 17.04 221.6 17.244 221.204 17.484L220.448 16.098C220.94 15.786 221.492 15.516 222.104 15.288C222.716 15.06 223.376 14.946 224.084 14.946C225.188 14.946 226.01 15.276 226.55 15.936C227.102 16.584 227.378 17.526 227.378 18.762V24H225.668L225.524 23.028H225.452C225.056 23.364 224.63 23.646 224.174 23.874C223.73 24.102 223.244 24.216 222.716 24.216ZM223.382 22.596C223.742 22.596 224.066 22.512 224.354 22.344C224.654 22.176 224.972 21.936 225.308 21.624V19.644C224.708 19.716 224.204 19.812 223.796 19.932C223.388 20.052 223.058 20.19 222.806 20.346C222.554 20.49 222.374 20.658 222.266 20.85C222.158 21.042 222.104 21.246 222.104 21.462C222.104 21.858 222.224 22.146 222.464 22.326C222.704 22.506 223.01 22.596 223.382 22.596ZM230.45 27.636C230.21 27.636 230 27.618 229.82 27.582C229.64 27.558 229.466 27.516 229.298 27.456L229.676 25.836C229.76 25.86 229.856 25.884 229.964 25.908C230.084 25.944 230.198 25.962 230.306 25.962C230.774 25.962 231.146 25.818 231.422 25.53C231.71 25.254 231.926 24.894 232.07 24.45L232.232 23.892L228.758 15.162H230.864L232.394 19.5C232.526 19.884 232.652 20.292 232.772 20.724C232.904 21.144 233.036 21.564 233.168 21.984H233.24C233.348 21.576 233.456 21.162 233.564 20.742C233.684 20.31 233.798 19.896 233.906 19.5L235.238 15.162H237.236L234.032 24.396C233.852 24.9 233.654 25.35 233.438 25.746C233.222 26.142 232.97 26.478 232.682 26.754C232.406 27.042 232.082 27.258 231.71 27.402C231.35 27.558 230.93 27.636 230.45 27.636ZM242.371 24V11.292H244.441V14.568L244.369 16.278C244.741 15.93 245.149 15.624 245.593 15.36C246.049 15.084 246.583 14.946 247.195 14.946C248.143 14.946 248.833 15.252 249.265 15.864C249.697 16.464 249.913 17.328 249.913 18.456V24H247.843V18.726C247.843 17.994 247.735 17.478 247.519 17.178C247.303 16.878 246.949 16.728 246.457 16.728C246.073 16.728 245.731 16.824 245.431 17.016C245.143 17.196 244.813 17.466 244.441 17.826V24H242.371ZM256.188 24.216C255.576 24.216 255.006 24.114 254.478 23.91C253.95 23.694 253.488 23.388 253.092 22.992C252.696 22.596 252.384 22.116 252.156 21.552C251.94 20.976 251.832 20.322 251.832 19.59C251.832 18.87 251.946 18.222 252.174 17.646C252.402 17.07 252.702 16.584 253.074 16.188C253.458 15.792 253.896 15.486 254.388 15.27C254.88 15.054 255.384 14.946 255.9 14.946C256.5 14.946 257.028 15.048 257.484 15.252C257.94 15.456 258.318 15.744 258.618 16.116C258.93 16.488 259.164 16.932 259.32 17.448C259.476 17.964 259.554 18.528 259.554 19.14C259.554 19.344 259.542 19.536 259.518 19.716C259.506 19.896 259.488 20.04 259.464 20.148H253.848C253.944 20.94 254.22 21.552 254.676 21.984C255.144 22.404 255.738 22.614 256.458 22.614C256.842 22.614 257.196 22.56 257.52 22.452C257.856 22.332 258.186 22.17 258.51 21.966L259.212 23.262C258.792 23.538 258.324 23.766 257.808 23.946C257.292 24.126 256.752 24.216 256.188 24.216ZM253.83 18.744H257.754C257.754 18.06 257.604 17.526 257.304 17.142C257.016 16.746 256.566 16.548 255.954 16.548C255.426 16.548 254.964 16.734 254.568 17.106C254.172 17.478 253.926 18.024 253.83 18.744ZM263.547 24.216C262.803 24.216 262.281 23.994 261.981 23.55C261.681 23.106 261.531 22.5 261.531 21.732V11.292H263.601V21.84C263.601 22.092 263.649 22.272 263.745 22.38C263.841 22.476 263.943 22.524 264.051 22.524C264.099 22.524 264.141 22.524 264.177 22.524C264.225 22.524 264.291 22.512 264.375 22.488L264.645 24.036C264.369 24.156 264.003 24.216 263.547 24.216ZM268.434 24.216C267.69 24.216 267.168 23.994 266.868 23.55C266.568 23.106 266.418 22.5 266.418 21.732V11.292H268.488V21.84C268.488 22.092 268.536 22.272 268.632 22.38C268.728 22.476 268.83 22.524 268.938 22.524C268.986 22.524 269.028 22.524 269.064 22.524C269.112 22.524 269.178 22.512 269.262 22.488L269.532 24.036C269.256 24.156 268.89 24.216 268.434 24.216ZM274.923 24.216C274.371 24.216 273.843 24.114 273.339 23.91C272.835 23.706 272.385 23.406 271.989 23.01C271.605 22.614 271.299 22.128 271.071 21.552C270.843 20.976 270.729 20.322 270.729 19.59C270.729 18.858 270.843 18.204 271.071 17.628C271.299 17.052 271.605 16.566 271.989 16.17C272.385 15.774 272.835 15.474 273.339 15.27C273.843 15.054 274.371 14.946 274.923 14.946C275.475 14.946 276.003 15.054 276.507 15.27C277.023 15.474 277.473 15.774 277.857 16.17C278.241 16.566 278.547 17.052 278.775 17.628C279.015 18.204 279.135 18.858 279.135 19.59C279.135 20.322 279.015 20.976 278.775 21.552C278.547 22.128 278.241 22.614 277.857 23.01C277.473 23.406 277.023 23.706 276.507 23.91C276.003 24.114 275.475 24.216 274.923 24.216ZM274.923 22.524C275.571 22.524 276.081 22.26 276.453 21.732C276.825 21.192 277.011 20.478 277.011 19.59C277.011 18.69 276.825 17.976 276.453 17.448C276.081 16.908 275.571 16.638 274.923 16.638C274.275 16.638 273.765 16.908 273.393 17.448C273.033 17.976 272.853 18.69 272.853 19.59C272.853 20.478 273.033 21.192 273.393 21.732C273.765 22.26 274.275 22.524 274.923 22.524ZM282.012 20.13L281.724 13.992L281.67 11.94H283.758L283.686 13.992L283.398 20.13H282.012ZM282.714 24.216C282.33 24.216 282.006 24.084 281.742 23.82C281.49 23.556 281.364 23.22 281.364 22.812C281.364 22.404 281.49 22.068 281.742 21.804C282.006 21.54 282.33 21.408 282.714 21.408C283.098 21.408 283.416 21.54 283.668 21.804C283.92 22.068 284.046 22.404 284.046 22.812C284.046 23.22 283.92 23.556 283.668 23.82C283.416 24.084 283.098 24.216 282.714 24.216Z" fill="#135FC5"/>
</svg>
