<svg width="45" height="44" viewBox="0 0 45 44" fill="none" xmlns="http://www.w3.org/2000/svg">
<path d="M22.5 0C10.0763 0 0 10.0995 0 22.5562C0 32.5222 6.44625 40.977 15.3881 43.9601C16.5112 44.1687 16.875 43.4695 16.875 42.8755V38.6763C10.6163 40.041 9.31312 36.0147 9.31312 36.0147C8.28938 33.4076 6.81375 32.714 6.81375 32.714C4.77188 31.3136 6.96938 31.3437 6.96938 31.3437C9.22875 31.5016 10.4175 33.6688 10.4175 33.6688C12.4238 37.1162 15.6806 36.1199 16.965 35.5429C17.1656 34.0861 17.7488 33.0899 18.3938 32.5279C13.3969 31.9546 8.14312 30.0204 8.14312 21.3795C8.14312 18.9152 9.0225 16.904 10.4606 15.325C10.2281 14.7555 9.4575 12.4604 10.68 9.35517C10.68 9.35517 12.57 8.74991 16.8694 11.6672C18.6637 11.1672 20.5875 10.9172 22.5 10.9078C24.4125 10.9172 26.3381 11.1672 28.1362 11.6672C32.4319 8.74991 34.3181 9.35517 34.3181 9.35517C35.5425 12.4623 34.7719 14.7574 34.5394 15.325C35.9831 16.904 36.855 18.9171 36.855 21.3795C36.855 30.0429 31.5919 31.9508 26.5819 32.5091C27.3881 33.2083 28.125 34.5805 28.125 36.6857V42.8755C28.125 43.4751 28.485 44.18 29.6269 43.9582C38.5612 40.9714 45 32.5185 45 22.5562C45 10.0995 34.9256 0 22.5 0Z" fill="#0573E8"/>
</svg>
