<svg width="51" height="50" viewBox="0 0 51 50" fill="none" xmlns="http://www.w3.org/2000/svg">
<g clip-path="url(#clip0)">
<path d="M50.9504 14.7001C50.8309 12.0434 50.3927 10.217 49.7649 8.63435C49.1173 6.95441 48.1211 5.45036 46.8158 4.20004C45.5404 2.93026 43.9962 1.94359 42.3025 1.31862C40.6789 0.703186 38.8256 0.273567 36.1158 0.156433C33.3857 0.0293789 32.519 0 25.5948 0C18.6706 0 17.8039 0.0293789 15.084 0.146513C12.3742 0.263647 10.5112 0.693648 8.89727 1.3087C7.18334 1.94359 5.64921 2.92034 4.37388 4.20004C3.07871 5.45036 2.07269 6.96433 1.43483 8.62481C0.807094 10.217 0.368882 12.0335 0.249405 14.6902C0.11981 17.3668 0.0898438 18.2165 0.0898438 25.0049C0.0898438 31.7933 0.11981 32.643 0.239287 35.3096C0.358764 37.9663 0.797364 39.7928 1.4251 41.3754C2.07269 43.0554 3.07871 44.5594 4.37388 45.8097C5.64921 47.0795 7.19346 48.0662 8.88715 48.6912C10.5112 49.3066 12.364 49.7362 15.0743 49.8533C17.7938 49.9709 18.6609 49.9999 25.5851 49.9999C32.5093 49.9999 33.376 49.9709 36.0959 49.8533C38.8058 49.7362 40.6687 49.3066 42.2826 48.6912C45.7101 47.392 48.4199 44.7353 49.7451 41.3754C50.3724 39.7832 50.811 37.9663 50.9305 35.3096C51.05 32.643 51.08 31.7933 51.08 25.0049C51.08 18.2165 51.0698 17.3668 50.9504 14.7001ZM46.3577 35.1143C46.248 37.5562 45.8296 38.8748 45.4809 39.7539C44.6239 41.9321 42.8606 43.6609 40.6388 44.501C39.7421 44.8429 38.3874 45.2531 35.9064 45.3603C33.2164 45.4778 32.4097 45.5068 25.6049 45.5068C18.8002 45.5068 17.9833 45.4778 15.3031 45.3603C12.8124 45.2531 11.4674 44.8429 10.5707 44.501C9.46507 44.1004 8.45866 43.4655 7.64179 42.6353C6.79494 41.8245 6.14735 40.8478 5.73872 39.7638C5.39002 38.8847 4.97166 37.5562 4.8623 35.1242C4.74243 32.487 4.71285 31.6957 4.71285 25.0243C4.71285 18.353 4.74243 17.5522 4.8623 14.9249C4.97166 12.483 5.39002 11.1644 5.73872 10.2853C6.14735 9.20094 6.79494 8.21465 7.6519 7.41341C8.47851 6.58317 9.4748 5.94828 10.5808 5.54804C11.4775 5.20617 12.8326 4.79601 15.3132 4.68842C18.0032 4.57128 18.8103 4.5419 25.6147 4.5419C32.4295 4.5419 33.2363 4.57128 35.9165 4.68842C38.4072 4.79601 39.7522 5.20617 40.6489 5.54804C41.7545 5.94828 42.7609 6.58317 43.5778 7.41341C44.4247 8.22419 45.0723 9.20094 45.4809 10.2853C45.8296 11.1644 46.248 12.4925 46.3577 14.9249C46.4772 17.5621 46.5071 18.353 46.5071 25.0243C46.5071 31.6957 46.4772 32.4771 46.3577 35.1143Z" fill="white"/>
<path d="M25.5944 12.1602C18.3615 12.1602 12.4932 17.9131 12.4932 25.0045C12.4932 32.0958 18.3615 37.8488 25.5944 37.8488C32.8276 37.8488 38.6955 32.0958 38.6955 25.0045C38.6955 17.9131 32.8276 12.1602 25.5944 12.1602ZM25.5944 33.3362C20.9021 33.3362 17.0959 29.6051 17.0959 25.0045C17.0959 20.4038 20.9021 16.6727 25.5944 16.6727C30.287 16.6727 34.0928 20.4038 34.0928 25.0045C34.0928 29.6051 30.287 33.3362 25.5944 33.3362Z" fill="white"/>
<path d="M42.2727 11.6529C42.2727 13.3088 40.9032 14.6514 39.2138 14.6514C37.5248 14.6514 36.1553 13.3088 36.1553 11.6529C36.1553 9.99657 37.5248 8.6543 39.2138 8.6543C40.9032 8.6543 42.2727 9.99657 42.2727 11.6529Z" fill="white"/>
</g>
<defs>
<clipPath id="clip0">
<rect width="51" height="50" fill="white"/>
</clipPath>
</defs>
</svg>
