<svg width="23" height="23" viewBox="0 0 23 23" fill="none" xmlns="http://www.w3.org/2000/svg">
<path d="M22.9371 6.76206C22.8832 5.53998 22.6856 4.69982 22.4025 3.9718C22.1104 3.19903 21.6611 2.50717 21.0725 1.93202C20.4973 1.34792 19.8009 0.89405 19.0371 0.606564C18.3048 0.323466 17.4691 0.125841 16.247 0.0719592C15.0158 0.0135143 14.6249 0 11.5022 0C8.37957 0 7.9887 0.0135143 6.76206 0.067396C5.53998 0.121278 4.69982 0.319078 3.97197 0.602001C3.19903 0.89405 2.50717 1.34336 1.93202 1.93202C1.34792 2.50717 0.894225 3.20359 0.606564 3.96741C0.323466 4.69982 0.125841 5.53542 0.0719592 6.7575C0.0135143 7.98871 0 8.37957 0 11.5022C0 14.6249 0.0135143 15.0158 0.067396 16.2424C0.121278 17.4645 0.319078 18.3047 0.602176 19.0327C0.894225 19.8055 1.34792 20.4973 1.93202 21.0725C2.50717 21.6566 3.20359 22.1104 3.96741 22.3979C4.69982 22.681 5.53542 22.8787 6.75767 22.9325C7.98414 22.9866 8.37518 22.9999 11.4979 22.9999C14.6205 22.9999 15.0114 22.9866 16.238 22.9325C17.4601 22.8787 18.3003 22.681 19.0281 22.3979C20.5738 21.8003 21.7959 20.5782 22.3935 19.0327C22.6765 18.3003 22.8743 17.4645 22.9281 16.2424C22.982 15.0158 22.9955 14.6249 22.9955 11.5022C22.9955 8.37957 22.991 7.98871 22.9371 6.76206ZM20.8659 16.1526C20.8164 17.2758 20.6277 17.8824 20.4705 18.2868C20.084 19.2888 19.2888 20.084 18.2868 20.4705C17.8824 20.6277 17.2714 20.8164 16.1526 20.8657C14.9394 20.9198 14.5756 20.9331 11.5068 20.9331C8.43801 20.9331 8.06961 20.9198 6.86087 20.8657C5.73761 20.8164 5.13104 20.6277 4.72667 20.4705C4.22804 20.2862 3.77417 19.9941 3.40578 19.6122C3.02387 19.2393 2.73182 18.79 2.54753 18.2913C2.39028 17.887 2.2016 17.2758 2.15228 16.1571C2.09823 14.944 2.08489 14.58 2.08489 11.5112C2.08489 8.4424 2.09823 8.074 2.15228 6.86544C2.2016 5.74217 2.39028 5.13561 2.54753 4.73123C2.73182 4.23243 3.02387 3.77874 3.41034 3.41017C3.78313 3.02826 4.23243 2.73621 4.73123 2.5521C5.13561 2.39484 5.74673 2.20617 6.86544 2.15667C8.07856 2.10279 8.44257 2.08928 11.5112 2.08928C14.5846 2.08928 14.9484 2.10279 16.1571 2.15667C17.2804 2.20617 17.887 2.39484 18.2913 2.5521C18.79 2.73621 19.2438 3.02826 19.6122 3.41017C19.9941 3.78313 20.2862 4.23243 20.4705 4.73123C20.6277 5.13561 20.8164 5.74656 20.8659 6.86544C20.9198 8.07857 20.9333 8.4424 20.9333 11.5112C20.9333 14.58 20.9198 14.9394 20.8659 16.1526Z" fill="white"/>
<path d="M11.5021 5.59375C8.24027 5.59375 5.59375 8.24009 5.59375 11.5021C5.59375 14.7642 8.24027 17.4105 11.5021 17.4105C14.7642 17.4105 17.4105 14.7642 17.4105 11.5021C17.4105 8.24009 14.7642 5.59375 11.5021 5.59375ZM11.5021 15.3347C9.386 15.3347 7.66951 13.6184 7.66951 11.5021C7.66951 9.38583 9.386 7.66951 11.5021 7.66951C13.6184 7.66951 15.3347 9.38583 15.3347 11.5021C15.3347 13.6184 13.6184 15.3347 11.5021 15.3347V15.3347Z" fill="white"/>
<path d="M19.0235 5.36029C19.0235 6.12201 18.4059 6.73963 17.644 6.73963C16.8823 6.73963 16.2646 6.12201 16.2646 5.36029C16.2646 4.5984 16.8823 3.98096 17.644 3.98096C18.4059 3.98096 19.0235 4.5984 19.0235 5.36029V5.36029Z" fill="white"/>
</svg>
