<svg width="52" height="49" viewBox="0 0 52 49" fill="none" xmlns="http://www.w3.org/2000/svg">
<g clip-path="url(#clip0)">
<path d="M51.9868 49.0003V48.9983H51.9998V31.0275C51.9998 22.2361 49.9913 15.4639 39.0842 15.4639C33.8409 15.4639 30.3222 18.1752 28.8857 20.7457H28.7341V16.2846H18.3926V48.9983H29.1609V32.7997C29.1609 28.5346 30.0189 24.4105 35.6241 24.4105C41.1469 24.4105 41.2292 29.2778 41.2292 33.0732V49.0003H51.9868Z" fill="white"/>
<path d="M0.858398 16.2861H11.6397V48.9997H0.858398V16.2861Z" fill="white"/>
<path d="M6.24433 0C2.79717 0 0 2.63579 0 5.88408C0 9.13238 2.79717 11.8233 6.24433 11.8233C9.6915 11.8233 12.4887 9.13238 12.4887 5.88408C12.4865 2.63579 9.68933 0 6.24433 0V0Z" fill="white"/>
</g>
<defs>
<clipPath id="clip0">
<rect width="52" height="49" fill="white"/>
</clipPath>
</defs>
</svg>
