<svg width="23" height="23" viewBox="0 0 23 23" fill="none" xmlns="http://www.w3.org/2000/svg">
<path d="M22.9942 22.9999V22.9989H23V14.5637C23 10.4371 22.1116 7.2583 17.2873 7.2583C14.9682 7.2583 13.4118 8.53097 12.7765 9.73751H12.7094V7.64355H8.13525V22.9989H12.8982V15.3955C12.8982 13.3936 13.2777 11.4577 15.7569 11.4577C18.1997 11.4577 18.2361 13.7424 18.2361 15.5239V22.9999H22.9942Z" fill="white"/>
<path d="M0.379395 7.64453H5.14806V22.9999H0.379395V7.64453Z" fill="white"/>
<path d="M2.76192 0C1.23721 0 0 1.23721 0 2.76192C0 4.28663 1.23721 5.54971 2.76192 5.54971C4.28662 5.54971 5.52383 4.28663 5.52383 2.76192C5.52287 1.23721 4.28567 0 2.76192 0V0Z" fill="white"/>
</svg>
