<svg width="140" height="27" viewBox="0 0 140 27" fill="none" xmlns="http://www.w3.org/2000/svg">
<path d="M36.4148 10.2174C37.3232 8.77761 38.6578 8.06229 40.4188 8.06229C42.1798 8.06229 43.635 8.66756 44.775 9.88728C45.915 11.0978 46.4897 12.666 46.4897 14.5828C46.4897 16.4995 45.915 18.0677 44.775 19.2966C43.635 20.5163 42.1891 21.1307 40.4559 21.1307C38.7227 21.1307 37.3695 20.3604 36.4148 18.8197V20.9473H33.1523V3.98126H36.4148V10.2174ZM42.1798 17.3248C42.8472 16.6554 43.1901 15.7383 43.1901 14.5736C43.1901 13.4089 42.8564 12.501 42.1798 11.8407C41.5125 11.1804 40.7154 10.8502 39.8071 10.8502C38.8988 10.8502 38.1017 11.1804 37.4344 11.8498C36.767 12.5193 36.4241 13.4272 36.4241 14.5919C36.4241 15.7566 36.7578 16.6645 37.4344 17.334C38.111 18.0035 38.8988 18.3336 39.8071 18.3336C40.7154 18.3336 41.5032 17.9943 42.1798 17.3248Z" fill="white"/>
<path d="M49.0664 20.9475V3.98145H52.3289V20.9475H49.0664Z" fill="white"/>
<path d="M64.6657 8.24579H67.9282V20.9474H64.6657V19.0215C63.8501 20.4155 62.5155 21.1125 60.6618 21.1125C59.2066 21.1125 58.0202 20.6356 57.0934 19.6818C56.1665 18.7281 55.7031 17.3983 55.7031 15.7017V8.25496H58.9471V15.2431C58.9471 16.2336 59.2066 17.0039 59.7071 17.5358C60.2169 18.0678 60.912 18.3429 61.7925 18.3429C62.673 18.3429 63.3682 18.0769 63.8872 17.5358C64.4062 17.0039 64.6657 16.2336 64.6657 15.2431V8.24579Z" fill="white"/>
<path d="M76.8255 21.1306C74.9533 21.1306 73.4332 20.5345 72.2654 19.3331C71.0883 18.1317 70.5044 16.5452 70.5044 14.5734C70.5044 12.6017 71.0976 11.0243 72.2747 9.84128C73.461 8.65824 74.9811 8.06213 76.8626 8.06213C78.7441 8.06213 80.2826 8.6399 81.4875 9.79542C82.6924 10.9509 83.2949 12.4916 83.2949 14.4175C83.2949 14.8577 83.2671 15.2704 83.2022 15.6556H73.841C73.9152 16.481 74.2303 17.1413 74.7679 17.6548C75.3055 18.1592 75.9913 18.4068 76.8255 18.4068C77.9563 18.4068 78.7904 17.9483 79.328 17.0312H82.85C82.4793 18.2418 81.7563 19.223 80.6997 19.9842C79.6338 20.7454 78.3455 21.1306 76.8255 21.1306ZM78.9758 11.5471C78.4011 11.0427 77.6967 10.795 76.8811 10.795C76.0655 10.795 75.3796 11.0518 74.8328 11.5471C74.2859 12.0514 73.9523 12.7209 73.8503 13.5646H79.9212C79.8656 12.7209 79.5504 12.0514 78.9758 11.5471Z" fill="white"/>
<path d="M89.1351 10.2173C90.0434 8.77746 91.378 8.06213 93.139 8.06213C94.9001 8.06213 96.3552 8.66741 97.4952 9.88713C98.6353 11.0977 99.2099 12.6659 99.2099 14.5826C99.2099 16.4993 98.6353 18.0675 97.4952 19.2964C96.3552 20.5161 94.9093 21.1306 93.1761 21.1306C91.4429 21.1306 90.0897 20.3602 89.1351 18.8195V26.9999H85.8726V8.24555H89.1351V10.2173ZM94.8908 17.3247C95.5581 16.6552 95.901 15.7381 95.901 14.5734C95.901 13.4087 95.5674 12.5008 94.8908 11.8405C94.2235 11.1802 93.4264 10.8501 92.5181 10.8501C91.6097 10.8501 90.8127 11.1802 90.1453 11.8497C89.478 12.5192 89.1351 13.4271 89.1351 14.5918C89.1351 15.7565 89.4687 16.6644 90.1453 17.3338C90.8219 18.0033 91.6097 18.3335 92.5181 18.3335C93.4264 18.3335 94.2235 17.9942 94.8908 17.3247Z" fill="white"/>
<path d="M105.048 8.24555V10.4924C105.91 8.86917 107.161 8.06213 108.801 8.06213V11.3636H107.986C107.013 11.3636 106.28 11.6021 105.78 12.0881C105.289 12.565 105.038 13.3996 105.038 14.5734V20.9472H101.776V8.24555H105.048Z" fill="white"/>
<path d="M114.734 5.00834C114.734 5.55859 114.539 6.0263 114.159 6.4023C113.77 6.78748 113.306 6.9709 112.759 6.9709C112.213 6.9709 111.74 6.77831 111.36 6.4023C110.971 6.01713 110.785 5.55859 110.785 5.00834C110.785 4.45809 110.98 3.99037 111.36 3.61437C111.749 3.22919 112.213 3.04578 112.759 3.04578C113.306 3.04578 113.779 3.23837 114.159 3.61437C114.548 3.99037 114.734 4.45809 114.734 5.00834ZM111.119 20.9473V8.24564H114.381V20.9473H111.119Z" fill="white"/>
<path d="M121.129 8.24555V10.1531C121.944 8.75912 123.279 8.06213 125.114 8.06213C126.579 8.06213 127.783 8.53902 128.71 9.49278C129.637 10.4466 130.101 11.7763 130.101 13.4729V20.9472H126.857V13.9315C126.857 12.941 126.597 12.1798 126.097 11.6479C125.596 11.116 124.892 10.8592 124.011 10.8592C123.131 10.8592 122.436 11.1252 121.917 11.6479C121.398 12.1798 121.138 12.9318 121.138 13.9315V20.9472H117.875V8.24555H121.129Z" fill="white"/>
<path d="M138.443 18.2417H140V20.9471H137.943C136.626 20.9471 135.616 20.6536 134.902 20.0483C134.189 19.4522 133.837 18.4709 133.837 17.0953V10.8775H132.465V8.23628H133.837V5.09985H137.099V8.23628H139.972V10.8775H137.099V17.0953C137.099 17.508 137.201 17.8015 137.396 17.9757C137.6 18.15 137.943 18.2417 138.443 18.2417Z" fill="white"/>
<path d="M15.9703 5.86202C15.0805 5.30259 14.4595 4.76151 13.9312 4.2938C13.1341 3.58765 12.8561 3.22998 11.7717 2.12031C11.3453 1.68011 10.7243 1.06567 9.96431 0.341171C9.82528 0.212779 9.57504 0.176096 9.4082 0.276975C7.44329 1.39582 5.47837 2.51466 3.51345 3.64267C3.33735 3.74355 3.24467 3.99116 3.30028 4.18375C3.68028 5.33011 4.06029 6.47646 4.4403 7.62282C4.88519 7.51277 5.25593 7.42106 5.78423 7.24681C6.00667 7.17344 6.24765 7.09091 6.4979 7.00837C6.25692 6.26553 6.00667 5.52269 5.76569 4.77986L9.41747 2.70725C10.1404 3.57848 10.7892 4.27546 11.2897 4.77986C12.0497 5.55938 12.578 6.09129 13.3936 6.73324C14.2278 7.38437 14.9322 7.79706 15.1917 7.94379C15.9054 8.35648 16.9064 8.85171 18.1855 9.24605C18.3152 8.53073 18.4728 7.92545 18.6952 7.17344C17.5274 6.76993 16.6191 6.2747 15.9703 5.86202Z" fill="white"/>
<path d="M8.1748 7.29194C7.23868 7.76883 6.46013 8.03478 5.78353 8.25488C4.764 8.58503 4.31911 8.64006 2.79908 9.01606C2.19663 9.16279 1.3532 9.38289 0.333665 9.67636C0.148296 9.73138 0 9.92397 0 10.1166C0 12.3634 0 14.6011 0 16.848C0 17.0497 0.166833 17.2515 0.370739 17.2973C1.56637 17.5449 2.75274 17.7925 3.94837 18.0402C4.07813 17.6091 4.18008 17.2331 4.29131 16.7012C4.33765 16.4719 4.39326 16.2243 4.4396 15.9676C3.67032 15.8025 2.90103 15.6466 2.13175 15.4815L2.14102 11.3179C3.2625 11.1345 4.19862 10.9236 4.89376 10.7493C5.95036 10.4926 6.69184 10.3 7.65576 9.92397C8.63822 9.52963 9.3519 9.13528 9.61141 8.98855C10.3251 8.58503 11.2612 7.97058 12.2529 7.07184C11.6876 6.60413 11.2427 6.16393 10.6866 5.59534C9.75044 6.40237 8.86067 6.93428 8.1748 7.29194Z" fill="white"/>
<path d="M5.55192 14.6469C5.50558 15.6832 5.33874 16.4902 5.19045 17.178C4.968 18.2143 4.80117 18.627 4.36555 20.1127C4.19872 20.6996 3.96701 21.5342 3.70749 22.5521C3.66115 22.7356 3.7631 22.9648 3.92994 23.0565C5.88559 24.1754 7.84123 25.2942 9.79688 26.4131C9.99152 26.5231 10.251 26.4681 10.3901 26.303C10.835 25.7436 11.3355 25.1658 11.8916 24.5789C12.2067 24.2487 12.5311 23.9369 12.8369 23.6435C12.6979 23.4967 12.5218 23.3225 12.3179 23.1207C12.1789 22.9832 12.0213 22.8456 11.8359 22.6805C11.6598 22.5246 11.4745 22.3596 11.2613 22.1853C10.974 22.4329 10.6496 22.7356 10.3345 23.0932C10.0842 23.3775 9.86176 23.6618 9.67639 23.9186C8.46222 23.2216 7.24805 22.5246 6.03388 21.8185C6.43243 20.7638 6.71975 19.8559 6.91439 19.1773C7.21098 18.141 7.42415 17.4165 7.57245 16.3985C7.72074 15.3622 7.73001 14.5552 7.73001 14.2525C7.73001 13.4363 7.66513 12.3267 7.37781 11.0336C6.68267 11.2812 6.07095 11.4463 5.31094 11.6388C5.55192 12.8586 5.57973 13.8857 5.55192 14.6469Z" fill="white"/>
<path d="M10.6405 20.6175C11.5302 21.177 12.1512 21.718 12.6795 22.1858C13.4766 22.8919 13.7547 23.2496 14.8391 24.3592C15.2654 24.7994 15.8864 25.4139 16.6464 26.1384C16.7855 26.2668 17.0357 26.3035 17.2025 26.2026C19.1675 25.0837 21.1324 23.9649 23.0973 22.8369C23.2734 22.736 23.3661 22.4884 23.3105 22.2958C22.9305 21.1495 22.5504 20.0031 22.1704 18.8567C21.7256 18.9668 21.3548 19.0585 20.8265 19.2327C20.6041 19.3061 20.3631 19.3887 20.1128 19.4712C20.3538 20.214 20.6041 20.9569 20.845 21.6997L17.184 23.7815C16.4611 22.9103 15.8123 22.2133 15.3118 21.7089C14.5518 20.9294 14.0234 20.3974 13.2078 19.7555C12.3737 19.1044 11.6693 18.6917 11.4097 18.5449C10.6961 18.1322 9.69507 17.637 8.41602 17.2427C8.28626 17.958 8.12869 18.5633 7.90625 19.3153C9.07408 19.7188 9.99166 20.2049 10.6405 20.6175Z" fill="white"/>
<path d="M18.4258 19.2511C19.3619 18.7742 20.1405 18.5083 20.8171 18.2882C21.8366 17.958 22.2815 17.903 23.8015 17.527C24.404 17.3802 25.2474 17.1601 26.2669 16.8667C26.4523 16.8116 26.6006 16.6191 26.6006 16.4265C26.6006 14.1796 26.6006 11.9419 26.6006 9.69508C26.6006 9.49332 26.4338 9.29156 26.2298 9.24571C25.0342 8.99809 23.8478 8.75048 22.6522 8.50287C22.5225 8.9339 22.4205 9.3099 22.3093 9.84181C22.2629 10.0711 22.2073 10.3187 22.161 10.5755C22.9303 10.7406 23.6996 10.8965 24.4688 11.0615L24.4596 15.2251C23.3381 15.4085 22.402 15.6194 21.7068 15.7937C20.6502 16.0505 19.9087 16.2431 18.9448 16.6191C17.9624 17.0134 17.2487 17.4078 16.9892 17.5545C16.2755 17.958 15.3394 18.5724 14.3477 19.4712C14.913 19.9389 15.3579 20.3791 15.914 20.9477C16.8594 20.1407 17.7399 19.5996 18.4258 19.2511Z" fill="white"/>
<path d="M21.0575 11.8318C21.1038 10.7955 21.2707 9.98844 21.4189 9.30063C21.6414 8.26432 21.8082 7.85164 22.2438 6.36596C22.4107 5.77903 22.6424 4.94448 22.9019 3.92652C22.9482 3.7431 22.8463 3.51383 22.6795 3.42212C20.7145 2.30328 18.7496 1.17527 16.7847 0.0564226C16.6086 -0.0444566 16.3491 -0.00777325 16.2101 0.148131C15.3944 1.04687 14.5788 1.94561 13.7632 2.84436C14.0783 3.17451 14.3471 3.44046 14.7642 3.8073C14.9403 3.9632 15.1256 4.12828 15.3388 4.30252C15.8671 3.72476 16.3954 3.147 16.9237 2.56006L20.5662 4.66018C20.1677 5.71483 19.8804 6.62274 19.6857 7.30139C19.3891 8.33769 19.176 9.06219 19.0277 10.0802C18.8794 11.1165 18.8701 11.9235 18.8701 12.2261C18.8701 13.0423 18.935 14.152 19.2223 15.4451C19.9175 15.1975 20.5292 15.0324 21.2892 14.8398C21.0482 13.6293 21.0204 12.6021 21.0575 11.8318Z" fill="white"/>
</svg>
