<svg width="27" height="27" viewBox="0 0 27 27" fill="none" xmlns="http://www.w3.org/2000/svg">
<path d="M15.9704 5.86202C15.0806 5.30259 14.4596 4.76151 13.9313 4.2938C13.1343 3.58765 12.8562 3.22998 11.7718 2.12031C11.3454 1.68011 10.7244 1.06567 9.96443 0.341171C9.82541 0.212779 9.57516 0.176096 9.40833 0.276975C7.44341 1.39582 5.47849 2.51466 3.51357 3.64267C3.33747 3.74355 3.24479 3.99116 3.3004 4.18375C3.68041 5.33011 4.06041 6.47646 4.44042 7.62282C4.88531 7.51277 5.25605 7.42106 5.78435 7.24681C6.00679 7.17344 6.24777 7.09091 6.49802 7.00837C6.25704 6.26553 6.00679 5.52269 5.76581 4.77986L9.41759 2.70725C10.1405 3.57848 10.7893 4.27546 11.2898 4.77986C12.0498 5.55938 12.5781 6.09129 13.3938 6.73324C14.2279 7.38437 14.9323 7.79706 15.1919 7.94379C15.9055 8.35648 16.9065 8.85171 18.1856 9.24605C18.3153 8.53073 18.4729 7.92545 18.6953 7.17344C17.5275 6.76993 16.6192 6.2747 15.9704 5.86202Z" fill="white"/>
<path d="M8.1748 7.29194C7.23868 7.76883 6.46013 8.03478 5.78353 8.25488C4.764 8.58503 4.31911 8.64006 2.79908 9.01606C2.19663 9.16279 1.3532 9.38289 0.333665 9.67636C0.148296 9.73138 0 9.92397 0 10.1166C0 12.3634 0 14.6011 0 16.848C0 17.0497 0.166833 17.2515 0.370739 17.2973C1.56637 17.5449 2.75274 17.7925 3.94837 18.0402C4.07813 17.6091 4.18008 17.2331 4.29131 16.7012C4.33765 16.4719 4.39326 16.2243 4.4396 15.9676C3.67032 15.8025 2.90103 15.6466 2.13175 15.4815L2.14102 11.3179C3.2625 11.1345 4.19862 10.9236 4.89376 10.7493C5.95036 10.4926 6.69184 10.3 7.65576 9.92397C8.63822 9.52963 9.3519 9.13528 9.61141 8.98855C10.3251 8.58503 11.2612 7.97058 12.2529 7.07184C11.6876 6.60413 11.2427 6.16393 10.6866 5.59534C9.75044 6.40237 8.86067 6.93428 8.1748 7.29194Z" fill="white"/>
<path d="M5.5518 14.6469C5.50546 15.6832 5.33862 16.4902 5.19033 17.178C4.96788 18.2143 4.80105 18.627 4.36543 20.1127C4.1986 20.6996 3.96689 21.5342 3.70737 22.5521C3.66103 22.7356 3.76298 22.9648 3.92981 23.0565C5.88546 24.1754 7.84111 25.2942 9.79676 26.4131C9.9914 26.5231 10.2509 26.4681 10.3899 26.303C10.8348 25.7436 11.3353 25.1658 11.8914 24.5789C12.2066 24.2487 12.531 23.9369 12.8368 23.6435C12.6978 23.4967 12.5217 23.3225 12.3178 23.1207C12.1788 22.9832 12.0212 22.8456 11.8358 22.6805C11.6597 22.5246 11.4744 22.3596 11.2612 22.1853C10.9739 22.4329 10.6495 22.7356 10.3343 23.0932C10.0841 23.3775 9.86164 23.6618 9.67627 23.9186C8.4621 23.2216 7.24793 22.5246 6.03376 21.8185C6.4323 20.7638 6.71963 19.8559 6.91426 19.1773C7.21086 18.141 7.42403 17.4165 7.57233 16.3985C7.72062 15.3622 7.72989 14.5552 7.72989 14.2525C7.72989 13.4363 7.66501 12.3267 7.37769 11.0336C6.68255 11.2812 6.07083 11.4463 5.31082 11.6388C5.5518 12.8586 5.5796 13.8857 5.5518 14.6469Z" fill="white"/>
<path d="M10.6407 20.6175C11.5305 21.177 12.1515 21.718 12.6798 22.1858C13.4769 22.8919 13.7549 23.2496 14.8393 24.3592C15.2657 24.7994 15.8867 25.4139 16.6467 26.1384C16.7857 26.2668 17.0359 26.3035 17.2028 26.2026C19.1677 25.0837 21.1326 23.9649 23.0975 22.8369C23.2736 22.736 23.3663 22.4884 23.3107 22.2958C22.9307 21.1495 22.5507 20.0031 22.1707 18.8567C21.7258 18.9668 21.3551 19.0585 20.8268 19.2327C20.6043 19.3061 20.3633 19.3887 20.1131 19.4712C20.3541 20.214 20.6043 20.9569 20.8453 21.6997L17.1842 23.7815C16.4613 22.9103 15.8125 22.2133 15.312 21.7089C14.552 20.9294 14.0237 20.3974 13.2081 19.7555C12.3739 19.1044 11.6695 18.6917 11.41 18.5449C10.6963 18.1322 9.69531 17.637 8.41626 17.2427C8.2865 17.958 8.12894 18.5633 7.90649 19.3153C9.07432 19.7188 9.9919 20.2049 10.6407 20.6175Z" fill="white"/>
<path d="M18.4258 19.2511C19.3619 18.7742 20.1405 18.5083 20.8171 18.2882C21.8366 17.958 22.2815 17.903 23.8015 17.527C24.404 17.3802 25.2474 17.1601 26.2669 16.8667C26.4523 16.8116 26.6006 16.6191 26.6006 16.4265C26.6006 14.1796 26.6006 11.9419 26.6006 9.69508C26.6006 9.49332 26.4338 9.29156 26.2298 9.24571C25.0342 8.99809 23.8478 8.75048 22.6522 8.50287C22.5225 8.9339 22.4205 9.3099 22.3093 9.84181C22.2629 10.0711 22.2073 10.3187 22.161 10.5755C22.9303 10.7406 23.6996 10.8965 24.4688 11.0615L24.4596 15.2251C23.3381 15.4085 22.402 15.6194 21.7068 15.7937C20.6502 16.0505 19.9087 16.2431 18.9448 16.6191C17.9624 17.0134 17.2487 17.4078 16.9892 17.5545C16.2755 17.958 15.3394 18.5724 14.3477 19.4712C14.913 19.9389 15.3579 20.3791 15.914 20.9477C16.8594 20.1407 17.7399 19.5996 18.4258 19.2511Z" fill="white"/>
<path d="M21.0573 11.8318C21.1037 10.7955 21.2705 9.98844 21.4188 9.30063C21.6412 8.26432 21.8081 7.85164 22.2437 6.36596C22.4105 5.77903 22.6422 4.94448 22.9018 3.92652C22.9481 3.7431 22.8461 3.51383 22.6793 3.42212C20.7144 2.30328 18.7495 1.17527 16.7846 0.0564226C16.6085 -0.0444566 16.3489 -0.00777325 16.2099 0.148131C15.3943 1.04687 14.5787 1.94561 13.763 2.84436C14.0782 3.17451 14.3469 3.44046 14.764 3.8073C14.9401 3.9632 15.1255 4.12828 15.3387 4.30252C15.867 3.72476 16.3953 3.147 16.9236 2.56006L20.5661 4.66018C20.1675 5.71483 19.8802 6.62274 19.6856 7.30139C19.389 8.33769 19.1758 9.06219 19.0275 10.0802C18.8792 11.1165 18.87 11.9235 18.87 12.2261C18.87 13.0423 18.9348 14.152 19.2222 15.4451C19.9173 15.1975 20.529 15.0324 21.289 14.8398C21.0481 13.6293 21.0203 12.6021 21.0573 11.8318Z" fill="white"/>
</svg>
