<svg width="29" height="23" viewBox="0 0 29 23" fill="none" xmlns="http://www.w3.org/2000/svg">
<path d="M26.686 2.7031L29 0.485421V0H20.9839L15.2709 14.2455L8.77129 0H0.366125V0.485421L3.06917 3.74537C3.33258 3.98626 3.47033 4.33853 3.43529 4.69321V17.5042C3.51867 17.9654 3.36883 18.4399 3.045 18.7753L0 22.4722V22.9516H8.63354V22.4662L5.58854 18.7753C5.25867 18.4387 5.10279 17.9727 5.16925 17.5042V6.42305L12.7479 22.9576H13.6288L20.1453 6.42305V19.5948C20.1453 19.9422 20.1453 20.0136 19.9182 20.2412L17.574 22.5134V23H28.9468V22.5146L26.6873 20.2981C26.4891 20.148 26.3864 19.8962 26.4287 19.6517V3.34953C26.3864 3.10379 26.4879 2.852 26.686 2.7031Z" fill="white"/>
</svg>
