<svg width="55" height="42" viewBox="0 0 55 42" fill="none" xmlns="http://www.w3.org/2000/svg">
<path d="M50.6115 4.9361L55 0.886421V0H39.7971L28.9621 26.0135L16.6352 0H0.694375V0.886421L5.82083 6.83937C6.32042 7.27926 6.58167 7.92253 6.51521 8.57021V31.9642C6.67333 32.8064 6.38917 33.6729 5.775 34.2853L0 41.0362V41.9116H16.374V41.0252L10.599 34.2853C9.97333 33.6707 9.67771 32.8197 9.80375 31.9642V11.7291L24.1771 41.9226H25.8477L38.2067 11.7291V35.7818C38.2067 36.4162 38.2067 36.5466 37.7758 36.9622L33.33 41.1114V42H54.8992V41.1136L50.6138 37.0661C50.2379 36.792 50.0431 36.3322 50.1233 35.8857V6.11653C50.0431 5.66779 50.2356 5.208 50.6115 4.9361Z" fill="white"/>
</svg>
