<svg width="12" height="12" viewBox="0 0 12 12" fill="none" xmlns="http://www.w3.org/2000/svg">
<path id="Vector" d="M1.17073 12C0.848781 12 0.573074 11.8856 0.343611 11.6568C0.114147 11.428 -0.00038925 11.1526 9.9383e-07 10.8307V2.64555C9.9383e-07 2.32399 0.114733 2.04862 0.344196 1.81944C0.57366 1.59026 0.849172 1.47586 1.17073 1.47625H6.39512L5.22439 2.64555H1.17073V10.8307H9.36585V6.76736L10.5366 5.59805V10.8307C10.5366 11.1523 10.4219 11.4276 10.1924 11.6568C9.96293 11.886 9.68742 12.0004 9.36585 12H1.17073ZM7.7122 1.81242L8.54634 2.63094L4.68293 6.48965V7.32278H5.50244L9.38049 3.44945L10.2146 4.26797L6.33659 8.14129C6.22927 8.24848 6.10478 8.33384 5.96312 8.39737C5.82146 8.4609 5.67278 8.49247 5.51707 8.49208H4.09756C3.93171 8.49208 3.79259 8.43596 3.6802 8.3237C3.56781 8.21145 3.51181 8.07269 3.5122 7.90743V6.48965C3.5122 6.33374 3.54146 6.18504 3.6 6.04356C3.65854 5.90207 3.74146 5.77793 3.84878 5.67113L7.7122 1.81242ZM10.2146 4.26797L7.7122 1.81242L9.17561 0.350792C9.40976 0.116931 9.69034 0 10.0174 0C10.3444 0 10.6199 0.116931 10.8439 0.350792L11.6634 1.18392C11.8878 1.40804 12 1.68088 12 2.00244C12 2.32399 11.8878 2.59683 11.6634 2.82095L10.2146 4.26797Z" fill="#0573E8"/>
</svg>
