<svg width="742" height="1024" viewBox="0 0 742 1024" fill="none" xmlns="http://www.w3.org/2000/svg">
<rect width="742" height="1024" fill="#C4E0F9"/>
<path d="M303.628 420.668C303.628 428.48 298.356 434.812 291.854 434.812C285.351 434.812 280.079 428.48 280.079 420.668C280.079 412.857 285.351 406.525 291.854 406.525C298.356 406.525 303.628 412.857 303.628 420.668Z" fill="#FFC6C6"/>
<path fill-rule="evenodd" clip-rule="evenodd" d="M283.336 500.953C291.84 481.883 296.08 459.016 292.531 438.529L281.384 440.43C284.756 458.863 281.034 478.388 273.001 496.213C265.058 513.937 253.146 528.623 240.658 536.345L246.66 546.037C261.545 536.832 274.743 520.123 283.336 500.953Z" fill="#FFC6C6"/>
<path fill-rule="evenodd" clip-rule="evenodd" d="M291.843 438.645L281.384 440.429C283.795 453.608 282.58 467.346 278.755 480.621L289.468 483.93C293.588 469.205 295.05 453.449 292.591 438.876L291.843 438.645Z" fill="#0078E8"/>
<path fill-rule="evenodd" clip-rule="evenodd" d="M207.518 672.073L225.924 656.641L221.528 651.182L203.123 666.615L207.518 672.073Z" fill="#FFC6C6"/>
<path fill-rule="evenodd" clip-rule="evenodd" d="M300.53 689.402V665.155H293.586V689.402H300.53Z" fill="#FFC6C6"/>
<path fill-rule="evenodd" clip-rule="evenodd" d="M309.514 478.322L309.515 557.55L291.46 555.518L264.379 547.392V498.751C264.379 498.713 264.379 498.675 264.379 498.637C264.379 498.553 264.379 498.469 264.379 498.385V486.448L264.516 486.423C265.387 451.289 270.652 439.526 286.947 437.693C299.411 437.693 309.514 437.693 309.514 478.322Z" fill="white"/>
<path d="M309.515 557.549L293.891 555.787L292.681 681.318H302.493L309.515 557.549Z" fill="black"/>
<path d="M285.211 552.263L264.379 546.976C264.379 546.976 269.587 617.48 215.772 656.257L220.98 665.07C276.531 628.055 285.211 552.263 285.211 552.263Z" fill="black"/>
<path d="M316.583 703.96L300.884 689.817H293.034V701.94L316.583 703.96Z" fill="#50AFCD"/>
<path d="M211.051 688.229L212.473 668.63L207.502 662.458L199 667.646L211.051 688.229Z" fill="#50AFCD"/>
<path fill-rule="evenodd" clip-rule="evenodd" d="M309.514 532.892V557.55L291.46 555.518L264.379 547.392V528.657L309.514 532.892Z" fill="black"/>
<path fill-rule="evenodd" clip-rule="evenodd" d="M300.489 500.373C292.08 488.719 287.532 473.14 290.287 457.206L300.698 455.595C298.052 469.98 302.03 483.255 309.968 494.126C317.822 504.946 329.283 512.478 341.093 514.763L335.773 523.464C321.694 520.741 308.984 512.077 300.489 500.373Z" fill="#FFC6C6"/>
<path fill-rule="evenodd" clip-rule="evenodd" d="M290.95 455.994L300.243 453.061C299.01 462.797 299.758 472.682 304 480.025L290.95 485.246C286.353 477.053 289.128 467.126 290.31 456.443L290.95 455.994Z" fill="white"/>
<path fill-rule="evenodd" clip-rule="evenodd" d="M295.472 432.245C297.616 432.56 299.888 431.874 302.95 429.773L301.589 427.728C298.763 429.668 297.111 429.992 295.821 429.803C294.731 429.642 293.804 429.137 292.501 428.427C292.064 428.189 291.586 427.929 291.045 427.65L289.946 429.851C290.325 430.046 290.704 430.254 291.086 430.464C292.486 431.231 293.917 432.016 295.472 432.245Z" fill="black"/>
<path fill-rule="evenodd" clip-rule="evenodd" d="M300.223 421.359C299.814 420.214 299.559 419.218 299.559 418.648H297.129C297.129 419.695 297.529 421.055 297.938 422.2C298.093 422.635 298.261 423.068 298.428 423.476H294.419V425.943H300.307H302.261L301.397 424.164C301.079 423.511 300.615 422.462 300.223 421.359Z" fill="black"/>
<path fill-rule="evenodd" clip-rule="evenodd" d="M321.626 519.779L299 452.644L302.287 451.525L324.913 518.66L321.626 519.779Z" fill="black"/>
<line y1="-4" x2="23.2456" y2="-4" transform="matrix(0.772022 0.635596 -0.634151 0.773209 503.367 666.14)" stroke="#DFBAAA" stroke-width="8"/>
<line x1="434.419" y1="672.081" x2="434.419" y2="695.425" stroke="#DFBAAA" stroke-width="8"/>
<path d="M421.976 569.463L437.188 567.775L438.366 687.975H428.813L421.976 569.463Z" fill="black"/>
<path d="M445.32 564.38L465.734 559.331C465.734 559.331 460.631 626.644 513.367 663.667L508.264 672.081C453.826 636.741 445.32 564.38 445.32 564.38Z" fill="black"/>
<path d="M415.519 708.836L430.751 695.425H438.366V706.92L415.519 708.836Z" fill="white"/>
<path d="M518.213 694.016L516.827 675.253L521.674 669.343L529.964 674.311L518.213 694.016Z" fill="white"/>
<path fill-rule="evenodd" clip-rule="evenodd" d="M421.862 545.697V569.304L439.465 567.359L465.871 559.58V541.643L421.862 545.697Z" fill="black"/>
<path fill-rule="evenodd" clip-rule="evenodd" d="M412.931 495.46C424.919 483.979 434.844 468.423 438.245 452.283L429.354 450.338C426.428 464.914 417.878 478.165 406.61 488.872C395.439 499.531 382.2 506.766 370.588 508.702L372.209 517.634C386.05 515.326 400.848 506.99 412.931 495.46Z" fill="#DFBAAA"/>
<path fill-rule="evenodd" clip-rule="evenodd" d="M422.545 484.772C430.067 475.057 435.882 463.761 438.347 452.172L429.443 450.241C427.325 460.691 422.327 470.469 415.516 479.125L422.545 484.772Z" fill="#1F3C5F"/>
<path d="M457.203 464.172C450.851 453.072 436.03 448.976 429.413 450.298L415.519 547.42L469.113 551.384C469.775 526.278 463.555 475.272 457.203 464.172Z" fill="#1F3C5F"/>
<path fill-rule="evenodd" clip-rule="evenodd" d="M428.002 501.129C439.507 488.424 447.612 475.187 449.931 458.313L441.607 453.448C439.663 468.676 431.828 482.953 421.008 494.808C410.283 506.606 397.178 515.029 385.36 517.875L387.685 526.956C401.772 523.564 416.402 513.891 428.002 501.129Z" fill="#DFBAAA"/>
<path fill-rule="evenodd" clip-rule="evenodd" d="M446.121 454.816L441.514 452.614C440.224 463.819 435.825 474.485 429.397 484.08L437.59 489.757C444.045 480.204 448.632 469.811 451.124 458.283L446.121 454.816Z" fill="#1F3C5F"/>
<ellipse cx="435.138" cy="429.942" rx="12.169" ry="14.6525" fill="#DFBAAA"/>
<path d="M426.943 427.707C426.943 429.429 425.618 432.729 424.956 434.164H430.916" stroke="black" stroke-width="3"/>
<path d="M422.969 438.138C429.178 442.439 431.247 440.288 435.387 438.138" stroke="black" stroke-width="3"/>
<path fill-rule="evenodd" clip-rule="evenodd" d="M425.829 419.969L444.034 420.133C443.653 418.703 443.047 417.222 442.118 415.863C440.621 413.59 438.491 412.061 435.13 412.276C431.518 412.506 429.188 414.272 427.629 416.498C426.796 417.645 426.22 418.831 425.829 419.969Z" fill="#800000"/>
<path fill-rule="evenodd" clip-rule="evenodd" d="M450.895 420.964C450.815 419.178 449.648 415.897 447.4 412.392C444.94 408.657 440.826 405.577 434.718 405.967C428.863 406.341 424.902 409.36 422.445 412.868C420.157 416.222 419.04 420.355 418.82 422.825L418.532 426.225L421.947 426.256L448.253 426.248C449.713 426.247 450.895 425.065 450.895 423.605V423.605C450.895 423.605 450.975 422.75 450.895 420.964ZM425.829 419.969L444.034 420.133C443.653 418.703 443.047 417.222 442.118 415.863C440.621 413.59 438.491 412.061 435.13 412.276C431.518 412.506 429.188 414.272 427.629 416.498C426.796 417.645 426.22 418.831 425.829 419.969Z" fill="#800000"/>
<path d="M330.584 482.232L365.789 482.232L378.201 519.215L343.232 519.215L330.584 482.232Z" fill="black"/>
<rect x="343.87" y="516.075" width="64.966" height="3.16907" fill="black"/>
<path d="M236.441 266.877C239.296 262.244 243.49 259.942 249.025 259.942C254.56 259.942 259.133 261.89 262.716 265.815C266.299 269.71 268.105 274.756 268.105 280.924C268.105 287.092 266.299 292.138 262.716 296.093C259.133 300.018 254.589 301.995 249.141 301.995C243.694 301.995 239.441 299.516 236.441 294.558V301.405H226.188V246.81H236.441V266.877ZM254.56 289.748C256.657 287.594 257.735 284.643 257.735 280.895C257.735 277.147 256.686 274.225 254.56 272.1C252.462 269.976 249.957 268.913 247.102 268.913C244.248 268.913 241.743 269.976 239.645 272.13C237.548 274.284 236.47 277.206 236.47 280.954C236.47 284.702 237.519 287.623 239.645 289.777C241.772 291.932 244.248 292.994 247.102 292.994C249.957 292.994 252.433 291.902 254.56 289.748Z" fill="#0573E8"/>
<path d="M276.214 301.408V246.813H286.468V301.408H276.214Z" fill="#0573E8"/>
<path d="M325.235 260.531H335.488V301.404H325.235V295.207C322.671 299.693 318.477 301.935 312.651 301.935C308.077 301.935 304.349 300.401 301.436 297.332C298.523 294.262 297.066 289.983 297.066 284.524V260.561H307.262V283.048C307.262 286.236 308.077 288.714 309.65 290.426C311.252 292.138 313.437 293.023 316.204 293.023C318.972 293.023 321.156 292.167 322.788 290.426C324.419 288.714 325.235 286.236 325.235 283.048V260.531Z" fill="#0573E8"/>
<path d="M363.442 301.994C357.558 301.994 352.781 300.075 349.111 296.209C345.411 292.343 343.576 287.238 343.576 280.893C343.576 274.548 345.44 269.472 349.14 265.666C352.868 261.859 357.646 259.94 363.559 259.94C369.472 259.94 374.308 261.8 378.095 265.518C381.881 269.236 383.775 274.194 383.775 280.391C383.775 281.808 383.687 283.136 383.483 284.375H354.063C354.296 287.031 355.286 289.156 356.976 290.809C358.665 292.432 360.821 293.229 363.442 293.229C366.996 293.229 369.618 291.753 371.307 288.802H382.377C381.211 292.698 378.939 295.855 375.619 298.305C372.269 300.754 368.22 301.994 363.442 301.994ZM370.2 271.155C368.394 269.531 366.181 268.735 363.617 268.735C361.054 268.735 358.898 269.561 357.18 271.155C355.461 272.778 354.412 274.932 354.092 277.647H373.172C372.997 274.932 372.007 272.778 370.2 271.155Z" fill="#0573E8"/>
<path d="M402.135 266.875C404.99 262.242 409.185 259.94 414.719 259.94C420.254 259.94 424.827 261.888 428.41 265.813C431.993 269.709 433.799 274.755 433.799 280.923C433.799 287.09 431.993 292.137 428.41 296.091C424.827 300.016 420.283 301.994 414.836 301.994C409.389 301.994 405.136 299.515 402.135 294.557V320.881H391.882V260.531H402.135V266.875V266.875ZM420.225 289.746C422.322 287.592 423.4 284.641 423.4 280.893C423.4 277.145 422.351 274.224 420.225 272.099C418.127 269.974 415.622 268.912 412.768 268.912C409.913 268.912 407.408 269.974 405.31 272.128C403.213 274.283 402.135 277.204 402.135 280.952C402.135 284.7 403.184 287.622 405.31 289.776C407.437 291.93 409.913 292.993 412.768 292.993C415.622 292.993 418.127 291.901 420.225 289.746Z" fill="#0573E8"/>
<path d="M452.133 260.531V267.761C454.842 262.537 458.775 259.94 463.931 259.94V270.564H461.367C458.309 270.564 456.007 271.332 454.434 272.896C452.891 274.43 452.104 277.116 452.104 280.893V301.403H441.851V260.531H452.133Z" fill="#0573E8"/>
<path d="M482.58 250.114C482.58 251.885 481.968 253.39 480.774 254.6C479.551 255.84 478.094 256.43 476.375 256.43C474.657 256.43 473.171 255.81 471.977 254.6C470.754 253.361 470.171 251.885 470.171 250.114C470.171 248.344 470.783 246.839 471.977 245.629C473.2 244.389 474.657 243.799 476.375 243.799C478.094 243.799 479.58 244.419 480.774 245.629C481.997 246.839 482.58 248.344 482.58 250.114ZM471.22 301.404V260.532H481.473V301.404H471.22Z" fill="#0573E8"/>
<path d="M502.694 260.531V266.669C505.257 262.184 509.452 259.941 515.219 259.941C519.822 259.941 523.609 261.475 526.522 264.544C529.434 267.614 530.891 271.893 530.891 277.352V301.404H520.696V278.828C520.696 275.64 519.88 273.191 518.307 271.479C516.734 269.768 514.52 268.942 511.753 268.942C508.986 268.942 506.801 269.797 505.17 271.479C503.538 273.191 502.723 275.611 502.723 278.828V301.404H492.469V260.531H502.694Z" fill="#0573E8"/>
<path d="M557.106 292.698H562V301.403H555.533C551.396 301.403 548.221 300.459 545.978 298.511C543.735 296.593 542.629 293.435 542.629 289.009V269H538.317V260.501H542.629V250.408H552.882V260.501H561.912V269H552.882V289.009C552.882 290.337 553.203 291.281 553.814 291.842C554.455 292.402 555.533 292.698 557.106 292.698Z" fill="#0573E8"/>
<path d="M172.194 252.864C169.397 251.064 167.446 249.322 165.785 247.817C163.28 245.545 162.406 244.394 158.998 240.823C157.658 239.407 155.706 237.43 153.318 235.098C152.881 234.685 152.094 234.567 151.57 234.892C145.395 238.492 139.219 242.092 133.044 245.722C132.49 246.047 132.199 246.844 132.374 247.463C133.568 251.152 134.762 254.841 135.957 258.53C137.355 258.176 138.52 257.881 140.181 257.32C140.88 257.084 141.637 256.818 142.423 256.553C141.666 254.162 140.88 251.772 140.122 249.382L151.599 242.712C153.871 245.516 155.91 247.758 157.483 249.382C159.872 251.89 161.532 253.602 164.096 255.667C166.717 257.763 168.931 259.091 169.747 259.563C171.99 260.891 175.136 262.484 179.156 263.753C179.564 261.451 180.059 259.504 180.758 257.084C177.088 255.785 174.233 254.192 172.194 252.864Z" fill="#0573E8"/>
<path d="M147.692 257.465C144.75 258.999 142.303 259.855 140.177 260.563C136.973 261.626 135.574 261.803 130.797 263.013C128.904 263.485 126.253 264.193 123.049 265.137C122.466 265.315 122 265.934 122 266.554C122 273.784 122 280.985 122 288.215C122 288.864 122.524 289.514 123.165 289.661C126.923 290.458 130.651 291.255 134.409 292.051C134.817 290.664 135.137 289.454 135.487 287.743C135.633 287.005 135.807 286.208 135.953 285.382C133.535 284.851 131.118 284.349 128.7 283.818L128.729 270.42C132.254 269.83 135.196 269.151 137.38 268.59C140.701 267.764 143.031 267.144 146.061 265.934C149.149 264.665 151.392 263.396 152.207 262.924C154.45 261.626 157.392 259.648 160.509 256.756C158.732 255.251 157.334 253.835 155.586 252.005C152.644 254.602 149.848 256.314 147.692 257.465Z" fill="#0573E8"/>
<path d="M139.461 281.133C139.315 284.467 138.791 287.064 138.325 289.278C137.626 292.612 137.101 293.94 135.732 298.721C135.208 300.61 134.48 303.295 133.664 306.571C133.518 307.161 133.839 307.899 134.363 308.194C140.51 311.795 146.656 315.395 152.802 318.995C153.414 319.349 154.229 319.172 154.666 318.641C156.065 316.841 157.638 314.982 159.385 313.093C160.376 312.031 161.395 311.027 162.357 310.083C161.92 309.611 161.366 309.05 160.725 308.401C160.288 307.958 159.793 307.515 159.211 306.984C158.657 306.483 158.075 305.951 157.405 305.391C156.502 306.187 155.482 307.161 154.492 308.312C153.705 309.227 153.006 310.142 152.423 310.968C148.608 308.725 144.792 306.483 140.976 304.21C142.228 300.816 143.131 297.895 143.743 295.711C144.675 292.376 145.345 290.045 145.811 286.769C146.277 283.435 146.306 280.838 146.306 279.864C146.306 277.237 146.102 273.666 145.199 269.505C143.015 270.302 141.092 270.833 138.704 271.453C139.461 275.378 139.548 278.683 139.461 281.133Z" fill="#0573E8"/>
<path d="M155.438 300.343C158.235 302.143 160.186 303.884 161.847 305.39C164.352 307.662 165.226 308.813 168.634 312.384C169.974 313.8 171.926 315.777 174.314 318.109C174.751 318.522 175.538 318.64 176.062 318.315C182.237 314.715 188.413 311.115 194.588 307.485C195.142 307.16 195.433 306.363 195.258 305.744C194.064 302.055 192.87 298.366 191.675 294.677C190.277 295.031 189.112 295.326 187.452 295.887C186.753 296.123 185.995 296.389 185.209 296.654C185.966 299.045 186.753 301.435 187.51 303.825L176.004 310.524C173.732 307.721 171.693 305.478 170.12 303.855C167.731 301.347 166.071 299.635 163.507 297.569C160.886 295.474 158.672 294.146 157.856 293.674C155.613 292.346 152.467 290.752 148.447 289.483C148.04 291.785 147.544 293.733 146.845 296.153C150.516 297.451 153.399 299.015 155.438 300.343Z" fill="#0573E8"/>
<path d="M179.907 295.95C182.849 294.415 185.296 293.559 187.423 292.851C190.627 291.789 192.025 291.611 196.802 290.402C198.696 289.929 201.347 289.221 204.551 288.277C205.133 288.1 205.599 287.48 205.599 286.86C205.599 279.63 205.599 272.429 205.599 265.199C205.599 264.55 205.075 263.901 204.434 263.753C200.677 262.956 196.948 262.16 193.19 261.363C192.782 262.75 192.462 263.96 192.113 265.671C191.967 266.409 191.792 267.206 191.646 268.032C194.064 268.563 196.482 269.065 198.9 269.596L198.871 282.994C195.346 283.585 192.404 284.263 190.219 284.824C186.898 285.65 184.568 286.27 181.539 287.48C178.451 288.749 176.208 290.018 175.392 290.49C173.149 291.789 170.207 293.766 167.09 296.658C168.867 298.163 170.265 299.579 172.013 301.409C174.984 298.812 177.752 297.071 179.907 295.95Z" fill="#0573E8"/>
<path d="M188.19 272.074C188.335 268.739 188.859 266.142 189.326 263.929C190.025 260.594 190.549 259.266 191.918 254.485C192.442 252.596 193.171 249.911 193.986 246.635C194.132 246.045 193.811 245.307 193.287 245.012C187.112 241.412 180.936 237.782 174.761 234.182C174.207 233.857 173.392 233.975 172.955 234.477C170.391 237.369 167.828 240.261 165.265 243.153C166.255 244.215 167.1 245.071 168.411 246.252C168.964 246.753 169.547 247.284 170.217 247.845C171.877 245.986 173.537 244.127 175.198 242.238L186.646 248.996C185.393 252.39 184.49 255.311 183.878 257.495C182.946 260.83 182.276 263.161 181.81 266.437C181.344 269.772 181.315 272.369 181.315 273.343C181.315 275.969 181.519 279.54 182.422 283.701C184.607 282.904 186.529 282.373 188.918 281.753C188.16 277.858 188.073 274.553 188.19 272.074Z" fill="#0573E8"/>
</svg>
