<svg width="440" height="87" viewBox="0 0 440 87" fill="none" xmlns="http://www.w3.org/2000/svg">
<path d="M114.441 32.877C117.296 28.2438 121.49 25.9419 127.025 25.9419C132.56 25.9419 137.133 27.8897 140.716 31.8146C144.299 35.7101 146.105 40.7564 146.105 46.9242C146.105 53.092 144.299 58.1384 140.716 62.0928C137.133 66.0178 132.589 67.995 127.141 67.995C121.694 67.995 117.441 65.5161 114.441 60.5582V67.4048H104.188V12.8096H114.441V32.877ZM132.56 55.748C134.657 53.5937 135.735 50.6426 135.735 46.8947C135.735 43.1468 134.686 40.2252 132.56 38.1004C130.462 35.9756 127.957 34.9133 125.102 34.9133C122.248 34.9133 119.743 35.9756 117.645 38.1299C115.548 40.2842 114.47 43.2058 114.47 46.9537C114.47 50.7016 115.519 53.6232 117.645 55.7775C119.772 57.9318 122.248 58.9942 125.102 58.9942C127.957 58.9942 130.433 57.9023 132.56 55.748Z" fill="#0573E8"/>
<path d="M154.214 67.408V12.8127H164.468V67.408H154.214Z" fill="#0573E8"/>
<path d="M203.235 26.5315H213.488V67.4041H203.235V61.2068C200.671 65.6925 196.477 67.9353 190.651 67.9353C186.077 67.9353 182.349 66.4008 179.436 63.3316C176.523 60.2625 175.066 55.9834 175.066 50.5239V26.561H185.262V49.0483C185.262 52.2355 186.077 54.7144 187.65 56.4261C189.252 58.1377 191.437 59.023 194.204 59.023C196.972 59.023 199.156 58.1672 200.788 56.4261C202.419 54.7144 203.235 52.2355 203.235 49.0483V26.5315Z" fill="#0573E8"/>
<path d="M241.442 67.9935C235.558 67.9935 230.781 66.0753 227.111 62.2094C223.411 58.3434 221.576 53.238 221.576 46.8932C221.576 40.5483 223.44 35.4725 227.14 31.6655C230.868 27.8586 235.646 25.9404 241.559 25.9404C247.472 25.9404 252.308 27.7996 256.095 31.518C259.881 35.2364 261.775 40.1942 261.775 46.3915C261.775 47.808 261.687 49.136 261.483 50.3755H232.063C232.296 53.0315 233.286 55.1562 234.976 56.8089C236.665 58.432 238.821 59.2288 241.442 59.2288C244.996 59.2288 247.618 57.7532 249.307 54.8021H260.377C259.211 58.6976 256.939 61.8552 253.619 64.3046C250.269 66.754 246.22 67.9935 241.442 67.9935ZM248.2 37.1546C246.394 35.5315 244.181 34.7347 241.617 34.7347C239.054 34.7347 236.898 35.561 235.18 37.1546C233.461 38.7777 232.412 40.932 232.092 43.647H251.172C250.997 40.932 250.007 38.7777 248.2 37.1546Z" fill="#0573E8"/>
<path d="M280.135 32.8755C282.99 28.2423 287.185 25.9404 292.719 25.9404C298.254 25.9404 302.827 27.8881 306.41 31.8131C309.993 35.7085 311.799 40.7549 311.799 46.9227C311.799 53.0905 309.993 58.1369 306.41 62.0913C302.827 66.0163 298.283 67.9935 292.836 67.9935C287.389 67.9935 283.136 65.5146 280.135 60.5567V86.8805H269.882V26.5306H280.135V32.8755V32.8755ZM298.225 55.7465C300.322 53.5922 301.4 50.6411 301.4 46.8932C301.4 43.1453 300.351 40.2237 298.225 38.0989C296.127 35.9741 293.622 34.9118 290.768 34.9118C287.913 34.9118 285.408 35.9741 283.31 38.1284C281.213 40.2827 280.135 43.2043 280.135 46.9522C280.135 50.7001 281.184 53.6217 283.31 55.776C285.437 57.9303 287.913 58.9927 290.768 58.9927C293.622 58.9927 296.127 57.9008 298.225 55.7465Z" fill="#0573E8"/>
<path d="M330.133 26.5306V33.7608C332.842 28.5374 336.775 25.9404 341.931 25.9404V36.5644H339.367C336.309 36.5644 334.007 37.3316 332.434 38.8957C330.891 40.4303 330.104 43.1158 330.104 46.8932V67.4033H319.851V26.5306H330.133Z" fill="#0573E8"/>
<path d="M360.58 16.1144C360.58 17.8851 359.968 19.3901 358.774 20.6001C357.551 21.8395 356.094 22.4298 354.375 22.4298C352.657 22.4298 351.171 21.81 349.977 20.6001C348.754 19.3606 348.171 17.8851 348.171 16.1144C348.171 14.3438 348.783 12.8387 349.977 11.6288C351.2 10.3893 352.657 9.79907 354.375 9.79907C356.094 9.79907 357.58 10.4188 358.774 11.6288C359.997 12.8387 360.58 14.3438 360.58 16.1144ZM349.22 67.4044V26.5318H359.473V67.4044H349.22Z" fill="#0573E8"/>
<path d="M380.694 26.5309V32.6692C383.257 28.1835 387.452 25.9407 393.219 25.9407C397.822 25.9407 401.609 27.4752 404.522 30.5444C407.434 33.6135 408.891 37.8926 408.891 43.3521V67.4035H398.696V44.8277C398.696 41.6405 397.88 39.1911 396.307 37.4794C394.734 35.7678 392.52 34.9415 389.753 34.9415C386.986 34.9415 384.801 35.7973 383.17 37.4794C381.538 39.1911 380.723 41.611 380.723 44.8277V67.4035H370.469V26.5309H380.694Z" fill="#0573E8"/>
<path d="M435.106 58.6976H440V67.4033H433.533C429.396 67.4033 426.221 66.459 423.978 64.5112C421.735 62.593 420.629 59.4354 420.629 55.0087V35.0003H416.317V26.5012H420.629V16.4084H430.882V26.5012H439.912V35.0003H430.882V55.0087C430.882 56.3367 431.203 57.2811 431.814 57.8418C432.455 58.4025 433.533 58.6976 435.106 58.6976Z" fill="#0573E8"/>
<path d="M50.1938 18.8638C47.3973 17.0636 45.4457 15.3225 43.7853 13.8174C41.2802 11.5451 40.4063 10.3942 36.9981 6.82335C35.6582 5.40683 33.7065 3.4296 31.3179 1.09823C30.8809 0.68508 30.0945 0.567035 29.5701 0.891655C23.3947 4.49199 17.2192 8.09232 11.0438 11.7222C10.4904 12.0468 10.1991 12.8436 10.3738 13.4633C11.5681 17.1522 12.7624 20.841 13.9568 24.5299C15.355 24.1758 16.5201 23.8807 18.1805 23.32C18.8796 23.0839 19.637 22.8183 20.4235 22.5527C19.6661 20.1623 18.8796 17.7719 18.1223 15.3815L29.5993 8.71205C31.8713 11.5156 33.9104 13.7584 35.4834 15.3815C37.872 17.89 39.5324 19.6016 42.0958 21.6673C44.7174 23.7626 46.9313 25.0906 47.7469 25.5628C49.9899 26.8908 53.1358 28.4844 57.1557 29.7533C57.5635 27.4515 58.0587 25.5038 58.7578 23.0839C55.0875 21.7854 52.2328 20.1918 50.1938 18.8638Z" fill="#0573E8"/>
<path d="M25.6922 23.4646C22.7501 24.9992 20.3032 25.855 18.1768 26.5633C14.9725 27.6257 13.5743 27.8028 8.79709 29.0127C6.90367 29.4849 4.2529 30.1931 1.04866 31.1375C0.46607 31.3146 0 31.9343 0 32.554C0 39.7842 0 46.9849 0 54.215C0 54.8643 0.52433 55.5135 1.16518 55.6611C4.92287 56.4579 8.65144 57.2547 12.4091 58.0515C12.8169 56.6644 13.1374 55.4545 13.4869 53.7429C13.6326 53.0051 13.8073 52.2083 13.953 51.382C11.5353 50.8508 9.11751 50.3491 6.69977 49.8179L6.7289 36.4199C10.2536 35.8297 13.1956 35.151 15.3803 34.5903C18.7011 33.764 21.0314 33.1442 24.0609 31.9343C27.1486 30.6653 29.3916 29.3963 30.2072 28.9242C32.4502 27.6257 35.3923 25.6485 38.5091 22.7564C36.7322 21.2513 35.334 19.8348 33.5862 18.0051C30.6442 20.6021 27.8477 22.3137 25.6922 23.4646Z" fill="#0573E8"/>
<path d="M17.4609 47.1327C17.3152 50.4674 16.7909 53.0644 16.3248 55.2777C15.6257 58.6124 15.1014 59.9404 13.7323 64.7212C13.208 66.6099 12.4797 69.2954 11.6641 72.5711C11.5185 73.1613 11.8389 73.8991 12.3632 74.1942C18.5095 77.7945 24.6558 81.3949 30.8022 84.9952C31.4139 85.3493 32.2295 85.1723 32.6664 84.6411C34.0646 82.8409 35.6376 80.9817 37.3854 79.093C38.3758 78.0306 39.3953 77.0272 40.3566 76.0829C39.9197 75.6107 39.3662 75.05 38.7254 74.4008C38.2884 73.9581 37.7932 73.5154 37.2106 72.9842C36.6572 72.4826 36.0746 71.9514 35.4046 71.3907C34.5016 72.1875 33.4821 73.1613 32.4917 74.3122C31.7052 75.2271 31.0061 76.1419 30.4235 76.9682C26.6075 74.7254 22.7916 72.4826 18.9756 70.2102C20.2282 66.8165 21.1312 63.8949 21.7429 61.7111C22.675 58.3763 23.345 56.045 23.8111 52.7693C24.2772 49.4345 24.3063 46.8376 24.3063 45.8637C24.3063 43.2372 24.1024 39.6664 23.1994 35.5054C21.0147 36.3022 19.0921 36.8334 16.7035 37.4531C17.4609 41.378 17.5483 44.6833 17.4609 47.1327Z" fill="#0573E8"/>
<path d="M33.4384 66.3432C36.2348 68.1433 38.1865 69.8845 39.8469 71.3895C42.352 73.6619 43.2259 74.8128 46.634 78.3836C47.974 79.8002 49.9257 81.7774 52.3143 84.1088C52.7512 84.5219 53.5377 84.6399 54.062 84.3153C60.2375 80.715 66.4129 77.1147 72.5884 73.4848C73.1418 73.1602 73.4331 72.3634 73.2583 71.7437C72.064 68.0548 70.8697 64.3659 69.6754 60.6771C68.2772 61.0312 67.112 61.3263 65.4516 61.887C64.7525 62.1231 63.9952 62.3887 63.2087 62.6543C63.966 65.0447 64.7525 67.4351 65.5099 69.8255L54.0038 76.5244C51.7317 73.7209 49.6926 71.4781 48.1196 69.855C45.731 67.3465 44.0706 65.6349 41.5073 63.5691C38.8856 61.4739 36.6718 60.1459 35.8561 59.6737C33.6132 58.3457 30.4672 56.7521 26.4473 55.4832C26.0395 57.785 25.5443 59.7327 24.8452 62.1526C28.5155 63.4511 31.3993 65.0152 33.4384 66.3432Z" fill="#0573E8"/>
<path d="M57.9073 61.9496C60.8494 60.415 63.2962 59.5592 65.4227 58.851C68.6269 57.7886 70.0251 57.6115 74.8024 56.4015C76.6958 55.9294 79.3465 55.2211 82.5508 54.2768C83.1334 54.0997 83.5994 53.48 83.5994 52.8602C83.5994 45.6301 83.5994 38.4294 83.5994 31.1992C83.5994 30.55 83.0751 29.9007 82.4343 29.7532C78.6766 28.9564 74.948 28.1596 71.1903 27.3628C70.7825 28.7498 70.4621 29.9598 70.1125 31.6714C69.9669 32.4092 69.7921 33.206 69.6464 34.0323C72.0642 34.5635 74.4819 35.0651 76.8997 35.5963L76.8705 48.9943C73.3459 49.5845 70.4038 50.2633 68.2191 50.824C64.8983 51.6503 62.568 52.27 59.5385 53.48C56.4508 54.7489 54.2078 56.0179 53.3922 56.4901C51.1493 57.7886 48.2072 59.7658 45.0903 62.6579C46.8672 64.1629 48.2654 65.5794 50.0132 67.4091C52.9844 64.8122 55.7517 63.071 57.9073 61.9496Z" fill="#0573E8"/>
<path d="M66.1895 38.0736C66.3352 34.7389 66.8595 32.1419 67.3256 29.9286C68.0247 26.5938 68.549 25.2659 69.9181 20.4851C70.4424 18.5964 71.1706 15.9109 71.9863 12.6352C72.1319 12.045 71.8115 11.3072 71.2872 11.0121C65.1117 7.41174 58.9363 3.7819 52.7608 0.181563C52.2074 -0.143057 51.3918 -0.0250136 50.9548 0.476672C48.3914 3.36874 45.828 6.26081 43.2646 9.15288C44.255 10.2153 45.0998 11.0711 46.4106 12.2515C46.9641 12.7532 47.5467 13.2844 48.2167 13.8451C49.877 11.9859 51.5374 10.1267 53.1978 8.23805L64.6457 14.996C63.3931 18.3898 62.4901 21.3114 61.8784 23.4952C60.9462 26.8299 60.2762 29.1613 59.8102 32.437C59.3441 35.7717 59.315 38.3687 59.315 39.3426C59.315 41.969 59.5189 45.5399 60.4219 49.7009C62.6066 48.9041 64.5291 48.3729 66.9178 47.7532C66.1604 43.8577 66.073 40.5525 66.1895 38.0736Z" fill="#0573E8"/>
</svg>
