<svg width="331" height="304" viewBox="0 0 331 304" fill="none" xmlns="http://www.w3.org/2000/svg">
<path d="M104.628 15.6685C104.628 23.4799 99.3565 29.8123 92.8536 29.8123C86.3507 29.8123 81.0791 23.4799 81.0791 15.6685C81.0791 7.85706 86.3507 1.52466 92.8536 1.52466C99.3565 1.52466 104.628 7.85706 104.628 15.6685Z" fill="#FFC6C6"/>
<path fill-rule="evenodd" clip-rule="evenodd" d="M84.3358 95.9526C92.8399 76.8829 97.0803 54.0156 93.5314 33.5289L82.3838 35.4297C85.7561 53.8629 82.0336 73.3884 74.0014 91.2131C66.0575 108.937 54.1456 123.623 41.658 131.345L47.6596 141.037C62.5452 131.832 75.7432 115.123 84.3358 95.9526Z" fill="#FFC6C6"/>
<path fill-rule="evenodd" clip-rule="evenodd" d="M92.8432 33.6452L82.3842 35.4286C84.7954 48.6081 83.5796 62.346 79.755 75.6214L90.4685 78.9298C94.5876 64.2048 96.0498 48.4487 93.5914 33.8762L92.8432 33.6452Z" fill="#0078E8"/>
<path fill-rule="evenodd" clip-rule="evenodd" d="M8.51843 267.073L26.9238 251.641L22.5283 246.182L4.123 261.615L8.51843 267.073Z" fill="#FFC6C6"/>
<path fill-rule="evenodd" clip-rule="evenodd" d="M101.53 284.402V260.155H94.5864V284.402H101.53Z" fill="#FFC6C6"/>
<path fill-rule="evenodd" clip-rule="evenodd" d="M110.514 73.3221L110.515 152.55L92.4603 150.518L65.379 142.392V93.7512C65.3789 93.7131 65.3789 93.675 65.3789 93.6369C65.3789 93.5528 65.3789 93.4688 65.379 93.3849V81.448L65.5158 81.4234C66.3871 46.2889 71.6517 34.5262 87.9467 32.6926C100.411 32.6926 110.514 32.6926 110.514 73.3221Z" fill="white"/>
<path d="M110.515 152.549L94.8913 150.787L93.681 276.318H103.493L110.515 152.549Z" fill="black"/>
<path d="M86.2109 147.263L65.3791 141.976C65.3791 141.976 70.5871 212.48 16.7716 251.257L21.9795 260.07C77.531 223.055 86.2109 147.263 86.2109 147.263Z" fill="black"/>
<path d="M117.583 298.96L101.884 284.817H94.034V296.94L117.583 298.96Z" fill="#50AFCD"/>
<path d="M12.0512 283.229L13.4731 263.63L8.50213 257.458L0.000166429 262.646L12.0512 283.229Z" fill="#50AFCD"/>
<path fill-rule="evenodd" clip-rule="evenodd" d="M110.514 127.892V152.55L92.4603 150.518L65.3789 142.392V123.657L110.514 127.892Z" fill="black"/>
<path fill-rule="evenodd" clip-rule="evenodd" d="M101.489 95.3726C93.0796 83.7186 88.5318 68.1402 91.2865 52.2057L101.698 50.5948C99.0525 64.9803 103.03 78.2548 110.968 89.1255C118.822 99.9461 130.283 107.478 142.093 109.763L136.773 118.464C122.694 115.741 109.984 107.077 101.489 95.3726Z" fill="#FFC6C6"/>
<path fill-rule="evenodd" clip-rule="evenodd" d="M91.9505 50.9941L101.243 48.0614C100.01 57.7972 100.758 67.6823 105 75.0247L91.9505 80.2456C87.3528 72.053 90.1284 62.1259 91.3098 51.4429L91.9505 50.9941Z" fill="white"/>
<path fill-rule="evenodd" clip-rule="evenodd" d="M96.4722 27.2448C98.6163 27.5602 100.888 26.8744 103.95 24.7728L102.589 22.7284C99.7635 24.6679 98.1108 24.9924 96.8207 24.8026C95.7306 24.6423 94.8039 24.1374 93.5006 23.4272C93.0643 23.1894 92.5857 22.9287 92.0446 22.6501L90.9456 24.851C91.3247 25.0462 91.7043 25.2544 92.0863 25.4638C93.4858 26.2311 94.9175 27.0161 96.4722 27.2448Z" fill="black"/>
<path fill-rule="evenodd" clip-rule="evenodd" d="M101.223 16.3593C100.814 15.2142 100.559 14.2178 100.559 13.6479H98.1291C98.1291 14.6945 98.529 16.0554 98.9378 17.2003C99.0933 17.6349 99.2612 18.0677 99.4281 18.4758H95.4195V20.9434H101.307H103.261L102.397 19.164C102.079 18.5108 101.615 17.4619 101.223 16.3593Z" fill="black"/>
<path fill-rule="evenodd" clip-rule="evenodd" d="M122.626 114.779L99.9998 47.6436L103.287 46.5247L125.913 113.66L122.626 114.779Z" fill="black"/>
<line y1="-4" x2="23.2456" y2="-4" transform="matrix(0.772022 0.635596 -0.634151 0.773209 304.367 261.14)" stroke="#DFBAAA" stroke-width="8"/>
<line x1="235.419" y1="267.081" x2="235.419" y2="290.425" stroke="#DFBAAA" stroke-width="8"/>
<path d="M222.976 164.463L238.188 162.775L239.366 282.975H229.813L222.976 164.463Z" fill="black"/>
<path d="M246.32 159.38L266.734 154.331C266.734 154.331 261.631 221.644 314.367 258.667L309.264 267.081C254.826 231.741 246.32 159.38 246.32 159.38Z" fill="black"/>
<path d="M216.519 303.836L231.751 290.425H239.366V301.92L216.519 303.836Z" fill="white"/>
<path d="M319.213 289.016L317.827 270.253L322.674 264.343L330.964 269.311L319.213 289.016Z" fill="white"/>
<path fill-rule="evenodd" clip-rule="evenodd" d="M222.862 140.697V164.304L240.465 162.359L266.871 154.58V136.643L222.862 140.697Z" fill="black"/>
<path fill-rule="evenodd" clip-rule="evenodd" d="M213.931 90.46C225.919 78.9785 235.844 63.4234 239.245 47.2833L230.354 45.338C227.428 59.9139 218.878 73.1654 207.61 83.8724C196.439 94.5315 183.2 101.766 171.588 103.702L173.209 112.634C187.05 110.326 201.848 101.99 213.931 90.46Z" fill="#DFBAAA"/>
<path fill-rule="evenodd" clip-rule="evenodd" d="M223.545 79.7718C231.067 70.0568 236.882 58.7611 239.347 47.1719L230.443 45.2409C228.325 55.6913 223.327 65.4691 216.516 74.1252L223.545 79.7718Z" fill="#1F3C5F"/>
<path d="M258.203 59.1722C251.851 48.0725 237.03 43.9761 230.413 45.2975L216.519 142.42L270.113 146.384C270.775 121.278 264.555 70.2719 258.203 59.1722Z" fill="#1F3C5F"/>
<path fill-rule="evenodd" clip-rule="evenodd" d="M229.002 96.1293C240.507 83.4237 248.612 70.1869 250.931 53.313L242.607 48.4483C240.663 63.6764 232.828 77.9528 222.008 89.8078C211.283 101.606 198.178 110.029 186.36 112.875L188.685 121.956C202.772 118.564 217.402 108.891 229.002 96.1293Z" fill="#DFBAAA"/>
<path fill-rule="evenodd" clip-rule="evenodd" d="M247.121 49.8157L242.514 47.614C241.224 58.819 236.825 69.4846 230.397 79.0801L238.59 84.7575C245.045 75.2042 249.632 64.8109 252.124 53.2826L247.121 49.8157Z" fill="#1F3C5F"/>
<ellipse cx="236.138" cy="24.9423" rx="12.169" ry="14.6525" fill="#DFBAAA"/>
<path d="M227.943 22.7073C227.943 24.4291 226.618 27.7294 225.956 29.1643H231.916" stroke="black" stroke-width="3"/>
<path d="M223.969 33.1377C230.178 37.4392 232.247 35.2884 236.387 33.1377" stroke="black" stroke-width="3"/>
<path fill-rule="evenodd" clip-rule="evenodd" d="M226.829 14.9692L245.034 15.1331C244.653 13.703 244.047 12.2216 243.118 10.8628C241.621 8.58964 239.491 7.06091 236.13 7.2756C232.518 7.50644 230.188 9.27171 228.629 11.4977C227.796 12.6447 227.22 13.8311 226.829 14.9692Z" fill="#800000"/>
<path fill-rule="evenodd" clip-rule="evenodd" d="M251.895 15.9642C251.815 14.1784 250.648 10.8971 248.4 7.39151C245.94 3.65729 241.826 0.576752 235.718 0.967011C229.863 1.34113 225.902 4.35991 223.445 7.86819C221.157 11.2215 220.04 15.355 219.82 17.8251L219.532 21.2252L222.947 21.256L249.253 21.2476C250.713 21.2471 251.895 20.0649 251.895 18.6055V18.6055C251.895 18.6055 251.975 17.75 251.895 15.9642ZM226.829 14.9692L245.034 15.1331C244.653 13.703 244.047 12.2216 243.118 10.8628C241.621 8.58964 239.491 7.06091 236.13 7.2756C232.518 7.50644 230.188 9.27171 228.629 11.4977C227.796 12.6447 227.22 13.8311 226.829 14.9692Z" fill="#800000"/>
<path d="M131.584 77.2324L166.789 77.2324L179.201 114.215L144.232 114.215L131.584 77.2324Z" fill="black"/>
<rect x="144.87" y="111.075" width="64.966" height="3.16907" fill="black"/>
</svg>
