<svg width="413" height="325" viewBox="0 0 413 325" fill="none" xmlns="http://www.w3.org/2000/svg">
<path d="M357.744 279.994C375.596 273.945 391.239 269.623 400.957 270.238C415.469 271.156 416.865 276.683 402.431 283.437C396.26 286.325 399.616 283.248 389.036 290.923C389.036 290.923 387.789 291.437 385.687 292.13L313.335 318.217L303.87 315.71L344.623 294.414L284.274 310.054L270.2 309.164C294.207 303.953 327.324 290.431 355.451 280.776L357.132 279.558C357.335 279.706 357.539 279.851 357.744 279.994Z" fill="black" fill-opacity="0.1"/>
<path fill-rule="evenodd" clip-rule="evenodd" d="M271.5 139.5C280.5 117.5 285.836 114.139 284.314 97.5885L279 93.9995C275.661 101.365 270.576 115 262.5 131.501C251.732 153.5 246.947 161.94 236.05 173.723L241.499 181.971C255.12 170.188 262.5 155.5 271.5 139.5Z" fill="#9D6D4B"/>
<path d="M273.57 61.1918C279.346 54.253 282.548 55.0263 283.677 55.0261C285.194 55.0258 285.699 55.5395 285.699 55.5395C285.699 55.5395 286.643 54.8655 288.226 55.0262C293.28 55.5393 301.145 57.4916 303.387 63.7597C313.495 92.0184 314 104.863 314 104.863C314 104.863 306.319 100.131 300.86 110H267C267 110 268.011 67.8701 273.57 61.1918Z" fill="#2B1603"/>
<ellipse rx="13.8305" ry="15.3363" transform="matrix(0.99905 -0.0435826 0.0952159 0.995457 286.907 73.0027)" fill="#9D6D4B"/>
<line opacity="0.8" x1="277" y1="284" x2="277" y2="305" stroke="#9D6D4B" stroke-width="8"/>
<path d="M318 287L324 312" stroke="#9D6D4B" stroke-width="8"/>
<path d="M298 320L318 308H328V318.286L298 320Z" fill="white"/>
<path d="M267.5 170.5L288 183L283 298H269.5L267.5 170.5Z" fill="#1F3C5F"/>
<path d="M293 186L318.5 189.5C318.5 189.5 318 264.582 328 301.254C322.258 302.313 313 303 313 303C305.5 269.821 293 186 293 186Z" fill="#1F3C5F"/>
<path d="M252 318L272.667 305H283V316.143L252 318Z" fill="white"/>
<path fill-rule="evenodd" clip-rule="evenodd" d="M318.524 170.47V191.602L298.184 189.861L267.674 182.896V166.84L318.524 170.47Z" fill="#1F3C5F"/>
<path d="M314.179 103.131C306.837 94.367 286.647 90.4576 279 91.5009L263.5 171L327.944 171.987C328.709 152.165 321.52 111.894 314.179 103.131Z" fill="black"/>
<path fill-rule="evenodd" clip-rule="evenodd" d="M352.332 93.6072C338.765 105.061 320.557 112.817 301.849 112.389L299.846 100.909C316.736 101.473 332.251 94.7491 344.905 83.9591C357.5 73.2733 366.202 59.0691 368.749 45.3528L379.007 49.8941C375.971 66.2442 365.956 82.0488 352.332 93.6072Z" fill="#9D6D4B"/>
<path fill-rule="evenodd" clip-rule="evenodd" d="M337.75 105.113C327.218 111.258 314.848 114.799 301.501 114.415L296.397 99.9231C308.222 100.399 318.823 97.5202 327.996 92.181L337.75 105.113Z" fill="black"/>
<path d="M229 49L195 38.3846L198.091 26L229 49Z" fill="#99CEFF"/>
<rect width="200" height="60" rx="30" fill="#99CEFF"/>
<path d="M55.6806 39.288C54.8646 39.288 54.0566 39.136 53.2566 38.832C52.4726 38.512 51.7926 38.12 51.2166 37.656L52.5126 35.88C53.0406 36.296 53.5606 36.624 54.0726 36.864C54.6006 37.088 55.1686 37.2 55.7766 37.2C56.4166 37.2 56.8886 37.072 57.1926 36.816C57.4966 36.544 57.6486 36.2 57.6486 35.784C57.6486 35.544 57.5766 35.336 57.4326 35.16C57.2886 34.968 57.0966 34.8 56.8566 34.656C56.6166 34.512 56.3446 34.384 56.0406 34.272C55.7366 34.144 55.4326 34.016 55.1286 33.888C54.7446 33.744 54.3526 33.576 53.9526 33.384C53.5526 33.192 53.1926 32.96 52.8726 32.688C52.5686 32.416 52.3126 32.104 52.1046 31.752C51.9126 31.384 51.8166 30.952 51.8166 30.456C51.8166 29.416 52.2006 28.568 52.9686 27.912C53.7366 27.256 54.7846 26.928 56.1126 26.928C56.9286 26.928 57.6646 27.072 58.3206 27.36C58.9766 27.648 59.5446 27.976 60.0246 28.344L58.7526 30.024C58.3366 29.72 57.9126 29.48 57.4806 29.304C57.0646 29.112 56.6246 29.016 56.1606 29.016C55.5686 29.016 55.1286 29.144 54.8406 29.4C54.5686 29.64 54.4326 29.944 54.4326 30.312C54.4326 30.552 54.4966 30.76 54.6246 30.936C54.7686 31.096 54.9526 31.24 55.1766 31.368C55.4006 31.496 55.6566 31.616 55.9446 31.728C56.2486 31.84 56.5606 31.952 56.8806 32.064C57.2806 32.208 57.6806 32.376 58.0806 32.568C58.4806 32.744 58.8406 32.968 59.1606 33.24C59.4966 33.512 59.7606 33.848 59.9526 34.248C60.1606 34.632 60.2646 35.096 60.2646 35.64C60.2646 36.152 60.1606 36.632 59.9526 37.08C59.7606 37.512 59.4726 37.896 59.0886 38.232C58.7046 38.552 58.2246 38.808 57.6486 39C57.0726 39.192 56.4166 39.288 55.6806 39.288ZM65.5846 39.288C64.5446 39.288 63.7046 38.976 63.0646 38.352C62.4246 37.712 62.1046 36.872 62.1046 35.832C62.1046 35.208 62.2326 34.656 62.4886 34.176C62.7606 33.68 63.1766 33.256 63.7366 32.904C64.3126 32.552 65.0326 32.256 65.8966 32.016C66.7766 31.776 67.8246 31.592 69.0406 31.464C69.0246 31.16 68.9766 30.872 68.8966 30.6C68.8326 30.312 68.7126 30.064 68.5366 29.856C68.3766 29.632 68.1606 29.464 67.8886 29.352C67.6166 29.224 67.2806 29.16 66.8806 29.16C66.3046 29.16 65.7366 29.272 65.1766 29.496C64.6326 29.72 64.0966 29.992 63.5686 30.312L62.5606 28.464C63.2166 28.048 63.9526 27.688 64.7686 27.384C65.5846 27.08 66.4646 26.928 67.4086 26.928C68.8806 26.928 69.9766 27.368 70.6966 28.248C71.4326 29.112 71.8006 30.368 71.8006 32.016V39H69.5206L69.3286 37.704H69.2326C68.7046 38.152 68.1366 38.528 67.5286 38.832C66.9366 39.136 66.2886 39.288 65.5846 39.288ZM66.4726 37.128C66.9526 37.128 67.3846 37.016 67.7686 36.792C68.1686 36.568 68.5926 36.248 69.0406 35.832V33.192C68.2406 33.288 67.5686 33.416 67.0246 33.576C66.4806 33.736 66.0406 33.92 65.7046 34.128C65.3686 34.32 65.1286 34.544 64.9846 34.8C64.8406 35.056 64.7686 35.328 64.7686 35.616C64.7686 36.144 64.9286 36.528 65.2486 36.768C65.5686 37.008 65.9766 37.128 66.4726 37.128ZM75.8956 43.848C75.5756 43.848 75.2956 43.824 75.0556 43.776C74.8156 43.744 74.5836 43.688 74.3596 43.608L74.8636 41.448C74.9756 41.48 75.1036 41.512 75.2476 41.544C75.4076 41.592 75.5596 41.616 75.7036 41.616C76.3276 41.616 76.8236 41.424 77.1916 41.04C77.5756 40.672 77.8636 40.192 78.0556 39.6L78.2716 38.856L73.6396 27.216H76.4476L78.4876 33C78.6636 33.512 78.8316 34.056 78.9916 34.632C79.1676 35.192 79.3436 35.752 79.5196 36.312H79.6156C79.7596 35.768 79.9036 35.216 80.0476 34.656C80.2076 34.08 80.3596 33.528 80.5036 33L82.2796 27.216H84.9436L80.6716 39.528C80.4316 40.2 80.1676 40.8 79.8796 41.328C79.5916 41.856 79.2556 42.304 78.8716 42.672C78.5036 43.056 78.0716 43.344 77.5756 43.536C77.0956 43.744 76.5356 43.848 75.8956 43.848ZM91.7911 39V22.056H94.5511V26.424L94.4551 28.704C94.9511 28.24 95.4951 27.832 96.0871 27.48C96.6951 27.112 97.4071 26.928 98.2231 26.928C99.4871 26.928 100.407 27.336 100.983 28.152C101.559 28.952 101.847 30.104 101.847 31.608V39H99.0871V31.968C99.0871 30.992 98.9431 30.304 98.6551 29.904C98.3671 29.504 97.8951 29.304 97.2391 29.304C96.7271 29.304 96.2711 29.432 95.8711 29.688C95.4871 29.928 95.0471 30.288 94.5511 30.768V39H91.7911ZM110.214 39.288C109.398 39.288 108.638 39.152 107.934 38.88C107.23 38.592 106.614 38.184 106.086 37.656C105.558 37.128 105.142 36.488 104.838 35.736C104.55 34.968 104.406 34.096 104.406 33.12C104.406 32.16 104.558 31.296 104.862 30.528C105.166 29.76 105.566 29.112 106.062 28.584C106.574 28.056 107.158 27.648 107.814 27.36C108.47 27.072 109.142 26.928 109.83 26.928C110.63 26.928 111.334 27.064 111.942 27.336C112.55 27.608 113.054 27.992 113.454 28.488C113.87 28.984 114.182 29.576 114.39 30.264C114.598 30.952 114.702 31.704 114.702 32.52C114.702 32.792 114.686 33.048 114.654 33.288C114.638 33.528 114.614 33.72 114.582 33.864H107.094C107.222 34.92 107.59 35.736 108.198 36.312C108.822 36.872 109.614 37.152 110.574 37.152C111.086 37.152 111.558 37.08 111.99 36.936C112.438 36.776 112.878 36.56 113.31 36.288L114.246 38.016C113.686 38.384 113.062 38.688 112.374 38.928C111.686 39.168 110.966 39.288 110.214 39.288ZM107.07 31.992H112.302C112.302 31.08 112.102 30.368 111.702 29.856C111.318 29.328 110.718 29.064 109.902 29.064C109.198 29.064 108.582 29.312 108.054 29.808C107.526 30.304 107.198 31.032 107.07 31.992ZM120.026 39.288C119.034 39.288 118.338 38.992 117.938 38.4C117.538 37.808 117.338 37 117.338 35.976V22.056H120.098V36.12C120.098 36.456 120.162 36.696 120.29 36.84C120.418 36.968 120.554 37.032 120.698 37.032C120.762 37.032 120.818 37.032 120.866 37.032C120.93 37.032 121.018 37.016 121.13 36.984L121.49 39.048C121.122 39.208 120.634 39.288 120.026 39.288ZM126.542 39.288C125.55 39.288 124.854 38.992 124.454 38.4C124.054 37.808 123.854 37 123.854 35.976V22.056H126.614V36.12C126.614 36.456 126.678 36.696 126.806 36.84C126.934 36.968 127.07 37.032 127.214 37.032C127.278 37.032 127.334 37.032 127.382 37.032C127.446 37.032 127.534 37.016 127.646 36.984L128.006 39.048C127.638 39.208 127.15 39.288 126.542 39.288ZM135.193 39.288C134.457 39.288 133.753 39.152 133.081 38.88C132.409 38.608 131.809 38.208 131.281 37.68C130.769 37.152 130.361 36.504 130.057 35.736C129.753 34.968 129.601 34.096 129.601 33.12C129.601 32.144 129.753 31.272 130.057 30.504C130.361 29.736 130.769 29.088 131.281 28.56C131.809 28.032 132.409 27.632 133.081 27.36C133.753 27.072 134.457 26.928 135.193 26.928C135.929 26.928 136.633 27.072 137.305 27.36C137.993 27.632 138.593 28.032 139.105 28.56C139.617 29.088 140.025 29.736 140.329 30.504C140.649 31.272 140.809 32.144 140.809 33.12C140.809 34.096 140.649 34.968 140.329 35.736C140.025 36.504 139.617 37.152 139.105 37.68C138.593 38.208 137.993 38.608 137.305 38.88C136.633 39.152 135.929 39.288 135.193 39.288ZM135.193 37.032C136.057 37.032 136.737 36.68 137.233 35.976C137.729 35.256 137.977 34.304 137.977 33.12C137.977 31.92 137.729 30.968 137.233 30.264C136.737 29.544 136.057 29.184 135.193 29.184C134.329 29.184 133.649 29.544 133.153 30.264C132.673 30.968 132.433 31.92 132.433 33.12C132.433 34.304 132.673 35.256 133.153 35.976C133.649 36.68 134.329 37.032 135.193 37.032ZM144.645 33.84L144.261 25.656L144.189 22.92H146.973L146.877 25.656L146.493 33.84H144.645ZM145.581 39.288C145.069 39.288 144.637 39.112 144.285 38.76C143.949 38.408 143.781 37.96 143.781 37.416C143.781 36.872 143.949 36.424 144.285 36.072C144.637 35.72 145.069 35.544 145.581 35.544C146.093 35.544 146.517 35.72 146.853 36.072C147.189 36.424 147.357 36.872 147.357 37.416C147.357 37.96 147.189 38.408 146.853 38.76C146.517 39.112 146.093 39.288 145.581 39.288Z" fill="#135FC5"/>
<path d="M262.5 130.5C262.5 130.5 278 92 279.5 92C281 92 283.669 143.316 274.5 137L262.5 130.5Z" fill="black" stroke="black"/>
<path d="M277 83.9551C282.876 87.3822 284.63 85.3669 288.261 83.231" stroke="black" stroke-width="2.67094"/>
<path d="M280.138 74.2406C280.237 75.7563 279.174 78.7418 278.631 80.0451L284.261 79.683" stroke="black" stroke-width="2.67094"/>
<path d="M281.5 65.9999C281.5 65.9999 282.5 55.9997 286.5 56.4996C290.5 56.9995 295.277 57.7757 298.5 60.999C304.733 72.0149 304.191 78.3727 305.5 90.5004C306.171 96.7218 307 109.999 307 109.999H292C292 109.999 294.5 104 294.5 88.501C294.5 73.0016 294 65.917 287.5 64.999C285.18 64.6713 281.5 65.9999 281.5 65.9999Z" fill="#2A1603"/>
<path d="M281.5 66C281.5 66 283 60.5001 284.11 57.8645C285.22 55.2289 280 56.5002 276.61 60.8653C275.071 62.8473 274 65.0002 272.61 68.8648C271.198 72.7936 269 110 269 110H280.5C280.5 110 279 105.5 275.5 88.0002C271.999 70.5004 275.22 64.5 279 64.5C279.5 64.5 281.5 66 281.5 66Z" fill="#2A1603"/>
</svg>
