<svg width="757" height="288" viewBox="0 0 757 288" fill="none" xmlns="http://www.w3.org/2000/svg">
<path d="M698.43 49.4602C699.204 48.9944 700.135 48.8255 701.046 49.0633C702.889 49.5443 703.951 51.5072 703.417 53.4474C703.236 54.1046 702.896 54.6748 702.453 55.123C702.519 55.1363 702.585 55.1515 702.651 55.1688C704.607 55.6792 705.734 57.7623 705.167 59.8213C704.821 61.0799 703.922 62.0383 702.829 62.4766C704.381 63.1417 705.222 64.9309 704.734 66.7013C704.423 67.8319 703.639 68.7054 702.675 69.1423C703.089 69.7435 703.241 70.5377 703.024 71.3267C702.713 72.4594 701.736 73.2308 700.671 73.2872C700.695 73.6896 700.654 74.1056 700.54 74.5205C700.006 76.4608 698.079 77.6438 696.236 77.1628C695.542 76.9815 694.958 76.5899 694.529 76.0684C693.669 77.1344 692.281 77.6675 690.938 77.317C690.603 77.2294 690.293 77.0927 690.014 76.9159C689.125 78.2122 687.543 78.89 686.016 78.4915C684.215 78.0213 683.117 76.2171 683.398 74.3262C682.746 74.2225 682.091 74.0857 681.436 73.9148C678.726 73.2074 676.317 71.9937 674.323 70.4354C673.501 70.7594 672.587 70.837 671.69 70.6028C669.842 70.1205 668.615 68.4607 668.521 66.5707C668.185 66.5687 667.845 66.5255 667.507 66.4373C665.213 65.8385 663.892 63.395 664.556 60.9795C664.683 60.5173 664.874 60.0896 665.115 59.7043C664.222 59.1369 663.772 57.9932 664.083 56.8602C664.298 56.08 664.828 55.4712 665.485 55.1494C665.117 54.3844 665.016 53.4689 665.267 52.5584C665.753 50.7901 667.397 49.6508 669.079 49.8268C669.065 49.5462 669.095 49.2565 669.174 48.9675C669.476 47.8702 670.402 47.1119 671.428 47.0143C671.336 46.4085 671.369 45.7677 671.544 45.129C672.187 42.7927 674.507 41.3683 676.726 41.9475C677.326 42.104 677.857 42.3909 678.3 42.7722C678.917 42.0502 679.882 41.6953 680.816 41.9391C681.193 42.0375 681.524 42.2226 681.796 42.4692C682.304 41.3145 683.543 40.653 684.734 40.9637C685.766 41.2331 686.455 42.1531 686.521 43.2059C687.234 42.8584 688.053 42.752 688.856 42.9617C689.447 43.1158 689.957 43.4221 690.36 43.8311C691.191 43.1945 692.267 42.9296 693.315 43.2033C695.102 43.6695 696.154 45.5278 695.731 47.4084C696.037 47.3637 696.355 47.3779 696.67 47.46C697.622 47.7085 698.282 48.5108 698.43 49.4602Z" fill="black"/>
<path d="M691.466 75.4715C688.98 83.556 681.268 88.4808 674.242 86.4712C667.216 84.4616 663.536 76.2787 666.023 68.1942C668.509 60.1096 675.184 61.7706 682.822 60.5185C680.313 71.5784 693.953 67.3869 691.466 75.4715Z" fill="#BD8A5A"/>
<path d="M264.492 217.703C248.469 214.492 234.385 212.302 225.488 213.045C212.203 214.154 210.682 217.728 223.555 221.511C229.058 223.129 226.132 221.289 235.446 225.798C235.446 225.798 238.227 226.503 242.433 227.126L304.284 238.883L314.099 235.553L275.825 226.419L330.206 234.208L343.09 233.133C321.412 230.678 291.79 223.256 266.55 218.118L265.07 217.403C264.878 217.504 264.685 217.604 264.492 217.703Z" fill="black" fill-opacity="0.1"/>
<path d="M151.198 237.338C135.963 234.066 122.484 231.768 113.514 232.067C100.192 232.511 98.506 236.004 111.187 240.426C116.608 242.317 113.771 240.333 122.864 245.303L191.01 261.812L200.969 258.976L163.166 247.941L217.12 258.438L226.06 253.806C207.376 250.74 183.971 244.776 162.543 239.866C172.875 237.784 182.449 235.069 187.238 231.655L184.772 229.692C177.054 233.292 164.103 235.718 151.198 237.338Z" fill="black" fill-opacity="0.1"/>
<ellipse rx="8.6009" ry="10.5406" transform="matrix(-1 0 0 1 214.526 66.5605)" fill="#C69378"/>
<mask id="path-6-inside-1_2432_19361" fill="white">
<path fill-rule="evenodd" clip-rule="evenodd" d="M205.933 63.1867L222.888 61.0571C221.975 56.4383 218.579 53.0083 214.529 53.0083C209.878 53.0083 206.089 57.533 205.933 63.1867Z"/>
</mask>
<path fill-rule="evenodd" clip-rule="evenodd" d="M205.933 63.1867L222.888 61.0571C221.975 56.4383 218.579 53.0083 214.529 53.0083C209.878 53.0083 206.089 57.533 205.933 63.1867Z" fill="#333333"/>
<path d="M205.933 63.1867L206.266 65.8333L203.181 66.2207L203.267 63.1133L205.933 63.1867ZM222.888 61.0571L225.505 60.5396L226.06 63.347L223.221 63.7037L222.888 61.0571ZM205.601 60.5402L222.556 58.4105L223.221 63.7037L206.266 65.8333L205.601 60.5402ZM220.272 61.5746C219.525 57.7984 216.932 55.6757 214.529 55.6757V50.3409C220.226 50.3409 224.425 55.0782 225.505 60.5396L220.272 61.5746ZM214.529 55.6757C211.789 55.6757 208.73 58.5345 208.6 63.2602L203.267 63.1133C203.448 56.5316 207.967 50.3409 214.529 50.3409V55.6757Z" fill="#333333" mask="url(#path-6-inside-1_2432_19361)"/>
<line y1="-2.66736" x2="18.0436" y2="-2.66736" transform="matrix(-0.16907 0.985604 0.982554 0.185979 199.356 241.382)" stroke="#C69378" stroke-width="5.33472"/>
<line y1="-2.66736" x2="18.0696" y2="-2.66736" transform="matrix(0 1 1 0 223.127 232.586)" stroke="#C69378" stroke-width="5.33472"/>
<path d="M225.994 145.25H214.526L217.393 244.632H224.561L225.994 145.25Z" fill="#9F9F9F"/>
<path d="M211.659 148.261L197.325 151.273C197.325 151.273 197.325 216.022 191.591 247.644C194.883 248.557 200.192 249.149 200.192 249.149C204.492 220.539 211.659 148.261 211.659 148.261Z" fill="#9F9F9F"/>
<path d="M234.595 261.196L223.127 250.655H217.393V259.69L234.595 261.196Z" fill="#F8CB2C"/>
<path d="M205.41 266.543L197.068 254.72L191.425 253.651L189.112 260.764L205.41 266.543Z" fill="#F8CB2C"/>
<path fill-rule="evenodd" clip-rule="evenodd" d="M197.132 108.851C197.132 108.851 197.132 108.851 197.132 108.851C197.132 78.7355 203.55 78.7355 211.467 78.7355C221.817 80.0945 225.161 88.8135 225.715 114.856L225.801 114.875V123.407C225.801 123.574 225.801 123.741 225.801 123.909C225.801 123.986 225.801 124.062 225.801 124.138V160.049L208.599 166.072L197.132 167.578V108.851L197.132 108.851Z" fill="#F8CB2C"/>
<path fill-rule="evenodd" clip-rule="evenodd" d="M197.132 153.101V169.417L208.6 167.911L225.801 161.888V149.961L197.132 153.101Z" fill="#9F9F9F"/>
<path d="M231.728 60.5372L205.925 63.5489" stroke="#333333" stroke-width="2.66736"/>
<path d="M223.127 72.5837C218.827 75.5953 217.393 74.0895 214.526 72.5837" stroke="black" stroke-width="1.86715"/>
<path d="M220.26 65.0547C220.26 66.2593 221.216 68.5682 221.694 69.5721H217.393" stroke="black" stroke-width="1.86715"/>
<path fill-rule="evenodd" clip-rule="evenodd" d="M184.592 118.142C186.885 104.484 192.983 90.4801 202.576 80.8617L208.135 86.3269C199.404 94.9098 194.254 106.908 192.157 119.707C190.048 132.417 191.295 145.072 195.449 154.206L188.482 157.034C183.53 146.146 182.31 131.889 184.592 118.142Z" fill="#C69378"/>
<path fill-rule="evenodd" clip-rule="evenodd" d="M194.757 108.859L187.515 106.356C190.689 96.7733 195.746 87.7066 202.573 80.8616L208.133 86.3275C201.929 92.426 197.533 100.249 194.757 108.859Z" fill="#F8CB2C"/>
<path fill-rule="evenodd" clip-rule="evenodd" d="M244.653 115.181C231.665 108.958 219.179 98.7222 211.802 86.1313L218.435 81.9564C224.98 93.3686 235.694 102.061 247.877 107.839C259.969 113.604 272.751 115.9 282.698 114.209L283.947 122.178C272.09 124.194 257.731 121.416 244.653 115.181Z" fill="#C69378"/>
<path fill-rule="evenodd" clip-rule="evenodd" d="M237.881 102.193L233.816 108.946C224.986 102.954 217.084 95.1468 211.801 86.132L218.434 81.958C223.114 90.1169 229.926 96.8857 237.881 102.193Z" fill="#F8CB2C"/>
<path d="M318.57 22.7883C314.336 23.7726 308.066 29.1138 307.999 70.7883H321.389C321.398 36.2948 323.943 24.0142 318.57 22.7883Z" fill="#BD7433"/>
<path fill-rule="evenodd" clip-rule="evenodd" d="M337.216 109.529C328.659 95.4577 322.609 78.1296 322.381 62.045L330.514 62.6619C330.592 77.1479 335.83 91.936 343.888 105.082C351.869 118.157 362.25 128.586 372.107 133.594L369.159 141.533C357.409 135.563 345.85 123.672 337.216 109.529Z" fill="#F7D4BB"/>
<ellipse rx="8.04179" ry="9.8018" transform="matrix(-0.997792 -0.0664191 -0.0625617 0.998041 327.106 40.5192)" fill="#F7D4BB"/>
<line y1="-2" x2="16.8051" y2="-2" transform="matrix(0 1 1 0 335.314 209.844)" stroke="#F7D4BB" stroke-width="4"/>
<path d="M309.234 215.923V229.093" stroke="#F7D4BB" stroke-width="4"/>
<path d="M322.326 238.896L311.605 229.093H306.244V237.495L322.326 238.896Z" fill="white"/>
<path d="M328 128.62H337.995L343 221.048H323C325.834 205.698 330.8 165.723 328 128.62Z" fill="#1F3C5F"/>
<path d="M324.593 131.42L311.192 134.221C311.192 134.221 311.192 194.999 297.5 225.249C300.578 226.099 320.5 225.249 320.5 225.249C326 192.999 324.593 131.42 324.593 131.42Z" fill="#1F3C5F"/>
<path d="M346.035 236.452L335.314 226.649H329.954V235.052L346.035 236.452Z" fill="white"/>
<path fill-rule="evenodd" clip-rule="evenodd" d="M311.192 118.624V135.622L321.913 134.221L337.995 128.62V115.704L311.192 118.624Z" fill="#1F3C5F"/>
<path d="M334.779 46.6433C330.592 49.1713 329.342 47.6847 326.755 46.1092" stroke="black" stroke-width="2.11192"/>
<path d="M332.542 39.4776C332.472 40.5956 333.23 42.7978 333.617 43.7592L329.605 43.4921" stroke="black" stroke-width="2.11192"/>
<path d="M314.027 65.66C317.821 58.8188 326.672 56.294 330.624 57.1084L338.922 116.969L311.499 118.998C311.103 103.524 310.233 72.5012 314.027 65.66Z" fill="#BDAEF8"/>
<path fill-rule="evenodd" clip-rule="evenodd" d="M311.271 111.018C308.13 96.8607 308.33 80.7323 313.398 67.329L320.566 70.2064C315.886 82.2407 315.784 96.0266 318.774 109.271C321.72 122.435 327.707 134.101 334.997 141.121L329.723 146.847C321.032 138.479 314.456 125.256 311.271 111.018Z" fill="#F7D4BB"/>
<path fill-rule="evenodd" clip-rule="evenodd" d="M433.365 109.8L438.498 98.8081L444.752 101.878L439.618 112.87L433.365 109.8Z" fill="white"/>
<path fill-rule="evenodd" clip-rule="evenodd" d="M417.286 109.112L416.216 97.372L423.158 96.5844L424.227 108.325L417.286 109.112Z" fill="white"/>
<path fill-rule="evenodd" clip-rule="evenodd" d="M447.418 117.474L457.239 108.915L461.675 114.422L451.854 122.981L447.418 117.474Z" fill="white"/>
<ellipse rx="7.20744" ry="4.29014" transform="matrix(-0.851911 0.523686 0.523686 0.851911 321.983 30.3621)" fill="#BD7433"/>
<path d="M323.201 27.0798C322.097 29.1802 323.511 32.0973 326.359 33.5953C329.208 35.0933 335.452 38.0759 336.557 35.9755C337.661 33.8751 336.307 27.4871 333.458 25.9891C330.609 24.4911 324.306 24.9794 323.201 27.0798Z" fill="#BD7433"/>
<ellipse rx="9.5838" ry="11.8686" transform="matrix(-1 0 0 1 561.33 16.9233)" fill="#DFBAAA"/>
<path d="M470.173 194.179C445.394 195.996 500.494 202.796 546.954 211.271H560.371L518.391 202.655L530.781 201.444C563.303 207.498 615.957 207.306 615.957 207.306L614.409 205.49C540.073 198.831 489.996 192.726 470.173 194.179Z" fill="black" fill-opacity="0.1"/>
<line y1="-2.97346" x2="16.2904" y2="-2.97346" transform="matrix(0.761096 0.648639 -0.621003 0.783808 605.249 181.253)" stroke="#FFC6C6" stroke-width="5.94691"/>
<line x1="557.965" y1="187.083" x2="557.965" y2="203.685" stroke="#DFBAAA" stroke-width="5.94691"/>
<path fill-rule="evenodd" clip-rule="evenodd" d="M548.939 59.2197V113.407L561.101 112.016L579.344 106.452V64.7234L579.252 64.7065C578.665 40.65 575.119 32.596 564.142 31.3406C555.746 31.3406 548.939 31.3406 548.939 59.1596C548.939 59.1796 548.939 59.1997 548.939 59.2197Z" fill="#BDDEFF"/>
<path d="M548.939 113.407L562.5 111.5L566 154.5L560.279 198.151H553.669L544 155.5L548.939 113.407Z" fill="black"/>
<path d="M563.998 109.999L579.344 106.165C579.344 106.165 587.998 148.999 612.088 180.99L608.58 187.024C563.998 159.499 563.998 109.999 563.998 109.999Z" fill="black"/>
<path d="M544.415 213.369L554.991 203.685H560.279V211.986L544.415 213.369Z" fill="#7EB9F0"/>
<path d="M615.506 202.597L614.548 189.178L617.897 184.952L623.624 188.505L615.506 202.597Z" fill="#7EB9F0"/>
<path fill-rule="evenodd" clip-rule="evenodd" d="M548.939 96.5235V113.406L561.101 112.015L579.344 106.452V93.6238L548.939 96.5235Z" fill="black"/>
<path fill-rule="evenodd" clip-rule="evenodd" d="M563.537 71.7203C569.433 60.4871 572.896 46.7274 571.55 34.0432L564.727 34.6625C566.046 46.084 563.028 57.828 557.467 68.3238C551.963 78.7621 544.177 87.1531 536.314 91.2623L539.568 97.4728C548.94 92.5746 557.584 83.0111 563.537 71.7203Z" fill="#DFBAAA"/>
<path fill-rule="evenodd" clip-rule="evenodd" d="M571.5 34.3228L571.037 34.1359L564.605 34.677C565.707 43.7164 564.082 52.9407 560.619 61.58L567.06 64.1775C570.715 54.7322 572.567 44.2171 571.5 34.3228Z" fill="#BDDEFF"/>
<path fill-rule="evenodd" clip-rule="evenodd" d="M538.182 73.3222C547.586 64.6355 555.49 52.6676 558.413 40.0322L551.645 38.216C549.117 49.6315 542.31 59.824 533.473 67.9219C524.71 75.985 514.432 81.2789 505.505 82.4412L506.569 89.5443C517.21 88.1587 528.703 82.0437 538.182 73.3222Z" fill="#DFBAAA"/>
<path fill-rule="evenodd" clip-rule="evenodd" d="M558.363 40.2413L558.006 39.9245L551.643 38.2162C549.845 46.3378 545.882 53.8401 540.562 60.4094L545.832 65.0882C551.67 57.7638 556.258 49.1732 558.363 40.2413Z" fill="#BDDEFF"/>
<path d="M553.82 25.2181C557.786 27.985 559.108 26.6015 561.752 25.2181" stroke="black" stroke-width="2.08142"/>
<path d="M556.464 18.3008C556.464 19.4076 555.582 21.5289 555.142 22.4512H559.108" stroke="black" stroke-width="2.08142"/>
<path d="M646.196 256.153C613.523 252.625 564.2 239.01 543.543 241.618C531.689 243.114 530.527 246.968 542.287 250.709C542.287 250.709 540.75 260.422 517.678 253.916L522.91 257.775C538.027 263.632 553.195 255.011 553.195 255.011L615.68 267.38L624.296 263.591L589.449 254.729L638.668 261.777L646.196 256.153Z" fill="black" fill-opacity="0.1"/>
<g opacity="0.9">
<mask id="mask0_2432_19361" style="mask-type:alpha" maskUnits="userSpaceOnUse" x="681" y="118" width="51" height="67">
<path d="M731.368 125.167L681.678 118.068V176.436L725.721 184.542L731.368 183.535V125.167Z" fill="black"/>
</mask>
<g mask="url(#mask0_2432_19361)">
<path d="M731.368 125.167L681.678 118.068V176.436L725.721 184.542L731.368 183.535V125.167Z" fill="black"/>
<path d="M725.721 125.513L676.031 117.907V180.444L725.721 188.05V125.513Z" fill="#1E1E1E"/>
</g>
</g>
<g opacity="0.9">
<path d="M612.789 203.247C612.789 227.136 628.069 246.501 646.919 246.501C665.769 246.501 681.05 227.136 681.05 203.247C681.05 179.358 665.769 159.992 646.919 159.992C628.069 159.992 612.789 179.358 612.789 203.247ZM676.936 203.247C676.936 224.256 663.497 241.288 646.919 241.288C630.341 241.288 616.902 224.256 616.902 203.247C616.902 182.237 630.341 165.206 646.919 165.206C663.497 165.206 676.936 182.237 676.936 203.247Z" fill="#1E1E1E"/>
<path d="M616.804 203.247C616.804 227.136 632.085 246.501 650.935 246.501C669.785 246.501 685.066 227.136 685.066 203.247C685.066 179.358 669.785 159.992 650.935 159.992C632.085 159.992 616.804 179.358 616.804 203.247ZM680.31 203.247C680.31 223.807 667.158 240.474 650.935 240.474C634.712 240.474 621.56 223.807 621.56 203.247C621.56 182.687 634.712 166.02 650.935 166.02C667.158 166.02 680.31 182.687 680.31 203.247Z" fill="black"/>
<path d="M624.333 204.416C624.333 208.407 624.904 212.36 626.014 216.048C627.124 219.735 628.751 223.086 630.801 225.908C632.852 228.731 635.287 230.97 637.966 232.497C640.646 234.025 643.517 234.811 646.418 234.811L646.418 224.932C644.46 224.932 642.522 224.401 640.713 223.37C638.905 222.339 637.261 220.828 635.877 218.923C634.493 217.018 633.395 214.756 632.646 212.267C631.897 209.778 631.511 207.11 631.511 204.416H624.333Z" fill="white" fill-opacity="0.56"/>
</g>
<path d="M725.721 195.064V179.866L685.066 172.852L629.729 188.049V200.909L669.255 214.937L725.721 195.064Z" fill="black"/>
<path d="M725.721 195.064V179.866L685.066 172.852L629.729 188.049V200.909L669.255 214.937L725.721 195.064Z" fill="black"/>
<path d="M725.721 179.866L685.066 172.852L630.858 185.711L668.126 195.064L725.721 179.866Z" fill="#323232"/>
<path d="M725.721 179.866L685.066 172.852L630.858 185.711L668.126 195.064L725.721 179.866Z" fill="#323232"/>
<path fill-rule="evenodd" clip-rule="evenodd" d="M699.079 121.842C699.079 121.781 699.079 121.72 699.079 121.66C699.079 90.0664 691.046 90.0664 681.137 90.0664C668.183 91.4921 663.997 100.639 663.305 127.959L663.195 127.978V175.368L684.726 181.687L699.079 183.266V121.842Z" fill="#CECECE"/>
<path fill-rule="evenodd" clip-rule="evenodd" d="M699.079 161.961V184.821L684.726 182.938L663.195 175.404V158.034L699.079 161.961Z" fill="#81B341"/>
<path d="M666.783 80.6493C672.166 84.4161 673.96 82.5327 677.548 80.6493" stroke="black" stroke-width="2.46565"/>
<path d="M670.372 71.2322C670.372 72.7389 669.176 75.6268 668.578 76.8824H673.96" stroke="black" stroke-width="2.46565"/>
<line x1="619.414" y1="232.366" x2="619.414" y2="254.967" stroke="#BD8A5A" stroke-width="7.0447"/>
<path d="M601.538 268.151L615.891 254.967H623.068V266.267L601.538 268.151Z" fill="#CECECE"/>
<line y1="-3.52235" x2="22.5689" y2="-3.52235" transform="matrix(0.16918 0.985585 -0.982577 0.185858 641.867 239.38)" stroke="#BD8A5A" stroke-width="7.0447"/>
<path d="M634.29 270.851L644.731 256.062L651.794 254.726L654.689 263.623L634.29 270.851Z" fill="#CECECE"/>
<path fill-rule="evenodd" clip-rule="evenodd" d="M644.589 188.613C651.342 185.047 660.404 181.548 672.758 177.191L667.743 162.223C655.413 166.572 645.384 170.392 637.527 174.542C629.597 178.73 623.291 183.551 618.918 190.216C614.526 196.91 612.614 204.653 612.005 213.674C611.404 222.579 612.042 233.33 613.2 246.394L624.132 245.225C624.132 232.366 624.754 222.346 625.262 214.83C625.761 207.431 627.421 202.058 629.779 198.464C632.155 194.841 637.912 192.141 644.589 188.613Z" fill="#81B341"/>
<path fill-rule="evenodd" clip-rule="evenodd" d="M671.693 193.29C678.445 189.723 686.378 188.792 698.732 184.435L694.846 166.9C682.516 171.248 672.487 175.069 664.631 179.218C656.7 183.407 650.394 188.227 646.021 194.893C641.629 201.586 639.718 209.329 639.108 218.351C638.507 227.256 639.145 238.006 640.303 251.071L651.235 249.902C651.235 237.042 651.857 227.022 652.365 219.506C652.864 212.107 654.524 206.734 656.882 203.14C659.259 199.518 665.015 196.817 671.693 193.29Z" fill="#81B341"/>
<g opacity="0.9">
<path d="M664.737 214.937C664.737 238.826 680.018 258.192 698.868 258.192C717.718 258.192 732.999 238.826 732.999 214.937C732.999 191.048 717.718 171.683 698.868 171.683C680.018 171.683 664.737 191.048 664.737 214.937ZM728.007 214.937C728.007 235.333 714.961 251.866 698.868 251.866C682.775 251.866 669.729 235.333 669.729 214.937C669.729 194.542 682.775 178.008 698.868 178.008C714.961 178.008 728.007 194.542 728.007 214.937Z" fill="#1E1E1E"/>
<path d="M668.752 214.937C668.752 238.826 684.033 258.192 702.883 258.192C721.733 258.192 737.014 238.826 737.014 214.937C737.014 191.048 721.733 171.683 702.883 171.683C684.033 171.683 668.752 191.048 668.752 214.937ZM731.696 214.937C731.696 235.104 718.796 251.453 702.883 251.453C686.97 251.453 674.07 235.104 674.07 214.937C674.07 194.77 686.97 178.421 702.883 178.421C718.796 178.421 731.696 194.77 731.696 214.937Z" fill="black"/>
<path d="M678.54 216.106C678.54 220.098 679.112 224.05 680.221 227.738C681.331 231.426 682.958 234.776 685.009 237.599C687.06 240.421 689.494 242.66 692.174 244.188C694.853 245.715 697.725 246.501 700.625 246.501L700.625 236.622C698.667 236.622 696.729 236.091 694.92 235.06C693.112 234.029 691.469 232.518 690.084 230.613C688.7 228.708 687.602 226.446 686.853 223.957C686.104 221.468 685.718 218.8 685.718 216.106H678.54Z" fill="white" fill-opacity="0.56"/>
</g>
<rect opacity="0.9" width="13.5519" height="7.01424" transform="matrix(-1 0 0 1 741.532 127.259)" fill="black"/>
<mask id="mask1_2432_19361" style="mask-type:alpha" maskUnits="userSpaceOnUse" x="283" y="127" width="436" height="74">
<path d="M497.512 127.876C496.658 127.784 495.795 127.813 494.949 127.962L288.286 164.333C281.371 165.55 281.667 175.569 288.643 176.405L492.634 200.854C493.515 200.959 494.407 200.936 495.281 200.785L713.424 163.104C720.397 161.9 720.052 151.776 713.012 151.02L497.512 127.876Z" fill="white"/>
</mask>
<g mask="url(#mask1_2432_19361)">
<path d="M497.512 127.876C496.658 127.784 495.795 127.813 494.949 127.962L296.326 162.918C288.044 164.375 288.399 176.376 296.753 177.377L492.902 200.886C493.606 200.97 494.318 200.952 495.016 200.831L713.424 163.104C720.397 161.9 720.052 151.776 713.012 151.02L497.512 127.876Z" fill="white"/>
<path d="M497.512 116.972C496.658 116.88 495.795 116.909 494.949 117.058L288.286 153.429C281.371 154.646 281.667 164.666 288.643 165.502L492.634 189.95C493.516 190.056 494.407 190.033 495.281 189.882L713.424 152.201C720.397 150.997 720.052 140.873 713.012 140.117L497.512 116.972Z" fill="black" fill-opacity="0.07"/>
</g>
<path fill-rule="evenodd" clip-rule="evenodd" d="M641.772 135.548C656.965 127.447 671.312 114.557 679.391 99.0952L671.184 94.415C664.031 108.423 651.715 119.374 637.46 126.903C623.314 134.411 608.129 137.794 596.101 136.256L595.088 145.874C609.426 147.707 626.471 143.67 641.772 135.548Z" fill="#BD8A5A"/>
<path fill-rule="evenodd" clip-rule="evenodd" d="M654.387 127.539C664.608 119.919 673.607 110.167 679.391 99.0952L671.185 94.415C666.071 104.43 658.317 112.883 649.103 119.639L654.387 127.539Z" fill="#CECECE"/>
<path fill-rule="evenodd" clip-rule="evenodd" d="M673.398 144.68C684.869 131.567 692.95 117.905 695.262 100.49L686.962 95.4691C685.023 111.186 677.212 125.921 666.424 138.156C655.732 150.333 642.665 159.026 630.882 161.964L633.2 171.336C647.245 167.835 661.832 157.852 673.398 144.68Z" fill="#BD8A5A"/>
<path fill-rule="evenodd" clip-rule="evenodd" d="M691.461 96.8799L686.871 94.6083C685.583 106.173 681.198 117.181 674.789 127.085L682.957 132.945C689.394 123.085 693.967 112.358 696.451 100.46L691.461 96.8799Z" fill="#CECECE"/>
<path d="M389.454 144.366C388.512 144.249 387.557 144.279 386.625 144.455L315.666 157.855L464.248 176.226C465.195 176.343 466.156 176.311 467.093 176.131L536.981 162.737L389.454 144.366Z" fill="black" fill-opacity="0.05"/>
<path d="M379.401 119.45L421.562 119.45L436.427 165.298L394.548 165.298L379.401 119.45Z" fill="black"/>
<rect x="395.312" y="161.406" width="77.8024" height="3.92872" fill="black"/>
<path d="M548.27 4.75949C548.683 7.41304 548.678 13.4449 554.295 12.5699C556.382 12.2448 560.43 12.1138 562.976 12.651C565.522 13.1882 570.786 15.537 570.527 13.8692C571.096 9.07958 567.748 1.17866 559.225 3.05307C550.701 4.92748 547.857 2.10595 548.27 4.75949Z" fill="#683124"/>
</svg>
