<svg width="620" height="1019" viewBox="0 0 620 1019" fill="none" xmlns="http://www.w3.org/2000/svg">
<circle cx="306.218" cy="291.009" r="211" transform="rotate(121.637 306.218 291.009)" stroke="#BDDEFF" stroke-dasharray="15 15"/>
<circle cx="146.631" cy="546.229" r="343" transform="rotate(121.637 146.631 546.229)" stroke="#BDDEFF" stroke-dasharray="15 15"/>
<circle cx="146.631" cy="546.227" r="37" transform="rotate(121.637 146.631 546.227)" stroke="#BDDEFF" stroke-dasharray="15 15"/>
<circle cx="304.878" cy="288.421" r="18.5" transform="rotate(121.637 304.878 288.421)" stroke="#BDDEFF" stroke-dasharray="15 15"/>
<path d="M341.224 311.402L266.728 265.505" stroke="#BDDEFF" stroke-dasharray="9 9"/>
<path d="M281.996 323.654L325.532 252.989" stroke="#BDDEFF" stroke-dasharray="9 9"/>
<path d="M201.806 579.635L91.126 511.445" stroke="#BDDEFF" stroke-dasharray="9 9"/>
<path d="M113.945 598.324L178.463 493.604" stroke="#BDDEFF" stroke-dasharray="9 9"/>
<circle cx="50.0005" cy="156.999" r="85.2604" transform="rotate(121.637 50.0005 156.999)" stroke="#BDDEFF" stroke-dasharray="15 15"/>
<circle cx="49.9993" cy="157" r="8.86249" transform="rotate(121.637 49.9993 157)" stroke="#BDDEFF" stroke-dasharray="15 15"/>
<path d="M63.7759 165.34L36.1428 148.315" stroke="#BDDEFF" stroke-dasharray="9 9"/>
<path d="M41.8403 170.006L57.9484 143.861" stroke="#BDDEFF" stroke-dasharray="9 9"/>
<path d="M198.457 943.435C511.006 894.625 550.309 593.488 521.728 500.708M521.728 500.708L537.05 510.147M521.728 500.708L512.549 515.607" stroke="#BDDEFF"/>
</svg>
