<svg width="655" height="288" viewBox="0 0 655 288" fill="none" xmlns="http://www.w3.org/2000/svg">
<path d="M596.43 49.4602C597.204 48.9944 598.135 48.8255 599.046 49.0633C600.889 49.5443 601.951 51.5072 601.417 53.4474C601.236 54.1046 600.896 54.6748 600.453 55.123C600.519 55.1363 600.585 55.1515 600.651 55.1688C602.607 55.6792 603.734 57.7623 603.167 59.8213C602.821 61.0799 601.922 62.0383 600.829 62.4766C602.381 63.1417 603.222 64.9309 602.734 66.7013C602.423 67.8319 601.639 68.7054 600.675 69.1423C601.089 69.7435 601.241 70.5377 601.024 71.3267C600.713 72.4594 599.736 73.2308 598.671 73.2872C598.695 73.6896 598.654 74.1056 598.54 74.5205C598.006 76.4608 596.079 77.6438 594.236 77.1628C593.542 76.9815 592.958 76.5899 592.529 76.0684C591.669 77.1344 590.281 77.6675 588.938 77.317C588.603 77.2294 588.293 77.0927 588.014 76.9159C587.125 78.2122 585.543 78.89 584.016 78.4915C582.215 78.0213 581.117 76.2171 581.398 74.3262C580.746 74.2225 580.091 74.0857 579.436 73.9148C576.726 73.2074 574.317 71.9937 572.323 70.4354C571.501 70.7594 570.587 70.837 569.69 70.6028C567.842 70.1205 566.615 68.4607 566.521 66.5707C566.185 66.5687 565.845 66.5255 565.507 66.4373C563.213 65.8385 561.892 63.395 562.556 60.9795C562.683 60.5173 562.874 60.0896 563.115 59.7043C562.222 59.1369 561.772 57.9932 562.083 56.8602C562.298 56.08 562.828 55.4712 563.485 55.1494C563.117 54.3844 563.016 53.4689 563.267 52.5584C563.753 50.7901 565.397 49.6508 567.079 49.8268C567.065 49.5462 567.095 49.2565 567.174 48.9675C567.476 47.8702 568.402 47.1119 569.428 47.0143C569.336 46.4085 569.369 45.7677 569.544 45.129C570.187 42.7927 572.507 41.3683 574.726 41.9475C575.326 42.104 575.857 42.3909 576.3 42.7722C576.917 42.0502 577.882 41.6953 578.816 41.9391C579.193 42.0375 579.524 42.2226 579.796 42.4692C580.304 41.3145 581.543 40.653 582.734 40.9637C583.766 41.2331 584.455 42.1531 584.521 43.2059C585.234 42.8584 586.053 42.752 586.856 42.9617C587.447 43.1158 587.957 43.4221 588.36 43.8311C589.191 43.1945 590.267 42.9296 591.315 43.2033C593.102 43.6695 594.154 45.5278 593.731 47.4084C594.037 47.3637 594.355 47.3779 594.67 47.46C595.622 47.7085 596.282 48.5108 596.43 49.4602Z" fill="black"/>
<path d="M589.466 75.4715C586.98 83.556 579.268 88.4808 572.242 86.4712C565.216 84.4616 561.536 76.2787 564.023 68.1942C566.509 60.1096 573.184 61.7706 580.822 60.5185C578.313 71.5784 591.953 67.3869 589.466 75.4715Z" fill="#BD8A5A"/>
<path d="M162.493 217.703C146.469 214.492 132.385 212.302 123.488 213.045C110.203 214.154 108.682 217.728 121.555 221.511C127.058 223.129 124.132 221.289 133.446 225.798C133.446 225.798 136.227 226.503 140.433 227.126L202.284 238.883L212.099 235.553L173.825 226.419L228.206 234.208L241.09 233.133C219.412 230.678 189.791 223.256 164.55 218.118L163.07 217.403C162.878 217.504 162.685 217.604 162.493 217.703Z" fill="black" fill-opacity="0.1"/>
<path d="M49.1982 237.339C33.9623 234.066 20.4842 231.768 11.5134 232.067C-1.80851 232.511 -3.49423 236.004 9.18649 240.427C14.6078 242.317 11.7709 240.333 20.8636 245.303L89.0097 261.813L98.9688 258.977L61.1659 247.941L115.12 258.438L124.06 253.806C105.376 250.74 81.9711 244.776 60.5428 239.866C70.8752 237.785 80.4492 235.069 85.2374 231.655L82.7716 229.692C75.0541 233.292 62.103 235.719 49.1982 237.339Z" fill="black" fill-opacity="0.1"/>
<ellipse rx="8.6009" ry="10.5406" transform="matrix(-1 0 0 1 112.526 66.5606)" fill="#C69378"/>
<mask id="path-6-inside-1" fill="white">
<path fill-rule="evenodd" clip-rule="evenodd" d="M103.933 63.1867L120.888 61.0571C119.975 56.4383 116.579 53.0083 112.529 53.0083C107.878 53.0083 104.089 57.533 103.933 63.1867Z"/>
</mask>
<path fill-rule="evenodd" clip-rule="evenodd" d="M103.933 63.1867L120.888 61.0571C119.975 56.4383 116.579 53.0083 112.529 53.0083C107.878 53.0083 104.089 57.533 103.933 63.1867Z" fill="#333333"/>
<path d="M103.933 63.1867L104.266 65.8333L101.181 66.2207L101.267 63.1133L103.933 63.1867ZM120.888 61.0571L123.505 60.5396L124.06 63.347L121.221 63.7037L120.888 61.0571ZM103.601 60.5402L120.556 58.4105L121.221 63.7037L104.266 65.8333L103.601 60.5402ZM118.272 61.5746C117.525 57.7984 114.932 55.6757 112.529 55.6757V50.3409C118.226 50.3409 122.425 55.0782 123.505 60.5396L118.272 61.5746ZM112.529 55.6757C109.788 55.6757 106.73 58.5345 106.599 63.2602L101.267 63.1133C101.448 56.5316 105.967 50.3409 112.529 50.3409V55.6757Z" fill="#333333" mask="url(#path-6-inside-1)"/>
<line y1="-2.66736" x2="18.0436" y2="-2.66736" transform="matrix(-0.16907 0.985604 0.982554 0.185979 97.3555 241.382)" stroke="#C69378" stroke-width="5.33472"/>
<line y1="-2.66736" x2="18.0696" y2="-2.66736" transform="matrix(0 1 1 0 121.127 232.586)" stroke="#C69378" stroke-width="5.33472"/>
<path d="M123.994 145.25H112.526L115.393 244.632H122.561L123.994 145.25Z" fill="#9F9F9F"/>
<path d="M109.659 148.261L95.3244 151.273C95.3244 151.273 95.3244 216.022 89.5905 247.644C92.8827 248.558 98.1914 249.15 98.1914 249.15C102.492 220.539 109.659 148.261 109.659 148.261Z" fill="#9F9F9F"/>
<path d="M132.595 261.196L121.127 250.655H115.393V259.69L132.595 261.196Z" fill="#F8CB2C"/>
<path d="M103.41 266.544L95.0677 254.72L89.4247 253.652L87.1114 260.765L103.41 266.544Z" fill="#F8CB2C"/>
<path fill-rule="evenodd" clip-rule="evenodd" d="M95.1316 108.851C95.1316 108.851 95.1316 108.851 95.1316 108.851C95.1316 78.7354 101.55 78.7354 109.466 78.7354C119.817 80.0944 123.161 88.8134 123.714 114.856L123.801 114.874V123.407C123.801 123.574 123.801 123.741 123.801 123.909C123.801 123.986 123.801 124.062 123.801 124.138V160.048L106.599 166.072L95.1314 167.577V108.851L95.1316 108.851Z" fill="#F8CB2C"/>
<path fill-rule="evenodd" clip-rule="evenodd" d="M95.1316 153.101V169.417L106.599 167.911L123.801 161.888V149.961L95.1316 153.101Z" fill="#9F9F9F"/>
<path d="M129.728 60.5375L103.925 63.5491" stroke="#333333" stroke-width="2.66736"/>
<path d="M121.127 72.5835C116.827 75.5951 115.393 74.0893 112.526 72.5835" stroke="black" stroke-width="1.86715"/>
<path d="M118.26 65.0547C118.26 66.2593 119.216 68.5682 119.693 69.5721H115.393" stroke="black" stroke-width="1.86715"/>
<path fill-rule="evenodd" clip-rule="evenodd" d="M82.5915 118.142C84.8851 104.484 90.9832 90.4801 100.576 80.8617L106.135 86.3269C97.4036 94.9098 92.2538 106.908 90.1568 119.707C88.0476 132.417 89.2946 145.072 93.4484 154.206L86.4812 157.034C81.5299 146.146 80.3101 131.889 82.5915 118.142Z" fill="#C69378"/>
<path fill-rule="evenodd" clip-rule="evenodd" d="M92.7562 108.859L85.5146 106.356C88.689 96.7732 93.7454 87.7065 100.572 80.8615L106.132 86.3274C99.9281 92.4259 95.5327 100.249 92.7562 108.859Z" fill="#F8CB2C"/>
<path fill-rule="evenodd" clip-rule="evenodd" d="M142.652 115.18C129.665 108.957 117.179 98.7218 109.801 86.1309L116.435 81.956C122.98 93.3682 133.694 102.061 145.877 107.839C157.968 113.604 170.75 115.9 180.697 114.209L181.947 122.178C170.09 124.193 155.731 121.416 142.652 115.18Z" fill="#C69378"/>
<path fill-rule="evenodd" clip-rule="evenodd" d="M135.881 102.193L131.816 108.946C122.985 102.954 115.083 95.1468 109.8 86.132L116.434 81.958C121.114 90.1169 127.925 96.8857 135.881 102.193Z" fill="#F8CB2C"/>
<path d="M216.57 22.7881C212.336 23.7725 206.065 29.1136 205.999 70.7881H219.389C219.398 36.2946 221.943 24.0141 216.57 22.7881Z" fill="#BD7433"/>
<path fill-rule="evenodd" clip-rule="evenodd" d="M235.216 109.529C226.659 95.4574 220.608 78.1294 220.381 62.0447L228.514 62.6617C228.592 77.1477 233.83 91.9357 241.888 105.082C249.869 118.157 260.25 128.586 270.107 133.593L267.159 141.532C255.409 135.563 243.849 123.672 235.216 109.529Z" fill="#F7D4BB"/>
<ellipse rx="8.04179" ry="9.8018" transform="matrix(-0.997792 -0.0664191 -0.0625617 0.998041 225.105 40.519)" fill="#F7D4BB"/>
<line y1="-2" x2="16.8051" y2="-2" transform="matrix(0 1 1 0 233.314 209.844)" stroke="#F7D4BB" stroke-width="4"/>
<path d="M207.233 215.922V229.092" stroke="#F7D4BB" stroke-width="4"/>
<path d="M220.325 238.895L209.604 229.092H204.244V237.495L220.325 238.895Z" fill="white"/>
<path d="M226 128.619H235.994L241 221.047H221C223.833 205.698 228.8 165.722 226 128.619Z" fill="#1F3C5F"/>
<path d="M222.593 131.42L209.192 134.221C209.192 134.221 209.192 194.999 195.5 225.249C198.577 226.099 218.5 225.249 218.5 225.249C224 192.999 222.593 131.42 222.593 131.42Z" fill="#1F3C5F"/>
<path d="M244.035 236.452L233.314 226.649H227.954V235.052L244.035 236.452Z" fill="white"/>
<path fill-rule="evenodd" clip-rule="evenodd" d="M209.192 118.624V135.622L219.913 134.221L235.994 128.619V115.704L209.192 118.624Z" fill="#1F3C5F"/>
<path d="M232.779 46.6431C228.592 49.171 227.342 47.6845 224.755 46.1089" stroke="black" stroke-width="2.11192"/>
<path d="M230.542 39.4774C230.472 40.5954 231.229 42.7976 231.617 43.7589L227.605 43.4919" stroke="black" stroke-width="2.11192"/>
<path d="M212.026 65.6597C215.82 58.8185 224.672 56.2938 228.623 57.1082L236.922 116.969L209.498 118.998C209.103 103.524 208.233 72.501 212.026 65.6597Z" fill="#BDAEF8"/>
<path fill-rule="evenodd" clip-rule="evenodd" d="M209.27 111.017C206.13 96.8602 206.329 80.7318 211.398 67.3285L218.565 70.2059C213.886 82.2402 213.783 96.0261 216.774 109.271C219.719 122.434 225.706 134.101 232.997 141.121L227.722 146.846C219.032 138.478 212.456 125.256 209.27 111.017Z" fill="#F7D4BB"/>
<path fill-rule="evenodd" clip-rule="evenodd" d="M331.364 109.801L336.497 98.8082L342.751 101.878L337.618 112.87L331.364 109.801Z" fill="white"/>
<path fill-rule="evenodd" clip-rule="evenodd" d="M315.285 109.112L314.216 97.372L321.157 96.5844L322.227 108.325L315.285 109.112Z" fill="white"/>
<path fill-rule="evenodd" clip-rule="evenodd" d="M345.418 117.474L355.239 108.915L359.674 114.422L349.853 122.981L345.418 117.474Z" fill="white"/>
<ellipse rx="7.20744" ry="4.29014" transform="matrix(-0.851911 0.523686 0.523686 0.851911 219.983 30.3619)" fill="#BD7433"/>
<path d="M221.201 27.0796C220.096 29.18 221.51 32.0971 224.359 33.5951C227.208 35.0931 233.452 38.0757 234.556 35.9753C235.661 33.8749 234.306 27.4869 231.458 25.9889C228.609 24.4909 222.305 24.9792 221.201 27.0796Z" fill="#BD7433"/>
<ellipse rx="9.5838" ry="11.8686" transform="matrix(-1 0 0 1 459.329 16.9233)" fill="#DFBAAA"/>
<path d="M368.173 194.18C343.394 195.996 398.494 202.796 444.954 211.272H458.371L416.391 202.655L428.78 201.444C461.302 207.499 513.957 207.307 513.957 207.307L512.408 205.49C438.072 198.831 387.996 192.727 368.173 194.18Z" fill="black" fill-opacity="0.1"/>
<line y1="-2.97346" x2="16.2904" y2="-2.97346" transform="matrix(0.761096 0.648639 -0.621003 0.783808 503.249 181.253)" stroke="#FFC6C6" stroke-width="5.94691"/>
<line x1="455.965" y1="187.083" x2="455.965" y2="203.685" stroke="#DFBAAA" stroke-width="5.94691"/>
<path fill-rule="evenodd" clip-rule="evenodd" d="M446.939 59.2199V113.407L459.101 112.016L477.344 106.452V64.7235L477.252 64.7067C476.665 40.6501 473.119 32.5962 462.142 31.3408C453.746 31.3408 446.939 31.3408 446.939 59.1598C446.939 59.1798 446.939 59.1999 446.939 59.2199Z" fill="#BDDEFF"/>
<path d="M446.939 113.407L460.5 111.5L464 154.5L458.279 198.151H451.669L442 155.5L446.939 113.407Z" fill="black"/>
<path d="M461.998 110L477.344 106.166C477.344 106.166 485.998 149 510.088 180.99L506.58 187.025C461.998 159.5 461.998 110 461.998 110Z" fill="black"/>
<path d="M442.416 213.369L452.991 203.685H458.279V211.986L442.416 213.369Z" fill="#7EB9F0"/>
<path d="M513.506 202.597L512.548 189.178L515.897 184.952L521.624 188.505L513.506 202.597Z" fill="#7EB9F0"/>
<path fill-rule="evenodd" clip-rule="evenodd" d="M446.939 96.5237V113.407L459.101 112.016L477.344 106.452V93.624L446.939 96.5237Z" fill="black"/>
<path fill-rule="evenodd" clip-rule="evenodd" d="M461.537 71.7205C467.432 60.4873 470.895 46.7276 469.55 34.0434L462.727 34.6627C464.046 46.0842 461.027 57.8282 455.467 68.324C449.963 78.7623 442.176 87.1533 434.314 91.2625L437.568 97.473C446.94 92.5748 455.584 83.0112 461.537 71.7205Z" fill="#DFBAAA"/>
<path fill-rule="evenodd" clip-rule="evenodd" d="M469.5 34.323L469.037 34.1361L462.605 34.6772C463.707 43.7166 462.082 52.9409 458.619 61.5802L465.06 64.1777C468.715 54.7324 470.567 44.2173 469.5 34.323Z" fill="#BDDEFF"/>
<path fill-rule="evenodd" clip-rule="evenodd" d="M436.181 73.3226C445.585 64.6359 453.49 52.668 456.413 40.0326L449.645 38.2164C447.117 49.6319 440.31 59.8243 431.472 67.9223C422.71 75.9853 412.431 81.2792 403.504 82.4416L404.569 89.5446C415.21 88.1591 426.703 82.0441 436.181 73.3226Z" fill="#DFBAAA"/>
<path fill-rule="evenodd" clip-rule="evenodd" d="M456.363 40.2416L456.006 39.9248L449.643 38.2165C447.845 46.3381 443.881 53.8404 438.561 60.4097L443.831 65.0885C449.67 57.7641 454.258 49.1735 456.363 40.2416Z" fill="#BDDEFF"/>
<path d="M451.82 25.2183C455.786 27.9852 457.108 26.6017 459.752 25.2183" stroke="black" stroke-width="2.08142"/>
<path d="M454.464 18.3008C454.464 19.4076 453.582 21.5289 453.142 22.4512H457.107" stroke="black" stroke-width="2.08142"/>
<path d="M544.196 256.153C511.523 252.625 462.2 239.01 441.543 241.618C429.689 243.114 428.527 246.968 440.287 250.709C440.287 250.709 438.749 260.422 415.678 253.916L420.91 257.775C436.026 263.632 451.195 255.011 451.195 255.011L513.68 267.38L522.296 263.591L487.449 254.729L536.668 261.777L544.196 256.153Z" fill="black" fill-opacity="0.1"/>
<g opacity="0.9">
<mask id="mask0" mask-type="alpha" maskUnits="userSpaceOnUse" x="579" y="118" width="51" height="67">
<path d="M629.368 125.167L579.678 118.068V176.435L623.722 184.542L629.368 183.534V125.167Z" fill="black"/>
</mask>
<g mask="url(#mask0)">
<path d="M629.368 125.167L579.678 118.068V176.435L623.722 184.542L629.368 183.534V125.167Z" fill="black"/>
<path d="M623.722 125.513L574.032 117.907V180.443L623.722 188.049V125.513Z" fill="#1E1E1E"/>
</g>
</g>
<g opacity="0.9">
<path d="M510.789 203.247C510.789 227.135 526.07 246.501 544.92 246.501C563.769 246.501 579.05 227.135 579.05 203.247C579.05 179.358 563.769 159.992 544.92 159.992C526.07 159.992 510.789 179.358 510.789 203.247ZM574.937 203.247C574.937 224.256 561.498 241.288 544.92 241.288C528.342 241.288 514.903 224.256 514.903 203.247C514.903 182.237 528.342 165.206 544.92 165.206C561.498 165.206 574.937 182.237 574.937 203.247Z" fill="#1E1E1E"/>
<path d="M514.805 203.247C514.805 227.135 530.085 246.501 548.935 246.501C567.785 246.501 583.066 227.135 583.066 203.247C583.066 179.358 567.785 159.992 548.935 159.992C530.085 159.992 514.805 179.358 514.805 203.247ZM578.31 203.247C578.31 223.807 565.159 240.474 548.935 240.474C532.712 240.474 519.561 223.807 519.561 203.247C519.561 182.687 532.712 166.019 548.935 166.019C565.159 166.019 578.31 182.687 578.31 203.247Z" fill="black"/>
<path d="M522.333 204.415C522.333 208.407 522.905 212.359 524.014 216.047C525.124 219.735 526.751 223.086 528.802 225.908C530.853 228.73 533.287 230.969 535.967 232.497C538.646 234.024 541.518 234.811 544.418 234.811L544.418 224.931C542.46 224.931 540.522 224.401 538.713 223.37C536.905 222.339 535.262 220.827 533.878 218.922C532.493 217.017 531.395 214.756 530.646 212.267C529.897 209.777 529.512 207.11 529.512 204.415H522.333Z" fill="white" fill-opacity="0.56"/>
</g>
<path d="M623.722 195.063V179.866L583.066 172.852L527.729 188.049V200.909L567.256 214.937L623.722 195.063Z" fill="black"/>
<path d="M623.722 195.063V179.866L583.066 172.852L527.729 188.049V200.909L567.256 214.937L623.722 195.063Z" fill="black"/>
<path d="M623.722 179.866L583.066 172.852L528.859 185.711L566.126 195.063L623.722 179.866Z" fill="#323232"/>
<path d="M623.722 179.866L583.066 172.852L528.859 185.711L566.126 195.063L623.722 179.866Z" fill="#323232"/>
<path fill-rule="evenodd" clip-rule="evenodd" d="M597.079 121.841C597.079 121.781 597.079 121.72 597.079 121.659C597.079 90.0659 589.047 90.0659 579.138 90.0659C566.183 91.4917 561.997 100.638 561.305 127.959L561.196 127.978V175.367L582.726 181.686L597.079 183.266V121.841Z" fill="#CECECE"/>
<path fill-rule="evenodd" clip-rule="evenodd" d="M597.079 161.961V184.821L582.726 182.938L561.196 175.404V158.034L597.079 161.961Z" fill="#81B341"/>
<path d="M564.784 80.6489C570.166 84.4157 571.96 82.5323 575.549 80.6489" stroke="black" stroke-width="2.46565"/>
<path d="M568.372 71.2319C568.372 72.7387 567.176 75.6266 566.578 76.8822H571.96" stroke="black" stroke-width="2.46565"/>
<line x1="517.414" y1="232.366" x2="517.414" y2="254.967" stroke="#BD8A5A" stroke-width="7.0447"/>
<path d="M499.538 268.151L513.891 254.967H521.068V266.267L499.538 268.151Z" fill="#CECECE"/>
<line y1="-3.52235" x2="22.5689" y2="-3.52235" transform="matrix(0.16918 0.985585 -0.982577 0.185858 539.867 239.38)" stroke="#BD8A5A" stroke-width="7.0447"/>
<path d="M532.29 270.851L542.731 256.062L549.794 254.726L552.689 263.623L532.29 270.851Z" fill="#CECECE"/>
<path fill-rule="evenodd" clip-rule="evenodd" d="M542.59 188.613C549.342 185.047 558.404 181.548 570.758 177.191L565.743 162.223C553.413 166.571 543.384 170.392 535.528 174.541C527.597 178.73 521.291 183.551 516.918 190.216C512.526 196.91 510.615 204.653 510.005 213.674C509.404 222.579 510.042 233.33 511.2 246.394L522.132 245.225C522.132 232.366 522.754 222.346 523.262 214.83C523.761 207.431 525.421 202.057 527.779 198.463C530.155 194.841 535.912 192.14 542.59 188.613Z" fill="#81B341"/>
<path fill-rule="evenodd" clip-rule="evenodd" d="M569.693 193.289C576.445 189.723 584.378 188.792 596.732 184.435L592.847 166.899C580.517 171.248 570.487 175.068 562.631 179.218C554.701 183.406 548.395 188.227 544.022 194.892C539.63 201.586 537.718 209.329 537.109 218.35C536.507 227.256 537.145 238.006 538.303 251.07L549.236 249.901C549.236 237.042 549.858 227.022 550.365 219.506C550.865 212.107 552.524 206.734 554.882 203.14C557.259 199.517 563.015 196.817 569.693 193.289Z" fill="#81B341"/>
<g opacity="0.9">
<path d="M562.738 214.937C562.738 238.826 578.019 258.192 596.868 258.192C615.718 258.192 630.999 238.826 630.999 214.937C630.999 191.048 615.718 171.683 596.868 171.683C578.019 171.683 562.738 191.048 562.738 214.937ZM626.008 214.937C626.008 235.332 612.962 251.866 596.868 251.866C580.775 251.866 567.729 235.332 567.729 214.937C567.729 194.542 580.775 178.008 596.868 178.008C612.962 178.008 626.008 194.542 626.008 214.937Z" fill="#1E1E1E"/>
<path d="M566.753 214.937C566.753 238.826 582.034 258.192 600.884 258.192C619.733 258.192 635.014 238.826 635.014 214.937C635.014 191.048 619.733 171.683 600.884 171.683C582.034 171.683 566.753 191.048 566.753 214.937ZM629.697 214.937C629.697 235.104 616.797 251.453 600.884 251.453C584.97 251.453 572.07 235.104 572.07 214.937C572.07 194.77 584.97 178.421 600.884 178.421C616.797 178.421 629.697 194.77 629.697 214.937Z" fill="black"/>
<path d="M576.541 216.106C576.541 220.097 577.112 224.05 578.222 227.738C579.332 231.425 580.959 234.776 583.009 237.598C585.06 240.421 587.495 242.66 590.174 244.187C592.853 245.715 595.725 246.501 598.625 246.501L598.625 236.622C596.668 236.622 594.73 236.091 592.921 235.06C591.112 234.029 589.469 232.518 588.085 230.613C586.701 228.708 585.603 226.446 584.854 223.957C584.105 221.468 583.719 218.8 583.719 216.106H576.541Z" fill="white" fill-opacity="0.56"/>
</g>
<rect opacity="0.9" width="13.5519" height="7.01424" transform="matrix(-1 0 0 1 639.532 127.259)" fill="black"/>
<mask id="mask1" mask-type="alpha" maskUnits="userSpaceOnUse" x="181" y="127" width="436" height="74">
<path d="M395.513 127.876C394.658 127.784 393.795 127.813 392.949 127.962L186.286 164.333C179.371 165.549 179.667 175.569 186.643 176.405L390.634 200.853C391.516 200.959 392.407 200.936 393.281 200.785L611.425 163.104C618.397 161.9 618.052 151.776 611.012 151.02L395.513 127.876Z" fill="white"/>
</mask>
<g mask="url(#mask1)">
<path d="M395.513 127.876C394.658 127.784 393.795 127.813 392.949 127.962L194.326 162.918C186.044 164.375 186.399 176.376 194.753 177.377L390.902 200.886C391.606 200.97 392.318 200.951 393.016 200.831L611.425 163.104C618.397 161.9 618.052 151.776 611.012 151.02L395.513 127.876Z" fill="white"/>
<path d="M395.513 116.972C394.658 116.88 393.795 116.909 392.949 117.058L186.286 153.429C179.371 154.646 179.667 164.666 186.643 165.502L390.634 189.95C391.516 190.056 392.407 190.033 393.281 189.882L611.425 152.201C618.397 150.997 618.052 140.873 611.012 140.117L395.513 116.972Z" fill="black" fill-opacity="0.07"/>
</g>
<path fill-rule="evenodd" clip-rule="evenodd" d="M539.773 135.548C554.965 127.447 569.312 114.557 577.391 99.0951L569.184 94.4149C562.031 108.423 549.715 119.374 535.46 126.903C521.314 134.411 506.129 137.794 494.101 136.256L493.088 145.873C507.426 147.707 524.471 143.67 539.773 135.548Z" fill="#BD8A5A"/>
<path fill-rule="evenodd" clip-rule="evenodd" d="M552.387 127.539C562.608 119.919 571.607 110.167 577.392 99.0952L569.185 94.415C564.071 104.43 556.317 112.883 547.103 119.639L552.387 127.539Z" fill="#CECECE"/>
<path fill-rule="evenodd" clip-rule="evenodd" d="M571.398 144.681C582.869 131.567 590.95 117.906 593.262 100.49L584.963 95.4692C583.024 111.186 575.213 125.921 564.425 138.156C553.732 150.333 540.665 159.026 528.883 161.964L531.2 171.337C545.246 167.835 559.832 157.852 571.398 144.681Z" fill="#BD8A5A"/>
<path fill-rule="evenodd" clip-rule="evenodd" d="M589.461 96.8799L584.871 94.6083C583.583 106.173 579.198 117.181 572.789 127.085L580.957 132.945C587.394 123.085 591.967 112.358 594.451 100.46L589.461 96.8799Z" fill="#CECECE"/>
<path d="M287.454 144.366C286.512 144.249 285.558 144.279 284.625 144.455L213.666 157.855L362.248 176.226C363.196 176.343 364.156 176.311 365.093 176.131L434.981 162.738L287.454 144.366Z" fill="black" fill-opacity="0.05"/>
<path d="M277.401 119.451L319.562 119.451L334.427 165.298L292.548 165.298L277.401 119.451Z" fill="black"/>
<rect x="293.312" y="161.406" width="77.8024" height="3.92872" fill="black"/>
<path d="M446.27 4.75949C446.683 7.41304 446.678 13.4449 452.295 12.5699C454.382 12.2448 458.43 12.1138 460.976 12.651C463.522 13.1882 468.786 15.537 468.527 13.8692C469.096 9.07958 465.748 1.17866 457.225 3.05307C448.701 4.92748 445.857 2.10594 446.27 4.75949Z" fill="#683124"/>
</svg>
