<svg width="58" height="54" viewBox="0 0 58 54" fill="none" xmlns="http://www.w3.org/2000/svg">
<path d="M13.8721 6.39804C12.438 4.22289 9.25581 -0.101553 8 0.00182064V4.1367L24.686 42.2556L43 44L42.1279 38.2499C38.8333 38.616 30.8256 36.9448 25.1512 27.3311L13.8721 6.39804Z" fill="#333333"/>
<path d="M22.1724 31.6675L7.43729 0C4.48631 1.98058 -1.0948 8.1095 0.188577 16.7805C1.77299 20.6546 5.16761 33.326 6.07073 53.0186H8.50677L7.25904 30.2311C7.25904 27.9676 8.03144 24.433 11.1211 28.4028C11.8142 29.0775 13.7116 31.2888 15.7555 34.7364C17.0626 37.1305 19.9027 42.6891 20.8058 45.771C21.4594 47.904 22.9448 52.2351 23.6578 52.4963C29.8766 53.8457 45.4514 55.5129 58 51.3863C57.8416 49.2316 56.883 44.648 54.3162 43.551L42.3143 38.7193C39.1256 42.1799 30.6332 45.6143 22.1724 31.6675Z" fill="#EF5D5D"/>
</svg>
