<svg width="64" height="67" viewBox="0 0 64 67" fill="none" xmlns="http://www.w3.org/2000/svg">
<rect x="15.1982" y="34.1377" width="23.8519" height="42.2957" rx="8" transform="rotate(-41.6498 15.1982 34.1377)" fill="#99CEFF"/>
<rect x="31.6484" y="28.4446" width="10.8889" height="2.78261" rx="1.3913" transform="rotate(-41.6498 31.6484 28.4446)" fill="#EAEAEA"/>
<rect x="31.6484" y="28.4446" width="10.8889" height="2.78261" rx="1.3913" transform="rotate(-41.6498 31.6484 28.4446)" fill="#EAEAEA"/>
<rect x="31.6484" y="28.4446" width="10.8889" height="2.78261" rx="1.3913" transform="rotate(-41.6498 31.6484 28.4446)" fill="#EAEAEA"/>
<rect x="31.6484" y="28.4446" width="10.8889" height="2.78261" rx="1.3913" transform="rotate(-41.6498 31.6484 28.4446)" fill="#EAEAEA"/>
<rect x="31.6484" y="28.4446" width="10.8889" height="2.78261" rx="1.3913" transform="rotate(-41.6498 31.6484 28.4446)" fill="#EAEAEA"/>
<rect x="31.6484" y="28.4446" width="10.8889" height="2.78261" rx="1.3913" transform="rotate(-41.6498 31.6484 28.4446)" fill="#EAEAEA"/>
<rect x="36.0864" y="33.4348" width="10.8889" height="2.78261" rx="1.3913" transform="rotate(-41.6498 36.0864 33.4348)" fill="#EAEAEA"/>
<rect x="36.0864" y="33.4348" width="10.8889" height="2.78261" rx="1.3913" transform="rotate(-41.6498 36.0864 33.4348)" fill="#EAEAEA"/>
<rect x="36.0864" y="33.4348" width="10.8889" height="2.78261" rx="1.3913" transform="rotate(-41.6498 36.0864 33.4348)" fill="#EAEAEA"/>
<rect x="36.0864" y="33.4348" width="10.8889" height="2.78261" rx="1.3913" transform="rotate(-41.6498 36.0864 33.4348)" fill="#EAEAEA"/>
<rect x="36.0864" y="33.4348" width="10.8889" height="2.78261" rx="1.3913" transform="rotate(-41.6498 36.0864 33.4348)" fill="#EAEAEA"/>
<rect x="36.0864" y="33.4348" width="10.8889" height="2.78261" rx="1.3913" transform="rotate(-41.6498 36.0864 33.4348)" fill="#EAEAEA"/>
<rect x="40.1548" y="38.009" width="10.8889" height="3.33913" rx="1.66957" transform="rotate(-41.6498 40.1548 38.009)" fill="#EAEAEA"/>
<rect x="40.1548" y="38.009" width="10.8889" height="3.33913" rx="1.66957" transform="rotate(-41.6498 40.1548 38.009)" fill="#EAEAEA"/>
<rect x="40.1548" y="38.009" width="10.8889" height="3.33913" rx="1.66957" transform="rotate(-41.6498 40.1548 38.009)" fill="#EAEAEA"/>
<rect x="40.1548" y="38.009" width="10.8889" height="3.33913" rx="1.66957" transform="rotate(-41.6498 40.1548 38.009)" fill="#EAEAEA"/>
<rect x="40.1548" y="38.009" width="10.8889" height="3.33913" rx="1.66957" transform="rotate(-41.6498 40.1548 38.009)" fill="#EAEAEA"/>
<rect x="40.1548" y="38.009" width="10.8889" height="3.33913" rx="1.66957" transform="rotate(-41.6498 40.1548 38.009)" fill="#EAEAEA"/>
<rect x="44.5933" y="42.9993" width="10.8889" height="2.78261" rx="1.3913" transform="rotate(-41.6498 44.5933 42.9993)" fill="#EAEAEA"/>
<rect x="44.5933" y="42.9993" width="10.8889" height="2.78261" rx="1.3913" transform="rotate(-41.6498 44.5933 42.9993)" fill="#EAEAEA"/>
<rect x="44.5933" y="42.9993" width="10.8889" height="2.78261" rx="1.3913" transform="rotate(-41.6498 44.5933 42.9993)" fill="#EAEAEA"/>
<rect x="44.5933" y="42.9993" width="10.8889" height="2.78261" rx="1.3913" transform="rotate(-41.6498 44.5933 42.9993)" fill="#EAEAEA"/>
<rect x="44.5933" y="42.9993" width="10.8889" height="2.78261" rx="1.3913" transform="rotate(-41.6498 44.5933 42.9993)" fill="#EAEAEA"/>
<rect x="44.5933" y="42.9993" width="10.8889" height="2.78261" rx="1.3913" transform="rotate(-41.6498 44.5933 42.9993)" fill="#EAEAEA"/>
<path d="M9.82539 24.1579C10.527 26.7835 14.5653 29.4873 14.5653 29.4873L28.8677 16.7667C28.8677 16.7667 26.6509 12.4497 24.1278 11.4374C20.8783 10.1336 19.8222 14.9172 16.6054 13.5092C14.3495 12.5217 14.2031 8.98148 11.8629 9.10591C10.1913 9.19478 9.07039 10.1917 8.78709 11.8415C8.39046 14.1512 11.7444 14.8447 12.4531 17.2022C13.4403 20.486 8.94268 20.8547 9.82539 24.1579Z" fill="white"/>
<rect x="49.0312" y="47.9893" width="10.8889" height="2.78261" rx="1.3913" transform="rotate(-41.6498 49.0312 47.9893)" fill="#EAEAEA"/>
<rect x="49.0312" y="47.9893" width="10.8889" height="2.78261" rx="1.3913" transform="rotate(-41.6498 49.0312 47.9893)" fill="#EAEAEA"/>
<rect x="49.0312" y="47.9893" width="10.8889" height="2.78261" rx="1.3913" transform="rotate(-41.6498 49.0312 47.9893)" fill="#EAEAEA"/>
<rect x="49.0312" y="47.9893" width="10.8889" height="2.78261" rx="1.3913" transform="rotate(-41.6498 49.0312 47.9893)" fill="#EAEAEA"/>
<rect x="49.0312" y="47.9893" width="10.8889" height="2.78261" rx="1.3913" transform="rotate(-41.6498 49.0312 47.9893)" fill="#EAEAEA"/>
<rect x="49.0312" y="47.9893" width="10.8889" height="2.78261" rx="1.3913" transform="rotate(-41.6498 49.0312 47.9893)" fill="#EAEAEA"/>
<rect x="11.4653" y="31.4995" width="26.4444" height="6.67826" rx="3.33913" transform="rotate(-41.6498 11.4653 31.4995)" fill="#FAB5B5"/>
</svg>
