<svg width="782" height="229" viewBox="0 0 782 229" fill="none" xmlns="http://www.w3.org/2000/svg">
<mask id="mask0" mask-type="alpha" maskUnits="userSpaceOnUse" x="0" y="0" width="782" height="229">
<rect width="782" height="229" fill="#C4C4C4"/>
</mask>
<g mask="url(#mask0)">
<path d="M564.774 78.4363C569.335 77.9738 573.971 77.8015 578.661 77.937L578.651 78.3119C580.946 78.3782 583.254 78.5184 585.573 78.7347C587.891 78.9509 590.186 79.2399 592.453 79.5991L592.512 79.2287C597.147 79.9628 601.671 80.9893 606.068 82.2873L605.962 82.6469C610.433 83.9669 614.773 85.5686 618.961 87.4297L619.113 87.0871C623.376 88.9814 627.484 91.1437 631.416 93.5505L631.22 93.8704C635.176 96.292 638.955 98.9621 642.535 101.857L642.771 101.565C646.384 104.486 649.797 107.636 652.988 110.988L652.717 111.247C655.904 114.595 658.869 118.147 661.593 121.878L661.896 121.657C664.627 125.398 667.116 129.318 669.343 133.393L669.014 133.573C671.222 137.616 673.172 141.811 674.842 146.136L675.192 146.001C676.853 150.304 678.24 154.734 679.331 159.267L678.966 159.355C680.039 163.812 680.826 168.37 681.308 173.006L681.681 172.968C682.155 177.528 682.335 182.164 682.204 186.854L681.829 186.843C681.765 189.138 681.625 191.446 681.409 193.765C681.193 196.084 680.903 198.378 680.542 200.645L680.912 200.704C680.174 205.338 679.14 209.86 677.831 214.254L677.471 214.147C676.14 218.614 674.524 222.948 672.646 227.13L672.988 227.284C671.077 231.537 668.895 235.635 666.467 239.556L666.148 239.358C663.707 243.3 661.015 247.063 658.097 250.627L658.388 250.865C655.446 254.458 652.275 257.85 648.899 261.022L648.643 260.748C645.276 263.911 641.704 266.854 637.953 269.555L638.172 269.859C634.416 272.564 630.48 275.028 626.389 277.231L626.211 276.9C622.157 279.083 617.95 281.009 613.614 282.657L613.748 283.007C609.438 284.646 605.002 286.011 600.462 287.085L600.376 286.72C595.916 287.774 591.355 288.546 586.716 289.016L586.754 289.389C582.193 289.852 577.557 290.024 572.866 289.889L572.877 289.514C570.582 289.448 568.274 289.307 565.955 289.091C563.637 288.875 561.342 288.586 559.074 288.227L559.016 288.597C554.381 287.863 549.857 286.836 545.46 285.538L545.566 285.179C541.094 283.859 536.755 282.257 532.567 280.396L532.415 280.739C528.151 278.844 524.044 276.682 520.112 274.275L520.308 273.955C516.351 271.534 512.573 268.864 508.993 265.969L508.757 266.261C505.144 263.339 501.731 260.19 498.54 256.837L498.811 256.579C495.624 253.231 492.659 249.679 489.935 245.947L489.632 246.169C486.901 242.428 484.412 238.508 482.185 234.432L482.514 234.253C480.306 230.21 478.356 226.014 476.686 221.69L476.336 221.825C474.675 217.522 473.288 213.092 472.197 208.558L472.562 208.471C471.489 204.013 470.702 199.456 470.22 194.819L469.847 194.858C469.373 190.298 469.193 185.662 469.324 180.972L469.699 180.983C469.763 178.687 469.902 176.379 470.119 174.061C470.335 171.742 470.625 169.448 470.986 167.18L470.616 167.122C471.354 162.488 472.388 157.966 473.697 153.571L474.057 153.679C475.387 149.211 477.003 144.878 478.882 140.696L478.54 140.542C480.451 136.288 482.632 132.191 485.061 128.27L485.38 128.467C487.821 124.526 490.512 120.763 493.43 117.199L493.14 116.961C496.082 113.368 499.253 109.975 502.628 106.804L502.885 107.077C506.252 103.914 509.824 100.972 513.575 98.271L513.356 97.9667C517.112 95.2618 521.048 92.7979 525.139 90.5951L525.317 90.9253C529.371 88.7425 533.578 86.8171 537.914 85.1688L537.78 84.8183C542.09 83.1801 546.526 81.8146 551.066 80.7411L551.152 81.106C555.612 80.0514 560.173 79.2797 564.812 78.8094L564.774 78.4363Z" stroke="#BDDEFF" stroke-width="0.75" stroke-dasharray="15 15"/>
<circle cx="219.819" cy="335.117" r="221.625" transform="rotate(-84.6721 219.819 335.117)" stroke="#BDDEFF" stroke-width="1.5" stroke-dasharray="45 45"/>
<path d="M-2.49405 336.23L38.9511 340.095L42.5129 370.558L2.49753 379.631M1.51031 293.292L42.9555 297.157L52.193 266.758L15.327 250.138M35.0037 212.804L71.1829 232.749L93.3495 205.063L62.6858 178.476M14.8619 420.707L53.4282 406.979L71.283 437.644L36.0926 459.596M63.5507 492.287L94.3398 465.028L119.552 485.458L97.9134 519.596M135.855 540.836L153.222 504.039L185.93 512.739L177.993 553.428M220.558 557.397L222.044 517.237L257.395 513.754L264.671 552.849M306.633 539.06L292.053 501.545L320.981 486.164L345.452 518.577M376.242 491.318L350.571 463.69L370.428 436.541L405.417 457.129M424.686 420.133L388.636 402.836L396.649 373.453L438.094 377.319M442.099 334.38L400.653 330.515L397.769 300.869L437.177 290.232M94.9336 151.73L120.56 183.873L151.424 167.92L133.858 130.126M175.342 117.423L184.789 157.473L215.624 153.946L219.42 113.248M262.358 117.252L258.563 157.95L286.348 166.944L304.158 129.436M341.83 149.521L320.122 184.406L346.081 204.905L376.497 177.611M403.955 210.302L368.765 232.254L386.141 264.005L425.151 249.565" stroke="#BDDEFF" stroke-width="1.5"/>
<circle cx="220.227" cy="334.781" r="146.25" transform="rotate(-84.6721 220.227 334.781)" stroke="#BDDEFF" stroke-width="1.5"/>
<path d="M224.09 166.448C226.594 165.68 229.227 165.226 231.937 165.128L231.95 165.503C233.247 165.457 234.562 165.493 235.89 165.617C237.217 165.74 238.516 165.948 239.782 166.234L239.865 165.868C242.51 166.464 245.013 167.397 247.332 168.616L247.158 168.948C249.505 170.181 251.661 171.71 253.58 173.48L253.835 173.204C255.793 175.011 257.509 177.066 258.935 179.313L258.618 179.514C260.019 181.722 261.136 184.117 261.925 186.645L262.283 186.533C263.064 189.035 263.527 191.666 263.629 194.375L263.254 194.389C263.303 195.686 263.268 197.001 263.144 198.328C263.02 199.655 262.812 200.954 262.524 202.219L262.889 202.302C262.289 204.945 261.347 207.446 260.117 209.76L259.786 209.584C258.543 211.923 257.002 214.07 255.218 215.98L255.492 216.236C253.675 218.181 251.609 219.883 249.35 221.297L249.151 220.979C246.937 222.364 244.535 223.468 242.001 224.245L242.111 224.604C239.607 225.373 236.974 225.827 234.264 225.924L234.251 225.549C232.954 225.596 231.639 225.559 230.311 225.436C228.984 225.312 227.685 225.104 226.418 224.819L226.336 225.184C223.691 224.588 221.187 223.655 218.868 222.436L219.043 222.104C216.696 220.871 214.54 219.343 212.621 217.572L212.366 217.848C210.408 216.041 208.692 213.986 207.266 211.739L207.582 211.538C206.182 209.33 205.064 206.935 204.276 204.408L203.918 204.519C203.137 202.017 202.674 199.386 202.572 196.677L202.947 196.663C202.898 195.366 202.933 194.052 203.057 192.724C203.181 191.397 203.389 190.098 203.677 188.833L203.311 188.75C203.912 186.107 204.854 183.607 206.084 181.292L206.415 181.468C207.657 179.129 209.198 176.982 210.983 175.072L210.709 174.816C212.526 172.871 214.592 171.169 216.851 169.756L217.05 170.073C219.264 168.688 221.665 167.585 224.2 166.807L224.09 166.448Z" stroke="#BDDEFF" stroke-width="0.75" stroke-dasharray="9 9"/>
<circle cx="575.326" cy="183.576" r="8.9625" transform="rotate(-84.6721 575.326 183.576)" stroke="#BDDEFF" stroke-width="1.5" stroke-dasharray="7.88 7.88"/>
<path d="M558.31 182.254L592.288 185.423" stroke="#BDDEFF" stroke-width="1.5" stroke-dasharray="4.72 4.72"/>
<path d="M577.072 167.657L574.099 199.544" stroke="#BDDEFF" stroke-width="1.5" stroke-dasharray="4.72 4.72"/>
<circle cx="575.325" cy="183.576" r="154.913" transform="rotate(-84.6721 575.325 183.576)" stroke="#BDDEFF" stroke-width="1.5" stroke-dasharray="31.5 31.5"/>
<path d="M419.705 184.355L448.717 187.061L451.21 208.384L423.199 214.736M422.508 154.298L451.52 157.004L457.986 135.725L432.18 124.091M445.953 97.9567L471.279 111.919L486.795 92.5382L465.331 73.9272M431.854 243.489L458.851 233.879L471.349 255.345L446.716 270.711M465.936 293.595L487.489 274.514L505.137 288.814L489.99 312.711M516.549 327.579L528.706 301.821L551.602 307.911L546.046 336.393M575.842 339.172L576.881 311.06L601.627 308.622L606.721 335.988M636.094 326.336L625.888 300.075L646.138 289.309L663.268 311.998M684.82 292.916L666.851 273.577L680.75 254.573L705.243 268.984M718.731 243.087L693.496 230.979L699.105 210.411L728.117 213.117M730.92 183.06L701.908 180.354L699.889 159.602L727.474 152.156M487.904 55.2049L505.843 77.7052L527.448 66.5381L515.151 40.082M544.19 31.19L550.803 59.2251L572.388 56.7562L575.045 28.2674M605.102 31.0704L602.445 59.5593L621.894 65.855L634.361 39.5991M660.732 53.6585L645.536 78.0781L663.708 92.4273L684.999 73.3217M704.219 96.2053L679.586 111.572L691.75 133.797L719.056 123.689" stroke="#BDDEFF"/>
<path d="M525.381 118.003C511.082 127.337 501.014 141.978 496.881 158.15C496.078 161.288 498.207 164.337 501.384 164.969L551.553 174.944C556.526 175.932 560.408 170.69 558.01 166.222L533.333 120.232C531.773 117.326 528.142 116.201 525.381 118.003Z" stroke="#BDDEFF"/>
<path d="M493.43 197.6C496.605 214.378 506.301 229.268 519.674 239.257C522.27 241.195 525.9 240.39 527.696 237.694L556.048 195.119C558.859 190.899 555.492 185.312 550.448 185.824L498.523 191.099C495.242 191.433 492.817 194.36 493.43 197.6Z" stroke="#BDDEFF"/>
<path d="M622.511 248.132C637.008 239.11 647.39 224.691 651.874 208.612C652.744 205.492 650.681 202.397 647.519 201.697L597.577 190.638C592.627 189.542 588.633 194.699 590.933 199.218L614.609 245.731C616.105 248.67 619.711 249.874 622.511 248.132Z" stroke="#BDDEFF"/>
<path d="M655.698 172.826C654.675 155.781 646.946 139.782 634.946 128.178C632.618 125.926 628.915 126.265 626.792 128.712L593.27 167.348C589.947 171.177 592.578 177.147 597.647 177.278L649.822 178.628C653.119 178.714 655.895 176.118 655.698 172.826Z" stroke="#BDDEFF"/>
<path d="M607.385 110.69C592.131 103.016 574.414 101.667 558.354 106.217C555.237 107.1 553.671 110.473 554.721 113.537L571.301 161.927C572.945 166.723 579.428 167.445 582.086 163.128L609.453 118.685C611.182 115.877 610.331 112.172 607.385 110.69Z" stroke="#BDDEFF"/>
<path d="M543.675 256.815C558.929 264.489 576.646 265.839 592.706 261.288C595.823 260.405 597.389 257.032 596.339 253.968L579.759 205.579C578.115 200.782 571.632 200.06 568.974 204.378L541.607 248.82C539.878 251.628 540.729 255.333 543.675 256.815Z" stroke="#BDDEFF"/>
</g>
</svg>
