<svg width="50" height="49" viewBox="0 0 50 49" fill="none" xmlns="http://www.w3.org/2000/svg">
<path d="M43.9743 27.6602L43.1036 32.9488C43.1036 32.9488 32.22 41.4499 28.4484 41.397H21.5519C17.0799 41.2386 6.46573 30.8368 6.46573 30.8368L6.08644 27.8798C5.24161 14.8442 14.3278 10.3245 14.6985 10.1386H14.7071C16.3437 9.18818 19.6842 9.36417 20.6813 10.1217L20.6899 10.1386C22.2967 10.9991 23.7238 12.1484 24.8968 13.5264H25.1554C26.3331 12.1565 27.7558 11.0084 29.3536 10.1386C31.3243 9.71913 33.3633 9.71339 35.3363 10.1217L35.3449 10.1386C35.3449 10.1386 44.7243 14.5232 43.9743 27.6602Z" fill="#AF9DF2"/>
<path d="M19.8272 18.5867C19.8221 19.9153 20.3554 21.1914 21.3099 22.135C20.4047 22.794 17.241 25.5903 17.241 32.1039L17.172 32.1884C16.7242 31.819 16.2095 31.5353 15.6547 31.3521C14.0372 30.7096 12.5353 29.8168 11.2065 28.7078C10.9392 28.4966 10.6806 28.2938 10.4392 28.0911C9.2151 27.0773 7.39615 27.6181 6.26676 28.7248L6.465 30.8368L6.0857 27.8799C5.24088 14.8443 14.3271 10.3245 14.6978 10.1387H14.7064C15.5913 10.6943 16.6211 10.9877 17.6719 10.9835C18.7385 10.986 19.7832 10.6869 20.6805 10.1218L20.6891 10.1388C22.296 10.9992 23.7231 12.1485 24.8961 13.5265C22.0816 13.5773 19.8272 15.8279 19.8272 18.5867Z" fill="#FFBD6F"/>
<path d="M23.2756 5.49196C23.2718 8.52314 20.7652 10.9795 17.6721 10.9833C16.6185 10.9875 15.586 10.6942 14.698 10.1384C12.4174 8.73598 11.4777 5.94166 12.4608 3.48527C13.4438 1.02887 16.0714 -0.394512 18.7168 0.0963457C21.3622 0.587204 23.2768 2.85334 23.2756 5.49196Z" fill="#FCD858"/>
<path d="M37.9316 5.49196C37.9278 8.52314 35.4212 10.9795 32.3281 10.9833C31.2745 10.9875 30.242 10.6942 29.354 10.1384C27.0734 8.73598 26.1337 5.94166 27.1168 3.48527C28.0999 1.02887 30.7274 -0.394512 33.3728 0.0963457C36.0182 0.587204 37.9328 2.85334 37.9316 5.49196Z" fill="#FCD858"/>
<path d="M32.8282 32.1885C32.4736 32.4641 32.1526 32.7788 31.8713 33.1263C30.7445 34.5605 30.146 36.3262 30.173 38.1361V40.5523H29.3109C28.8355 40.5537 28.4503 40.9311 28.4488 41.3971H21.5522C21.5508 40.9312 21.1657 40.5537 20.6901 40.5523H19.828V38.1361C19.8551 36.3262 19.2565 34.5605 18.1298 33.1263C17.8485 32.7788 17.5274 32.4642 17.1729 32.1885L17.2418 32.104C17.2418 25.5904 20.4056 22.794 21.3107 22.135C22.2819 23.1075 23.6119 23.6557 25.0004 23.6557C26.3889 23.6557 27.7189 23.1075 28.69 22.135C29.5951 22.794 32.759 25.5904 32.759 32.104L32.8282 32.1885Z" fill="#A6D669"/>
<path d="M30.1722 18.5868C30.1764 21.3741 27.8835 23.6417 25.0393 23.6631C22.1952 23.6844 19.8672 21.4514 19.8279 18.6643C19.7885 15.8773 22.0528 13.5821 24.8964 13.5264C24.9303 13.5194 24.9651 13.5165 24.9998 13.5179C25.0516 13.5165 25.1036 13.5194 25.155 13.5264C27.949 13.6052 30.1721 15.8476 30.1722 18.5868Z" fill="#FCD858"/>
<path d="M11.2064 30.4141C10.7854 30.4137 10.4263 30.1153 10.3569 29.7083C9.46369 24.4554 12.0293 18.5045 12.1392 18.2537C12.3278 17.8267 12.8333 17.6296 13.2697 17.8129C13.7062 17.9962 13.9093 18.4907 13.724 18.9191C13.6992 18.9761 11.2486 24.6724 12.0575 29.4303C12.0992 29.6754 12.0286 29.926 11.8647 30.1156C11.7007 30.3051 11.4599 30.4143 11.2064 30.4141Z" fill="#FFAC4B"/>
<path d="M38.7938 30.4143C38.5402 30.4145 38.2994 30.3053 38.1355 30.1157C37.9715 29.9262 37.901 29.6755 37.9426 29.4304C38.7537 24.661 36.3014 18.9765 36.2766 18.9196C36.1552 18.6422 36.194 18.3225 36.3785 18.0807C36.563 17.8391 36.8649 17.7122 37.1707 17.7479C37.4765 17.7836 37.7397 17.9764 37.8609 18.2538C37.9708 18.5046 40.5364 24.4555 39.6432 29.7084C39.5737 30.1154 39.2148 30.4137 38.7938 30.4143Z" fill="#9E8BE8"/>
<path d="M18.9659 38.0176C18.4898 38.0176 18.1038 37.6394 18.1038 37.1727C18.1038 36.9413 18.1353 31.4665 20.8861 28.1878C21.0816 27.9541 21.3895 27.8404 21.6938 27.8898C21.998 27.9392 22.2522 28.144 22.3604 28.427C22.4686 28.71 22.4142 29.0281 22.218 29.2611C19.8553 32.0769 19.828 37.1219 19.828 37.1726C19.8279 37.6394 19.4419 38.0176 18.9659 38.0176Z" fill="#93C94F"/>
<path d="M31.0356 38.0171C30.56 38.0171 30.1743 37.6397 30.1735 37.1735C30.1735 37.1228 30.1385 32.0679 27.7835 29.2611C27.482 28.9006 27.5354 28.369 27.9027 28.073C28.27 27.777 28.8126 27.8283 29.1153 28.1877C31.8661 31.4664 31.8976 36.9412 31.8976 37.1727C31.8975 37.6388 31.5121 38.0168 31.0364 38.017H31.0356V38.0171Z" fill="#93C94F"/>
<path d="M19.8276 38.1358V40.552L20.07 41.6212L11.4584 41.8192L11.4828 40.552L5.25011 34.444C4.53849 33.7532 3.9628 32.9398 3.55186 32.0447L0.172469 24.7622C0.0581132 24.5214 -0.000773577 24.259 7.67303e-06 23.9934C0.00254674 22.9727 0.846297 22.1458 1.8879 22.1433C2.64405 22.1405 3.32765 22.5838 3.62061 23.267L5.55167 27.6769C5.60343 27.7951 5.66378 27.9219 5.72413 28.0402C5.76143 28.1316 5.80763 28.2194 5.86202 28.3022C5.86202 28.3191 5.87061 28.3275 5.87931 28.3444C5.89659 28.3782 5.92237 28.4204 5.93966 28.4542L6.2672 28.2852V28.2768C6.57892 27.9696 6.95558 27.7331 7.37061 27.584C8.41134 27.1911 9.5878 27.3854 10.4396 28.0909C10.681 28.2937 10.9396 28.4964 11.2068 28.7077C12.5357 29.8168 14.0375 30.7095 15.6551 31.3519C16.2098 31.5352 16.7245 31.8188 17.1724 32.1883C17.527 32.4639 17.848 32.7786 18.1293 33.126C19.2562 34.5602 19.8547 36.3259 19.8276 38.1358Z" fill="#FCD858"/>
<path d="M50.0002 23.9934C50.001 24.259 49.9422 24.5215 49.8278 24.7622L46.4485 32.0446C46.0375 32.9398 45.4619 33.7531 44.7502 34.4439L38.5175 40.5519L38.4921 42.0826L30.1008 41.8192L30.1727 40.552V38.1358C30.1457 36.3259 30.7442 34.5602 31.8709 33.126C32.1522 32.7785 32.4733 32.4639 32.8279 32.1882C33.2757 31.8188 33.7904 31.535 34.3452 31.3518C35.9627 30.7094 37.4646 29.8166 38.7934 28.7076C39.0607 28.4963 39.3193 28.2936 39.5607 28.0909C40.7903 27.0832 42.6018 27.164 43.7332 28.2767V28.2851L44.0607 28.4541C44.1382 28.3105 44.2159 28.1669 44.2848 28.0233C44.3452 27.9134 44.3969 27.7952 44.4486 27.6769L46.3796 23.267C46.6727 22.5838 47.3563 22.1405 48.1124 22.1433C49.154 22.1458 49.9977 22.9727 50.0002 23.9934Z" fill="#FCD858"/>
<path d="M11.8186 33.5485C11.4786 33.8752 10.9344 33.8752 10.5944 33.5485L7.39619 30.4057C6.81397 29.8458 6.32266 29.2019 5.93926 28.4964C5.91172 28.4488 5.89141 28.3976 5.87891 28.3443C5.89619 28.3781 5.92197 28.4203 5.93926 28.4542L6.2668 28.2852V28.2768C6.57852 27.9696 6.95518 27.7331 7.37022 27.584C7.40371 27.6199 7.43272 27.6596 7.45645 27.7023C7.76416 28.2589 8.15342 28.7683 8.61162 29.2145L11.8186 32.3487C12.1548 32.6808 12.1548 33.2165 11.8186 33.5485Z" fill="#F8CB2C"/>
<path d="M38.1825 33.5485C38.5225 33.8752 39.0667 33.8752 39.4066 33.5485L42.6049 30.4057C43.1871 29.8458 43.6784 29.2019 44.0618 28.4964C44.0894 28.4488 44.1097 28.3976 44.1222 28.3443C44.1049 28.3781 44.0791 28.4203 44.0618 28.4542L43.7343 28.2852V28.2768C43.4226 27.9696 43.0459 27.7331 42.6309 27.584C42.5974 27.6199 42.5684 27.6596 42.5446 27.7023C42.2369 28.2589 41.8477 28.7683 41.3895 29.2145L38.1825 32.3487C37.8464 32.6808 37.8464 33.2165 38.1825 33.5485Z" fill="#F8CB2C"/>
<path d="M11.2071 40.552H20.6898C21.1659 40.552 21.5519 40.9302 21.5519 41.3969V48.1555C21.5519 48.622 21.166 49.0003 20.6898 49.0003H11.2071C10.731 49.0003 10.345 48.6221 10.345 48.1555V41.3969C10.3451 40.9302 10.731 40.552 11.2071 40.552Z" fill="#135FC5"/>
<path d="M18.9654 45.6209H18.1033C17.6272 45.6209 17.2412 45.2427 17.2412 44.776C17.2412 44.3094 17.6271 43.9312 18.1033 43.9312H18.9654C19.4415 43.9312 19.8275 44.3094 19.8275 44.776C19.8275 45.2427 19.4415 45.6209 18.9654 45.6209Z" fill="#003884"/>
<path d="M29.3101 40.552H38.7928C39.2689 40.552 39.6549 40.9302 39.6549 41.3969V48.1555C39.6549 48.622 39.269 49.0003 38.7928 49.0003H29.3101C28.834 49.0003 28.448 48.6221 28.448 48.1555V41.3969C28.448 40.9302 28.8339 40.552 29.3101 40.552Z" fill="#135FC5"/>
<path d="M31.8968 45.6209H31.0347C30.5586 45.6209 30.1726 45.2427 30.1726 44.776C30.1726 44.3094 30.5585 43.9312 31.0347 43.9312H31.8968C32.3729 43.9312 32.7589 44.3094 32.7589 44.776C32.7589 45.2427 32.3729 45.6209 31.8968 45.6209Z" fill="#003884"/>
</svg>
