<svg width="32" height="54" viewBox="0 0 32 54" fill="none" xmlns="http://www.w3.org/2000/svg">
<path d="M22.2341 3.42811C20.6213 -1.9698 7.66036 -0.0362979 6.61778 3.08808C5.5752 6.21245 6.76217 10.8933 6.76217 10.8933C11.544 7.02312 16.143 5.25499 22.351 9.75108C22.351 9.75108 23.8469 8.82602 22.2341 3.42811Z" fill="#003884"/>
<path d="M31.9108 53.6354L29.8417 38.5645C15.1908 19.1233 6.70812 14.6352 6.68373 2.90147C-0.052336 20.2588 6.52225 20.706 31.9108 53.6354Z" fill="#FCD858"/>
<path d="M0.111224 53.5966L1.47816 37.0174C14.5764 18.8429 22.0535 14.6038 22.0291 2.87011C32.2423 21.7307 13.5925 31.8726 0.111224 53.5966Z" fill="#0573E8"/>
</svg>
