<svg width="51" height="37" viewBox="0 0 51 37" fill="none" xmlns="http://www.w3.org/2000/svg">
<path d="M3.50505 18.2111C1.92393 15.8725 4.69069 12.3649 7.85282 13.5343C6.2717 9.63677 11.8052 6.51892 14.5721 7.68831C13.3862 3.7908 19.315 1.45241 20.8961 4.18073C21.2911 -0.886031 26.8246 -1.27554 28.8012 2.6218C31.1724 -0.885985 35.9154 1.06267 35.5204 4.18073C39.4727 1.84214 41.8442 4.95999 40.6587 7.68831C44.6109 8.07784 45.4014 12.3649 43.4255 14.7035C46.1919 16.2622 45.0062 20.939 42.2397 21.7187C43.4255 24.4466 39.4727 27.5646 36.7062 26.3954C36.7062 28.3439 31.5676 30.2926 28.8012 27.5646C27.6151 31.8515 21.6863 32.2412 19.3151 29.903C18.1291 34.5796 11.8051 35.7488 9.82908 33.8003C7.85282 36.1385 3.10952 34.9693 3.50505 31.0722C-0.0525068 33.0207 -1.23812 26.3954 1.52879 24.8365C-0.84283 23.2774 0.342925 18.2111 3.50505 18.2111Z" fill="#F0A4A4"/>
<path d="M9.50505 20.2111C7.92393 17.8725 10.6907 14.3649 13.8528 15.5343C12.2717 11.6368 17.8052 8.51892 20.5721 9.68831C19.3862 5.7908 25.315 3.45241 26.8961 6.18073C27.2911 1.11397 32.8246 0.724463 34.8012 4.6218C37.1724 1.11401 41.9154 3.06267 41.5204 6.18073C45.4727 3.84214 47.8442 6.95999 46.6587 9.68831C50.6109 10.0778 51.4014 14.3649 49.4255 16.7035C52.1919 18.2622 51.0062 22.939 48.2397 23.7187C49.4255 26.4466 45.4727 29.5646 42.7062 28.3954C42.7062 30.3439 37.5676 32.2926 34.8012 29.5646C33.6151 33.8515 27.6863 34.2412 25.3151 31.903C24.1291 36.5796 17.8051 37.7488 15.8291 35.8003C13.8528 38.1385 9.10952 36.9693 9.50505 33.0722C5.94749 35.0207 4.76188 28.3954 7.52879 26.8365C5.15717 25.2774 6.34292 20.2111 9.50505 20.2111Z" fill="#FFC6C6"/>
<path d="M19.6102 30.9599C19.6102 30.5614 19.6373 30.2953 19.8692 29.9857C19.9633 29.8599 20.0876 29.6019 20.2639 29.6019C20.6594 29.6019 21.0659 29.9736 21.2461 30.3104C21.49 30.7665 21.4371 31.7422 21.344 32.2261C21.2199 32.8706 20.9184 33.4422 20.4503 33.8401C20.1291 34.1131 19.5246 33.9807 19.187 33.8532C18.7242 33.6784 18.267 33.2587 17.9744 32.8494C17.8012 32.6073 17.7387 32.3348 17.6491 32.0556C17.5701 31.8096 17.4099 31.5919 17.3364 31.3437C17.1534 30.726 17.0391 30.1019 16.8375 29.4969C16.5763 28.7132 16.1073 28.3619 15.3185 28.3619C14.2615 28.3619 14.4942 30.4262 14.4942 31.1371C14.4942 31.8785 14.242 32.6426 13.9573 33.3185C13.8346 33.6099 13.3807 33.9123 13.0731 33.9123C12.877 33.9123 12.4434 33.1558 12.5931 33.0003C12.8111 32.7738 12.6752 32.012 12.6752 31.6685C12.6752 30.8584 12.3493 30.3695 11.5099 30.3695C11.2762 30.3695 11.1491 30.5466 10.913 30.5466C10.7137 30.5466 10.523 30.5534 10.3446 30.6516C10.1287 30.7703 9.59325 30.9528 9.34979 30.8123C9.01588 30.6196 8.90029 30.0464 9.09399 29.7068C9.44555 29.0906 10.0974 28.933 10.7141 28.6866C10.8983 28.613 11.2063 28.628 11.3236 28.4209C11.3943 28.296 11.5744 28.2678 11.6836 28.1814C11.8741 28.0307 12.0589 27.873 12.252 27.7255C12.6444 27.4258 12.9043 26.9176 13.3573 26.6823C13.8362 26.4336 14.294 26.059 14.8479 26.059C15.1201 26.059 15.381 26 15.6564 26C15.9036 26 16.0179 26.1254 16.228 26.1739C16.6199 26.2643 16.8001 26.6566 17.0648 26.9316C17.3335 27.2107 17.676 27.7124 18.1038 27.7124C18.7023 27.7124 19.1056 27.4 19.6102 27.1088C19.7016 27.056 19.7124 26.9567 19.7808 26.8857C19.8516 26.8121 19.959 26.7974 20.0366 26.7348C20.2427 26.5682 20.6016 26.403 20.864 26.3576C21.2977 26.2825 21.7088 26.1771 22.1682 26.1771C22.6815 26.1771 23.2013 26.461 23.6999 26.5905C24.2844 26.7423 24.583 27.4558 24.9978 27.8436C25.5767 28.3848 26.4181 28.5209 27 29.0704" stroke="#FAB5B5" stroke-width="2" stroke-linecap="round" stroke-linejoin="round"/>
<path d="M27 29.0204C27.5814 29.2726 28.0204 29.8115 28.6609 29.9333C29.1085 30.0185 29.5723 29.9978 30.0363 29.9978C30.5495 29.9978 31.0081 29.5733 31.204 29.112C31.4709 28.4837 30.9847 28.428 30.6915 27.9819C30.5556 27.7751 30.1718 27.6318 29.9779 27.4796C29.7319 27.2866 29.528 27.0845 29.222 27.0044C29.0688 26.9644 28.8991 26.957 28.8101 26.794C28.6947 26.5828 28.32 26.3124 28.1418 26.1526C27.9442 25.9753 27.7894 25.638 27.6423 25.4026C27.3782 24.9799 27.1417 24.0441 27.3503 23.5529C27.6519 22.8431 28.4584 22.9726 29.0761 22.9726C29.7579 22.9726 30.4354 22.9115 31.1197 22.9115C31.7211 22.9115 32.3334 22.6507 32.8844 22.4228C33.4829 22.1752 33.8359 21.4525 34.1235 20.9091C34.2478 20.6744 34.3467 20.4293 34.4739 20.1964C34.5597 20.0392 34.6862 20.1557 34.7918 20.1557C34.9579 20.1557 35.0063 18.415 34.9994 18.1466C34.9881 17.7122 34.6918 17.2761 34.5452 16.8773C34.4337 16.574 33.9954 16.2952 33.7764 16.0662C33.5976 15.8791 33.4946 15.6089 33.319 15.4111C33.1605 15.2325 33.0448 15.1726 32.839 15.065C32.651 14.9666 32.2062 14.987 32.0215 15.0785C31.5623 15.3061 31.391 15.8005 31.1586 16.2867C30.97 16.6815 30.8034 17.0912 30.857 17.5391C30.8979 17.8821 31.2146 18.1724 31.4992 18.3027C31.723 18.4051 32.3924 18.6279 32.56 18.3298C32.6875 18.1031 32.8607 17.997 32.7773 17.6918C32.7438 17.5692 32.5897 17.2831 32.4886 17.2302" stroke="#FAB5B5" stroke-width="2" stroke-linecap="round" stroke-linejoin="round"/>
<path d="M10.8272 23.4271C11.2845 23.6057 11.5672 24.11 11.2044 24.5176C10.8921 24.8684 10.8424 24.9739 10.334 24.9739C10.0254 24.9739 9.51707 24.5444 9.35082 24.3042C9.10092 23.9432 8.92525 23.4673 9.03168 23.0271C9.3207 21.8315 10.6278 21.7203 11.7556 21.7203C12.3822 21.7203 13.0347 21.7979 13.5544 22.1351C14.057 22.4613 14.7423 22.6295 15.192 23.0122C15.5349 23.3041 15.9303 23.5446 16.3138 23.7886C16.6262 23.9874 17.013 24.2632 17.3582 24.3901C17.6937 24.5135 19.4729 25.5735 19.4729 24.5768C19.4729 24.1816 19.3979 24.0662 19.1376 23.7471C18.8907 23.4445 18.6343 23.1363 18.3414 22.867C17.6855 22.2641 16.8682 21.7134 16.3105 21.0298C16.2013 20.896 15.1521 19.9601 15.7013 19.9601C16.2681 19.9601 16.7617 20.2189 17.268 20.4283C17.6718 20.5953 18.0624 20.6504 18.4252 20.9172C18.759 21.1627 19.1247 21.3614 19.46 21.6136C20.1948 22.1662 20.9159 22.738 21.6198 23.3204C21.9492 23.5929 22.631 23.5921 22.8125 23.2108C23.1819 22.4347 22.4717 21.7033 21.9099 21.1869C21.531 20.8386 21.2136 20.4939 21.2136 19.9868C21.2136 19.6456 22.3518 19.9581 22.4869 20.0668C22.9104 20.4074 23.3946 20.6709 23.6055 21.175C23.8425 21.7413 24.4114 22.1735 24.6822 22.7337C24.7972 22.9714 25.2619 22.5291 25.2754 22.307C25.2853 22.1431 25.2645 21.9195 25.1851 21.7736C25.0128 21.4569 24.9639 21.1225 24.8821 20.7839C24.8009 20.448 24.8289 19.8839 25.1915 19.6934C25.4955 19.5337 26.1065 19.5442 26.3456 19.8267C26.4861 19.9929 26.5974 20.1646 26.726 20.3453C26.9477 20.6571 27.2236 20.7543 27.6286 20.8402C28.036 20.9266 28.4579 21.0132 28.7439 21.3054C28.7853 21.3476 28.7554 21.7143 28.8471 21.7143C29.0397 21.7143 29.0511 21.3404 29.221 21.2936C29.3404 21.2606 29.4763 21.3052 29.6014 21.2669C29.8436 21.1927 30.2412 21.3455 30.4267 21.175C30.6355 20.9831 31.2311 20.8477 30.9037 20.5468C30.7367 20.3933 30.6801 20.1884 30.4686 20.0371C30.2305 19.8669 30.0268 19.6627 29.7626 19.5215C29.3968 19.326 28.9706 19.2784 28.5634 19.2104C28.4202 19.1865 28.2499 19.0604 28.1186 19" stroke="#FAB5B5" stroke-width="2" stroke-linecap="round" stroke-linejoin="round"/>
<path d="M13.0309 16.7323C12.7803 16.7323 12.346 16.6682 12.1317 16.8548C11.9613 17.0031 12.005 17.177 12.005 17.3937C12.005 17.9298 12.8486 18 13.2716 18C13.8389 18 14.1707 17.6571 14.6553 17.4488C14.9326 17.3296 15.2374 17.1891 15.4533 16.9803C15.6771 16.7639 15.6527 16.5878 15.6527 16.2913C15.6527 15.9586 15.5717 15.6726 15.5388 15.3543C15.4951 14.9321 15.4818 14.5168 15.4818 14.0866C15.4818 13.0425 16.0478 11.8529 17.3056 12.0595C17.9256 12.1613 18.1638 12.9215 18.2302 13.4497C18.3138 14.1147 18.5486 14.9983 18.3569 15.6605C18.2692 15.9633 18.1592 16.6309 18.3062 16.9558C18.4929 17.3685 18.994 17.4078 19.4018 17.3937C19.7141 17.3829 19.8056 16.3408 19.8134 16.126C19.8375 15.4608 20.003 14.8403 20.4942 14.3653C20.7811 14.0878 21.5713 14.0547 21.9222 14.2244C22.3199 14.4167 22.7027 14.8276 22.8912 15.2135C23.0513 15.5415 23.1906 16.1456 22.9608 16.4567C22.8054 16.6671 22.5935 16.9858 22.7487 17.2559C22.8814 17.487 23.1518 17.6097 23.4041 17.6969C23.7246 17.8075 23.8646 17.7909 24.1007 17.5713C24.554 17.1499 25 17.1401 25 16.4536C25 15.1523 24.6354 13.7788 23.8031 12.7209C23.3916 12.198 22.5201 12.0818 21.9254 11.8788C21.3951 11.6978 20.7858 11.5984 20.301 11.3001C20.0908 11.1707 19.8447 11 19.5854 11" stroke="#FAB5B5" stroke-width="2" stroke-linecap="round" stroke-linejoin="round"/>
<path d="M25.4171 11C24.3058 10.969 23.0916 9.83221 23.0916 8.38959C23.0916 7.70447 22.8289 6.85076 23.1933 6.29181C23.6643 5.56941 24.346 4.67507 25.1972 5.11814C25.9006 5.48427 26.5403 6.01014 26.9015 6.87191C27.0957 7.33534 26.9886 7.79698 26.7036 8.14676C26.5112 8.3828 26.1205 8.32888 25.8624 8.32888C25.5492 8.32888 25.5253 7.86587 25.4171 7.60039" stroke="#FAB5B5" stroke-width="2" stroke-linecap="round" stroke-linejoin="round"/>
<path d="M26 11.6142C26.5569 11.6142 27.0923 11.7293 27.6518 11.7293C27.9619 11.7293 28.1945 11.6035 28.4936 11.5311C28.9036 11.4319 29.2828 11.3841 29.7053 11.3841C30.2611 11.3841 31.3184 12.3423 30.579 12.8095C29.7493 13.3338 28.3296 13.2614 27.8112 14.2061C27.7016 14.4058 27.4876 15.1207 27.8399 15.2383C28.2678 15.3813 28.6412 15.3997 29.0548 15.1233C29.8142 14.6159 30.5034 13.9191 31.4527 13.8002C31.8663 13.7484 32.2906 13.6547 32.7027 13.5829C33.0493 13.5225 33.3465 13.5445 33.6784 13.3975C34.0447 13.2353 34.1801 12.7332 34.2046 12.3653C34.236 11.8935 34.1391 11.7321 33.8634 11.3586C33.3628 10.6804 32.8773 10.0231 32.2627 9.43786C31.8645 9.0588 31.2781 8.82994 30.933 8.41198C30.3115 7.65932 30.1961 6.3531 30.2474 5.40148C30.2869 4.66835 31.0708 5.12564 31.4017 5.32158C31.7502 5.52797 31.9528 5.7977 32.1542 6.13653C32.432 6.60388 32.77 7.00619 33.0885 7.44364C33.3934 7.86237 33.6588 8.30669 33.9654 8.72518C34.3117 9.19777 34.7484 9.60342 35.056 10.1058C35.2697 10.4548 35.6131 10.6766 35.8436 11.0102C35.9825 11.2113 36.1765 11.3634 36.3442 11.5439C36.6546 11.878 36.8546 12.3603 37.033 12.7775C37.2057 13.1813 37.3643 13.5896 37.4188 14.0271C37.4442 14.2303 37.1751 14.293 37.0202 14.3307C36.5296 14.4503 36.1621 14.2687 35.7607 14.6375C35.2773 15.0816 35.848 15.5994 36.1593 15.9287C36.8338 16.6422 37.4985 17.5061 37.9418 18.3799C38.1387 18.768 38.2906 19.181 38.5062 19.5592C38.606 19.7343 38.6847 19.7736 38.6847 19.9682C38.6847 20.217 38.6646 20.4291 38.5413 20.6489C38.0537 21.5176 37.4203 22.1497 36.5419 22.6464C35.5222 23.2229 34.3903 23.5358 33.4297 24.2123C33.1183 24.4317 32.4596 24.7509 32.4285 25.203C32.4054 25.5388 32.384 25.9184 32.6581 26.1554C33.2433 26.6614 34.0431 26.5573 34.7116 26.2832C35.0695 26.1365 35.4 25.8258 35.7288 25.6249C36.2161 25.3271 36.8117 25.1275 37.3646 24.9889C37.8924 24.8567 38.4145 24.7301 38.959 24.7301C39.6151 24.7301 39.9512 24.9722 40.4067 25.4204C40.7972 25.8047 41.2404 26.1351 41.5801 26.5709C41.7807 26.8282 42.1658 27.3734 41.9213 27.6958C41.7464 27.9265 41.4111 28.1887 41.1528 28.3286C40.8465 28.4946 40.5549 28.7421 40.2313 28.8719C39.5911 29.1286 38.6837 29.0208 38.3085 28.3542C38.1172 28.0144 37.948 27.3769 38.4233 27.2037C38.6314 27.1278 39.1439 26.9169 39.1439 27.2612" stroke="#FAB5B5" stroke-width="2" stroke-linecap="round" stroke-linejoin="round"/>
<path d="M33 3C33.4207 3.9661 34.2358 4.51942 34.8405 5.35907C35.2848 5.97604 35.7504 6.36441 36.5617 6.29943C37.2739 6.24237 37.2331 5.6631 37.2331 5.12317C37.2331 4.50363 38.063 5.24065 38.3101 5.39184C39.5888 6.17411 37.3378 7.4048 37.0184 7.95078C36.6534 8.57456 37.6199 8.77973 38.092 8.77973C38.9186 8.77973 39.4032 7.88686 40.0858 7.54449C40.7399 7.21641 41.4523 7.12784 42.1376 6.92196C42.9205 6.68677 43.8482 7.08812 44.4859 7.48224C45.0968 7.85977 45.021 8.71778 44.9597 9.33673C44.9107 9.83126 44.4869 10.4148 44.0428 10.6408C43.5873 10.8726 42.9761 11.1266 42.4477 10.9291C42.1462 10.8164 41.7116 10.3548 41.7116 10.0182C41.7116 9.67782 41.6626 9.35346 42.0456 9.24827C42.248 9.19268 42.6637 8.90011 42.8158 9.19257" stroke="#FAB5B5" stroke-width="2" stroke-linecap="round" stroke-linejoin="round"/>
<path d="M39.622 12.3828C39.1735 12.3828 39 12.3124 39 11.8139C39 10.8966 40.2834 10.9348 40.8944 11.0768C41.5277 11.2239 42.1202 11.5276 42.2672 12.2083C42.4036 12.8396 42.124 13.2415 41.7143 13.663C41.1905 14.2021 40.2724 14.1326 39.7917 14.7686C39.5838 15.0436 39.622 15.4292 39.622 15.7579C39.622 16.2283 39.731 16.3319 40.1875 16.4432C40.9433 16.6274 41.5134 16.2487 42.0536 15.7546C42.4504 15.3917 42.7751 14.9653 43.1563 14.5876C43.7708 13.9787 44.4012 13.3679 45.0821 12.8289C45.8017 12.2593 46.7658 11.5524 47.721 11.6975C48.2226 11.7736 49.0306 12.6702 48.9494 13.2557C48.9212 13.4582 48.5558 13.6901 48.4059 13.7859C47.9011 14.1082 47.3834 14.4018 46.8728 14.7104C45.8672 15.3181 44.7997 15.8286 43.838 16.5111C43.2685 16.9153 42.2798 17.4278 42.2798 18.26C42.2798 18.9994 42.6422 19.1911 43.3417 19.1911C43.6966 19.1911 43.8793 18.9801 44.1459 18.7708C44.5109 18.4842 44.8699 18.2746 45.302 18.1146C45.912 17.8886 46.5495 17.6363 47.1869 17.9109C47.9968 18.2597 49.4446 19.49 48.8677 20.5585C48.6838 20.8992 47.8715 20.6895 47.6079 20.5747C47.492 20.5243 47.4014 20.366 47.2812 20.2967C47.13 20.2096 46.9771 20.116 46.8162 20.051C46.5869 19.9583 46.1757 19.8456 45.9335 19.9799C45.5715 20.1804 45.6822 21.334 46.1251 21.3991C46.241 21.4161 46.3498 21.4457 46.4644 21.4734C46.5603 21.4967 46.5742 21.4373 46.5838 21.4767C46.706 21.98 47.1002 22.4395 47.3692 22.87C47.6155 23.2643 47.7084 23.7103 47.7084 24.1696C47.7084 24.7329 47.5357 25.0132 47.1555 25.4045C46.9805 25.5847 46.7825 25.6324 46.5523 25.7084C46.1524 25.8404 45.6866 25.9923 45.2643 25.9993C44.3538 26.0144 43.4235 25.7772 42.8767 24.9519C42.4497 24.3075 41.9513 23.6927 41.7834 22.9152C41.604 22.0844 42.0154 21.3441 42.8736 21.3441C43.7079 21.3441 44.5777 21.7517 45.2455 22.2493C45.7559 22.6297 46.1042 23.2434 46.0685 23.9045C46.0508 24.2337 45.3771 24.2605 45.1606 24.1631C44.9256 24.0573 44.7516 23.956 44.5417 23.8172C44.3838 23.7127 44.2379 23.5154 44.0894 23.439" stroke="#FAB5B5" stroke-width="2" stroke-linecap="round" stroke-linejoin="round"/>
</svg>
