<svg width="387" height="914" viewBox="0 0 387 914" fill="none" xmlns="http://www.w3.org/2000/svg">
<mask id="mask0" mask-type="alpha" maskUnits="userSpaceOnUse" x="0" y="0" width="387" height="914">
<rect width="387" height="914" fill="#C4C4C4"/>
</mask>
<g mask="url(#mask0)">
<circle cx="393.033" cy="493.66" r="13.125" transform="rotate(173.54 393.033 493.66)" stroke="#BDDEFF" stroke-width="1.5" stroke-dasharray="11.25 11.25"/>
<path d="M370.261 495.861L415.721 490.714" stroke="#BDDEFF" stroke-width="1.5" stroke-dasharray="6.75 6.75"/>
<circle cx="393.031" cy="493.66" r="221.625" transform="rotate(173.54 393.031 493.66)" stroke="#BDDEFF" stroke-width="1.5" stroke-dasharray="45 45"/>
<path d="M439.535 711.058L434.852 669.697L463.944 659.987L481.001 697.306M396.683 715.909L392 674.549L360.356 671.716L351.617 711.2M311.051 699.564L323.185 660.074L291.554 644.03L271.792 679.479M518.684 676.811L497.367 641.862L523.738 618.12L552.417 648.084M578.809 614.526L545.835 589.955L560.683 561.101L598.522 575.31M611.563 533.829L571.995 524.345L573.83 490.55L615.282 490.008M610.472 447.529L570.855 454.279L560.225 420.385L597.008 405.276M574.939 367.015L541.192 388.951L520.227 363.775L546.957 333.199M513.983 308.627L492.182 339.4L461.549 325.508L474.556 287.051M434.404 275.746L424.836 314.569L394.436 312.728L389.753 271.367M346.901 276.219L351.584 317.579L323.153 326.459L304.69 290.055M239.022 653.375L265.253 621.723L243.331 594.768L209.922 619.684M189.013 581.67L226.289 564.241L216.537 534.776L175.921 539.375M171.07 496.524L211.685 491.925L214.814 462.889L174.458 453.117M186.424 412.135L225.007 426.259L239.771 396.661L206.84 372.462M233.232 338.905L261.91 368.868L289.442 345.372L267.337 310.135" stroke="#BDDEFF" stroke-width="1.5"/>
<circle cx="392.618" cy="493.329" r="146.25" transform="rotate(173.54 392.618 493.329)" stroke="#BDDEFF" stroke-width="1.5"/>
<path d="M315.152 526.933C312.991 521.894 311.294 516.586 310.121 511.058L310.488 510.98C309.919 508.299 309.473 505.565 309.159 502.785C308.844 500.005 308.667 497.241 308.622 494.5L308.247 494.506C308.154 488.856 308.622 483.303 309.601 477.908L309.97 477.975C310.969 472.475 312.502 467.14 314.52 462.033L314.171 461.895C316.224 456.699 318.775 451.739 321.774 447.08L322.089 447.283C325.087 442.623 328.535 438.266 332.377 434.281L332.107 434.02C335.955 430.028 340.198 426.406 344.782 423.22L344.996 423.528C349.508 420.393 354.353 417.683 359.479 415.463L359.33 415.119C364.363 412.939 369.666 411.228 375.191 410.048L375.27 410.415C377.95 409.843 380.683 409.395 383.463 409.081C386.244 408.766 389.007 408.591 391.748 408.549L391.742 408.174C397.392 408.089 402.943 408.571 408.336 409.57L408.268 409.939C413.76 410.957 419.088 412.515 424.187 414.562L424.327 414.214C429.507 416.294 434.453 418.876 439.096 421.907L438.891 422.221C443.527 425.247 447.861 428.722 451.825 432.594L452.087 432.326C456.051 436.196 459.648 440.461 462.81 445.066L462.501 445.279C465.609 449.805 468.297 454.663 470.499 459.8L470.844 459.652C473.005 464.692 474.702 469.999 475.875 475.527L475.508 475.605C476.077 478.286 476.523 481.02 476.837 483.8C477.152 486.581 477.329 489.345 477.374 492.085L477.749 492.079C477.841 497.73 477.374 503.282 476.395 508.677L476.026 508.61C475.027 514.11 473.494 519.445 471.476 524.552L471.825 524.69C469.772 529.886 467.221 534.847 464.222 539.506L463.907 539.303C460.908 543.962 457.461 548.319 453.619 552.305L453.889 552.565C450.041 556.557 445.798 560.18 441.214 563.365L441 563.057C436.488 566.192 431.643 568.902 426.517 571.123L426.666 571.467C421.633 573.647 416.33 575.357 410.804 576.537L410.726 576.17C408.046 576.743 405.313 577.19 402.532 577.505C399.752 577.819 396.988 577.995 394.248 578.036L394.254 578.411C388.604 578.496 383.053 578.015 377.66 577.015L377.728 576.646C372.236 575.628 366.908 574.07 361.809 572.023L361.669 572.371C356.488 570.291 351.543 567.709 346.9 564.678L347.105 564.364C342.469 561.338 338.135 557.863 334.17 553.992L333.908 554.26C329.945 550.389 326.348 546.124 323.186 541.519L323.495 541.307C320.387 536.78 317.699 531.923 315.496 526.785L315.152 526.933Z" stroke="#BDDEFF" stroke-width="0.75" stroke-dasharray="15 15"/>
<path d="M71.2948 208.415C69.9103 204.044 68.7947 199.541 67.9692 194.922L68.3383 194.856C67.9344 192.596 67.6001 190.307 67.3381 187.993C67.0762 185.679 66.8904 183.374 66.7787 181.081L66.4042 181.099C66.1761 176.413 66.2567 171.774 66.629 167.205L67.0028 167.235C67.3815 162.588 68.0629 158.013 69.0293 153.533L68.6627 153.454C69.6463 148.894 70.9239 144.431 72.4767 140.09L72.8298 140.217C74.3921 135.849 76.2341 131.605 78.3363 127.509L78.0027 127.337C80.1242 123.204 82.5099 119.22 85.1401 115.411L85.4487 115.624C88.0752 111.82 90.9464 108.191 94.0424 104.762L93.764 104.511C96.868 101.073 100.197 97.8362 103.732 94.8242L103.975 95.1096C107.481 92.1218 111.19 89.3564 115.082 86.838L114.879 86.5231C118.751 84.0175 122.804 81.7555 127.02 79.761L127.18 80.1C131.324 78.1392 135.625 76.4378 140.065 75.019L139.951 74.6618C144.318 73.2661 148.819 72.1427 153.437 71.3133L153.504 71.6824C155.763 71.2766 158.051 70.9413 160.365 70.6794C162.679 70.4174 164.984 70.2326 167.278 70.1229L167.26 69.7484C171.946 69.5243 176.585 69.6129 181.153 69.9968L181.122 70.3705C185.767 70.7608 190.339 71.4574 194.817 72.4421L194.897 72.0759C199.452 73.0775 203.908 74.376 208.243 75.9524L208.115 76.3048C212.472 77.8893 216.705 79.7554 220.79 81.8837L220.963 81.5512C225.082 83.6967 229.051 86.1078 232.845 88.7643L232.629 89.0715C236.414 91.7213 240.023 94.6163 243.434 97.7366L243.687 97.4599C247.102 100.584 250.318 103.934 253.31 107.489L253.023 107.731C255.988 111.253 258.732 114.978 261.232 118.886L261.548 118.684C264.032 122.567 266.275 126.631 268.253 130.856L267.913 131.015C269.857 135.166 271.544 139.473 272.952 143.917L273.309 143.804C274.694 148.175 275.81 152.678 276.635 157.297L276.266 157.363C276.67 159.623 277.004 161.911 277.266 164.225C277.528 166.539 277.714 168.844 277.825 171.138L278.2 171.119C278.428 175.806 278.348 180.445 277.975 185.014L277.601 184.984C277.223 189.631 276.541 194.206 275.575 198.686L275.942 198.765C274.958 203.325 273.68 207.788 272.128 212.129L271.774 212.002C270.212 216.37 268.37 220.614 266.268 224.71L266.602 224.881C264.48 229.015 262.094 232.999 259.464 236.808L259.156 236.595C256.529 240.399 253.658 244.028 250.562 247.456L250.84 247.708C247.736 251.145 244.407 254.383 240.873 257.395L240.629 257.109C237.123 260.097 233.414 262.862 229.522 265.381L229.726 265.696C225.853 268.201 221.8 270.463 217.585 272.458L217.424 272.119C213.28 274.08 208.979 275.781 204.539 277.2L204.653 277.557C200.286 278.953 195.785 280.076 191.167 280.906L191.101 280.536C188.841 280.942 186.553 281.277 184.239 281.539C181.925 281.801 179.62 281.986 177.327 282.096L177.345 282.47C172.658 282.695 168.02 282.606 163.451 282.222L163.482 281.848C158.837 281.458 154.265 280.761 149.787 279.777L149.707 280.143C145.152 279.141 140.696 277.843 136.361 276.266L136.489 275.914C132.133 274.33 127.899 272.463 123.814 270.335L123.641 270.668C119.522 268.522 115.554 266.111 111.76 263.454L111.975 263.147C108.191 260.497 104.581 257.603 101.17 254.482L100.917 254.759C97.502 251.634 94.2859 248.285 91.2938 244.73L91.5808 244.488C88.6159 240.966 85.8717 237.241 83.3724 233.333L83.0565 233.535C80.5725 229.651 78.3296 225.588 76.3513 221.363L76.691 221.204C74.7474 217.053 73.0604 212.746 71.6523 208.301L71.2948 208.415Z" stroke="#BDDEFF" stroke-width="0.75" stroke-dasharray="15 15"/>
<path d="M227.046 523.935C225.782 521.641 224.8 519.156 224.151 516.524L224.515 516.434C224.205 515.174 223.971 513.879 223.821 512.554C223.671 511.229 223.609 509.915 223.63 508.617L223.255 508.611C223.299 505.9 223.701 503.259 224.42 500.74L224.781 500.843C225.508 498.294 226.564 495.871 227.905 493.63L227.584 493.438C228.952 491.151 230.613 489.052 232.522 487.197L232.783 487.466C234.658 485.644 236.774 484.06 239.087 482.772L238.905 482.444C241.195 481.169 243.676 480.178 246.307 479.525L246.397 479.889C247.657 479.577 248.951 479.342 250.275 479.192C251.6 479.042 252.914 478.981 254.212 479.004L254.218 478.629C256.928 478.678 259.568 479.089 262.085 479.82L261.981 480.18C264.524 480.919 266.94 481.989 269.175 483.345L269.369 483.025C271.644 484.406 273.733 486.081 275.578 488.004L275.307 488.263C277.115 490.148 278.687 492.273 279.966 494.595L280.294 494.414C281.558 496.708 282.54 499.193 283.189 501.826L282.825 501.915C283.136 503.176 283.369 504.47 283.519 505.795C283.669 507.12 283.731 508.434 283.71 509.732L284.085 509.738C284.041 512.449 283.639 515.09 282.92 517.609L282.56 517.506C281.832 520.055 280.776 522.478 279.435 524.719L279.757 524.912C278.388 527.198 276.727 529.298 274.818 531.153L274.557 530.884C272.682 532.706 270.566 534.289 268.253 535.577L268.435 535.905C266.145 537.18 263.664 538.171 261.033 538.824L260.943 538.46C259.684 538.773 258.389 539.007 257.065 539.157C255.74 539.307 254.426 539.368 253.129 539.345L253.122 539.72C250.412 539.671 247.772 539.261 245.255 538.529L245.36 538.169C242.817 537.431 240.4 536.361 238.165 535.004L237.971 535.324C235.696 533.943 233.607 532.268 231.762 530.346L232.033 530.086C230.225 528.202 228.654 526.076 227.375 523.754L227.046 523.935Z" stroke="#BDDEFF" stroke-width="0.75" stroke-dasharray="9 9"/>
<path d="M382.163 647.612C380.899 645.317 379.917 642.833 379.268 640.2L379.632 640.111C379.321 638.85 379.088 637.556 378.938 636.231C378.788 634.906 378.726 633.592 378.747 632.294L378.372 632.288C378.416 629.577 378.818 626.936 379.537 624.417L379.897 624.52C380.625 621.97 381.681 619.548 383.022 617.307L382.7 617.114C384.069 614.828 385.73 612.728 387.639 610.873L387.9 611.142C389.775 609.32 391.891 607.737 394.204 606.449L394.022 606.121C396.312 604.845 398.793 603.855 401.423 603.202L401.514 603.566C402.773 603.253 404.068 603.019 405.392 602.869C406.717 602.719 408.031 602.658 409.328 602.681L409.335 602.306C412.045 602.355 414.685 602.765 417.202 603.497L417.097 603.857C419.64 604.595 422.057 605.665 424.291 607.022L424.486 606.702C426.761 608.083 428.85 609.758 430.695 611.68L430.424 611.94C432.232 613.824 433.803 615.95 435.082 618.272L435.411 618.091C436.675 620.385 437.657 622.87 438.306 625.502L437.942 625.592C438.252 626.852 438.485 628.147 438.635 629.472C438.785 630.797 438.848 632.111 438.827 633.409L439.202 633.415C439.158 636.126 438.756 638.767 438.037 641.286L437.676 641.183C436.949 643.732 435.893 646.155 434.551 648.396L434.873 648.588C433.505 650.875 431.844 652.974 429.935 654.829L429.674 654.56C427.799 656.382 425.683 657.966 423.369 659.254L423.552 659.582C421.262 660.857 418.781 661.848 416.15 662.501L416.06 662.137C414.8 662.449 413.506 662.684 412.181 662.834C410.857 662.984 409.543 663.045 408.245 663.022L408.239 663.397C405.529 663.348 402.889 662.937 400.372 662.206L400.476 661.846C397.933 661.107 395.517 660.037 393.282 658.681L393.088 659.001C390.813 657.62 388.724 655.945 386.879 654.022L387.15 653.763C385.341 651.878 383.77 649.753 382.491 647.431L382.163 647.612Z" stroke="#BDDEFF" stroke-width="0.75" stroke-dasharray="9 9"/>
<circle cx="172.062" cy="176.606" r="8.9625" transform="rotate(173.54 172.062 176.606)" stroke="#BDDEFF" stroke-width="1.5" stroke-dasharray="7.88 7.88"/>
<path d="M174.244 193.534L170.405 159.626" stroke="#BDDEFF" stroke-width="1.5" stroke-dasharray="4.72 4.72"/>
<path d="M156.123 178.149L187.944 174.547" stroke="#BDDEFF" stroke-width="1.5" stroke-dasharray="4.72 4.72"/>
<circle cx="172.062" cy="176.607" r="154.913" transform="rotate(173.54 172.062 176.607)" stroke="#BDDEFF" stroke-width="1.5" stroke-dasharray="31.5 31.5"/>
<path d="M204.615 328.787L201.337 299.834L221.702 293.038L233.642 319.16M174.62 332.183L171.342 303.231L149.19 301.248L143.073 328.886M114.677 320.742L123.171 293.098L101.029 281.868L87.1956 306.682M260.02 304.814L245.098 280.35L263.558 263.73L283.633 284.705M302.107 261.215L279.026 244.015L289.42 223.818L315.907 233.763M325.036 204.727L297.338 198.088L298.622 174.431L327.639 174.052M324.272 144.317L296.54 149.042L289.098 125.316L314.847 114.739M299.399 87.9574L275.776 103.312L261.1 85.6891L279.811 64.2857M256.73 47.0857L241.469 68.6269L220.026 58.9025L229.13 31.9823M201.024 24.0691L194.326 51.2451L173.046 49.956L169.768 21.0034M139.772 24.3996L143.05 53.3521L123.148 59.5681L110.224 34.0853M64.2568 288.409L82.6182 266.252L67.2731 247.384L43.8869 264.826M29.2503 238.216L55.3434 226.015L48.5171 205.39L20.0863 208.609M16.6902 178.613L45.121 175.394L47.3108 155.069L19.0619 148.228M27.4377 119.541L54.4465 129.428L64.7811 108.709L41.7291 91.7698M60.2037 68.2797L80.2784 89.2545L99.5503 72.8069L84.0772 48.1411" stroke="#BDDEFF"/>
<path d="M118.075 238.894C130.132 250.984 146.521 257.849 163.197 258.592C166.433 258.736 168.983 256.029 168.952 252.79L168.468 201.641C168.42 196.571 162.495 193.843 158.611 197.102L118.632 230.654C116.106 232.774 115.746 236.559 118.075 238.894Z" stroke="#BDDEFF"/>
<path d="M202.52 253.911C218.295 247.375 230.891 234.842 237.937 219.71C239.304 216.774 237.774 213.384 234.768 212.177L187.3 193.12C182.595 191.231 177.813 195.668 179.345 200.501L195.116 250.254C196.113 253.397 199.474 255.173 202.52 253.911Z" stroke="#BDDEFF"/>
<path d="M225.618 117.23C213.825 104.881 197.588 97.6631 180.933 96.5591C177.701 96.3448 175.093 98.9957 175.053 102.235L174.43 153.382C174.368 158.452 180.233 161.308 184.186 158.134L224.882 125.455C227.453 123.39 227.895 119.615 225.618 117.23Z" stroke="#BDDEFF"/>
<path d="M145.12 100.126C128.643 104.609 114.561 115.444 105.653 129.561C103.924 132.3 105.012 135.856 107.841 137.434L152.51 162.356C156.938 164.827 162.244 161.032 161.337 156.043L152.001 104.693C151.411 101.448 148.302 99.2604 145.12 100.126Z" stroke="#BDDEFF"/>
<path d="M94.1638 160.114C89.7677 176.613 92.0663 194.232 99.8016 209.024C101.303 211.894 104.924 212.739 107.709 211.085L151.691 184.969C156.051 182.381 155.433 175.887 150.664 174.166L101.568 156.456C98.4658 155.337 95.0129 156.927 94.1638 160.114Z" stroke="#BDDEFF"/>
<path d="M250.222 192.629C254.619 176.129 252.32 158.51 244.585 143.719C243.084 140.848 239.462 140.003 236.677 141.657L192.695 167.773C188.335 170.362 188.953 176.856 193.722 178.576L242.818 196.287C245.92 197.406 249.373 195.816 250.222 192.629Z" stroke="#BDDEFF"/>
</g>
</svg>
