<svg width="62" height="59" viewBox="0 0 62 59" fill="none" xmlns="http://www.w3.org/2000/svg">
<path d="M2.02051 53.7165C1.58862 52.2809 3.8949 47.3117 13.3399 46.2167C13.13 48.1265 12.4071 52.1818 11.1944 53.1247C10.2982 53.9563 8.301 55.2596 7.48179 53.82C7.44299 53.4905 6.78997 53.0044 4.4883 53.6968C3.76537 54.0347 2.25972 54.5117 2.02051 53.7165Z" fill="#81B341"/>
<path d="M4.9336 32.6581C7.23014 34.2053 12.3157 39.5195 13.2476 46.7911C12.4189 47.3284 9.37283 47.8623 4.85586 47.3066C4.60255 47.272 3.93239 46.5473 3.27821 43.9255C2.92737 42.635 2.16429 39.1418 1.91865 35.4929C1.77351 33.8303 2.17331 30.9357 4.9336 32.6581Z" fill="#81B341"/>
<path d="M22.7471 56.4671C23.4423 55.1066 22.1186 49.5718 13.0582 46.4111C12.9032 48.3914 12.8459 52.6564 13.8576 53.875C14.5797 54.912 16.293 56.6661 17.369 55.3857C17.4693 55.0603 18.2019 54.7098 20.3295 55.9111C20.9749 56.4104 22.3621 57.2207 22.7471 56.4671Z" fill="#81B341"/>
<path d="M23.1644 35.5199C20.602 36.3238 14.5958 39.7618 12.7294 46.3025C13.5176 47.0373 16.6915 48.4982 21.4218 49.2438C21.6875 49.2824 22.4692 48.7923 23.4705 46.5231C23.9931 45.4143 25.2152 42.3606 25.9228 39.0162C26.2794 37.5017 26.227 34.6821 23.1644 35.5199Z" fill="#81B341"/>
<path d="M15.5781 29.2197C14.9593 28.1962 15.6138 23.916 22.3325 21.2392C22.5787 22.753 22.8973 26.021 22.2029 26.9835C21.718 27.7988 20.5221 29.1915 19.6175 28.2401C19.5198 27.9934 18.9375 27.7452 17.3894 28.7258C16.9285 29.1266 15.9209 29.7866 15.5781 29.2197Z" fill="#E9BA16"/>
<path d="M13.7937 13.1151C15.8216 13.6726 20.6124 16.2708 22.4911 21.2961C21.9335 21.8864 19.6547 23.0151 16.0613 23.7154C15.8593 23.7522 15.2241 23.3922 14.2998 21.6579C13.8225 20.8113 12.6752 18.4741 11.9047 15.8983C11.5279 14.7327 11.3781 12.5442 13.7937 13.1151Z" fill="#E9BA16"/>
<path d="M31.3945 26.8861C31.6469 25.722 29.5985 21.8449 22.277 21.3486C22.5442 22.8658 23.3247 26.0762 24.3092 26.7808C25.0443 27.4092 26.6519 28.3703 27.2019 27.1875C27.2134 26.9227 27.6885 26.5083 29.4963 26.9692C30.0708 27.2102 31.2547 27.5309 31.3945 26.8861Z" fill="#E9BA16"/>
<path d="M27.6605 11.0906C25.9175 12.2235 22.1316 16.0442 22.011 21.3355C22.7367 21.7235 25.3697 22.1627 29.0176 21.7435C29.2219 21.7174 29.7064 21.1882 30.0103 19.2793C30.1835 18.3396 30.4996 15.7966 30.3784 13.1422C30.3504 11.9325 29.7676 9.82879 27.6605 11.0906Z" fill="#E9BA16"/>
<path d="M34.5951 40.9022C34.562 40.0901 36.3574 37.8349 41.2427 38.6447C40.8926 39.6104 40.0098 41.6203 39.2798 41.9349C38.723 42.2377 37.5526 42.6256 37.3255 41.7548C37.3482 41.5772 37.0824 41.2281 35.8374 41.2528C35.4309 41.3233 34.6134 41.352 34.5951 40.9022Z" fill="#1F3C5F"/>
<path d="M38.8185 30.9221C39.8448 31.9594 41.8489 35.1541 41.3196 38.7335C40.7933 38.88 39.0638 38.7335 36.6911 37.8757C36.5585 37.826 36.2979 37.3934 36.316 36.061C36.3092 35.4014 36.3923 33.6405 36.7784 31.8735C36.9362 31.0641 37.5653 29.7405 38.8185 30.9221Z" fill="#1F3C5F"/>
<path d="M44.7948 45.1121C45.3275 44.5249 45.3786 41.5526 41.1754 38.688C40.8367 39.663 40.2483 41.8021 40.6041 42.5577C40.8362 43.1813 41.4794 44.3051 42.1956 43.8118C42.2895 43.6621 42.7088 43.5886 43.6356 44.4924C43.8991 44.8345 44.4998 45.4374 44.7948 45.1121Z" fill="#1F3C5F"/>
<path d="M47.7526 34.6262C46.3413 34.6707 42.8294 35.5571 41.0205 38.5874C41.3259 39.0681 42.7519 40.2497 45.065 41.2899C45.1953 41.3467 45.658 41.2099 46.4658 40.2083C46.8776 39.7236 47.9009 38.3581 48.7 36.774C49.0803 36.0617 49.4233 34.6349 47.7526 34.6262Z" fill="#1F3C5F"/>
<path d="M37.2894 13.8024C37.6109 12.6538 41.176 10.3816 47.727 13.8859C46.7933 15.0624 44.6317 17.4361 43.4552 17.5199C42.5294 17.6715 40.6961 17.6435 40.7694 16.3187C40.8821 16.082 40.664 15.4661 38.8897 14.8952C38.282 14.796 37.1113 14.4386 37.2894 13.8024Z" fill="#EF5D5D"/>
<path d="M47.7961 1.93807C48.7791 3.88364 50.1684 9.31299 47.7957 14.0472C46.9839 13.9957 44.6012 12.9507 41.63 10.601C41.4649 10.4672 41.2919 9.73722 41.9218 7.88796C42.2114 6.96485 43.1275 4.54953 44.4756 2.27314C45.0662 1.22107 46.5573 -0.318856 47.7961 1.93807Z" fill="#EF5D5D"/>
<path d="M49.8219 24.6312C50.8425 24.0713 52.2628 19.9512 47.6096 13.913C46.6878 15.1081 44.8845 17.805 45.0457 19.0317C45.0916 20.0142 45.4928 21.8941 46.7308 21.5543C46.9316 21.3911 47.5587 21.4925 48.4613 23.2035C48.6793 23.8086 49.2566 24.9414 49.8219 24.6312Z" fill="#EF5D5D"/>
<path d="M58.77 11.446C56.7512 10.822 51.3759 10.3509 47.4401 13.6974C47.6546 14.5162 49.1382 16.8572 51.942 19.4323C52.1009 19.5748 52.8181 19.6089 54.4164 18.6049C55.2193 18.1291 57.2876 16.7224 59.1376 14.9017C59.9992 14.0933 61.132 12.2704 58.77 11.446Z" fill="#EF5D5D"/>
</svg>
