<svg width="70" height="70" viewBox="0 0 70 70" fill="none" xmlns="http://www.w3.org/2000/svg">
<rect width="70" height="70" rx="10" fill="#FFC6C6"/>
<path d="M10 47.693V19.8629C10 19.3408 10.4019 18.9056 10.9229 18.8718C19.9268 18.2867 25.4782 19.7873 35.3941 26.6881C35.6614 26.8742 35.8242 27.1827 35.8242 27.5084V56.0861C35.8242 56.8937 34.9126 57.3669 34.245 56.9122C25.3363 50.8448 19.8227 48.3719 11.0635 48.7032C10.4875 48.725 10 48.2693 10 47.693Z" fill="#BA7070"/>
<path d="M60 47.6885V19.858C60 19.338 59.6005 18.9036 59.0817 18.8681C50.6851 18.2932 45.4905 19.8019 36.2287 26.6867C35.9762 26.8744 35.8242 27.174 35.8242 27.4887V56.0109C35.8242 56.8329 36.7634 57.3035 37.4286 56.8206C45.6702 50.8378 50.8151 48.3882 58.9318 48.7004C59.5094 48.7226 60 48.2665 60 47.6885Z" fill="#F0A4A4"/>
<path d="M14 45.5781V15.1849C22.2552 14.4136 27.0329 15.8524 36 23.391V55C27.2821 47.7442 22.4425 44.9587 14 45.5781Z" fill="#CECECE"/>
<path d="M56 45.5781V15.1849C48.4953 14.4136 44.1519 15.8524 36 23.391V55C43.9254 47.7443 48.325 44.9587 56 45.5781Z" fill="#E3E3E3"/>
<path d="M19 42.8136V13.1802C26 14.9999 32.5 17.4999 36 21.1812V51.9999C29 43.9999 26 44.4999 19 42.8136Z" fill="#FAFAFA"/>
<path d="M51 42.8136V13.1802C45 14.4999 40 16.9999 36 21.1812V51.9999C41.944 44.9256 43.5 43.4999 51 42.8136Z" fill="white"/>
</svg>
