<svg width="55" height="38" viewBox="0 0 55 38" fill="none" xmlns="http://www.w3.org/2000/svg">
<path d="M17.7376 31.3053L14.2498 14.8196C14.1454 14.3263 14.4219 13.8364 14.8957 13.6754L41.6301 4.59038C42.1857 4.40155 42.789 4.73483 42.9311 5.30918L47.3372 23.12C47.4246 23.4732 47.3106 23.8484 47.0441 24.0908C37.1008 33.1345 30.4324 33.599 18.6018 32.1009C18.1764 32.0471 17.8266 31.7259 17.7376 31.3053Z" fill="black" stroke="black"/>
<path d="M21.9598 0.235522L2.09246 16.9888C1.37966 17.5898 1.80471 18.7532 2.73711 18.7532H30.7416C30.9654 18.7532 31.1826 18.6782 31.3587 18.5401L52.7215 1.78689C53.4691 1.20056 53.0545 0 52.1044 0H22.6045C22.3685 0 22.1402 0.083424 21.9598 0.235522Z" fill="#333333"/>
<path d="M27.5006 6.90918C21.1818 11.8984 20.2964 12.7976 13.8573 18.1688C13.6176 18.3688 13.4812 18.6725 13.4933 18.9845C13.6852 23.9551 13.3612 26.8159 11.5796 30.5975" stroke="#F8CB2C" stroke-width="2" stroke-linecap="round" stroke-linejoin="round"/>
<path d="M5.78906 31.0908H8.6838" stroke="#F8CB2C" stroke-width="2" stroke-linecap="round"/>
<line x1="1" y1="-1" x2="4.02851" y2="-1" transform="matrix(0.191888 0.981417 -0.979708 0.20043 11.5796 33.0649)" stroke="#F8CB2C" stroke-width="2" stroke-linecap="round"/>
<line x1="1" y1="-1" x2="3.67856" y2="-1" transform="matrix(-0.606236 0.795285 -0.78178 -0.623554 9.59131 32.0779)" stroke="#F8CB2C" stroke-width="2" stroke-linecap="round"/>
</svg>
