<svg width="50" height="45" viewBox="0 0 50 45" fill="none" xmlns="http://www.w3.org/2000/svg">
<path d="M0 34.693V6.86292C0 6.34083 0.401918 5.90565 0.922911 5.87179C9.92679 5.28673 15.4782 6.78729 25.3941 13.6881C25.6614 13.8742 25.8242 14.1827 25.8242 14.5084V43.0861C25.8242 43.8937 24.9126 44.3669 24.245 43.9122C15.3363 37.8448 9.82269 35.3719 1.06345 35.7032C0.487507 35.725 0 35.2693 0 34.693Z" fill="#BA7070"/>
<path d="M50 34.6885V6.85803C50 6.33797 49.6005 5.90357 49.0817 5.86805C40.6851 5.29325 35.4905 6.80192 26.2287 13.6867C25.9762 13.8744 25.8242 14.174 25.8242 14.4887V43.0109C25.8242 43.8329 26.7634 44.3035 27.4286 43.8206C35.6702 37.8378 40.8151 35.3882 48.9318 35.7004C49.5094 35.7226 50 35.2665 50 34.6885Z" fill="#F0A4A4"/>
<path d="M4 32.5781V2.18487C12.2552 1.41362 17.0329 2.85242 26 10.391V42C17.2821 34.7442 12.4425 31.9587 4 32.5781Z" fill="#CECECE"/>
<path d="M46 32.5781V2.18487C38.4953 1.41362 34.1519 2.85242 26 10.391V42C33.9254 34.7443 38.325 31.9587 46 32.5781Z" fill="#E3E3E3"/>
<path d="M9 29.8136V0.180176C16 1.99994 22.5 4.49994 26 8.18119V38.9999C19 30.9999 16 31.4999 9 29.8136Z" fill="#FAFAFA"/>
<path d="M41 29.8136V0.180176C35 1.49994 30 3.99994 26 8.18119V38.9999C31.944 31.9256 33.5 30.4999 41 29.8136Z" fill="white"/>
</svg>
