<svg width="70" height="70" viewBox="0 0 70 70" fill="none" xmlns="http://www.w3.org/2000/svg">
<rect width="70" height="70" rx="10" fill="#F8E7CD"/>
<rect x="17.1984" y="34.1377" width="23.8519" height="42.2957" rx="8" transform="rotate(-41.6498 17.1984 34.1377)" fill="#99CEFF"/>
<rect x="33.6483" y="28.4446" width="10.8889" height="2.78261" rx="1.3913" transform="rotate(-41.6498 33.6483 28.4446)" fill="#EAEAEA"/>
<rect x="33.6483" y="28.4446" width="10.8889" height="2.78261" rx="1.3913" transform="rotate(-41.6498 33.6483 28.4446)" fill="#EAEAEA"/>
<rect x="33.6483" y="28.4446" width="10.8889" height="2.78261" rx="1.3913" transform="rotate(-41.6498 33.6483 28.4446)" fill="#EAEAEA"/>
<rect x="33.6483" y="28.4446" width="10.8889" height="2.78261" rx="1.3913" transform="rotate(-41.6498 33.6483 28.4446)" fill="#EAEAEA"/>
<rect x="33.6483" y="28.4446" width="10.8889" height="2.78261" rx="1.3913" transform="rotate(-41.6498 33.6483 28.4446)" fill="#EAEAEA"/>
<rect x="33.6483" y="28.4446" width="10.8889" height="2.78261" rx="1.3913" transform="rotate(-41.6498 33.6483 28.4446)" fill="#EAEAEA"/>
<rect x="38.0865" y="33.4348" width="10.8889" height="2.78261" rx="1.3913" transform="rotate(-41.6498 38.0865 33.4348)" fill="#EAEAEA"/>
<rect x="38.0865" y="33.4348" width="10.8889" height="2.78261" rx="1.3913" transform="rotate(-41.6498 38.0865 33.4348)" fill="#EAEAEA"/>
<rect x="38.0865" y="33.4348" width="10.8889" height="2.78261" rx="1.3913" transform="rotate(-41.6498 38.0865 33.4348)" fill="#EAEAEA"/>
<rect x="38.0865" y="33.4348" width="10.8889" height="2.78261" rx="1.3913" transform="rotate(-41.6498 38.0865 33.4348)" fill="#EAEAEA"/>
<rect x="38.0865" y="33.4348" width="10.8889" height="2.78261" rx="1.3913" transform="rotate(-41.6498 38.0865 33.4348)" fill="#EAEAEA"/>
<rect x="38.0865" y="33.4348" width="10.8889" height="2.78261" rx="1.3913" transform="rotate(-41.6498 38.0865 33.4348)" fill="#EAEAEA"/>
<rect x="42.1549" y="38.009" width="10.8889" height="3.33913" rx="1.66957" transform="rotate(-41.6498 42.1549 38.009)" fill="#EAEAEA"/>
<rect x="42.1549" y="38.009" width="10.8889" height="3.33913" rx="1.66957" transform="rotate(-41.6498 42.1549 38.009)" fill="#EAEAEA"/>
<rect x="42.1549" y="38.009" width="10.8889" height="3.33913" rx="1.66957" transform="rotate(-41.6498 42.1549 38.009)" fill="#EAEAEA"/>
<rect x="42.1549" y="38.009" width="10.8889" height="3.33913" rx="1.66957" transform="rotate(-41.6498 42.1549 38.009)" fill="#EAEAEA"/>
<rect x="42.1549" y="38.009" width="10.8889" height="3.33913" rx="1.66957" transform="rotate(-41.6498 42.1549 38.009)" fill="#EAEAEA"/>
<rect x="42.1549" y="38.009" width="10.8889" height="3.33913" rx="1.66957" transform="rotate(-41.6498 42.1549 38.009)" fill="#EAEAEA"/>
<rect x="46.5931" y="42.9993" width="10.8889" height="2.78261" rx="1.3913" transform="rotate(-41.6498 46.5931 42.9993)" fill="#EAEAEA"/>
<rect x="46.5931" y="42.9993" width="10.8889" height="2.78261" rx="1.3913" transform="rotate(-41.6498 46.5931 42.9993)" fill="#EAEAEA"/>
<rect x="46.5931" y="42.9993" width="10.8889" height="2.78261" rx="1.3913" transform="rotate(-41.6498 46.5931 42.9993)" fill="#EAEAEA"/>
<rect x="46.5931" y="42.9993" width="10.8889" height="2.78261" rx="1.3913" transform="rotate(-41.6498 46.5931 42.9993)" fill="#EAEAEA"/>
<rect x="46.5931" y="42.9993" width="10.8889" height="2.78261" rx="1.3913" transform="rotate(-41.6498 46.5931 42.9993)" fill="#EAEAEA"/>
<rect x="46.5931" y="42.9993" width="10.8889" height="2.78261" rx="1.3913" transform="rotate(-41.6498 46.5931 42.9993)" fill="#EAEAEA"/>
<path d="M11.8253 24.1579C12.5269 26.7835 16.5652 29.4873 16.5652 29.4873L30.8676 16.7667C30.8676 16.7667 28.6508 12.4497 26.1277 11.4374C22.8782 10.1336 21.8221 14.9172 18.6053 13.5092C16.3494 12.5217 16.203 8.98148 13.8628 9.10591C12.1912 9.19478 11.0703 10.1917 10.787 11.8415C10.3904 14.1512 13.7443 14.8447 14.453 17.2022C15.4402 20.486 10.9426 20.8547 11.8253 24.1579Z" fill="white"/>
<rect x="51.0313" y="47.9893" width="10.8889" height="2.78261" rx="1.3913" transform="rotate(-41.6498 51.0313 47.9893)" fill="#EAEAEA"/>
<rect x="51.0313" y="47.9893" width="10.8889" height="2.78261" rx="1.3913" transform="rotate(-41.6498 51.0313 47.9893)" fill="#EAEAEA"/>
<rect x="51.0313" y="47.9893" width="10.8889" height="2.78261" rx="1.3913" transform="rotate(-41.6498 51.0313 47.9893)" fill="#EAEAEA"/>
<rect x="51.0313" y="47.9893" width="10.8889" height="2.78261" rx="1.3913" transform="rotate(-41.6498 51.0313 47.9893)" fill="#EAEAEA"/>
<rect x="51.0313" y="47.9893" width="10.8889" height="2.78261" rx="1.3913" transform="rotate(-41.6498 51.0313 47.9893)" fill="#EAEAEA"/>
<rect x="51.0313" y="47.9893" width="10.8889" height="2.78261" rx="1.3913" transform="rotate(-41.6498 51.0313 47.9893)" fill="#EAEAEA"/>
<rect x="13.4654" y="31.4995" width="26.4444" height="6.67826" rx="3.33913" transform="rotate(-41.6498 13.4654 31.4995)" fill="#FAB5B5"/>
</svg>
