<svg width="70" height="70" viewBox="0 0 70 70" fill="none" xmlns="http://www.w3.org/2000/svg">
<rect width="70" height="70" rx="10" fill="#FFBD6F"/>
<path d="M19.8721 14.398C18.438 12.2229 15.2558 7.89845 14 8.00182V12.1367L30.686 50.2556L49 52L48.1279 46.2499C44.8333 46.616 36.8256 44.9448 31.1512 35.3311L19.8721 14.398Z" fill="#333333"/>
<path d="M28.1724 39.6675L13.4373 8C10.4863 9.98058 4.9052 16.1095 6.18858 24.7805C7.77299 28.6546 11.1676 41.326 12.0707 61.0186H14.5068L13.259 38.2311C13.259 35.9676 14.0314 32.433 17.1211 36.4028C17.8142 37.0775 19.7116 39.2888 21.7555 42.7364C23.0626 45.1305 25.9027 50.6891 26.8058 53.771C27.4594 55.904 28.9448 60.2351 29.6578 60.4963C35.8766 61.8457 51.4514 63.5129 64 59.3863C63.8416 57.2316 62.883 52.648 60.3162 51.551L48.3143 46.7193C45.1256 50.1799 36.6332 53.6143 28.1724 39.6675Z" fill="#EF5D5D"/>
</svg>
