<svg width="456" height="453" viewBox="0 0 456 453" fill="none" xmlns="http://www.w3.org/2000/svg">
<path d="M182.241 100.194C197.494 90.6318 208.14 81.3828 217.196 73.3879C230.86 61.3172 235.627 55.2034 254.216 36.2351C261.525 28.7105 272.17 18.2074 285.199 5.82318C287.582 3.62851 291.872 3.00145 294.732 4.72584C328.415 23.8509 362.099 42.9759 395.783 62.2577C398.801 63.9821 400.39 68.2147 399.437 71.5067C392.923 91.1021 386.408 110.697 379.894 130.293C372.268 128.412 365.912 126.844 356.856 123.865C353.043 122.611 348.912 121.2 344.622 119.79C348.753 107.092 353.043 94.3941 357.174 81.6963L294.573 46.2679C282.18 61.1604 271.058 73.0744 262.478 81.6963C249.45 95.0211 240.393 104.113 226.411 115.087C212.112 126.217 200.036 133.271 195.588 135.779C183.353 142.834 166.194 151.299 144.268 158.04C142.043 145.812 139.342 135.466 135.529 122.611C155.549 115.714 171.119 107.249 182.241 100.194Z" fill="white"/>
<path d="M315.863 124.65C331.911 132.801 345.257 137.347 356.856 141.11C374.333 146.753 381.96 147.694 408.017 154.121C418.344 156.629 432.803 160.392 450.28 165.408C453.458 166.348 456 169.641 456 172.933C456 211.339 456 249.589 456 287.996C456 291.445 453.14 294.894 449.645 295.678C429.148 299.91 408.811 304.143 388.315 308.375C386.091 301.008 384.343 294.58 382.436 285.488C381.642 281.569 380.689 277.336 379.894 272.947C393.082 270.125 406.269 267.46 419.456 264.639L419.298 193.468C400.072 190.333 384.025 186.728 372.109 183.749C353.996 179.36 341.285 176.068 324.761 169.641C307.919 162.9 295.685 156.159 291.236 153.651C279.002 146.753 262.955 136.25 245.954 120.887C255.646 112.892 263.273 105.368 272.806 95.6486C288.853 109.444 304.106 118.536 315.863 124.65Z" fill="white"/>
<path d="M360.829 250.373C361.623 268.087 364.483 281.882 367.025 293.639C370.838 311.353 373.698 318.408 381.166 343.803C384.026 353.836 387.998 368.102 392.447 385.502C393.241 388.637 391.493 392.557 388.633 394.124C355.109 413.249 321.584 432.374 288.059 451.499C284.723 453.38 280.274 452.44 277.891 449.618C270.264 440.056 261.684 430.18 252.151 420.147C246.749 414.503 241.188 409.173 235.945 404.157C238.328 401.649 241.347 398.67 244.843 395.221C247.226 392.87 249.927 390.519 253.105 387.697C256.123 385.032 259.301 382.21 262.955 379.232C267.881 383.464 273.442 388.637 278.844 394.751C283.134 399.611 286.947 404.47 290.125 408.86C310.939 396.946 331.753 385.032 352.567 372.961C345.734 354.933 340.809 339.414 337.472 327.813C332.388 310.099 328.734 297.715 326.192 280.314C323.649 262.6 323.491 248.805 323.491 243.632C323.491 229.68 324.603 210.712 329.528 188.608C341.445 192.841 351.931 195.663 364.96 198.955C360.829 219.804 360.352 237.361 360.829 250.373Z" fill="white"/>
<path d="M273.604 352.424C258.351 361.987 247.705 371.236 238.649 379.231C224.985 391.302 220.218 397.415 201.629 416.384C194.32 423.908 183.675 434.411 170.646 446.796C168.263 448.99 163.973 449.617 161.113 447.893C127.429 428.768 93.7458 409.643 60.0622 390.361C57.0434 388.637 55.4545 384.404 56.4078 381.112C62.9221 361.517 69.4364 341.921 75.9507 322.326C83.5771 324.207 89.9325 325.775 98.989 328.753C102.802 330.007 106.933 331.418 111.223 332.829C107.092 345.527 102.802 358.225 98.6712 370.922L161.431 406.508C173.824 391.615 184.946 379.701 193.526 371.079C206.554 357.754 215.611 348.662 229.592 337.689C243.892 326.559 255.967 319.504 260.416 316.996C272.65 309.942 289.81 301.477 311.736 294.736C313.96 306.963 316.661 317.31 320.475 330.164C300.455 337.062 284.726 345.37 273.604 352.424Z" fill="white"/>
<path d="M140.137 329.071C124.089 320.92 110.743 316.374 99.1442 312.611C81.6669 306.968 74.0404 306.027 47.9832 299.6C37.6557 297.092 23.1972 293.33 5.71988 288.313C2.54218 287.373 9.25953e-06 284.08 9.25953e-06 280.788C9.25953e-06 242.382 9.25953e-06 204.132 9.25953e-06 165.725C9.25953e-06 162.276 2.85994 158.827 6.35541 158.043C26.8516 153.811 47.1888 149.578 67.685 145.346C69.9094 152.713 71.6571 159.141 73.5637 168.233C74.3581 172.152 75.3115 176.385 76.1059 180.774C62.9184 183.596 49.731 186.261 36.5435 189.082L36.7024 260.253C55.9275 263.388 71.9749 266.993 83.8912 269.972C102.004 274.361 114.715 277.653 131.239 284.08C148.081 290.821 160.315 297.562 164.764 300.07C176.998 306.968 193.045 317.471 210.046 332.834C200.354 340.829 192.727 348.353 183.194 358.072C166.988 344.277 151.894 335.028 140.137 329.071Z" fill="white"/>
<path d="M95.0142 202.248C94.2198 184.534 91.3599 170.738 88.8177 158.981C85.0045 141.267 82.1446 134.213 74.677 108.817C71.817 98.7844 67.8449 84.519 63.3961 67.1183C62.6017 63.9831 64.3494 60.064 67.2094 58.4964C100.893 39.3713 134.577 20.0895 168.26 0.964471C171.279 -0.759919 175.728 -0.132868 178.111 2.5321C192.093 17.8948 206.075 33.2576 220.057 48.6203C214.655 54.2638 210.047 58.8099 202.897 65.0804C199.878 67.7454 196.701 70.5671 193.046 73.5456C183.99 63.6695 174.933 53.7935 165.877 43.7607L103.435 79.6593C110.267 97.687 115.193 113.207 118.529 124.807C123.614 142.521 127.268 154.905 129.81 172.306C132.352 190.02 132.511 203.815 132.511 208.989C132.511 222.94 131.399 241.909 126.473 264.012C114.557 259.78 104.071 256.958 91.0421 253.666C95.1731 232.973 95.6498 215.416 95.0142 202.248Z" fill="white"/>
</svg>
