<svg width="1496" height="402" viewBox="0 0 1496 402" fill="none" xmlns="http://www.w3.org/2000/svg">
<path d="M53.6714 119.227C60.572 109.004 70.0284 100.698 82.0405 94.3082C94.3083 87.9188 108.237 84.7241 123.828 84.7241C141.974 84.7241 158.331 89.1967 172.898 98.1419C187.722 107.087 199.351 119.866 207.785 136.479C216.475 152.836 220.819 171.876 220.819 193.6C220.819 215.324 216.475 234.621 207.785 251.489C199.351 268.101 187.722 281.008 172.898 290.209C158.331 299.41 141.974 304.01 123.828 304.01C107.982 304.01 94.0527 300.943 82.0405 294.809C70.2839 288.42 60.8276 280.241 53.6714 270.274V300.56H0V16.8682H53.6714V119.227ZM165.998 193.6C165.998 180.821 163.314 169.832 157.947 160.631C152.836 151.174 145.935 144.018 137.245 139.162C128.811 134.306 119.61 131.878 109.643 131.878C99.931 131.878 90.7302 134.434 82.0405 139.546C73.6065 144.402 66.7058 151.558 61.3387 161.014C56.2271 170.47 53.6714 181.588 53.6714 194.367C53.6714 207.146 56.2271 218.264 61.3387 227.72C66.7058 237.176 73.6065 244.46 82.0405 249.572C90.7302 254.428 99.931 256.856 109.643 256.856C119.61 256.856 128.811 254.3 137.245 249.188C145.935 244.077 152.836 236.793 157.947 227.337C163.314 217.88 165.998 206.635 165.998 193.6Z" fill="white"/>
<path d="M282.823 16.8682V300.56H229.152V16.8682H282.823Z" fill="white"/>
<path d="M505.682 88.1744V300.56H451.627V273.724C444.727 282.925 435.654 290.209 424.408 295.576C413.418 300.687 401.406 303.243 388.372 303.243C371.759 303.243 357.063 299.793 344.284 292.892C331.506 285.736 321.41 275.385 313.998 261.84C306.842 248.038 303.264 231.681 303.264 212.769V88.1744H356.936V205.101C356.936 221.969 361.153 235.004 369.587 244.205C378.021 253.15 389.522 257.623 404.09 257.623C418.913 257.623 430.542 253.15 438.976 244.205C447.41 235.004 451.627 221.969 451.627 205.101V88.1744H505.682Z" fill="white"/>
<path d="M725.402 189.767C725.402 197.434 724.891 204.335 723.869 210.468H568.605C569.883 225.803 575.25 237.815 584.706 246.505C594.163 255.195 605.792 259.539 619.593 259.539C639.528 259.539 653.712 250.978 662.147 233.854H720.035C713.901 254.3 702.144 271.168 684.765 284.458C667.386 297.493 646.045 304.01 620.743 304.01C600.297 304.01 581.895 299.537 565.538 290.592C549.437 281.391 536.786 268.485 527.585 251.872C518.64 235.259 514.167 216.091 514.167 194.367C514.167 172.387 518.64 153.091 527.585 136.479C536.53 119.866 549.053 107.087 565.155 98.1419C581.256 89.1967 599.786 84.7241 620.743 84.7241C640.934 84.7241 658.952 89.0689 674.798 97.7585C690.899 106.448 703.295 118.844 711.984 134.945C720.929 150.791 725.402 169.065 725.402 189.767ZM669.814 174.432C669.558 160.631 664.575 149.641 654.863 141.462C645.151 133.028 633.266 128.811 619.209 128.811C605.919 128.811 594.674 132.901 585.473 141.079C576.528 149.002 571.033 160.12 568.988 174.432H669.814Z" fill="white"/>
<path d="M787.579 118.844C794.48 109.132 803.936 101.081 815.949 94.6916C828.216 88.0466 842.145 84.7241 857.736 84.7241C875.882 84.7241 892.239 89.1967 906.807 98.1419C921.63 107.087 933.259 119.866 941.693 136.479C950.383 152.836 954.727 171.876 954.727 193.6C954.727 215.324 950.383 234.621 941.693 251.489C933.259 268.101 921.63 281.008 906.807 290.209C892.239 299.41 875.882 304.01 857.736 304.01C842.145 304.01 828.344 300.815 816.332 294.426C804.575 288.036 794.991 279.986 787.579 270.274V401.768H733.908V88.1744H787.579V118.844ZM899.906 193.6C899.906 180.821 897.222 169.832 891.855 160.631C886.744 151.174 879.843 144.018 871.153 139.162C862.719 134.306 853.519 131.878 843.551 131.878C833.839 131.878 824.638 134.434 815.949 139.546C807.515 144.402 800.614 151.558 795.247 161.014C790.135 170.47 787.579 181.588 787.579 194.367C787.579 207.146 790.135 218.264 795.247 227.72C800.614 237.176 807.515 244.46 815.949 249.572C824.638 254.428 833.839 256.856 843.551 256.856C853.519 256.856 862.719 254.3 871.153 249.188C879.843 244.077 886.744 236.793 891.855 227.337C897.222 217.88 899.906 206.635 899.906 193.6Z" fill="white"/>
<path d="M1016.73 121.144C1023.63 109.899 1032.58 101.081 1043.57 94.6916C1054.81 88.3022 1067.59 85.1074 1081.9 85.1074V141.462H1067.72C1050.85 141.462 1038.07 145.424 1029.38 153.347C1020.95 161.27 1016.73 175.071 1016.73 194.75V300.56H963.06V88.1744H1016.73V121.144Z" fill="white"/>
<path d="M1114.6 62.8722C1105.15 62.8722 1097.22 59.933 1090.83 54.0547C1084.7 47.9209 1081.63 40.3813 1081.63 31.4361C1081.63 22.4909 1084.7 15.0791 1090.83 9.2008C1097.22 3.06693 1105.15 0 1114.6 0C1124.06 0 1131.85 3.06693 1137.99 9.2008C1144.38 15.0791 1147.57 22.4909 1147.57 31.4361C1147.57 40.3813 1144.38 47.9209 1137.99 54.0547C1131.85 59.933 1124.06 62.8722 1114.6 62.8722ZM1141.06 85V300.56H1087.38V85.1074L1141.06 85Z" fill="white"/>
<path d="M1281.11 85.1074C1306.41 85.1074 1326.86 93.1582 1342.45 109.26C1358.04 125.105 1365.83 147.341 1365.83 175.965V300.56H1312.16V183.249C1312.16 166.381 1307.94 153.475 1299.51 144.529C1291.07 135.329 1279.57 130.728 1265.01 130.728C1250.18 130.728 1238.43 135.329 1229.74 144.529C1221.3 153.475 1217.09 166.381 1217.09 183.249V300.56H1163.41V88.1744H1217.09V114.627C1224.24 105.426 1233.31 98.2697 1244.3 93.1582C1255.55 87.791 1267.82 85.1074 1281.11 85.1074Z" fill="white"/>
<path d="M1448.69 132.262V235.004C1448.69 242.16 1450.35 247.399 1453.67 250.722C1457.25 253.789 1463.13 255.322 1471.31 255.322H1496.23V300.56H1462.49C1417.25 300.56 1394.63 278.58 1394.63 234.621V132.262H1369.33V88.1744H1394.63V35.6531H1448.69V88.1744H1496.23V132.262H1448.69Z" fill="white"/>
</svg>
