<svg width="1515" height="318" viewBox="0 0 1515 318" fill="none" xmlns="http://www.w3.org/2000/svg">
<path d="M290.42 17.8039V317.234H233.771V17.8039H290.42Z" fill="white"/>
<path d="M1032.67 127.865C1039.96 115.995 1049.4 106.689 1061 99.9448C1072.87 93.2009 1081.97 93.066 1097.08 93.066V149.31H1086.49C1068.68 149.31 1055.2 153.491 1046.03 161.854C1037.12 170.216 1032.67 184.783 1032.67 205.554V317.234H976.023V93.066H1032.67V127.865Z" fill="white"/>
<path d="M1127.88 66.3601C1117.9 66.3601 1109.54 63.2579 1102.79 57.0535C1096.32 50.5793 1093.08 42.6215 1093.08 33.1801C1093.08 23.7386 1096.32 15.9156 1102.79 9.71123C1109.54 3.23708 1117.9 0 1127.88 0C1137.86 0 1146.09 3.23708 1152.56 9.71123C1159.31 15.9156 1162.68 23.7386 1162.68 33.1801C1162.68 42.6215 1159.31 50.5793 1152.56 57.0535C1146.09 63.2579 1137.86 66.3601 1127.88 66.3601ZM1155.8 93.066V317.234H1099.15V93.066H1155.8Z" fill="white"/>
<path d="M1295.53 89.8289C1322.24 89.8289 1343.82 98.3262 1360.27 115.321C1376.73 132.046 1384.95 155.515 1384.95 185.727V317.234H1328.31V193.415C1328.31 175.611 1323.85 161.989 1314.95 152.547C1306.05 142.836 1293.91 137.98 1278.54 137.98C1262.89 137.98 1250.48 142.836 1241.31 152.547C1232.41 161.989 1227.96 175.611 1227.96 193.415V317.234H1171.31V93.066H1227.96V120.986C1235.51 111.275 1245.09 103.721 1256.68 98.3263C1268.55 92.6614 1281.5 89.8289 1295.53 89.8289Z" fill="white"/>
<path d="M1464.32 139.599V248.041C1464.32 255.594 1466.07 261.124 1469.58 264.631C1473.35 267.868 1479.56 269.487 1488.19 269.487H1514.49V317.234H1478.88C1431.14 317.234 1407.26 294.035 1407.26 247.636V139.599H1380.56V93.066H1407.26V37.631H1464.32V93.066H1514.49V139.599H1464.32Z" fill="white"/>
<path fill-rule="evenodd" clip-rule="evenodd" d="M86.5918 99.5401C73.9133 106.284 63.9323 115.051 56.6489 125.841V17.8039H0V317.234H56.6489V285.268C64.202 295.788 74.183 304.42 86.5918 311.164C90.7138 313.269 95.0495 315.032 99.5992 316.452H160.639C168.303 314.05 175.587 310.668 182.49 306.309C198.136 296.597 210.41 282.975 219.312 265.44C228.484 247.636 233.07 227.27 233.07 204.341C233.07 181.411 228.484 161.314 219.312 144.05C210.41 126.516 198.136 113.028 182.49 103.587C167.114 94.145 149.85 89.4243 130.697 89.4243C114.242 89.4243 99.5402 92.7962 86.5918 99.5401ZM166.71 169.542C172.374 179.253 175.207 190.853 175.207 204.341C175.207 218.098 172.374 229.967 166.71 239.948C161.314 249.929 154.031 257.617 144.859 263.013C135.957 268.408 126.246 271.105 115.726 271.105C105.475 271.105 95.7636 268.543 86.5918 263.417C77.6899 258.022 70.4064 250.334 64.7416 240.353C59.3464 230.372 56.6489 218.638 56.6489 205.15C56.6489 191.662 59.3464 179.928 64.7416 169.947C70.4064 159.966 77.6899 152.412 86.5918 147.287C95.7636 141.892 105.475 139.194 115.726 139.194C126.246 139.194 135.957 141.757 144.859 146.882C154.031 152.008 161.314 159.561 166.71 169.542Z" fill="white"/>
<path fill-rule="evenodd" clip-rule="evenodd" d="M517.55 317.234V93.066H460.496V216.48C460.496 234.284 456.045 248.041 447.143 257.752C438.242 267.194 425.968 271.915 410.322 271.915C394.946 271.915 382.807 267.194 373.905 257.752C365.003 248.041 360.552 234.284 360.552 216.48V93.066H303.903V224.572C303.903 244.534 307.679 261.799 315.233 276.366C323.056 290.663 333.711 301.588 347.199 309.141C352.929 312.235 359.024 314.672 365.484 316.452L420.08 316.389C424.09 315.204 427.986 313.732 431.767 311.973C443.637 306.309 453.213 298.62 460.496 288.909V317.234H517.55Z" fill="white"/>
<path fill-rule="evenodd" clip-rule="evenodd" d="M739.748 222.144C740.827 215.67 741.367 208.387 741.367 200.294C741.367 178.444 736.646 159.156 727.204 142.431C718.033 125.437 704.95 112.354 687.955 103.182C671.23 94.0101 652.212 89.4243 630.901 89.4243C608.781 89.4243 589.224 94.145 572.229 103.587C555.235 113.028 542.017 126.516 532.575 144.05C523.134 161.584 518.413 181.951 518.413 205.15C518.413 228.079 523.134 248.311 532.575 265.845C542.286 283.379 555.639 297.002 572.634 306.713C580.25 310.878 588.286 314.124 596.742 316.452H665.305C677.567 313.032 688.624 307.627 698.475 300.239C716.819 286.212 729.228 268.408 735.702 246.827H674.602C665.7 264.901 650.729 273.938 629.688 273.938C615.121 273.938 602.847 269.352 592.866 260.18C582.885 251.008 577.22 238.33 575.871 222.144H739.748ZM666.914 149.31C677.165 157.942 682.425 169.542 682.695 184.109H576.276C578.434 169.002 584.234 157.268 593.675 148.906C603.386 140.273 615.256 135.957 629.283 135.957C644.119 135.957 656.663 140.408 666.914 149.31Z" fill="white"/>
<path fill-rule="evenodd" clip-rule="evenodd" d="M798.901 125.437C806.184 115.186 816.165 106.689 828.844 99.9448C841.792 92.9311 856.494 89.4243 872.949 89.4243C892.102 89.4243 909.366 94.145 924.742 103.587C940.388 113.028 952.662 126.516 961.564 144.05C970.736 161.314 975.321 181.411 975.321 204.341C975.321 227.27 970.736 247.636 961.564 265.44C952.662 282.975 940.388 296.597 924.742 306.309C917.839 310.668 910.555 314.05 902.891 316.452H842.783C838.055 314.942 833.543 313.044 829.248 310.759C816.839 304.016 806.724 295.518 798.901 285.268V316.452H742.252V93.066H798.901V125.437ZM917.459 204.341C917.459 190.853 914.626 179.253 908.961 169.542C903.566 159.561 896.283 152.008 887.111 146.882C878.209 141.757 868.498 139.194 857.977 139.194C847.727 139.194 838.015 141.892 828.844 147.287C819.942 152.412 812.658 159.966 806.993 169.947C801.598 179.928 798.901 191.662 798.901 205.15C798.901 218.638 801.598 230.372 806.993 240.353C812.658 250.334 819.942 258.022 828.844 263.417C838.015 268.543 847.727 271.105 857.977 271.105C868.498 271.105 878.209 268.408 887.111 263.013C896.283 257.617 903.566 249.929 908.961 239.948C914.626 229.967 917.459 218.098 917.459 204.341Z" fill="white"/>
</svg>
