<?xml version="1.0" standalone="no"?>
<!DOCTYPE svg PUBLIC "-//W3C//DTD SVG 20010904//EN"
 "http://www.w3.org/TR/2001/REC-SVG-20010904/DTD/svg10.dtd">
<svg version="1.0" xmlns="http://www.w3.org/2000/svg"
 width="700.000000pt" height="700.000000pt" viewBox="0 0 700.000000 700.000000"
 preserveAspectRatio="xMidYMid meet">
<metadata>
Created by potrace 1.14, written by Peter Selinger 2001-2017
</metadata>
<g transform="translate(0.000000,700.000000) scale(0.100000,-0.100000)"
fill="#000000" stroke="none">
<path d="M4235 6984 c-16 -8 -60 -50 -97 -92 -38 -42 -83 -93 -100 -113 -142
-155 -205 -224 -218 -239 -8 -9 -51 -57 -96 -106 -44 -49 -98 -108 -118 -131
l-38 -43 69 -67 c165 -161 326 -303 343 -303 5 0 15 9 23 20 8 12 34 42 58 68
24 26 89 96 144 157 171 187 178 195 186 195 7 0 145 -79 624 -355 94 -54 184
-106 200 -116 17 -10 49 -28 73 -40 23 -13 42 -25 42 -27 0 -3 -24 -73 -54
-156 -85 -237 -157 -466 -232 -741 -28 -100 -31 -111 -48 -182 -41 -165 -78
-406 -93 -608 -14 -186 -7 -606 12 -700 2 -11 7 -42 10 -70 13 -112 51 -324
59 -333 2 -2 75 19 162 46 88 27 207 62 266 77 98 25 107 30 103 49 -6 25 -22
124 -31 186 -15 108 -27 304 -27 435 0 104 10 306 18 344 2 10 6 42 10 72 3
30 13 92 21 139 9 47 18 99 21 115 14 87 88 381 133 530 59 192 63 205 121
405 35 125 59 212 73 270 2 8 15 56 29 105 67 238 69 271 19 317 -24 22 -121
82 -207 127 -17 9 -328 186 -692 394 -465 266 -673 380 -700 383 -24 3 -49 -2
-68 -12z"/>
<path d="M2480 6941 c-33 -8 -1 10 -725 -404 -346 -198 -646 -369 -665 -380
-205 -116 -222 -130 -235 -188 -5 -24 26 -131 145 -488 l151 -458 72 19 c40
11 79 21 87 23 8 2 42 11 75 21 33 10 65 19 70 20 36 10 217 72 221 77 4 3
-35 131 -85 285 -50 153 -91 283 -91 288 0 5 35 28 78 52 42 23 84 47 92 52
17 11 417 237 500 283 30 17 88 50 128 74 41 24 76 43 79 43 3 0 18 9 33 20
l29 20 88 -102 c234 -274 629 -678 816 -837 324 -275 699 -503 1072 -651 104
-41 275 -100 291 -100 7 0 15 19 19 43 9 56 80 346 104 424 l19 62 -122 47
c-348 135 -672 328 -970 576 -150 126 -217 189 -396 372 -217 223 -651 658
-730 733 -61 57 -112 83 -150 74z"/>
<path d="M2725 5513 c-150 -132 -404 -300 -620 -410 -307 -157 -617 -260
-1180 -393 -121 -29 -254 -61 -295 -72 -41 -10 -82 -20 -90 -22 -8 -2 -76 -20
-150 -41 -74 -20 -166 -45 -205 -55 -105 -28 -144 -47 -165 -83 -19 -31 -20
-55 -20 -925 0 -962 -1 -941 52 -976 21 -13 109 -37 191 -51 17 -3 75 -15 128
-26 52 -11 105 -21 118 -24 12 -2 30 -6 39 -9 9 -3 28 -7 42 -10 21 -3 141
-28 205 -42 11 -2 34 -7 50 -10 17 -2 67 -13 113 -23 45 -10 85 -14 88 -10 2
4 23 79 45 166 34 135 50 204 75 340 4 22 -3 27 -56 37 -52 10 -196 40 -500
104 l-35 8 0 538 c0 350 3 540 10 542 11 4 41 9 132 24 34 6 68 12 75 15 7 2
30 6 50 9 89 13 501 110 732 172 594 161 1152 459 1583 846 39 35 41 38 24 50
-35 25 -165 144 -266 243 -139 137 -123 129 -170 88z"/>
<path d="M5856 4738 c-17 -62 -55 -207 -60 -234 -2 -10 -14 -65 -26 -122 -12
-56 -20 -109 -17 -116 3 -7 27 -17 54 -21 26 -5 53 -9 58 -11 6 -1 21 -4 35
-7 14 -3 55 -12 93 -21 37 -9 82 -18 100 -21 17 -3 39 -8 47 -10 8 -2 27 -6
43 -9 15 -3 35 -7 45 -10 9 -3 35 -7 57 -11 22 -3 44 -10 50 -16 9 -9 11
-1066 2 -1076 -5 -4 -22 -8 -88 -17 -219 -32 -839 -178 -1086 -257 -280 -88
-619 -241 -833 -374 -202 -125 -317 -208 -487 -348 l-124 -102 33 -29 c107
-94 145 -130 254 -237 l120 -120 90 73 c338 272 680 452 1154 606 144 47 311
95 370 106 14 2 90 20 170 40 80 19 177 42 215 51 298 70 685 178 721 202 52
33 50 6 50 971 -1 840 -2 900 -19 925 -29 45 -57 56 -253 97 -104 21 -221 46
-259 54 -39 8 -82 17 -95 20 -14 2 -70 14 -125 26 -55 11 -113 23 -130 26 -16
3 -46 9 -65 14 -68 19 -77 15 -94 -42z"/>
<path d="M1775 4095 c-71 -23 -134 -43 -139 -44 -6 -1 -64 -17 -130 -35 -135
-37 -129 -30 -112 -131 36 -219 41 -288 41 -550 0 -211 -7 -357 -20 -405 -2
-8 -7 -36 -10 -62 -18 -165 -96 -497 -176 -758 -16 -52 -33 -108 -38 -125 -92
-300 -231 -819 -231 -861 0 -43 29 -83 83 -115 29 -16 59 -34 67 -39 49 -30
263 -150 268 -150 3 0 13 -6 21 -14 9 -7 41 -27 71 -43 30 -16 134 -75 231
-131 97 -55 191 -109 210 -120 19 -10 173 -98 342 -196 319 -182 346 -193 400
-165 27 15 44 32 93 94 21 28 46 57 54 65 9 8 26 28 38 43 47 62 174 200 328
355 l161 164 -82 81 c-87 87 -199 190 -279 255 l-49 41 -60 -57 c-105 -100
-183 -184 -267 -287 -45 -55 -86 -99 -92 -97 -6 2 -56 29 -112 61 -55 32 -117
68 -136 79 -70 39 -486 280 -520 301 -19 11 -46 26 -60 33 -14 7 -27 15 -30
19 -3 3 -20 12 -38 20 -17 8 -32 19 -32 26 0 6 18 62 41 125 192 532 336 1080
365 1388 3 30 7 66 10 80 21 125 20 669 -1 750 -2 8 -6 42 -9 75 -3 33 -8 70
-10 81 -2 12 -7 39 -10 60 -14 89 -38 209 -44 220 -5 7 -47 -2 -137 -31z"/>
<path d="M2179 2517 c0 -7 -2 -19 -4 -27 -2 -8 -13 -58 -24 -110 -11 -52 -38
-160 -60 -240 -22 -79 -39 -145 -38 -146 1 -1 67 -27 147 -59 245 -97 429
-193 645 -338 137 -92 238 -171 433 -339 37 -32 239 -235 652 -653 316 -320
403 -402 439 -410 40 -9 83 6 183 64 46 26 103 59 128 73 25 14 77 44 115 66
156 89 713 407 755 430 25 14 78 45 118 69 41 24 75 43 77 43 15 0 255 148
272 167 45 54 44 60 -117 547 -83 251 -153 456 -155 456 -43 0 -515 -148 -521
-164 -2 -6 36 -134 86 -285 49 -150 90 -277 90 -282 0 -6 -148 -95 -220 -132
-8 -4 -33 -18 -55 -30 -51 -30 -374 -215 -440 -252 -27 -16 -90 -51 -139 -78
l-89 -50 -41 46 c-23 25 -63 72 -91 104 -175 203 -605 645 -734 753 -29 25
-65 55 -80 68 -53 47 -289 222 -299 222 -6 0 -12 3 -14 8 -9 20 -236 156 -403
242 -141 72 -294 138 -447 194 -136 49 -168 57 -169 43z"/>
</g>
</svg>
