<svg width="578" height="1035" viewBox="0 0 578 1035" fill="none" xmlns="http://www.w3.org/2000/svg">
<circle cx="321.169" cy="483.995" r="13.125" transform="rotate(170.328 321.169 483.995)" stroke="#BDDEFF" stroke-width="1.5" stroke-dasharray="11.25 11.25"/>
<path d="M325.635 507.96L317.444 459.903" stroke="#BDDEFF" stroke-width="1.5" stroke-dasharray="6.75 6.75"/>
<path d="M298.557 487.469L343.656 479.782" stroke="#BDDEFF" stroke-width="1.5" stroke-dasharray="6.75 6.75"/>
<circle cx="321.167" cy="483.996" r="221.625" transform="rotate(170.328 321.167 483.996)" stroke="#BDDEFF" stroke-width="1.5" stroke-dasharray="45 45"/>
<path d="M379.781 698.446L372.788 657.412L401.29 646.088L420.411 682.391M337.269 705.691L330.276 664.658L298.522 663.603L292.01 703.514M250.855 694.171L260.757 654.062L228.277 639.817L210.532 676.317M456.887 659.817L433.645 626.118L458.644 600.935L488.957 629.245M513.427 594.261L479.128 571.576L492.336 541.936L530.911 554.001M541.607 511.855L501.57 504.604L501.508 470.758L542.864 467.894M535.682 425.752L496.505 434.711L483.992 401.466L519.871 384.319M495.692 347.356L463.228 371.148L440.885 347.187L465.859 315.161M431.56 292.476L411.517 324.422L380.155 312.269L390.985 273.143M350.263 264.106L342.886 303.404L312.43 303.269L305.437 262.236M262.925 269.481L269.918 310.515L242.029 320.974L221.555 285.662M176.351 652.09L200.767 619.018L177.369 593.334L145.409 620.084M122.402 583.301L158.643 563.81L147.255 534.938L106.961 541.806M99.7155 499.294L140.009 492.426L141.506 463.26L100.666 455.765M110.316 414.178L149.631 426.117L162.713 395.738L128.477 373.422M152.947 338.439L183.259 366.748L209.43 341.746L185.386 307.803" stroke="#BDDEFF" stroke-width="1.5"/>
<circle cx="320.736" cy="483.688" r="146.5" transform="rotate(170.328 320.736 483.688)" stroke="#BDDEFF"/>
<path d="M245.275 521.581C242.835 516.67 240.844 511.466 239.363 506.013L239.724 505.914C239.006 503.269 238.408 500.565 237.938 497.806C237.468 495.048 237.136 492.298 236.938 489.565L236.564 489.592C236.155 483.955 236.31 478.385 236.986 472.944L237.358 472.99C238.047 467.443 239.279 462.03 241.007 456.818L240.651 456.7C242.409 451.397 244.679 446.301 247.411 441.482L247.738 441.667C250.47 436.846 253.668 432.303 257.281 428.108L256.996 427.864C260.615 423.662 264.648 419.808 269.047 416.371L269.278 416.666C273.607 413.283 278.292 410.306 283.286 407.801L283.118 407.466C288.021 405.007 293.22 403.003 298.67 401.515L298.769 401.877C301.413 401.155 304.117 400.555 306.875 400.085C309.633 399.615 312.383 399.285 315.117 399.09L315.09 398.716C320.726 398.315 326.295 398.484 331.736 399.18L331.688 399.552C337.229 400.261 342.636 401.518 347.842 403.276L347.962 402.921C353.251 404.707 358.333 407.008 363.139 409.774L362.952 410.099C367.75 412.86 372.272 416.087 376.447 419.73L376.694 419.448C380.868 423.09 384.698 427.147 388.114 431.568L387.817 431.797C391.174 436.142 394.129 440.841 396.617 445.847L396.952 445.68C399.392 450.591 401.384 455.795 402.865 461.249L402.503 461.347C403.221 463.992 403.819 466.696 404.289 469.455C404.76 472.213 405.091 474.963 405.29 477.696L405.664 477.669C406.073 483.306 405.917 488.876 405.242 494.317L404.87 494.271C404.181 499.818 402.949 505.231 401.221 510.443L401.577 510.561C399.818 515.864 397.548 520.96 394.816 525.779L394.49 525.594C391.757 530.415 388.56 534.958 384.947 539.153L385.231 539.397C381.613 543.599 377.579 547.453 373.181 550.891L372.95 550.595C368.62 553.978 363.935 556.955 358.942 559.46L359.11 559.795C354.207 562.254 349.008 564.258 343.557 565.746L343.459 565.384C340.814 566.106 338.111 566.706 335.353 567.176C332.594 567.646 329.845 567.976 327.111 568.171L327.138 568.545C321.502 568.946 315.932 568.777 310.492 568.081L310.539 567.709C304.998 567 299.591 565.743 294.386 563.985L294.266 564.34C288.977 562.554 283.895 560.253 279.089 557.488L279.276 557.163C274.477 554.401 269.956 551.174 265.78 547.531L265.534 547.813C261.359 544.171 257.53 540.114 254.114 535.693L254.411 535.464C251.054 531.119 248.098 526.42 245.611 521.414L245.275 521.581Z" stroke="#BDDEFF" stroke-width="0.75" stroke-dasharray="15 15"/>
<path d="M-16.0487 217.229C-17.6759 212.943 -19.0422 208.51 -20.1253 203.944L-19.7604 203.858C-20.2904 201.624 -20.7523 199.358 -21.1436 197.062C-21.5348 194.766 -21.8495 192.475 -22.0895 190.192L-22.4624 190.231C-22.9528 185.565 -23.1323 180.929 -23.0166 176.346L-22.6417 176.355C-22.5241 171.694 -22.1001 167.088 -21.3863 162.561L-21.7568 162.502C-21.0303 157.894 -20.0048 153.367 -18.6977 148.946L-18.3381 149.053C-17.0229 144.604 -15.4217 140.264 -13.5523 136.056L-13.8951 135.904C-12.0085 131.657 -9.84979 127.546 -7.43725 123.596L-7.1172 123.791C-4.70796 119.846 -2.04468 116.062 0.854297 112.465L0.562319 112.23C3.46873 108.624 6.61122 105.205 9.97143 102L10.2303 102.271C13.5635 99.0914 17.1116 96.1225 20.8566 93.3899L20.6356 93.087C24.3615 90.3683 28.2818 87.8827 32.3786 85.6551L32.5577 85.9845C36.5853 83.7946 40.7843 81.8549 45.1376 80.1894L45.0037 79.8392C49.286 78.2009 53.7172 76.827 58.2814 75.7402L58.3683 76.105C60.6018 75.5731 62.8673 75.1102 65.1629 74.719C67.4586 74.3277 69.7495 74.014 72.0331 73.776L71.9943 73.4031C76.6608 72.9167 81.2969 72.7452 85.8802 72.8725L85.8698 73.2473C90.529 73.3767 95.1334 73.816 99.6591 74.5482L99.719 74.1781C104.322 74.9228 108.845 75.9696 113.261 77.3006L113.153 77.6596C117.591 78.9974 121.923 80.6234 126.121 82.5194L126.275 82.1777C130.507 84.0891 134.605 86.2739 138.542 88.7137L138.344 89.0324C142.271 91.466 146.037 94.1541 149.617 97.0784L149.855 96.788C153.439 99.7162 156.838 102.88 160.025 106.262L159.752 106.519C162.909 109.87 165.858 113.435 168.572 117.197L168.877 116.977C171.574 120.716 174.041 124.648 176.253 128.755L175.923 128.933C178.096 132.968 180.022 137.174 181.677 141.532L182.028 141.399C183.655 145.685 185.021 150.119 186.104 154.685L185.739 154.771C186.269 157.005 186.731 159.271 187.122 161.567C187.514 163.862 187.828 166.153 188.068 168.437L188.441 168.398C188.932 173.064 189.111 177.7 188.995 182.283L188.621 182.274C188.503 186.935 188.079 191.541 187.365 196.068L187.736 196.126C187.009 200.734 185.984 205.261 184.677 209.683L184.317 209.576C183.002 214.024 181.401 218.365 179.531 222.573L179.874 222.725C177.987 226.971 175.829 231.083 173.416 235.033L173.096 234.838C170.687 238.783 168.024 242.567 165.125 246.163L165.417 246.399C162.51 250.005 159.368 253.424 156.007 256.629L155.749 256.358C152.415 259.537 148.867 262.506 145.122 265.239L145.343 265.542C141.617 268.26 137.697 270.746 133.6 272.974L133.421 272.644C129.394 274.834 125.195 276.774 120.841 278.439L120.975 278.79C116.693 280.428 112.262 281.802 107.697 282.889L107.611 282.524C105.377 283.056 103.112 283.519 100.816 283.91C98.5203 284.301 96.2293 284.615 93.9457 284.853L93.9846 285.226C89.3181 285.712 84.6819 285.884 80.0987 285.756L80.1091 285.381C75.4498 285.252 70.8454 284.813 66.3198 284.08L66.2599 284.451C61.6565 283.706 57.1342 282.659 52.718 281.328L52.8263 280.969C48.3875 279.631 44.0563 278.005 39.858 276.109L39.7037 276.451C35.4714 274.54 31.3739 272.355 27.437 269.915L27.6346 269.596C23.7078 267.163 19.9415 264.475 16.3615 261.55L16.1243 261.841C12.5394 258.913 9.14067 255.748 5.95405 252.367L6.22698 252.109C3.06938 248.759 0.120752 245.193 -2.59357 241.432L-2.89767 241.651C-5.59545 237.913 -8.06261 233.981 -10.2745 229.874L-9.94432 229.696C-12.1174 225.661 -14.0432 221.455 -15.6981 217.096L-16.0487 217.229Z" stroke="#BDDEFF" stroke-width="0.75" stroke-dasharray="15 15"/>
<path d="M157.14 523.526C155.75 521.305 154.629 518.88 153.834 516.288L154.193 516.178C153.812 514.937 153.507 513.657 153.283 512.343C153.059 511.029 152.923 509.72 152.871 508.423L152.496 508.438C152.388 505.729 152.641 503.069 153.218 500.514L153.584 500.596C154.167 498.011 155.086 495.532 156.3 493.22L155.968 493.046C157.206 490.686 158.747 488.497 160.548 486.538L160.824 486.792C162.594 484.867 164.618 483.168 166.856 481.752L166.655 481.435C168.87 480.033 171.292 478.905 173.882 478.106L173.992 478.464C175.232 478.081 176.511 477.775 177.825 477.551C179.139 477.327 180.448 477.193 181.745 477.143L181.73 476.768C184.439 476.665 187.097 476.927 189.652 477.516L189.568 477.881C192.148 478.476 194.621 479.409 196.928 480.638L197.104 480.308C199.453 481.559 201.632 483.114 203.582 484.931L203.326 485.205C205.237 486.985 206.925 489.019 208.332 491.266L208.65 491.066C210.04 493.287 211.161 495.712 211.956 498.304L211.597 498.414C211.978 499.655 212.283 500.935 212.507 502.249C212.731 503.563 212.867 504.872 212.919 506.169L213.294 506.154C213.402 508.863 213.149 511.523 212.572 514.078L212.206 513.996C211.622 516.582 210.704 519.06 209.49 521.372L209.822 521.546C208.584 523.906 207.043 526.095 205.242 528.054L204.966 527.8C203.196 529.725 201.172 531.424 198.934 532.84L199.135 533.157C196.92 534.559 194.498 535.687 191.908 536.486L191.798 536.128C190.558 536.511 189.279 536.817 187.965 537.041C186.651 537.265 185.342 537.4 184.045 537.449L184.06 537.824C181.351 537.928 178.693 537.665 176.138 537.076L176.222 536.711C173.642 536.116 171.169 535.183 168.862 533.954L168.686 534.285C166.337 533.033 164.158 531.478 162.208 529.661L162.464 529.387C160.553 527.607 158.865 525.573 157.458 523.327L157.14 523.526Z" stroke="#BDDEFF" stroke-width="0.75" stroke-dasharray="9 9"/>
<path d="M318.944 638.315C317.553 636.095 316.433 633.669 315.638 631.077L315.996 630.967C315.616 629.726 315.31 628.446 315.086 627.132C314.862 625.818 314.726 624.509 314.675 623.212L314.3 623.227C314.192 620.518 314.445 617.858 315.022 615.303L315.387 615.385C315.971 612.8 316.89 610.321 318.103 608.009L317.771 607.835C319.009 605.475 320.55 603.286 322.352 601.327L322.628 601.581C324.397 599.656 326.422 597.957 328.659 596.541L328.459 596.224C330.674 594.822 333.095 593.694 335.685 592.895L335.796 593.253C337.036 592.871 338.315 592.564 339.629 592.34C340.943 592.116 342.251 591.982 343.548 591.932L343.534 591.557C346.242 591.454 348.901 591.716 351.455 592.305L351.371 592.67C353.951 593.265 356.424 594.198 358.731 595.428L358.908 595.097C361.256 596.348 363.436 597.903 365.385 599.72L365.13 599.994C367.041 601.774 368.728 603.808 370.136 606.055L370.453 605.856C371.844 608.076 372.964 610.501 373.759 613.093L373.401 613.203C373.781 614.444 374.087 615.724 374.311 617.038C374.535 618.352 374.671 619.661 374.722 620.958L375.097 620.943C375.205 623.652 374.952 626.312 374.375 628.867L374.01 628.785C373.426 631.371 372.507 633.849 371.294 636.161L371.626 636.335C370.388 638.695 368.847 640.884 367.045 642.843L366.769 642.589C364.999 644.514 362.975 646.213 360.738 647.629L360.938 647.946C358.723 649.348 356.302 650.476 353.712 651.275L353.601 650.917C352.361 651.3 351.082 651.606 349.768 651.83C348.454 652.054 347.145 652.189 345.849 652.238L345.863 652.613C343.155 652.717 340.496 652.454 337.942 651.865L338.026 651.5C335.446 650.905 332.973 649.972 330.666 648.743L330.489 649.074C328.141 647.822 325.961 646.267 324.012 644.451L324.267 644.176C322.356 642.396 320.669 640.362 319.261 638.116L318.944 638.315Z" stroke="#BDDEFF" stroke-width="0.75" stroke-dasharray="9 9"/>
<path d="M343.041 784.016C341.942 781.121 341.019 778.126 340.287 775.042L340.652 774.956C340.295 773.449 339.983 771.921 339.719 770.373C339.456 768.825 339.243 767.28 339.082 765.74L338.709 765.78C338.377 762.627 338.256 759.496 338.334 756.4L338.709 756.41C338.788 753.267 339.074 750.161 339.556 747.108L339.185 747.05C339.676 743.937 340.369 740.879 341.252 737.893L341.611 737.999C342.498 735 343.578 732.073 344.838 729.235L344.496 729.083C345.77 726.215 347.228 723.438 348.858 720.77L349.178 720.965C350.802 718.305 352.598 715.753 354.553 713.328L354.261 713.092C356.224 710.657 358.347 708.347 360.617 706.182L360.875 706.454C363.123 704.309 365.516 702.308 368.041 700.465L367.82 700.162C370.337 698.326 372.985 696.647 375.752 695.142L375.931 695.471C378.647 693.995 381.478 692.687 384.414 691.564L384.28 691.214C387.172 690.107 390.165 689.179 393.248 688.445L393.335 688.81C394.841 688.451 396.369 688.139 397.917 687.875C399.465 687.611 401.01 687.4 402.55 687.239L402.511 686.866C405.663 686.538 408.794 686.422 411.89 686.508L411.88 686.883C415.022 686.97 418.126 687.266 421.178 687.76L421.238 687.39C424.347 687.893 427.402 688.6 430.385 689.499L430.277 689.858C433.27 690.76 436.19 691.856 439.021 693.135L439.176 692.793C442.034 694.084 444.802 695.56 447.461 697.208L447.264 697.527C449.912 699.168 452.452 700.98 454.866 702.952L455.103 702.662C457.524 704.64 459.82 706.777 461.972 709.061L461.7 709.318C463.829 711.578 465.817 713.982 467.647 716.519L467.951 716.299C469.774 718.824 471.44 721.48 472.934 724.255L472.604 724.432C474.069 727.153 475.368 729.989 476.484 732.928L476.835 732.795C477.934 735.69 478.857 738.685 479.588 741.769L479.223 741.856C479.581 743.362 479.892 744.89 480.156 746.438C480.42 747.986 480.632 749.531 480.794 751.071L481.167 751.032C481.498 754.184 481.619 757.315 481.541 760.411L481.166 760.401C481.087 763.544 480.801 766.65 480.32 769.703L480.69 769.761C480.199 772.874 479.507 775.932 478.624 778.918L478.264 778.812C477.377 781.811 476.298 784.738 475.037 787.576L475.38 787.728C474.106 790.596 472.647 793.373 471.018 796.042L470.698 795.846C469.073 798.506 467.277 801.058 465.322 803.484L465.614 803.719C463.651 806.155 461.529 808.464 459.259 810.629L459 810.358C456.752 812.502 454.36 814.504 451.835 816.346L452.056 816.649C449.539 818.486 446.891 820.165 444.124 821.669L443.944 821.34C441.229 822.816 438.397 824.124 435.462 825.247L435.596 825.598C432.703 826.704 429.71 827.632 426.627 828.366L426.54 828.002C425.034 828.36 423.506 828.672 421.958 828.936C420.41 829.2 418.866 829.412 417.326 829.572L417.365 829.945C414.212 830.274 411.081 830.389 407.985 830.303L407.996 829.929C404.854 829.841 401.749 829.545 398.697 829.051L398.637 829.422C395.528 828.918 392.473 828.211 389.49 827.312L389.599 826.953C386.606 826.051 383.685 824.955 380.854 823.676L380.7 824.018C377.841 822.727 375.073 821.251 372.414 819.603L372.612 819.284C369.964 817.643 367.424 815.831 365.01 813.859L364.773 814.149C362.351 812.171 360.055 810.034 357.903 807.75L358.176 807.493C356.047 805.233 354.058 802.829 352.228 800.293L351.924 800.512C350.102 797.987 348.435 795.331 346.941 792.557L347.271 792.379C345.806 789.658 344.507 786.822 343.391 783.883L343.041 784.016Z" stroke="#BDDEFF" stroke-width="0.75" stroke-dasharray="9 9"/>
<path d="M350.572 784.107C349.303 781.123 348.252 778.008 347.441 774.779L347.805 774.687C347.411 773.116 347.074 771.517 346.797 769.893C346.52 768.268 346.308 766.648 346.16 765.034L345.786 765.069C345.481 761.753 345.441 758.466 345.65 755.23L346.025 755.254C346.237 751.966 346.708 748.731 347.421 745.573L347.055 745.491C347.782 742.269 348.759 739.127 349.968 736.091L350.316 736.23C351.528 733.188 352.973 730.253 354.634 727.452L354.312 727.26C355.988 724.434 357.882 721.742 359.976 719.213L360.265 719.452C362.343 716.941 364.619 714.591 367.073 712.427L366.825 712.146C369.278 709.984 371.908 708.007 374.698 706.242L374.898 706.559C377.634 704.827 380.525 703.3 383.552 702.001L383.404 701.657C386.385 700.378 389.498 699.321 392.726 698.507L392.817 698.871C394.388 698.475 395.987 698.137 397.611 697.86C399.236 697.583 400.856 697.373 402.469 697.226L402.435 696.852C405.751 696.55 409.038 696.517 412.274 696.736L412.249 697.11C415.535 697.333 418.768 697.816 421.923 698.544L422.007 698.179C425.225 698.92 428.361 699.914 431.391 701.142L431.251 701.489C434.283 702.718 437.209 704.182 440.001 705.862L440.195 705.541C443.008 707.234 445.687 709.146 448.205 711.258L447.964 711.545C450.459 713.638 452.795 715.928 454.946 718.398L455.229 718.151C457.375 720.615 459.337 723.256 461.091 726.055L460.773 726.254C462.491 728.997 464.007 731.894 465.297 734.926L465.642 734.779C466.911 737.763 467.963 740.878 468.773 744.108L468.409 744.199C468.803 745.771 469.14 747.37 469.417 748.994C469.694 750.618 469.906 752.239 470.054 753.852L470.428 753.818C470.733 757.133 470.773 760.421 470.564 763.657L470.189 763.633C469.977 766.921 469.506 770.156 468.793 773.313L469.159 773.396C468.432 776.618 467.455 779.76 466.246 782.795L465.898 782.657C464.686 785.699 463.241 788.634 461.58 791.435L461.902 791.626C460.226 794.453 458.332 797.144 456.238 799.674L455.949 799.435C453.871 801.945 451.596 804.296 449.141 806.459L449.389 806.741C446.936 808.903 444.306 810.879 441.516 812.645L441.316 812.328C438.58 814.06 435.689 815.587 432.662 816.885L432.81 817.23C429.829 818.508 426.717 819.566 423.488 820.38L423.397 820.016C421.826 820.412 420.227 820.75 418.603 821.026C416.979 821.303 415.358 821.514 413.745 821.661L413.779 822.034C410.464 822.336 407.176 822.369 403.94 822.15L403.965 821.776C400.679 821.554 397.446 821.07 394.291 820.343L394.207 820.708C390.99 819.966 387.853 818.972 384.823 817.745L384.963 817.397C381.931 816.169 379.005 814.705 376.213 813.024L376.019 813.346C373.206 811.652 370.527 809.741 368.009 807.629L368.25 807.341C365.755 805.249 363.419 802.958 361.268 800.489L360.985 800.735C358.839 798.272 356.877 795.631 355.123 792.831L355.441 792.632C353.723 789.889 352.207 786.993 350.917 783.961L350.572 784.107Z" stroke="#BDDEFF" stroke-width="0.75" stroke-dasharray="9 9"/>
<path d="M360.365 783.587C359.314 781.117 358.445 778.54 357.774 775.868L358.138 775.776C357.812 774.478 357.533 773.156 357.305 771.814C357.076 770.471 356.901 769.132 356.778 767.799L356.405 767.833C356.152 765.09 356.119 762.37 356.292 759.692L356.666 759.716C356.842 756.998 357.231 754.325 357.82 751.716L357.454 751.633C358.056 748.967 358.865 746.367 359.865 743.855L360.213 743.994C361.214 741.48 362.409 739.054 363.782 736.739L363.459 736.548C364.846 734.209 366.414 731.982 368.146 729.889L368.435 730.128C370.152 728.053 372.033 726.111 374.061 724.323L373.813 724.042C375.843 722.253 378.019 720.617 380.328 719.156L380.528 719.473C382.789 718.042 385.178 716.78 387.679 715.707L387.532 715.362C389.998 714.304 392.574 713.429 395.245 712.756L395.337 713.12C396.635 712.792 397.956 712.513 399.299 712.285C400.641 712.056 401.98 711.882 403.313 711.76L403.279 711.387C406.023 711.137 408.743 711.11 411.421 711.291L411.395 711.665C414.111 711.849 416.783 712.248 419.39 712.85L419.475 712.484C422.137 713.098 424.732 713.92 427.239 714.936L427.099 715.284C429.605 716.299 432.023 717.509 434.33 718.897L434.524 718.576C436.852 719.977 439.068 721.559 441.152 723.307L440.911 723.594C442.973 725.324 444.904 727.217 446.681 729.257L446.964 729.011C448.74 731.049 450.364 733.235 451.814 735.551L451.497 735.75C452.917 738.017 454.169 740.411 455.235 742.917L455.58 742.77C456.631 745.239 457.501 747.817 458.171 750.489L457.807 750.58C458.133 751.879 458.412 753.2 458.64 754.543C458.869 755.885 459.044 757.224 459.167 758.558L459.54 758.523C459.793 761.267 459.826 763.987 459.653 766.665L459.279 766.641C459.103 769.358 458.714 772.032 458.125 774.641L458.491 774.723C457.889 777.39 457.081 779.989 456.08 782.501L455.732 782.362C454.731 784.877 453.536 787.302 452.163 789.617L452.486 789.808C451.099 792.147 449.532 794.374 447.799 796.467L447.51 796.228C445.793 798.303 443.912 800.245 441.884 802.034L442.132 802.315C440.102 804.104 437.926 805.739 435.617 807.2L435.417 806.884C433.156 808.315 430.767 809.577 428.266 810.65L428.413 810.994C425.947 812.052 423.371 812.927 420.7 813.601L420.608 813.237C419.31 813.564 417.989 813.843 416.647 814.072C415.304 814.301 413.965 814.475 412.632 814.596L412.666 814.97C409.922 815.22 407.202 815.247 404.524 815.066L404.55 814.692C401.834 814.508 399.162 814.108 396.555 813.507L396.471 813.872C393.809 813.258 391.213 812.436 388.706 811.42L388.846 811.073C386.34 810.058 383.922 808.848 381.615 807.459L381.421 807.78C379.093 806.379 376.877 804.797 374.793 803.05L375.034 802.762C372.972 801.033 371.041 799.14 369.264 797.099L368.981 797.346C367.206 795.307 365.582 793.122 364.131 790.805L364.448 790.606C363.029 788.339 361.776 785.946 360.71 783.44L360.365 783.587Z" stroke="#BDDEFF" stroke-width="0.75" stroke-dasharray="9 9"/>
<circle cx="82.7774" cy="179.824" r="8.9625" transform="rotate(170.328 82.7774 179.824)" stroke="#BDDEFF" stroke-width="1.5" stroke-dasharray="7.88 7.88"/>
<path d="M85.9048 196.603L80.1714 162.963" stroke="#BDDEFF" stroke-width="1.5" stroke-dasharray="4.72 4.72"/>
<path d="M66.9492 182.257L98.519 176.876" stroke="#BDDEFF" stroke-width="1.5" stroke-dasharray="4.72 4.72"/>
<circle cx="82.7772" cy="179.824" r="154.913" transform="rotate(170.328 82.7772 179.824)" stroke="#BDDEFF" stroke-width="1.5" stroke-dasharray="31.5 31.5"/>
<path d="M123.808 329.94L118.912 301.217L138.864 293.29L152.249 318.702M94.0494 335.012L89.154 306.289L66.9264 305.55L62.368 333.488M33.5596 326.948L40.4911 298.872L17.755 288.9L5.33365 314.45M177.782 302.9L161.512 279.311L179.012 261.683L200.231 281.499M217.36 257.011L193.35 241.131L202.596 220.383L229.599 228.829M237.086 199.327L209.06 194.251L209.016 170.559L237.966 168.554M232.938 139.054L205.515 145.326L196.755 122.054L221.871 110.051M204.945 84.1773L182.221 100.832L166.58 84.0588L184.062 61.6405M160.053 45.7611L146.023 68.1236L124.069 59.6162L131.651 32.2281M103.145 25.9024L97.9809 53.4111L76.662 53.3165L71.7666 24.5932M42.0082 29.665L46.9036 58.3883L27.3812 65.7099L13.0495 40.9914M-18.5932 297.491L-1.50227 274.341L-17.8807 256.362L-40.2527 275.087M-56.3576 249.339L-30.9892 235.695L-38.9606 215.485L-67.1664 220.292M-72.2382 190.534L-44.0324 185.727L-42.9851 165.31L-71.573 160.064M-64.8179 130.953L-37.2976 139.31L-28.1403 118.044L-52.1054 102.424M-34.9762 77.9353L-13.7577 97.7521L4.56228 80.2504L-12.2689 56.4904" stroke="#BDDEFF"/>
<path d="M32.3657 245.039C45.0819 256.435 61.8297 262.37 78.5206 262.177C81.7597 262.14 84.1539 259.295 83.9418 256.062L80.5918 205.021C80.2598 199.962 74.1911 197.569 70.4961 201.041L32.4604 236.781C30.057 239.039 29.9097 242.838 32.3657 245.039Z" stroke="#BDDEFF"/>
<path d="M117.52 255.299C132.904 247.89 144.777 234.671 150.964 219.168C152.165 216.159 150.448 212.861 147.379 211.824L98.9166 195.457C94.113 193.835 89.5873 198.532 91.3879 203.272L109.923 252.063C111.094 255.146 114.549 256.73 117.52 255.299Z" stroke="#BDDEFF"/>
<path d="M132.921 117.539C120.455 105.87 103.839 99.5736 87.1483 99.4047C83.9091 99.3719 81.4538 102.165 81.5959 105.401L83.8398 156.503C84.0622 161.568 90.0777 164.091 93.847 160.7L132.648 125.792C135.099 123.587 135.329 119.792 132.921 117.539Z" stroke="#BDDEFF"/>
<path d="M51.5916 104.973C35.3924 110.372 21.9389 121.979 13.8364 136.573C12.264 139.405 13.5493 142.894 16.4621 144.312L62.4578 166.691C67.017 168.909 72.1018 164.823 70.9167 159.893L58.7176 109.147C57.9467 105.94 54.7202 103.93 51.5916 104.973Z" stroke="#BDDEFF"/>
<path d="M4.0774 167.722C0.612866 184.442 3.89522 201.905 12.4473 216.24C14.1069 219.022 17.77 219.662 20.4582 217.855L62.9073 189.315C67.115 186.486 66.1344 180.037 61.2761 178.587L11.265 163.655C8.1049 162.712 4.74653 164.493 4.0774 167.722Z" stroke="#BDDEFF"/>
<path d="M161.713 191.441C165.177 174.721 161.895 157.258 153.343 142.923C151.683 140.141 148.02 139.501 145.332 141.308L102.883 169.848C98.6753 172.677 99.6559 179.126 104.514 180.577L154.525 195.508C157.685 196.451 161.044 194.67 161.713 191.441Z" stroke="#BDDEFF"/>
<path d="M-4.99976 897.189L-4.99977 610.794M41.0002 918L41.0002 690.729M25.0184 809.213L25.0183 489" stroke="#BDDEFF" stroke-dasharray="12 12"/>
<path d="M-22 959.822L-22 523.128M13.7412 940.434L13.7412 460M55.531 568.76L55.531 1009M80 866.903L80 489.791M67.7655 538.733L67.7655 756.252" stroke="#BDDEFF" stroke-width="0.5"/>
</svg>
