<svg width="442" height="568" viewBox="0 0 442 568" fill="none" xmlns="http://www.w3.org/2000/svg">
<path d="M430.366 532.482C400.866 572.983 55.8663 584.481 5.36635 532.482C-23.455 502.805 92.9997 395.999 230.5 402.499C355.361 408.401 451.599 503.331 430.366 532.482Z" fill="#E0F0FF"/>
<path d="M303.966 136.471C304.798 135.97 305.8 135.789 306.779 136.044C308.762 136.562 309.903 138.673 309.329 140.76C309.135 141.467 308.769 142.08 308.292 142.562C308.363 142.576 308.435 142.593 308.506 142.611C310.61 143.16 311.821 145.401 311.212 147.615C310.839 148.969 309.873 150 308.697 150.471C310.366 151.187 311.27 153.111 310.746 155.015C310.412 156.231 309.569 157.171 308.531 157.641C308.976 158.287 309.14 159.142 308.907 159.99C308.572 161.209 307.522 162.038 306.376 162.099C306.402 162.532 306.357 162.979 306.235 163.426C305.66 165.512 303.588 166.785 301.606 166.267C300.859 166.073 300.231 165.651 299.77 165.09C298.844 166.237 297.352 166.81 295.907 166.433C295.546 166.339 295.213 166.192 294.914 166.002C293.957 167.396 292.256 168.125 290.614 167.697C288.676 167.191 287.495 165.25 287.797 163.217C287.096 163.105 286.391 162.958 285.687 162.774C282.772 162.013 280.181 160.708 278.036 159.032C277.152 159.38 276.17 159.464 275.204 159.212C273.217 158.693 271.897 156.908 271.797 154.875C271.435 154.873 271.069 154.826 270.706 154.731C268.238 154.087 266.817 151.459 267.531 148.861C267.668 148.364 267.873 147.904 268.133 147.49C267.172 146.879 266.688 145.649 267.023 144.431C267.254 143.591 267.824 142.937 268.531 142.59C268.135 141.768 268.027 140.783 268.296 139.804C268.819 137.902 270.587 136.676 272.396 136.866C272.381 136.564 272.413 136.252 272.499 135.941C272.824 134.761 273.819 133.945 274.923 133.84C274.824 133.189 274.859 132.5 275.048 131.813C275.739 129.3 278.234 127.768 280.621 128.391C281.266 128.559 281.837 128.868 282.314 129.278C282.978 128.501 284.015 128.119 285.02 128.382C285.426 128.488 285.782 128.687 286.074 128.952C286.62 127.71 287.954 126.998 289.234 127.333C290.345 127.622 291.086 128.612 291.156 129.744C291.923 129.371 292.804 129.256 293.668 129.482C294.303 129.647 294.852 129.977 295.286 130.417C296.179 129.732 297.336 129.447 298.464 129.741C300.385 130.243 301.517 132.242 301.062 134.264C301.392 134.216 301.734 134.232 302.072 134.32C303.096 134.587 303.806 135.45 303.966 136.471Z" fill="black"/>
<path d="M296.475 164.449C293.801 173.145 285.507 178.442 277.949 176.28C270.392 174.119 266.434 165.317 269.109 156.622C271.783 147.926 278.963 149.713 287.178 148.366C284.479 160.262 299.15 155.753 296.475 164.449Z" fill="#573515"/>
<line y1="-3.87321" x2="28.2965" y2="0.266354" transform="matrix(-0.124663 0.992199 -0.992896 -0.118984 262.881 410.492)" stroke="#573515" stroke-width="7.74643"/>
<path d="M240.131 455.437L258.367 438.151H267.485V452.968L240.131 455.437Z" fill="white"/>
<path fill-rule="evenodd" clip-rule="evenodd" d="M238.12 158.705C245.612 175.619 258.248 191.942 274.071 201.68L279.637 193.147C265.29 184.503 254.563 170.499 247.611 154.633C240.672 138.886 238.189 122.294 240.698 109.432L230.563 107.699C227.572 123.03 230.614 141.671 238.12 158.705Z" fill="#573515"/>
<path fill-rule="evenodd" clip-rule="evenodd" d="M245.708 172.834C253.079 184.41 262.802 194.81 274.155 201.825L279.711 193.273C269.432 187.055 261.002 178.09 254.478 167.663L245.708 172.834Z" fill="#99CEFF"/>
<path fill-rule="evenodd" clip-rule="evenodd" d="M338.901 166.466C329.515 180.79 318.95 192.185 303.857 199.424L297.682 193.334C311.333 186.936 322.912 175.471 331.652 162.028C340.36 148.689 345.47 134.211 345.699 122.6L354.546 121.953C354.274 135.793 348.32 152.037 338.901 166.466Z" fill="#573515"/>
<path fill-rule="evenodd" clip-rule="evenodd" d="M302.288 198.967L296.975 192.969C306.096 189.329 314.064 183.293 320.689 175.834L327.494 181.4C320.788 189.024 312.912 195.267 303.559 200.007L302.288 198.967Z" fill="#99CEFF"/>
<path fill-rule="evenodd" clip-rule="evenodd" d="M273.463 172.956C271.396 172.679 269.498 171.431 267.277 168.647L269.118 167.096C271.167 169.666 272.598 170.41 273.842 170.576C274.893 170.717 275.892 170.491 277.297 170.174C277.768 170.067 278.284 169.951 278.863 169.834L279.245 172.188C278.84 172.27 278.43 172.363 278.018 172.458C276.507 172.803 274.962 173.156 273.463 172.956Z" fill="black"/>
<path fill-rule="evenodd" clip-rule="evenodd" d="M271.764 160.916C272.469 160.001 272.987 159.176 273.143 158.664L275.466 159.335C275.178 160.276 274.422 161.388 273.716 162.304C273.448 162.651 273.168 162.993 272.897 163.314L276.728 164.422L276.049 166.639L270.422 165.012L268.555 164.472L269.87 163.112C270.353 162.613 271.085 161.799 271.764 160.916Z" fill="black"/>
<path d="M265.159 272.359L286.876 273.689L271.678 424.776L258.105 423.945L265.159 272.359Z" fill="#333333"/>
<path d="M287.598 272.359L308.861 277.05C308.861 277.05 311.744 349.5 311.744 362.5C311.744 376.5 297.744 380 296.244 362.5C294.744 345 287.598 272.359 287.598 272.359Z" fill="#333333"/>
<line y1="-3.87321" x2="28.1311" y2="-3.06874" transform="matrix(0.0462396 0.99893 -0.998146 0.0608719 307.068 420.078)" stroke="#573515" stroke-width="7.74643"/>
<path d="M292.632 458.602L308.044 441.157L317.21 440.68L319.595 452.823L292.632 458.602Z" fill="white"/>
<path d="M296.244 359.499C296.244 355.999 308.61 351.664 310.744 356.999C312.744 362 310.744 378.5 317.012 427.801C312.129 429.224 304.254 430.146 304.254 430.146C297.875 385.582 296.244 363 296.244 359.499Z" fill="#333333"/>
<path fill-rule="evenodd" clip-rule="evenodd" d="M309.202 279.101V304.538L292.307 302.19L266.964 292.8V274.207L309.202 279.101Z" fill="#333333"/>
<path d="M304.124 196.602C296.682 185.119 279.316 180.881 271.563 182.248L263.462 278.646H309.526C310.301 252.672 311.567 208.085 304.124 196.602Z" fill="#99CEFF"/>
<line y1="-3.87321" x2="28.1714" y2="-3.87321" transform="matrix(0 1 1 0 175.921 418.763)" stroke="#E6BF99" stroke-width="7.74643"/>
<path d="M178.18 283.361H135.539C135.539 283.361 127.244 373 126.244 380.5C124.604 392.796 150.754 397.365 151.744 385C152.744 372.5 156.001 329.553 156.001 329.553L162.918 435.793H193.467L178.18 283.361Z" fill="#FCD858"/>
<path d="M194.877 463.367L175.921 446.934H166.442V461.019L194.877 463.367Z" fill="#EF5D5D"/>
<path fill-rule="evenodd" clip-rule="evenodd" d="M132.95 218.31C132.95 218.309 132.95 218.309 132.95 218.308C132.95 178.903 143.559 178.903 156.646 178.903C173.756 180.682 179.284 192.09 180.198 226.167L180.341 226.191V237.229C180.342 237.488 180.342 237.749 180.342 238.01C180.342 238.129 180.342 238.248 180.341 238.366V290.434L151.906 293.179L132.95 295.149V218.31L132.95 218.31Z" fill="#AF9DF2"/>
<path fill-rule="evenodd" clip-rule="evenodd" d="M211.813 160.465C199.811 178.553 182.03 195.164 161.923 203.781L157.262 193.197C175.456 185.596 190.58 171.326 201.752 154.348C212.884 137.502 219.078 119 218.796 103.965L230.766 103.573C231.103 121.496 223.854 142.244 211.813 160.465Z" fill="#E6BF99"/>
<path fill-rule="evenodd" clip-rule="evenodd" d="M191.259 168.113L200.27 175.367C189.526 187.343 176.321 197.613 161.924 203.785L157.265 193.201C170.273 187.765 181.712 178.92 191.259 168.113Z" fill="#AF9DF2"/>
<ellipse rx="15.7626" ry="17.016" transform="matrix(-0.809849 0.586638 0.604823 0.79636 150.95 155.111)" fill="black"/>
<path d="M166.248 150.331C169.944 157.64 172.76 170.715 164.956 171.853C151.037 173.883 149.951 175.319 143.492 166.815C137.922 159.481 138.5 149.845 144.784 145.293C151.068 140.741 160.677 142.997 166.248 150.331Z" fill="#E6BF99"/>
<path d="M161.685 146.435C156.781 151.061 133.649 153.853 133.649 153.853C133.649 153.853 156.163 134.885 156.852 128.989C162.493 133.101 166.589 141.809 161.685 146.435Z" fill="black"/>
<path fill-rule="evenodd" clip-rule="evenodd" d="M166.741 167.094C169.068 165.862 170.814 163.609 172.337 159.48L169.558 158.548C168.153 162.359 166.76 163.836 165.36 164.577C164.176 165.203 162.911 165.393 161.13 165.66C160.534 165.749 159.88 165.847 159.153 165.973L159.627 168.799C160.137 168.711 160.656 168.635 161.179 168.558C163.094 168.275 165.053 167.987 166.741 167.094Z" fill="black"/>
<path fill-rule="evenodd" clip-rule="evenodd" d="M163.666 153.318C162.421 152.506 161.438 151.726 161.02 151.175L158.612 152.92C159.38 153.931 160.774 154.958 162.019 155.771C162.492 156.079 162.976 156.376 163.441 156.65L159.468 159.528L161.279 161.911L167.113 157.685L169.049 156.283L166.887 155.184C166.094 154.781 164.865 154.101 163.666 153.318Z" fill="black"/>
<path d="M121.774 219.321L131.429 208.714L136.658 219.321C131.429 226.786 110.196 246.822 118.644 254.286L143.987 276.287L138.355 283.751L108.989 259.001C99.3344 246.036 112.31 236.214 121.774 219.321Z" fill="#E6BF99"/>
<path d="M113.817 228.358L139.16 187.107L140.367 223.646C137.819 225.086 131.919 231.501 127.092 236.216L113.817 228.358Z" fill="#AF9DF2"/>
<line y1="-3.87321" x2="28.1796" y2="-3.87321" transform="matrix(-0.178944 0.983859 0.984436 0.175742 136.626 432.479)" stroke="#E6BF99" stroke-width="7.74643"/>
<path d="M146.634 471.702L132.844 453.268L123.516 451.603L119.692 462.692L146.634 471.702Z" fill="#EF5D5D"/>
<path d="M116.244 435.5C116.244 435.5 124.744 396.5 126.744 376.5C127.741 366.523 152.785 369.488 152.244 379.5C151.244 398 146.244 443.5 146.244 443.5L116.244 435.5Z" fill="#FCD858"/>
<path d="M215.397 208L227.161 214.792L225.007 218.522L213.243 211.73L215.397 208Z" fill="#FCD858"/>
<path d="M199.765 57.1523L192.974 68.916L189.244 66.7625L196.035 54.9989L199.765 57.1523Z" fill="#F0A4A4"/>
<path d="M329.474 92.3145L332.99 79.1938L337.15 80.3085L333.634 93.4292L329.474 92.3145Z" fill="#FCD858"/>
<path d="M422.973 95.9082L411.21 89.1165L413.363 85.3865L425.127 92.1783L422.973 95.9082Z" fill="#F5980C"/>
<path d="M358.244 13.1211L361.759 0.000441483L365.92 1.11517L362.404 14.2358L358.244 13.1211Z" fill="#99CEFF"/>
<path d="M31.2438 41.7637L38.0355 30L41.7655 32.1535L34.9737 43.9172L31.2438 41.7637Z" fill="#F5980C"/>
<path d="M97.2438 90.1211L100.759 77.0004L104.92 78.1152L101.404 91.2358L97.2438 90.1211Z" fill="#99CEFF"/>
<path d="M352.379 324.25L340.615 317.458L342.768 313.728L354.532 320.52L352.379 324.25Z" fill="#99CEFF"/>
<path d="M112.894 334.045L103.289 343.65L100.244 340.604L109.849 330.999L112.894 334.045Z" fill="#FCD858"/>
<path d="M432.215 245.879L422.61 236.274L425.656 233.228L435.261 242.833L432.215 245.879Z" fill="#F0A4A4"/>
<path d="M59.2155 309.879L49.6105 300.274L52.656 297.228L62.2609 306.833L59.2155 309.879Z" fill="#99CEFF"/>
<path d="M15.1608 210.73L3.39711 217.522L1.24363 213.792L13.0073 207.001L15.1608 210.73Z" fill="#FCD858"/>
<path d="M267.74 25C262.859 29.0236 265.996 33.7788 269.831 33.7788C275.06 33.7788 274.015 30.121 271.923 29.7552C269.831 29.3894 268.066 33.0473 269.831 36.3393C271.792 39.9972 277.849 38.8998 277.152 36.3393C276.455 33.7788 273.317 35.6077 273.317 39.9972C273.317 43.2892 276.803 44.0208 279.244 41.4603" stroke="#FCD858" stroke-width="1.5"/>
<path d="M73.7716 126.319C68.6218 122.646 64.8407 126.907 65.8332 130.611C67.1866 135.662 70.4492 133.705 70.2611 131.59C70.073 129.475 66.0831 128.717 63.36 131.274C60.3343 134.115 62.962 139.682 65.2548 138.346C67.5475 137.009 64.9689 134.452 60.729 135.588C57.5491 136.44 57.7448 139.997 60.8497 141.691" stroke="#F0A4A4" stroke-width="1.5"/>
<path d="M439.297 297.271C439.904 290.974 434.323 289.83 431.611 292.542C427.913 296.24 431.239 298.087 432.977 296.866C434.715 295.646 433.376 291.812 429.8 290.732C425.827 289.532 422.32 294.591 424.624 295.908C426.927 297.226 427.853 293.714 424.749 290.61C422.421 288.282 419.438 290.23 419.523 293.766" stroke="#F5980C" stroke-width="1.5"/>
</svg>
