<svg width="467" height="375" viewBox="0 0 467 375" fill="none" xmlns="http://www.w3.org/2000/svg">
<path d="M190.292 323.171C168.827 315.924 149.823 310.33 137.357 309.406C118.74 308.027 115.86 312.1 132.842 319.4C140.102 322.521 136.455 319.659 148.358 327.116C148.358 327.116 155.81 330.021 165.829 332.258L240.719 354.296L253.678 354.296L204.071 336.21L277.595 356.992L295.649 358.329C266.199 350.844 226.842 335.62 193.047 324.106L191.157 322.922C190.868 323.007 190.58 323.09 190.292 323.171Z" fill="black" fill-opacity="0.1"/>
<path d="M59.6294 341.194C40.9898 337.641 24.5007 335.147 13.5259 335.472C-2.77202 335.954 -4.83431 339.746 10.6792 344.546C17.3117 346.598 13.841 344.445 24.9649 349.839L108.334 367.761L120.518 364.682L74.2706 352.703L140.278 364.098L151.214 359.07C128.357 355.741 99.7235 349.268 73.5082 343.937C86.1489 341.678 97.8617 338.73 103.72 335.024L100.703 332.894C91.2613 336.801 75.417 339.435 59.6294 341.194Z" fill="black" fill-opacity="0.1"/>
<path d="M418.557 365.907C373.984 350.968 309.653 319.856 279.749 315.407C262.588 312.854 259.584 316.432 274.746 324.361C274.746 324.361 269.127 333.861 239.084 319.166L245.047 324.96C264.163 336.235 288.513 332.576 288.513 332.576L371.749 366.952L385.185 366.018L339.466 344.818L405.991 369.113L418.557 365.907Z" fill="black" fill-opacity="0.1"/>
<line x1="256.566" y1="328.089" x2="256.566" y2="345.783" stroke="#F7D4BB" stroke-width="5"/>
<path d="M285.785 334.336V348.908" stroke="#F7D4BB" stroke-width="5"/>
<path fill-rule="evenodd" clip-rule="evenodd" d="M242.919 206.952C253.725 199.221 263.181 188.259 267.332 176.351L260.199 174.196C256.569 184.961 248.435 194.293 238.286 201.495C228.219 208.669 216.743 213.1 207.05 213.661L207.628 220.522C219.182 219.853 232.03 214.711 242.919 206.952Z" fill="#EBC9A9"/>
<path fill-rule="evenodd" clip-rule="evenodd" d="M251.706 199.632C258.699 192.888 264.423 184.819 267.422 176.27L260.277 174.125C257.658 181.842 252.733 188.829 246.413 194.83L251.706 199.632Z" fill="#AF9DF2"/>
<path d="M282.232 177.806C277.336 169.939 265.912 167.035 260.811 167.972L255.482 234.016H285.786C286.296 216.221 287.128 185.673 282.232 177.806Z" fill="#AF9DF2"/>
<path fill-rule="evenodd" clip-rule="evenodd" d="M303.477 160.932C297.565 169.597 290.74 176.388 280.667 180.428L276.22 176.411C285.337 172.851 292.853 166.049 298.354 157.915C303.837 149.844 306.817 140.943 306.556 133.677L312.591 133.561C312.901 142.222 309.407 152.202 303.477 160.932Z" fill="#EBC9A9"/>
<path fill-rule="evenodd" clip-rule="evenodd" d="M277.854 178.806L275.688 176.494C282.42 173.955 288.284 169.713 293.136 164.472L298.064 168.283C293.242 173.534 287.579 177.842 280.852 181.124L277.854 178.806Z" fill="#AF9DF2"/>
<ellipse rx="10.0054" ry="10.3433" transform="matrix(0.999683 0.0251622 -0.0298034 0.999556 264.926 154.541)" fill="#EBC9A9"/>
<path fill-rule="evenodd" clip-rule="evenodd" d="M260.55 146.297L272.703 150.565C272.803 149.597 272.766 148.547 272.483 147.498C272.046 145.757 271.001 144.329 268.697 143.692C266.22 143.007 264.22 143.56 262.621 144.573C261.778 145.088 261.096 145.686 260.55 146.297Z" fill="black"/>
<path fill-rule="evenodd" clip-rule="evenodd" d="M277.091 152.646C277.482 151.529 277.518 149.243 276.885 146.571C276.168 143.71 274.18 140.873 269.992 139.715C265.978 138.605 262.573 139.557 260.053 141.153C257.686 142.693 255.908 144.981 255.145 146.45L254.105 148.477L256.385 149.277L274.125 155.334C275.039 155.646 276.068 155.172 276.433 154.272V154.272C276.433 154.272 276.699 153.763 277.091 152.646ZM260.55 146.297L272.703 150.565C272.803 149.597 272.766 148.547 272.483 147.498C272.046 145.757 271.001 144.329 268.697 143.692C266.22 143.007 264.22 143.56 262.621 144.573C261.778 145.088 261.096 145.686 260.55 146.297Z" fill="black"/>
<ellipse rx="4.47667" ry="4.19693" transform="matrix(0.94627 0.323378 -0.375243 0.926926 275.558 139.731)" fill="black"/>
<path fill-rule="evenodd" clip-rule="evenodd" d="M258.789 162.397C257.291 162.208 255.916 161.354 254.307 159.447L255.641 158.385C257.125 160.144 258.162 160.654 259.063 160.768C259.825 160.864 260.548 160.71 261.566 160.492C261.907 160.419 262.281 160.34 262.7 160.26L262.977 161.872C262.684 161.928 262.387 161.992 262.088 162.056C260.994 162.293 259.875 162.535 258.789 162.397Z" fill="black"/>
<path fill-rule="evenodd" clip-rule="evenodd" d="M257.557 154.153C258.069 153.526 258.443 152.961 258.557 152.61L260.239 153.07C260.031 153.714 259.483 154.476 258.972 155.103C258.777 155.341 258.575 155.575 258.378 155.795L261.153 156.554L260.662 158.072L256.586 156.958L255.233 156.588L256.186 155.656C256.536 155.315 257.066 154.757 257.557 154.153Z" fill="black"/>
<path d="M269.925 358.795L283.142 348.907H289.75V357.383L269.925 358.795Z" fill="#BA7070"/>
<path d="M241.605 355.67L254.066 345.782H260.297V354.258L241.605 355.67Z" fill="#BA7070"/>
<path d="M255.418 231.413H286.344L302.778 341.221H278.126L271.279 264.688L265.8 341.221H241.605L255.418 231.413Z" fill="#1F3C5F"/>
<ellipse rx="9.91054" ry="11.0104" transform="matrix(-0.944771 0.327732 0.380372 0.924834 392.63 169.358)" fill="#C69378"/>
<path fill-rule="evenodd" clip-rule="evenodd" d="M381.932 169.344L399.544 160.884C396.715 156.766 391.654 154.735 387.246 156.264C382.182 158.021 379.855 163.823 381.932 169.344Z" fill="#1F3C5F"/>
<line y1="-2" x2="18.7031" y2="-2" transform="matrix(-0.189812 0.98182 0.986188 0.16563 383.133 348.824)" stroke="#C69378" stroke-width="4"/>
<line y1="-2" x2="18.6589" y2="-2" transform="matrix(0 1 1 0 410.8 339.742)" stroke="#C69378" stroke-width="4"/>
<path d="M414.135 249.556H400.79L404.126 352.179H412.467L414.135 249.556Z" fill="#573515"/>
<path d="M397.453 252.666L380.77 255.776C380.77 255.776 380.77 322.637 374.097 355.29C377.929 356.233 384.107 356.845 384.107 356.845C389.111 327.301 397.453 252.666 397.453 252.666Z" fill="#573515"/>
<path d="M424.145 369.284L410.799 358.399H404.126V367.729L424.145 369.284Z" fill="#707070"/>
<path d="M390.181 374.808L380.472 362.598L373.905 361.495L371.213 368.84L390.181 374.808Z" fill="#707070"/>
<path fill-rule="evenodd" clip-rule="evenodd" d="M380.546 211.971L380.546 211.971V272.612L393.892 271.057L413.911 264.837V227.802C413.911 227.708 413.911 227.614 413.911 227.52C413.911 227.313 413.911 227.107 413.911 226.901V218.19L413.81 218.171C413.166 191.28 409.274 182.276 397.229 180.873C388.015 180.873 380.546 180.873 380.546 211.971Z" fill="white"/>
<path fill-rule="evenodd" clip-rule="evenodd" d="M380.544 257.665V274.513L393.89 272.958L413.909 266.738V254.424L380.544 257.665Z" fill="#573515"/>
<path d="M408.963 157.042L382.07 169.696" stroke="#1F3C5F" stroke-width="3.87321"/>
<path d="M404.386 171.93C400.901 176.463 398.742 175.55 395.023 175.178" stroke="black" stroke-width="2.71125"/>
<path d="M398.273 165.74C398.752 166.903 400.71 168.773 401.629 169.562L396.947 171.186" stroke="black" stroke-width="2.71125"/>
<path fill-rule="evenodd" clip-rule="evenodd" d="M363.369 183.098C370.364 195.926 381.665 207.993 395.381 214.713L399.72 207.7C387.291 201.753 377.691 191.393 371.194 179.356C364.713 167.411 361.947 154.546 363.537 144.317L354.934 143.544C353.039 155.738 356.359 170.177 363.369 183.098Z" fill="#C69378"/>
<path fill-rule="evenodd" clip-rule="evenodd" d="M377.499 189.174L370.327 193.733C376.977 202.345 385.56 209.899 395.38 214.712L399.718 207.699C390.832 203.447 383.392 196.938 377.499 189.174Z" fill="white"/>
<path fill-rule="evenodd" clip-rule="evenodd" d="M430.643 175.085C422.783 187.4 410.812 198.903 396.947 205.185L393.329 198.316C405.88 192.762 416.059 182.884 423.37 171.328C430.659 159.86 434.421 147.439 433.739 137.499L442.145 136.895C442.958 148.744 438.527 162.682 430.643 175.085Z" fill="#C69378"/>
<path fill-rule="evenodd" clip-rule="evenodd" d="M416.431 180.738L423.002 185.278C415.83 193.512 406.874 200.688 396.947 205.186L393.33 198.318C402.303 194.346 410.064 188.164 416.431 180.738Z" fill="white"/>
<path d="M203.713 122.177L215.746 128.56L213.543 132.065L201.51 125.682L203.713 122.177Z" fill="#FCD858"/>
<path d="M213.295 53.7129L206.348 64.7686L202.533 62.7447L209.48 51.689L213.295 53.7129Z" fill="#FCD858"/>
<path d="M345.974 86.7598L349.57 74.4287L353.825 75.4763L350.229 87.8074L345.974 86.7598Z" fill="#FCD858"/>
<path d="M441.614 90.1357L429.581 83.7527L431.784 80.2472L443.817 86.6303L441.614 90.1357Z" fill="#F5980C"/>
<path d="M375.402 12.3311L378.999 -3.42173e-06L383.254 1.04764L379.658 13.3787L375.402 12.3311Z" fill="#FCD858"/>
<path d="M40.9156 39.25L47.8629 28.1943L51.6782 30.2182L44.731 41.2739L40.9156 39.25Z" fill="#F5980C"/>
<path d="M108.427 84.6973L112.023 72.3662L116.278 73.4138L112.682 85.7449L108.427 84.6973Z" fill="#99CEFF"/>
<path d="M369.402 304.737L357.369 298.354L359.572 294.849L371.605 301.232L369.402 304.737Z" fill="#99CEFF"/>
<path d="M195.015 243.456L185.19 252.483L182.075 249.621L191.9 240.594L195.015 243.456Z" fill="#FCD858"/>
<path d="M451.068 231.082L441.243 222.055L444.358 219.193L454.183 228.22L451.068 231.082Z" fill="#99CEFF"/>
<path d="M69.5282 291.23L59.7033 282.204L62.8185 279.341L72.6434 288.368L69.5282 291.23Z" fill="#99CEFF"/>
<path d="M24.4651 198.05L12.4321 204.433L10.2293 200.927L22.2623 194.544L24.4651 198.05Z" fill="#FCD858"/>
<path d="M131.171 152.448C141.271 154.546 144.057 159.298 141.397 177.272L110.473 168.747C117.862 156.316 122.11 150.267 131.171 152.448Z" fill="#BD7433"/>
<ellipse rx="9.98908" ry="10.3266" transform="matrix(0.999628 0.0272885 -0.0323211 0.999478 125.734 167.278)" fill="#EBC9A9"/>
<path fill-rule="evenodd" clip-rule="evenodd" d="M121.383 159.034L133.505 163.321C133.608 162.355 133.574 161.307 133.294 160.259C132.862 158.519 131.822 157.091 129.523 156.45C127.052 155.761 125.054 156.309 123.455 157.317C122.612 157.83 121.93 158.426 121.383 159.034Z" fill="#BD7433"/>
<path fill-rule="evenodd" clip-rule="evenodd" d="M137.881 165.408C138.274 164.294 138.316 162.011 137.691 159.343C136.982 156.485 135.005 153.648 130.827 152.483C126.821 151.367 123.42 152.309 120.9 153.898C118.532 155.43 116.752 157.71 115.986 159.176L114.943 161.197L117.217 162.001L134.913 168.085C135.825 168.399 136.853 167.928 137.22 167.03V167.03C137.22 167.03 137.487 166.523 137.881 165.408ZM121.383 159.034L133.505 163.321C133.608 162.355 133.574 161.307 133.294 160.259C132.862 158.519 131.822 157.091 129.523 156.45C127.052 155.761 125.054 156.309 123.455 157.317C122.612 157.83 121.93 158.426 121.383 159.034Z" fill="#BD7433"/>
<path fill-rule="evenodd" clip-rule="evenodd" d="M119.37 175.111C117.859 174.91 116.467 174.057 114.833 172.169L116.17 171.138C117.678 172.881 118.726 173.392 119.635 173.513C120.403 173.615 121.132 173.47 122.157 173.267C122.5 173.199 122.876 173.124 123.298 173.05L123.588 174.636C123.292 174.688 122.993 174.748 122.693 174.808C121.592 175.03 120.465 175.256 119.37 175.111Z" fill="black"/>
<path fill-rule="evenodd" clip-rule="evenodd" d="M118.1 167.008C118.616 166.398 118.993 165.848 119.105 165.505L120.835 165.982C120.629 166.612 120.077 167.354 119.56 167.963C119.364 168.195 119.16 168.422 118.96 168.636L121.814 169.422L121.328 170.909L117.138 169.754L115.747 169.37L116.712 168.468C117.066 168.136 117.603 167.595 118.1 167.008Z" fill="black"/>
<line x1="115.708" y1="342.97" x2="115.708" y2="360.562" stroke="#F7D4BB" stroke-width="5"/>
<path d="M144.843 349.09V363.622" stroke="#F7D4BB" stroke-width="5"/>
<path d="M129.026 373.568L142.345 363.625H149.005V372.148L129.026 373.568Z" fill="#FCD858"/>
<path d="M110.71 257.305H123.198L120.076 355.208H112.271L110.71 257.305Z" fill="#7EB9F0"/>
<path d="M125.696 261.128L142.345 264.05C142.345 264.05 142.345 326.884 149.005 357.57C145.181 358.457 139.015 359.031 139.015 359.031C134.021 331.268 125.696 261.128 125.696 261.128Z" fill="#7EB9F0"/>
<path d="M100.72 370.505L113.485 360.562H119.867V369.084L100.72 370.505Z" fill="#FCD858"/>
<path fill-rule="evenodd" clip-rule="evenodd" d="M142.312 247.389V265.212L129.646 263.744L110.648 257.87V244.328L142.312 247.389Z" fill="#7EB9F0"/>
<path fill-rule="evenodd" clip-rule="evenodd" d="M87.227 186.359C96.5953 195.51 109.335 203.127 122.604 205.812L124.272 199.097C112.288 196.782 101.436 190.221 92.7002 181.621C84.0033 173.093 78.1429 163.024 76.6344 154.223L69.2649 155.389C71.063 165.88 77.8198 177.135 87.227 186.359Z" fill="#EBC9A9"/>
<path fill-rule="evenodd" clip-rule="evenodd" d="M95.9005 193.817C103.847 199.576 113.108 204.054 122.635 205.998L124.292 199.273C115.7 197.598 107.683 193.75 100.604 188.536L95.9005 193.817Z" fill="#A6D669"/>
<path d="M142.254 192.622C137.325 184.746 125.825 181.839 120.691 182.777L109.909 251.692L151.496 254.505C152.009 236.69 147.183 200.498 142.254 192.622Z" fill="#A6D669"/>
<path fill-rule="evenodd" clip-rule="evenodd" d="M168.491 193.081C158.286 197.124 148.488 199.152 137.716 197.226L136.54 191.609C146.229 193.43 156.603 191.754 166.142 187.934C175.627 184.156 183.567 178.392 187.836 172.285L192.866 175.332C187.778 182.612 178.75 188.995 168.491 193.081Z" fill="#EBC9A9"/>
<path fill-rule="evenodd" clip-rule="evenodd" d="M136.652 194.066L136.3 191.058C143.4 192.477 150.838 192.043 158.06 190.262L159.759 195.961C152.557 197.765 145.245 198.357 137.691 197.552L136.652 194.066Z" fill="#A6D669"/>
<path d="M282.826 23.4951C277.833 27.2766 281.042 31.7456 284.965 31.7456C290.314 31.7456 289.244 28.3079 287.105 27.9641C284.965 27.6204 283.16 31.0581 284.965 34.152C286.971 37.5898 293.167 36.5584 292.454 34.152C291.74 31.7456 288.531 33.4645 288.531 37.5898C288.531 40.6837 292.097 41.3712 294.593 38.9648" stroke="#FCD858" stroke-width="1.5"/>
<path d="M84.4174 118.717C79.1496 115.265 75.282 119.27 76.2973 122.751C77.6817 127.498 81.0189 125.659 80.8265 123.671C80.6341 121.683 76.5529 120.971 73.7674 123.374C70.6724 126.044 73.3603 131.276 75.7055 130.02C78.0508 128.764 75.4131 126.361 71.0762 127.428C67.8235 128.229 68.0237 131.572 71.1996 133.164" stroke="#99CEFF" stroke-width="1.5"/>
<path d="M458.311 279.381C458.932 273.464 453.223 272.389 450.449 274.937C446.667 278.412 450.069 280.148 451.846 279.001C453.624 277.854 452.255 274.251 448.597 273.236C444.533 272.108 440.945 276.863 443.302 278.101C445.658 279.339 446.605 276.039 443.43 273.121C441.049 270.934 437.998 272.764 438.085 276.088" stroke="#FFAC4B" stroke-width="1.5"/>
</svg>
