<svg width="590" height="287" viewBox="0 0 590 287" fill="none" xmlns="http://www.w3.org/2000/svg">
<path d="M552.449 91.9246C549.716 86.5912 540.489 75.9246 525.449 75.9246H519.449L510.449 172.125C507.716 183.791 506.889 207.485 525.449 208.925C533.116 210.191 551.649 211.965 564.449 208.925C576.782 206.591 593.449 203.125 588.849 192.725C586.195 186.725 577.129 180.365 574.249 166.925C569.316 146.525 558.049 102.965 552.449 91.9246Z" fill="#EF5D5D"/>
<path d="M506.681 66.1008L509.776 60.9635L512.871 66.1008H506.681Z" stroke="#D5C960" stroke-width="1.2"/>
<ellipse rx="9.0271" ry="10.632" transform="matrix(0.997939 -0.0641719 0.064753 0.997901 518.674 58.5231)" fill="#885C28"/>
<line x1="512.021" y1="176.42" x2="505.947" y2="260.585" stroke="#885C28" stroke-width="6.10501"/>
<path d="M530.976 181L542.608 261.951" stroke="#885C28" stroke-width="6.10501"/>
<path d="M529.045 273.274L539.748 261.301L545.725 260.593L546.796 269.643L529.045 273.274Z" fill="black"/>
<path d="M490.85 271.226L502.886 260.594H508.905V269.707L490.85 271.226Z" fill="black"/>
<path fill-rule="evenodd" clip-rule="evenodd" d="M536.192 143.195V161.513L523.765 160.006L505.125 153.978V139.926L536.192 143.195Z" fill="#1F3C5F"/>
<path d="M510.06 65.166C514.761 67.9077 516.164 66.2955 519.069 64.5867" stroke="black" stroke-width="2.13675"/>
<path d="M512.571 57.3944C512.65 58.607 511.8 60.9953 511.365 62.038L515.869 61.7483" stroke="black" stroke-width="2.13675"/>
<path d="M508.547 53.0539L528.27 53.2183C528.024 49.3999 525.718 41.88 518.47 42.348C511.221 42.816 508.834 49.6803 508.547 53.0539Z" fill="white"/>
<path fill-rule="evenodd" clip-rule="evenodd" d="M512.611 51.7896L526.348 54.15C526.235 53.0224 525.959 51.8285 525.424 50.6876C524.572 48.7859 523.15 47.369 520.585 47.1185C517.826 46.8491 515.849 47.8968 514.397 49.3874C513.627 50.1519 513.046 50.9776 512.611 51.7896Z" fill="black"/>
<path fill-rule="evenodd" clip-rule="evenodd" d="M531.163 57.2538C531.357 55.16 531.11 51.6386 529.842 48.7134C528.442 45.5893 525.712 42.7562 521.048 42.3007C516.578 41.8641 513.214 43.6587 510.926 46.0079C508.785 48.2608 507.433 51.2471 506.963 53.0866L506.963 56.0634C513.63 53.1524 521.065 53.6869 528.77 58.3155C529.723 58.8876 530.985 58.3498 531.163 57.2538ZM512.611 51.7896L526.348 54.15C526.235 53.0224 525.959 51.8285 525.424 50.6876C524.572 48.7859 523.15 47.369 520.585 47.1185C517.826 46.8491 515.849 47.8968 514.397 49.3874C513.627 50.1519 513.046 50.9776 512.611 51.7896Z" fill="black"/>
<path d="M540.418 49.6408C540.418 52.3139 545.515 56.5578 542.841 56.5578C542.841 60.6408 530.733 52.3139 530.733 49.6408C530.733 46.9677 532.901 44.8008 535.576 44.8008C538.25 44.8008 540.418 46.9677 540.418 49.6408Z" fill="black"/>
<mask id="mask0_1456_18655" style="mask-type:alpha" maskUnits="userSpaceOnUse" x="487" y="77" width="35" height="61">
<path d="M519.399 80.0649C510.64 85.3897 492.246 98.0872 490.932 105.05C489.618 112.014 504.509 133.313 508.012 133.722C510.815 134.05 515.895 133.313 518.085 132.903" stroke="#F7D4BB" stroke-width="6.71736"/>
</mask>
<g mask="url(#mask0_1456_18655)">
<path d="M519.399 80.0649C510.64 85.3897 492.246 98.0872 490.932 105.05C489.618 112.014 504.509 133.313 508.012 133.722C510.815 134.05 515.895 133.313 518.085 132.903" stroke="#885C28" stroke-width="6.71736"/>
<rect width="30.3544" height="17.6396" transform="matrix(-0.819415 0.573201 0.624567 0.780971 521.344 68.2734)" fill="#FFBCBC"/>
</g>
<path d="M532.834 83.0041C528.575 75.5845 516.797 74.5638 512.361 75.4471L499.976 180.927L538.614 183.653C539.058 166.871 537.093 90.4238 532.834 83.0041Z" fill="#FFBCBC"/>
<path d="M527.195 102.579C526.55 107.495 522.835 110.559 519.375 110.104C515.914 109.65 513.117 105.731 513.762 100.815C514.408 95.8989 518.122 92.8354 521.583 93.2899C525.043 93.7443 527.841 97.6629 527.195 102.579Z" stroke="#BA7070" stroke-width="3"/>
<path d="M521.434 93.248L520.303 101.86M519.173 110.472L520.303 101.86M520.303 101.86L524.571 108.198M520.303 101.86L514.696 106.901" stroke="#BA7070" stroke-width="3"/>
<path d="M521.509 106.777C522.546 104.827 524.968 104.086 526.918 105.123L553.681 119.347C555.632 120.384 556.372 122.806 555.336 124.757L546.663 141.073C545.627 143.024 543.205 143.764 541.254 142.728L514.491 128.503C512.541 127.466 511.8 125.044 512.837 123.093L521.509 106.777Z" fill="#D7D7D7"/>
<path d="M535.428 122.417C536.066 121.842 535.316 121.932 535.139 122.007C534.628 122.461 534.6 122.762 534.534 122.884C534.339 122.724 534.79 122.993 535.428 122.417Z" fill="white" fill-opacity="0.5"/>
<path d="M514.318 120.323L550.397 117.605L547.476 116.052L515.349 118.385L514.318 120.323Z" fill="white" fill-opacity="0.7"/>
<path d="M516.766 115.705L543.071 113.723L541.999 113.153L517.194 114.9L516.766 115.705Z" fill="white" fill-opacity="0.85"/>
<path d="M540.636 142.382L546.108 142.117L546.429 141.513L539.535 141.796L540.636 142.382Z" fill="white" fill-opacity="0.85"/>
<path d="M535.74 125.033C535.658 125.532 535.401 125.987 535.014 126.314C534.628 126.642 534.138 126.821 533.632 126.82C533.125 126.819 532.636 126.638 532.25 126.309C531.865 125.981 531.61 125.525 531.529 125.025C531.449 124.525 531.549 124.013 531.812 123.58C532.075 123.147 532.484 122.822 532.964 122.663C533.445 122.504 533.967 122.521 534.436 122.711C534.905 122.901 535.292 123.252 535.526 123.701C534.846 123.937 534.837 124.553 534.837 124.553C534.837 124.553 535.289 125.007 535.74 125.033Z" fill="white" fill-opacity="0.5"/>
<mask id="mask1_1456_18655" style="mask-type:alpha" maskUnits="userSpaceOnUse" x="513" y="78" width="40" height="63">
<path d="M525.679 80.6008C533.503 88.0138 549.586 105.105 549.348 112.415C549.11 119.726 528.861 137.642 525.15 137.231C522.182 136.901 517.106 134.966 514.939 134.039" stroke="#F7D4BB" stroke-width="6.71736"/>
</mask>
<g mask="url(#mask1_1456_18655)">
<path d="M525.679 80.6008C533.503 88.0138 549.586 105.105 549.348 112.415C549.11 119.726 528.861 137.642 525.15 137.231C522.182 136.901 517.106 134.966 514.939 134.039" stroke="#885C28" stroke-width="6.71736"/>
<rect width="31.8674" height="18.3821" transform="matrix(0.680807 0.732463 -0.790329 0.612683 526.369 68.2849)" fill="#FFBCBC"/>
</g>
<path d="M523.48 66.1008L526.575 60.9635L529.67 66.1008H523.48Z" stroke="#D5C960" stroke-width="1.2"/>
<path d="M511.976 77.8942C513.7 78.2475 515.47 78.408 517.176 78.4328C521.528 78.4962 525.465 77.6769 527.176 76.9257" stroke="#EF5D5D" stroke-width="2.4"/>
<path d="M512.375 82.7269C513.175 80.1269 515.975 79.8869 515.975 77.3269C515.975 78.8602 515.588 80.9669 514.037 82.7269H512.375Z" fill="#EF5D5D"/>
<path d="M519.576 82.3238C518.509 81.5473 515.776 79.7802 515.776 78.1238C515.776 79.1159 516.12 81.385 517.499 82.5238L519.576 82.3238Z" fill="#EF5D5D"/>
<path d="M371.987 82.9247C369.093 77.5913 359.325 66.9246 343.402 66.9246H337.049L327.521 163.126C324.627 174.792 323.961 188.823 343.402 199.926C354.461 204.823 358.435 209.363 371.987 206.323C385.044 203.99 395.331 199.723 390.461 189.323C387.651 183.323 380.011 176.566 376.962 163.126C371.739 142.725 377.916 93.9649 371.987 82.9247Z" fill="#EF5D5D"/>
<path d="M338.561 67.9157C340.307 68.7133 342.155 69.3251 343.971 69.7818C348.605 70.9473 353.035 71.1043 355.068 70.7682" stroke="#EF5D5D" stroke-width="2.39077"/>
<path d="M336.907 74.2652C338.74 71.1432 342.119 71.6148 342.997 68.3213C342.471 70.294 341.293 72.8962 338.863 74.7282L336.907 74.2652Z" fill="#EF5D5D"/>
<path d="M344.433 77.3228C343.553 76.317 344.433 70.7228 342.791 69.0937C342.535 70.0523 341.176 75.5879 342.278 77.0184L344.433 77.3228Z" fill="#EF5D5D"/>
<path d="M358.97 30.1791C359.652 29.7868 360.474 29.6447 361.277 29.8449C362.902 30.2499 363.838 31.9028 363.367 33.5366C363.208 34.0899 362.908 34.5701 362.517 34.9475C362.575 34.9587 362.634 34.9715 362.692 34.9861C364.417 35.4159 365.41 37.17 364.911 38.9038C364.605 39.9637 363.813 40.7707 362.849 41.1397C364.217 41.6998 364.958 43.2064 364.529 44.6972C364.255 45.6493 363.563 46.3848 362.713 46.7527C363.078 47.2589 363.212 47.9277 363.021 48.5921C362.746 49.5459 361.885 50.1955 360.946 50.243C360.967 50.5818 360.931 50.9321 360.83 51.2815C360.36 52.9154 358.661 53.9115 357.036 53.5065C356.423 53.3539 355.909 53.0241 355.531 52.585C354.772 53.4825 353.548 53.9315 352.364 53.6363C352.068 53.5626 351.795 53.4475 351.549 53.2986C350.765 54.3902 349.371 54.9609 348.024 54.6253C346.436 54.2294 345.468 52.7101 345.715 51.1179C345.14 51.0305 344.563 50.9154 343.986 50.7715C341.596 50.1758 339.472 49.1537 337.714 47.8416C336.989 48.1144 336.183 48.1798 335.392 47.9825C333.763 47.5764 332.681 46.1787 332.598 44.5873C332.302 44.5856 332.002 44.5492 331.704 44.4749C329.681 43.9707 328.516 41.9131 329.102 39.8791C329.214 39.4899 329.382 39.1297 329.595 38.8053C328.807 38.3275 328.41 37.3644 328.685 36.4104C328.874 35.7534 329.342 35.2407 329.921 34.9698C329.597 34.3256 329.508 33.5547 329.729 32.7879C330.157 31.299 331.607 30.3396 333.09 30.4878C333.078 30.2515 333.104 30.0075 333.174 29.7642C333.44 28.8402 334.256 28.2017 335.161 28.1195C335.08 27.6094 335.109 27.0698 335.264 26.5319C335.83 24.5646 337.876 23.3652 339.833 23.8529C340.361 23.9847 340.83 24.2262 341.22 24.5474C341.765 23.9393 342.615 23.6405 343.439 23.8458C343.771 23.9287 344.063 24.0845 344.303 24.2922C344.751 23.3199 345.844 22.7628 346.894 23.0245C347.804 23.2513 348.411 24.026 348.469 24.9125C349.098 24.62 349.82 24.5303 350.528 24.7069C351.049 24.8367 351.499 25.0946 351.855 25.439C352.587 24.903 353.536 24.6799 354.46 24.9104C356.035 25.3029 356.963 26.8678 356.59 28.4513C356.86 28.4137 357.141 28.4257 357.418 28.4948C358.258 28.7041 358.84 29.3796 358.97 30.1791Z" fill="black"/>
<path d="M352.83 52.0836C350.637 58.8914 343.838 63.0384 337.642 61.3462C331.447 59.654 328.202 52.7634 330.395 45.9557C332.587 39.1479 338.473 40.5466 345.208 39.4923C342.996 48.8054 355.022 45.2759 352.83 52.0836Z" fill="#573515"/>
<line y1="-3.87321" x2="22.1699" y2="-0.481757" transform="matrix(-0.130439 0.991456 -0.993515 -0.1137 325.29 244.708)" stroke="#573515" stroke-width="7.74643"/>
<path d="M306.639 279.896L321.589 266.363H329.064V277.962L306.639 279.896Z" fill="white"/>
<path fill-rule="evenodd" clip-rule="evenodd" d="M304.99 47.5822C311.132 60.8246 321.491 73.6035 334.463 81.2276L339.026 74.5467C327.264 67.78 318.47 56.8156 312.771 44.3944C307.083 32.0659 305.047 19.076 307.104 9.00661L298.795 7.64977C296.343 19.6528 298.837 34.247 304.99 47.5822Z" fill="#573515"/>
<path fill-rule="evenodd" clip-rule="evenodd" d="M311.21 58.6445C317.252 67.7078 325.223 75.8505 334.531 81.3434L339.085 74.6476C330.659 69.7793 323.747 62.7604 318.399 54.596L311.21 58.6445Z" fill="#99CEFF"/>
<path d="M460.434 90.926C457.54 85.5926 447.772 74.9258 431.848 74.9258H425.496L415.967 171.127C413.074 182.794 412.198 206.487 431.848 207.927C439.965 209.194 459.587 210.967 473.139 207.927C486.196 205.594 503.841 202.127 498.971 191.727C496.162 185.727 486.563 179.367 483.514 165.927C478.291 145.527 466.363 101.966 460.434 90.926Z" fill="#EF5D5D"/>
<ellipse rx="10.4596" ry="12.1959" transform="matrix(0.809613 0.586964 -0.632453 0.774598 433.358 61.1296)" fill="#C69378"/>
<path fill-rule="evenodd" clip-rule="evenodd" d="M444.287 64.2415L429.152 50.23C433.431 46.7422 439.285 46.092 443.272 48.9828C447.852 52.303 448.271 59.0632 444.287 64.2415Z" fill="#1F3C5F"/>
<line y1="-1.54929" x2="20.4634" y2="-1.54929" transform="matrix(0.185186 0.982704 -0.985479 0.169798 443.931 257.91)" stroke="#C69378" stroke-width="3.09857"/>
<line x1="415.95" y1="247.961" x2="415.95" y2="268.394" stroke="#C69378" stroke-width="3.09857"/>
<path d="M410.838 149.199H425.084L421.522 261.583H412.619L410.838 149.199Z" fill="#1F3C5F"/>
<path d="M428.646 152.605L446.453 156.011C446.453 156.011 446.453 229.231 453.576 264.989C449.486 266.022 442.892 266.692 442.892 266.692C437.549 234.339 428.646 152.605 428.646 152.605Z" fill="#1F3C5F"/>
<path d="M400.153 280.314L414.399 268.395H421.522V278.611L400.153 280.314Z" fill="#9E8BE8"/>
<path d="M436.41 286.364L446.773 272.993L453.783 271.785L456.656 279.829L436.41 286.364Z" fill="#9E8BE8"/>
<path fill-rule="evenodd" clip-rule="evenodd" d="M446.692 108.261C446.693 108.189 446.693 108.116 446.693 108.044C446.693 73.9883 438.72 73.9883 428.885 73.9883C416.027 75.5251 411.873 85.3844 411.185 114.833L411.077 114.854V165.938L432.446 172.749L446.692 174.451V108.261Z" fill="#9E8BE8"/>
<path fill-rule="evenodd" clip-rule="evenodd" d="M446.692 158.078V176.526L432.446 174.823L411.077 168.012V154.528L446.692 158.078Z" fill="#1F3C5F"/>
<path d="M420.829 43.4514L444.03 64.5688" stroke="#1F3C5F" stroke-width="1.54929"/>
<path d="M420.482 60.387C422.513 66.1558 425.026 65.8295 428.951 66.5264" stroke="black" stroke-width="2.14"/>
<path d="M428.814 55.6875C427.933 56.7672 425.302 58.1544 424.097 58.713L428.331 61.7827" stroke="black" stroke-width="2.14"/>
<path fill-rule="evenodd" clip-rule="evenodd" d="M393.573 55.013C399.102 69.7521 409.12 84.4028 422.27 93.7988L427.574 87.1017C415.639 78.7385 407.144 66.1772 402.022 52.3579C396.906 38.6389 395.695 24.5655 398.596 14.0069L389.918 11.756C386.459 24.3422 388.038 40.1736 393.573 55.013Z" fill="#C69378"/>
<path fill-rule="evenodd" clip-rule="evenodd" d="M407.225 63.8009L399.339 67.4308C405.045 77.6509 412.854 87.0735 422.27 93.8019L427.572 87.1049C419.04 81.1248 412.265 72.9986 407.225 63.8009Z" fill="#9E8BE8"/>
<path d="M424.968 74.3154C426.715 75.113 428.562 75.7247 430.378 76.1815C435.012 77.3469 439.442 77.504 441.476 77.1679" stroke="#EF5D5D" stroke-width="2.39077"/>
<path d="M423.314 80.6649C425.147 77.5429 428.527 78.0144 429.404 74.721C428.878 76.6936 427.7 79.2958 425.271 81.1279L423.314 80.6649Z" fill="#EF5D5D"/>
<path d="M430.84 83.7224C429.96 82.7167 430.84 77.1225 429.198 75.4933C428.943 76.4519 427.583 81.9876 428.686 83.4181L430.84 83.7224Z" fill="#EF5D5D"/>
<path fill-rule="evenodd" clip-rule="evenodd" d="M475.527 63.9925C465.822 77.0253 454.897 87.3919 439.29 93.9783L432.905 88.4378C447.021 82.6163 458.994 72.1859 468.031 59.9553C477.035 47.8192 482.319 34.6474 482.555 24.0836L491.704 23.4945C491.422 36.0868 485.265 50.8654 475.527 63.9925Z" fill="#C69378"/>
<path fill-rule="evenodd" clip-rule="evenodd" d="M437.667 93.5625L432.175 88.1062C441.606 84.7952 449.845 79.3031 456.695 72.5166L463.731 77.5809C456.798 84.5173 448.654 90.1973 438.983 94.5096L437.667 93.5625Z" fill="#9E8BE8"/>
<path fill-rule="evenodd" clip-rule="evenodd" d="M333.965 58.7407C332.271 58.5243 330.714 57.5474 328.894 55.3678L330.403 54.1535C332.083 56.1649 333.256 56.7477 334.276 56.8779C335.137 56.9879 335.956 56.8112 337.108 56.5627C337.494 56.4795 337.917 56.3883 338.391 56.2971L338.705 58.1397C338.373 58.2036 338.037 58.277 337.699 58.3508C336.461 58.6211 335.194 58.8976 333.965 58.7407Z" fill="black"/>
<path fill-rule="evenodd" clip-rule="evenodd" d="M332.571 49.316C333.15 48.599 333.574 47.9531 333.702 47.5522L335.606 48.0781C335.37 48.8143 334.75 49.6851 334.172 50.402C333.952 50.6741 333.723 50.9421 333.5 51.1931L336.641 52.0604L336.084 53.7962L331.472 52.5225L329.941 52.0997L331.019 51.0349C331.415 50.6442 332.015 50.0066 332.571 49.316Z" fill="black"/>
<path d="M327.157 136.564L344.96 137.604L332.501 255.89L321.374 255.24L327.157 136.564Z" fill="#333333"/>
<path d="M345.552 136.564L362.983 140.236C362.983 140.236 365.346 196.957 365.346 207.135C365.346 218.095 353.869 220.835 352.64 207.135C351.41 193.434 345.552 136.564 345.552 136.564Z" fill="#333333"/>
<line y1="-3.87321" x2="22.026" y2="-3.21382" transform="matrix(0.0484135 0.998827 -0.998308 0.058142 361.514 252.212)" stroke="#573515" stroke-width="7.74643"/>
<path d="M349.679 282.374L362.314 268.716L369.828 268.342L371.783 277.849L349.679 282.374Z" fill="white"/>
<path d="M352.64 204.787C352.64 202.046 362.777 198.653 364.527 202.83C366.166 206.745 364.527 219.662 369.665 258.26C365.662 259.374 359.206 260.096 359.206 260.096C353.977 225.207 352.64 207.527 352.64 204.787Z" fill="#333333"/>
<path fill-rule="evenodd" clip-rule="evenodd" d="M363.263 141.845V161.758L349.413 159.92L328.637 152.568V138.013L363.263 141.845Z" fill="#333333"/>
<path d="M359.1 77.2527C352.999 68.2626 338.762 64.9448 332.407 66.015L325.766 141.485H363.528C364.164 121.15 365.201 86.2428 359.1 77.2527Z" fill="#99CEFF"/>
<mask id="mask2_1456_18655" style="mask-type:alpha" maskUnits="userSpaceOnUse" x="343" y="76" width="46" height="49">
<path d="M354.935 79.4632C378.913 96.0314 388.082 105.741 383.817 112.689C379.552 119.638 354.054 114.418 351.82 116.521C350.03 118.205 347.41 121.228 346.334 122.315" stroke="#F4CB8F" stroke-width="6.8927"/>
</mask>
<g mask="url(#mask2_1456_18655)">
<path d="M355.168 79.0402C377.353 98.1022 388.314 105.318 384.049 112.266C378.751 120.899 354.286 113.995 352.052 116.098C350.262 117.782 347.642 120.805 346.566 121.892" stroke="#573515" stroke-width="6.8927"/>
<rect width="24.4268" height="24.1194" transform="matrix(-0.893923 -0.448296 0.480965 -0.876783 366.264 96.554)" fill="#99CEFF"/>
</g>
<path d="M334.232 65.649C336.13 66.6558 338.155 67.3291 340.157 67.7468C345.264 68.8126 350.219 68.2153 352.524 67.2519" stroke="#EF5D5D" stroke-width="2.39077"/>
<path d="M333.5 70.8708C335.863 68.1199 339.175 69.1951 340.607 66.1025C339.749 67.9548 338.131 70.3108 335.386 71.6809L333.5 70.8708Z" fill="#EF5D5D"/>
<path d="M340.539 75.247C339.825 74.0954 341.646 68.7321 340.271 66.8277C339.854 67.7279 337.562 72.9469 338.429 74.5579L340.539 75.247Z" fill="#EF5D5D"/>
<path d="M73.912 76.2335C81.4806 77.5517 81.4506 78.6446 81.4506 78.6446C81.4506 78.6446 90.0702 136.469 64.4888 130.724C55.5152 128.709 42.1864 124.696 42.1864 115.293C42.1864 110.953 55.0658 79.1263 59.7772 77.6795C65.5178 75.9167 68.0035 75.2045 73.912 76.2335Z" fill="#FCD858"/>
<path d="M88.988 58.5895C88.6415 62.5629 89.0964 65.8511 92.233 66.1376C95.3697 66.424 98.1933 63.4353 98.5397 59.4619C98.8861 55.4886 96.6242 52.0353 93.4876 51.7489C90.3509 51.4624 89.3344 54.6162 88.988 58.5895Z" fill="#707070"/>
<path d="M88.2163 40.2653C75.3066 38.222 73.0268 48.5759 69.6309 65.792L101.01 71.9441C99.4891 54.8277 102.202 42.4788 88.2163 40.2653Z" fill="black"/>
<ellipse rx="9.58398" ry="10.8183" transform="matrix(-0.939108 -0.34661 -0.340736 0.939069 87.0727 56.5343)" fill="#F8DCCD"/>
<path fill-rule="evenodd" clip-rule="evenodd" d="M89.7188 66.4373C91.142 66.7848 92.7112 66.4551 94.8958 65.205L94.1023 63.7224C92.0862 64.8761 90.9553 64.9966 90.0989 64.7875C89.3753 64.6108 88.7821 64.2083 87.9479 63.6423C87.6686 63.4528 87.3623 63.2449 87.0151 63.0211L86.1445 64.4597C86.3878 64.6166 86.6308 64.7823 86.8752 64.9491C87.7707 65.5602 88.6868 66.1853 89.7188 66.4373Z" fill="black"/>
<path fill-rule="evenodd" clip-rule="evenodd" d="M93.9776 59.0135C93.7529 58.235 93.6295 57.5641 93.6621 57.1899L91.937 57.0323C91.877 57.7196 92.0829 58.6393 92.3076 59.4177C92.3931 59.7132 92.4875 60.0083 92.5826 60.2871L89.7371 60.0272L89.5958 61.6479L93.7748 62.0295L95.1618 62.1562L94.6503 60.9316C94.4624 60.482 94.1933 59.7631 93.9776 59.0135Z" fill="black"/>
<line y1="-1.5125" x2="18.4119" y2="-1.5125" transform="matrix(0.506859 0.864279 0.859736 -0.506913 144.017 208.949)" stroke="#F8DCCD" stroke-width="3.025"/>
<path d="M50.3838 244.779L49.061 259.951" stroke="#F8DCCD" stroke-width="3.025"/>
<path d="M88.5112 140.079L75.5055 154.773L118.947 185.027L144.025 222.641L153.435 221.036L130.607 179.521L88.5112 140.079Z" fill="#F8DCCD"/>
<path d="M77.6808 165.449L57.8922 145.676C57.8922 145.676 54.191 229.538 45.1709 259.452C48.7464 260.667 50.3529 259.452 50.3529 259.452C57.5294 232.297 77.6808 165.449 77.6808 165.449Z" fill="#F8DCCD"/>
<path d="M168.934 227.775L153.12 224.995L147.85 228.102L152.371 235.812L168.934 227.775Z" fill="#333333"/>
<path fill-rule="evenodd" clip-rule="evenodd" d="M62.0588 138.814L60.4365 157.42L72.6676 156.992L91.3485 152.517L92.5811 138.38L62.0588 138.814Z" fill="#99CEFF"/>
<path fill-rule="evenodd" clip-rule="evenodd" d="M99.2082 119.958C90.7833 109.766 84.2464 96.4623 82.7882 83.2112L89.793 82.359C90.9979 94.3143 96.6404 105.655 104.565 115.167C112.419 124.633 122.117 131.511 130.942 133.997L129.045 141.05C118.525 138.086 107.704 130.197 99.2082 119.958Z" fill="#F8DCCD"/>
<path fill-rule="evenodd" clip-rule="evenodd" d="M92.5523 111.825C87.1014 102.825 83.1969 92.6002 82.0978 82.3967L89.6469 81.4593C90.5517 90.6517 93.9015 99.4993 98.8486 107.527L92.5523 111.825Z" fill="#1F3C5F"/>
<path d="M67.1012 81.6482C72.5259 73.8554 83.7751 71.8241 88.5937 73.2509L95.1422 145.34L52.6411 145.449C53.7723 126.805 61.6765 89.4409 67.1012 81.6482Z" fill="#1F3C5F"/>
<path fill-rule="evenodd" clip-rule="evenodd" d="M41.9977 79.8389C51.3766 84.9504 60.551 87.922 71.015 86.8513L72.6497 81.0896C63.2292 82.1457 53.4735 79.4908 44.7095 74.6699C35.9939 69.8985 28.9347 63.1878 25.4137 56.4394L20.3312 59.1821C24.5283 67.2263 32.5704 74.6779 41.9977 79.8389Z" fill="#F8DCCD"/>
<path fill-rule="evenodd" clip-rule="evenodd" d="M72.3167 83.6516L72.928 80.5336C66.0178 81.3956 58.9532 80.2942 52.2177 77.8049L50.076 83.6063C56.7906 86.1184 63.7211 87.3741 71.0095 87.1925L72.3167 83.6516Z" fill="#1F3C5F"/>
<ellipse rx="9.10843" ry="3.87367" transform="matrix(-0.840913 0.537482 0.507658 0.863811 83.9131 49.5706)" fill="black"/>
<path d="M63.263 271.709L51.2046 259.592L44.699 258.997L43.8822 268.365L63.263 271.709Z" fill="#333333"/>
<path d="M125.268 171.688L94.1711 144.684H56.9496L43.7572 199.657C43.7572 199.657 73.627 198.354 91.8153 190.495C105.851 184.43 125.268 171.688 125.268 171.688Z" fill="#BDAEF8"/>
<path d="M53.6514 247.425L50.8244 259.962L45.1705 259.48L47.9975 246.46L53.6514 247.425Z" fill="#EAEAEA"/>
<path d="M53.6509 249.325L47.5267 248.389" stroke="#EF5D5D" stroke-width="1.21"/>
<path d="M53.1807 251.254L47.0565 250.318" stroke="#FCD858" stroke-width="1.21"/>
<path d="M52.709 253.183L49.4109 252.701L46.5848 252.247" stroke="#A6D669" stroke-width="1.21"/>
<path d="M52.2378 255.112L48.9397 254.63L46.1137 254.176" stroke="#7EB9F0" stroke-width="1.21"/>
<path d="M72.9699 81.5392C71.0853 80.5731 70.6141 81.5376 64.4891 80.5747C61.3654 80.0836 72.4382 76.6767 76.2681 79.3909C82.3933 83.7316 73.2963 107.842 70.4693 111.217C64.6294 118.189 63.4019 120.38 60.1038 117.004C58.6903 115.557 60.5752 115.075 66.2289 107.842C69.0863 104.186 77.7363 83.9825 72.9699 81.5392Z" fill="#796DC4"/>
<path d="M61.19 117.225C53.1804 124.458 52.7092 123.494 52.7092 131.209C52.7092 131.209 54.3819 131.152 54.3267 130.292C53.9718 124.757 56.3374 123.747 62.6035 118.189L61.19 117.225Z" fill="#333333"/>
<path d="M180.031 61.0993C180.707 59.0748 182.262 56.5758 177.428 55.8548C178.949 55.3052 178.331 52.2621 175.517 52.8492C177.151 52.0878 176.236 50.0659 174.081 50.6104C173.504 48.2449 171.716 46.9931 169.991 49.7363C170.435 47.5195 169.221 46.0545 166.651 47.8081C166.223 46.493 162.554 46.4921 162.554 48.8622C161.511 47.1141 157.228 46.9304 156.977 50.6104C154.23 49.9991 152.213 51.6791 153.63 54.1067C150.661 53.9551 150.081 54.95 149.912 57.603C147.279 58.5781 145.663 60.0828 146.937 64.1585C143.093 65.3434 144.673 68.2308 146.937 70.277C144.932 73.9115 142.237 78.0565 144.706 82.077C142.665 83.7555 144.207 85.6705 145.821 86.8844C143.522 85.9474 142.237 89.0696 143.962 90.8178C141.38 93.8383 142.665 97.3733 145.821 97.3733C143.357 97.9207 143.179 99.0169 143.962 101.744C140.523 105.302 144.409 105.774 149.912 106.988L169.247 105.24C173.433 105.748 175.741 107.969 180.031 103.055C182.621 102.135 182.932 100.739 182.262 97.3733C186.354 95.5919 184.641 90.8178 181.146 89.0696C184.213 88.1394 183.935 86.3741 181.643 82.8788C183.784 82.077 184.213 78.0566 181.146 76.8326C182.503 75.4329 184.641 73.671 181.146 66.7807C183.784 65.7819 182.928 62.7132 180.031 61.0993Z" fill="#573515"/>
<path d="M157.286 68.2005C159.352 74.6041 165.757 78.5048 171.594 76.9131C177.43 75.3214 180.487 68.8399 178.422 62.4363C176.356 56.0328 170.811 57.3485 164.466 56.3567C166.55 65.1169 155.221 61.7969 157.286 68.2005Z" fill="#BD8A5A"/>
<path d="M180.779 249.761L183.503 270.436" stroke="#BD8A5A" stroke-width="6.6"/>
<path d="M200.802 282.487L186.718 269.758H179.676V280.669L200.802 282.487Z" fill="#EAEAEA"/>
<path fill-rule="evenodd" clip-rule="evenodd" d="M132.335 127.468C135.202 114.121 142.048 100.393 152.383 90.9013L157.989 96.1667C148.587 104.639 142.8 116.4 140.168 128.906C137.526 141.326 138.385 153.654 142.397 162.513L135.035 165.352C130.252 154.791 129.478 140.901 132.335 127.468Z" fill="#BD8A5A"/>
<path fill-rule="evenodd" clip-rule="evenodd" d="M135.734 116.109C139.389 106.624 145.012 97.6151 152.421 90.7849L158.022 96.0657C151.292 102.153 146.408 109.926 143.203 118.452L135.734 116.109Z" fill="#99CEFF"/>
<path fill-rule="evenodd" clip-rule="evenodd" d="M186.827 129.947C177.506 119.622 170.303 106.061 168.749 92.4588L176.546 91.4506C177.825 103.725 184.044 115.284 192.811 124.919C201.5 134.508 212.253 141.4 222.058 143.792L219.911 151.082C208.223 148.23 196.225 140.319 186.827 129.947Z" fill="#BD8A5A"/>
<path fill-rule="evenodd" clip-rule="evenodd" d="M179.482 120.435C173.846 111.876 169.81 102.123 168.675 92.3546L176.482 91.3591C177.417 100.161 180.879 108.6 185.994 116.234L179.482 120.435Z" fill="#99CEFF"/>
<path fill-rule="evenodd" clip-rule="evenodd" d="M175.058 74.4635C176.655 74.2599 178.121 73.341 179.836 71.2909L178.414 70.1486C176.832 72.0406 175.727 72.5888 174.766 72.7113C173.954 72.8147 173.183 72.6485 172.097 72.4148C171.734 72.3366 171.335 72.2507 170.889 72.1649L170.593 73.8982C170.906 73.9583 171.223 74.0273 171.541 74.0967C172.707 74.3509 173.901 74.611 175.058 74.4635Z" fill="black"/>
<path fill-rule="evenodd" clip-rule="evenodd" d="M176.371 65.5992C175.826 64.9247 175.427 64.3172 175.306 63.9401L173.512 64.4347C173.734 65.1273 174.319 65.9463 174.864 66.6207C175.071 66.8766 175.287 67.1288 175.497 67.3648L172.538 68.1807L173.062 69.8134L177.407 68.6153L178.85 68.2176L177.834 67.2161C177.461 66.8485 176.896 66.2488 176.371 65.5992Z" fill="black"/>
<path d="M181.472 147.665L164.701 148.65L176.392 259.915L186.874 259.299L181.472 147.665Z" fill="#333333"/>
<path d="M164.143 147.665L147.721 151.119C147.721 151.119 145.495 204.472 145.495 214.046C145.495 224.356 156.307 226.933 157.466 214.046C158.624 201.159 164.143 147.665 164.143 147.665Z" fill="#333333"/>
<line y1="-3.3" x2="20.7184" y2="-2.6788" transform="matrix(-0.0484884 0.998824 0.998313 0.0580524 149.105 256.446)" stroke="#BD8A5A" stroke-width="6.6"/>
<path d="M160.255 284.817L148.352 271.97L141.273 271.619L139.431 280.561L160.255 284.817Z" fill="#EAEAEA"/>
<path d="M157.465 211.836C157.465 209.258 147.915 206.066 146.267 209.995C144.722 213.677 146.267 225.828 141.426 262.134C145.197 263.182 151.279 263.861 151.279 263.861C156.205 231.044 157.465 214.413 157.465 211.836Z" fill="#333333"/>
<path fill-rule="evenodd" clip-rule="evenodd" d="M147.457 152.63V171.364L160.505 169.635L180.078 162.719V149.026L147.457 152.63Z" fill="#333333"/>
<path d="M151.379 91.8772C157.127 83.4209 170.539 80.3001 176.527 81.3068L182.783 152.296H147.208C146.609 133.168 145.631 100.334 151.379 91.8772Z" fill="#99CEFF"/>
<line y1="-3.3" x2="21.4308" y2="-3.3" transform="matrix(0 1 1 0 269.425 244.609)" stroke="white" stroke-width="6.6"/>
<path d="M270.896 141.741H238.155C238.155 141.741 231.786 209.931 231.018 215.637C229.759 224.991 249.838 228.467 250.597 219.06C251.365 209.551 256.74 177.22 256.74 177.22L259.177 257.7H282.634L270.896 141.741Z" fill="#FCD858"/>
<path d="M283.717 278.674L269.161 266.172H261.883V276.888L283.717 278.674Z" fill="#796DC4"/>
<path fill-rule="evenodd" clip-rule="evenodd" d="M236.168 92.3882C236.168 92.3422 236.168 92.2963 236.168 92.2504C236.168 62.2742 244.314 62.2742 254.362 62.2742C267.5 63.627 271.744 72.3057 272.446 98.2288L272.557 98.247V147.119L250.723 149.207L236.168 150.705V92.3882Z" fill="#333333"/>
<path fill-rule="evenodd" clip-rule="evenodd" d="M291.423 48.3901C285.811 60.0584 276.167 70.8878 263.934 76.6891L259.455 70.0581C270.55 64.9334 278.735 55.6325 283.94 44.6817C289.137 33.8158 290.837 21.9825 288.686 12.4565L296.588 12.0069C299.151 23.3622 297.044 36.6369 291.423 48.3901Z" fill="#E6BF99"/>
<path fill-rule="evenodd" clip-rule="evenodd" d="M287.426 22.2219L298.735 22.7374C298.531 29.6722 297.199 36.6075 294.822 43.1461C289.592 57.4081 278.753 70.587 263.409 77.5549L256.032 69.3501C269.976 63.1986 279.153 51.8786 283.977 38.4929C285.909 33.1809 287.055 27.6716 287.426 22.2219Z" fill="#333333"/>
<path d="M271.216 41.5435C272.161 47.9301 270.706 54.7198 264.868 56.3153C254.482 59.1541 253.839 55.214 251.162 47.2173C248.853 40.3208 251.594 33.3305 257.285 31.604C262.976 29.8775 268.907 34.647 271.216 41.5435Z" fill="#E6BF99"/>
<path fill-rule="evenodd" clip-rule="evenodd" d="M267.052 52.9436C268.991 52.3854 270.649 50.9765 272.427 48.1346L270.48 47.0114C268.84 49.6341 267.565 50.5191 266.399 50.855C265.413 51.1388 264.432 51.0847 263.052 51.0087C262.59 50.9832 262.083 50.9553 261.516 50.9367L261.44 53.1159C261.837 53.1289 262.239 53.1521 262.644 53.1754C264.128 53.2609 265.646 53.3484 267.052 52.9436Z" fill="black"/>
<path fill-rule="evenodd" clip-rule="evenodd" d="M266.851 42.2058C266.039 41.408 265.419 40.675 265.189 40.2003L263.11 41.1283C263.533 42.0001 264.424 42.9811 265.236 43.7788C265.544 44.0814 265.863 44.3778 266.17 44.6541L262.742 46.1846L263.738 48.2402L268.773 45.9924L270.444 45.2463L268.987 44.0939C268.452 43.671 267.632 42.9743 266.851 42.2058Z" fill="black"/>
<path d="M215.595 130.856C213.953 129.064 214.094 126.304 215.91 124.689L242.15 101.368C243.967 99.7537 246.77 99.8971 248.412 101.688L262.94 117.536C264.582 119.327 264.441 122.088 262.625 123.702L236.385 147.023C234.568 148.638 231.765 148.494 230.123 146.703L215.595 130.856Z" fill="#D7D7D7"/>
<path d="M238.16 122.178C237.787 121.273 237.589 122.11 237.602 122.328C237.893 123.049 238.208 123.196 238.315 123.313C238.065 123.46 238.533 123.082 238.16 122.178Z" fill="white" fill-opacity="0.5"/>
<path d="M227.581 143.916L238.83 104.323L235.996 106.842L225.884 142.065L227.581 143.916Z" fill="white" fill-opacity="0.7"/>
<path d="M223.534 139.512L231.735 110.646L230.695 111.57L222.829 138.744L223.534 139.512Z" fill="white" fill-opacity="0.85"/>
<path d="M261.869 124.351L263.735 118.403L263.206 117.826L260.8 125.301L261.869 124.351Z" fill="white" fill-opacity="0.85"/>
<path d="M241.12 122.859C241.63 123.14 242.021 123.59 242.225 124.13C242.428 124.669 242.43 125.263 242.229 125.803C242.029 126.344 241.64 126.797 241.132 127.081C240.624 127.365 240.029 127.461 239.455 127.353C238.881 127.245 238.365 126.94 237.999 126.491C237.633 126.043 237.44 125.481 237.457 124.905C237.473 124.33 237.697 123.779 238.088 123.352C238.479 122.924 239.012 122.647 239.591 122.571C239.579 123.389 240.244 123.637 240.244 123.637C240.244 123.637 240.915 123.331 241.12 122.859Z" fill="white" fill-opacity="0.5"/>
<path d="M228.417 90.4802L235.831 82.4109L239.846 90.4802C235.831 96.1586 219.527 111.401 226.014 117.079L245.473 133.816L241.149 139.494L218.601 120.666C211.188 110.803 221.15 103.331 228.417 90.4802Z" fill="#E6BF99"/>
<line y1="-3.3" x2="21.3388" y2="-3.3" transform="matrix(-0.418041 0.91525 0.908823 0.403936 228.937 255.744)" stroke="white" stroke-width="6.6"/>
<path d="M229.085 286.539L222.247 270.39L215.609 267.44L210.694 274.918L229.085 286.539Z" fill="#796DC4"/>
<path d="M213.191 254.215C213.191 254.215 226.787 227.001 232.002 212.611C234.604 205.431 252.707 212.241 250.438 219.531C246.248 232.999 234.048 265.655 234.048 265.655L213.191 254.215Z" fill="#FCD858"/>
<path d="M241.767 65.9724L240.575 91.2066C218.648 112.797 223.381 116.754 242.694 129.841L234.804 137.227C234.804 137.227 216.437 123.744 214.608 117.342C209.415 99.1608 241.767 65.9724 241.767 65.9724Z" fill="#333333"/>
<path d="M248.052 51.3728C255.418 39.1018 259.044 33.6226 265.016 33.2384C259.223 26.9143 253.125 33.6588 248.052 51.3728Z" fill="black"/>
<path d="M247.904 51.6196C255.369 39.1752 259.005 33.6251 265.016 33.2384C259.13 26.812 252.927 33.8805 247.807 52.2414" stroke="black"/>
<path d="M257.287 33.8211C258.307 31.6922 259.925 30.4149 262.939 30.8406C259.497 27.333 256.534 27.4345 252.389 27.8603C245.859 29.5431 243.219 30.1134 241.337 35.9298C240.43 43.9939 239.83 44.8711 243.975 54.2382C245.105 59.7733 244.156 61.4215 243.346 66.606C253.018 82.3395 261.684 86.1715 265.829 81.9137C269.974 77.6559 264.433 65.9735 264.07 64.477C263.068 60.8574 262.438 60.1991 262.438 57.2186C259.047 58.0702 257.818 53.6222 255.682 51.5135C254.427 47.2355 255.105 48.6727 254.273 43.6139C254.532 39.9504 255.395 37.7706 257.287 33.8211Z" fill="#135FC5"/>
</svg>
