<svg width="425" height="384" viewBox="0 0 425 384" fill="none" xmlns="http://www.w3.org/2000/svg">
<path d="M303.399 311.647C285.917 306.829 270.409 303.239 259.955 302.902C244.429 302.402 242.215 306.199 256.642 312.116C262.81 314.646 259.654 312.205 269.868 318.468L347.923 342.118L359.712 339.679L316.548 324.451L378.534 340.285L389.267 335.752C367.76 330.908 340.974 322.456 316.409 315.335C328.577 313.772 339.908 311.439 345.724 307.964L342.999 305.575C333.762 309.04 318.525 310.794 303.399 311.647Z" fill="black" fill-opacity="0.1"/>
<ellipse rx="12.2419" ry="14.4918" transform="matrix(0.792654 0.609672 -0.609902 0.792477 371.437 78.0808)" fill="#C69378"/>
<path fill-rule="evenodd" clip-rule="evenodd" d="M383.962 81.8607L366.619 64.8275C371.523 60.5883 378.23 59.7982 382.799 63.3123C388.046 67.3483 388.527 75.5656 383.962 81.8607Z" fill="#1F3C5F"/>
<line y1="-1.88343" x2="24.8292" y2="-1.88343" transform="matrix(0.174888 0.984588 -0.9837 0.179815 383.552 317.301)" stroke="#C69378" stroke-width="3.76686"/>
<line x1="351.597" y1="305.208" x2="351.597" y2="330.048" stroke="#C69378" stroke-width="3.76686"/>
<path d="M345.633 185.15H361.957L357.876 321.772H347.673L345.633 185.15Z" fill="#AB8E28"/>
<path d="M366.037 189.289L386.443 193.429C386.443 193.429 386.443 282.44 394.605 325.911C389.918 327.167 382.362 327.981 382.362 327.981C376.24 288.65 366.037 189.289 366.037 189.289Z" fill="#AB8E28"/>
<path d="M333.389 344.539L349.713 330.049H357.876V342.469L333.389 344.539Z" fill="#573515"/>
<path d="M374.934 351.891L386.808 335.636L394.841 334.168L398.134 343.946L374.934 351.891Z" fill="#573515"/>
<path fill-rule="evenodd" clip-rule="evenodd" d="M386.718 135.11L386.72 135.11V215.841L370.396 213.771L345.909 205.491V156.733C345.908 156.427 345.907 156.12 345.907 155.812C345.907 155.136 345.908 154.466 345.909 153.804V143.39L346.031 143.365C346.818 107.565 351.579 95.5792 366.312 93.7109C377.582 93.7109 386.717 93.7109 386.718 135.11Z" fill="#573515"/>
<path fill-rule="evenodd" clip-rule="evenodd" d="M386.718 195.942V218.371L370.394 216.301L345.907 208.021V191.627L386.718 195.942Z" fill="#AB8E28"/>
<path d="M357.081 56.5903L383.666 82.2622" stroke="#1F3C5F" stroke-width="1.88343"/>
<path d="M356.684 77.1807C359.01 84.1937 361.89 83.797 366.387 84.6442" stroke="black" stroke-width="2.59668"/>
<path d="M366.23 71.4666C365.22 72.7791 362.206 74.4654 360.825 75.1446L365.677 78.8763" stroke="black" stroke-width="2.59668"/>
<mask id="mask0" mask-type="alpha" maskUnits="userSpaceOnUse" x="375" y="108" width="49" height="60">
<path d="M380.562 112.286C410.252 126.933 422.24 136.566 418.822 145.787C415.404 155.007 386.164 154.249 384.084 157.242C382.418 159.64 380.084 163.816 379.095 165.345" stroke="#F4CB8F" stroke-width="8.37929"/>
</mask>
<g mask="url(#mask0)">
<path d="M380.739 111.73C408.913 129.742 422.418 136.01 419 145.23C414.753 156.686 386.342 153.693 384.262 156.686C382.596 159.083 380.262 163.259 379.273 164.789" stroke="#C69378" stroke-width="8.37929"/>
<rect x="396.333" y="130.276" width="27.5681" height="29.1496" transform="rotate(-162.274 396.333 130.276)" fill="#573515"/>
</g>
<path d="M361.769 118.811C332.77 102.159 309.67 105.799 316.892 99.1257C328.434 88.4619 349.111 89.1193 351.046 86.0307C352.596 83.5569 353.049 78.1903 353.964 76.6153" stroke="#C69378" stroke-width="8.37929"/>
<path d="M334.757 102.872C336.702 103.277 342.926 104.282 350.317 107.978L367.58 111.382L361.745 125.484L347.886 116.974C345.374 115.758 338.696 112.938 332.082 111.382L334.757 102.872Z" fill="#573515"/>
<path d="M394.343 27.1995C396.735 27.9206 398.457 29.1225 399.509 30.8053C400.584 32.4948 400.778 34.4792 400.091 36.7586C399.457 38.8592 398.269 40.2928 396.527 41.0593C394.813 41.8102 392.824 41.8566 390.561 41.1982L389.635 43.6617L384.607 42.1454L386.319 35.8601L388.331 36.4666C390.051 36.9855 391.423 37.1675 392.445 37.0125C393.489 36.8642 394.18 36.2314 394.516 35.114C394.752 34.3319 394.725 33.6533 394.436 33.0783C394.146 32.5033 393.621 32.1013 392.861 31.8721C392.057 31.6295 391.36 31.6755 390.772 32.01C390.19 32.3221 389.781 32.8693 389.545 33.6514L384.149 32.0239C384.515 30.6472 385.165 29.5024 386.099 28.5894C387.055 27.6831 388.23 27.099 389.626 26.8372C391.05 26.5598 392.623 26.6806 394.343 27.1995ZM384.56 51.639C383.554 51.3358 382.815 50.7959 382.342 50.0195C381.898 49.2274 381.808 48.3956 382.07 47.5241C382.34 46.6302 382.879 45.9759 383.686 45.5613C384.516 45.1533 385.434 45.101 386.44 45.4043C387.423 45.7008 388.137 46.2451 388.58 47.0372C389.046 47.836 389.145 48.6823 388.875 49.5762C388.612 50.4477 388.066 51.0874 387.236 51.4954C386.435 51.8877 385.543 51.9356 384.56 51.639Z" fill="#0573E8"/>
<path d="M383.627 11.2117L379.737 1M367.337 5.8627L374.874 16.0744M367.337 23.6116L355.666 19.9645" stroke="#F8CB2C" stroke-width="3.40389"/>
<path d="M186.309 322.162C186.259 321.84 186.442 321.503 186.779 321.298C187.116 321.092 187.545 321.056 187.88 321.203L194.73 324.233L200.549 320.966L201.178 315.404L194.328 312.373C193.993 312.225 193.814 311.919 193.868 311.589C193.923 311.258 194.201 310.964 194.582 310.832C197.94 309.678 201.556 309.764 204.504 311.068C208.54 312.854 210.466 316.525 209.802 320.272C210.003 320.342 210.204 320.419 210.405 320.507L233.042 329.767C233.05 329.77 233.059 329.774 233.067 329.777C235.756 330.967 236.533 333.867 234.799 336.242C233.065 338.617 229.486 339.552 226.798 338.363C226.786 338.358 226.775 338.353 226.765 338.348L205.081 327.789C204.886 327.702 204.701 327.607 204.523 327.505C200.726 329.869 195.686 330.462 191.646 328.676C188.699 327.371 186.753 324.997 186.309 322.162ZM229.122 335.7C230.113 336.138 231.432 335.784 232.071 334.909C232.71 334.035 232.425 332.971 231.435 332.533C230.444 332.095 229.124 332.449 228.485 333.323C227.846 334.198 228.131 335.262 229.122 335.7Z" fill="#7EB9F0"/>
<g clip-path="url(#clip0)">
<path d="M172.58 294.521L173.958 293.142C174.053 293.047 174.208 293.047 174.303 293.142L181.207 300.042C181.241 300.076 181.264 300.119 181.273 300.166L181.621 301.889C181.636 301.969 181.612 302.052 181.554 302.11L181.554 302.11C181.496 302.168 181.413 302.193 181.334 302.177L179.606 301.834C179.559 301.824 179.515 301.801 179.481 301.767L172.58 294.866C172.485 294.77 172.485 294.616 172.58 294.521Z" fill="#707070"/>
<path d="M169.818 293.137L172.579 290.377C172.674 290.281 172.828 290.281 172.924 290.377L173.614 291.067C173.651 291.104 173.675 291.153 173.683 291.205L173.855 292.413C173.866 292.489 173.84 292.565 173.786 292.62L172.061 294.345C172.007 294.399 171.93 294.425 171.854 294.414L170.646 294.241C170.594 294.234 170.545 294.21 170.508 294.172L169.818 293.482C169.723 293.387 169.723 293.233 169.818 293.137Z" fill="#707070"/>
</g>
<g clip-path="url(#clip1)">
<path d="M96.7946 223.643V260.464L65.6603 280.953L34.5261 286.59V244.491L96.7946 223.643Z" fill="#FFAC4B"/>
<path d="M96.7945 218.363L115.06 226.027L52.7925 252.153L34.526 244.489L96.7945 218.363Z" fill="#FCD858"/>
<path d="M124.303 292.323L83.6127 312.459L53.4644 297.854L96.794 277.718L124.303 292.323Z" fill="#F5980C"/>
<path d="M96.7935 283L94.1547 271.732L96.7935 260.465L145.881 281.06L131.604 297.606L96.7935 283Z" fill="#FFAC4B"/>
<path d="M61.3813 297.859L34.5261 286.591L96.7946 260.465V283L61.3813 297.859Z" fill="#E9BA16"/>
<path d="M145.881 281.058V303.593L83.6122 329.719L78.3347 318.451L83.6122 307.184L145.881 281.058Z" fill="#F8CB2C"/>
<path d="M83.613 307.186V329.722L34.5257 309.126V286.591L83.613 307.186Z" fill="#FCD858"/>
</g>
<path d="M129.05 344.143L130.407 343.779C130.501 343.754 130.597 343.81 130.622 343.904L132.445 350.698C132.454 350.732 132.453 350.767 132.442 350.8L132.037 352.001C132.018 352.056 131.973 352.099 131.916 352.114L131.916 352.114C131.859 352.129 131.799 352.115 131.755 352.077L130.8 351.24C130.774 351.217 130.755 351.187 130.746 351.153L128.925 344.358C128.9 344.265 128.956 344.168 129.05 344.143Z" fill="#707070"/>
<path d="M127.823 342.286L130.541 341.558C130.635 341.533 130.732 341.589 130.757 341.683L130.939 342.362C130.949 342.399 130.946 342.438 130.932 342.473L130.605 343.289C130.584 343.34 130.54 343.379 130.487 343.393L128.788 343.849C128.735 343.863 128.678 343.851 128.634 343.817L127.942 343.274C127.912 343.251 127.891 343.218 127.881 343.181L127.699 342.502C127.674 342.408 127.729 342.312 127.823 342.286Z" fill="#707070"/>
<defs>
<clipPath id="clip0">
<rect width="14.6399" height="14.6399" fill="white" transform="matrix(-0.707107 0.707107 0.707107 0.707107 176.375 286.58)"/>
</clipPath>
<clipPath id="clip1">
<rect width="111.356" height="111.356" fill="white" transform="matrix(-1 0 0 1 145.88 218.362)"/>
</clipPath>
</defs>
</svg>
