<svg width="666" height="1423" viewBox="0 0 666 1423" fill="none" xmlns="http://www.w3.org/2000/svg">
<path d="M151.137 875L538.336 875M123 933L430.266 933M270.078 912.849L703 912.849" stroke="#BDDEFF" stroke-dasharray="12 12"/>
<path d="M66.5564 854L657.565 854M92.795 898.852L743 898.852M595.808 951.294L2.00126e-06 951.294M192.31 982L702.682 982M636.446 966.647L342.062 966.647" stroke="#BDDEFF"/>
<circle cx="803.032" cy="577.66" r="221.625" transform="rotate(173.54 803.032 577.66)" stroke="#BDDEFF" stroke-width="1.5" stroke-dasharray="45 45"/>
<path d="M849.536 795.058L844.853 753.698L873.945 743.988L891.002 781.306M806.684 799.91L802.002 758.549L770.357 755.716L761.618 795.2M721.052 783.565L733.186 744.074L701.556 728.031L681.793 763.479M928.685 760.811L907.368 725.863L933.74 702.12L962.418 732.084M988.81 698.527L955.836 673.956L970.684 645.102L1008.52 659.31M1021.56 617.83L981.996 608.346L983.831 574.55L1025.28 574.008M1020.47 531.53L980.856 538.279L970.226 504.385L1007.01 489.276M984.94 451.016L951.194 472.952L930.228 447.776L956.958 417.199M923.984 392.628L902.183 423.401L871.551 409.509L884.557 371.052M844.405 359.747L834.837 398.57L804.437 396.728L799.754 355.367M756.903 360.219L761.585 401.58L733.154 410.46L714.691 374.056M649.023 737.375L675.254 705.723L653.332 678.768L619.923 703.685M599.014 665.671L636.29 648.242L626.538 618.777L585.923 623.375M581.071 580.524L621.686 575.926L624.815 546.889L584.459 537.117M596.425 496.136L635.009 510.26L649.772 480.661L616.841 456.462M643.233 422.905L671.911 452.869L699.443 429.372L677.338 394.136" stroke="#BDDEFF" stroke-width="1.5"/>
<circle cx="802.619" cy="577.329" r="146.25" transform="rotate(173.54 802.619 577.329)" stroke="#BDDEFF" stroke-width="1.5"/>
<path d="M481.296 292.415C479.911 288.045 478.796 283.541 477.97 278.922L478.339 278.856C477.936 276.596 477.601 274.308 477.339 271.994C477.077 269.68 476.892 267.375 476.78 265.082L476.405 265.1C476.177 260.413 476.258 255.774 476.63 251.205L477.004 251.236C477.383 246.588 478.064 242.014 479.03 237.533L478.664 237.454C479.647 232.894 480.925 228.432 482.478 224.091L482.831 224.217C484.393 219.85 486.235 215.605 488.337 211.509L488.004 211.338C490.125 207.204 492.511 203.22 495.141 199.411L495.45 199.624C498.076 195.82 500.948 192.192 504.044 188.763L503.765 188.512C506.869 185.074 510.198 181.837 513.733 178.825L513.976 179.11C517.482 176.122 521.191 173.357 525.083 170.838L524.88 170.524C528.752 168.018 532.806 165.756 537.021 163.761L537.181 164.1C541.325 162.14 545.626 160.438 550.066 159.019L549.952 158.662C554.319 157.267 558.821 156.143 563.438 155.314L563.505 155.683C565.765 155.277 568.052 154.942 570.366 154.68C572.68 154.418 574.985 154.233 577.279 154.123L577.261 153.749C581.947 153.525 586.586 153.613 591.155 153.997L591.123 154.371C595.768 154.761 600.34 155.458 604.818 156.443L604.898 156.076C609.453 157.078 613.909 158.377 618.244 159.953L618.116 160.305C622.473 161.89 626.706 163.756 630.791 165.884L630.965 165.552C635.083 167.697 639.052 170.108 642.846 172.765L642.631 173.072C646.415 175.722 650.025 178.617 653.435 181.737L653.688 181.46C657.103 184.585 660.319 187.935 663.312 191.49L663.025 191.731C665.989 195.254 668.734 198.978 671.233 202.886L671.549 202.684C674.033 206.568 676.276 210.632 678.254 214.857L677.914 215.016C679.858 219.166 681.545 223.473 682.953 227.918L683.311 227.805C684.695 232.175 685.811 236.678 686.636 241.297L686.267 241.363C686.671 243.624 687.005 245.912 687.267 248.226C687.529 250.54 687.715 252.845 687.827 255.138L688.201 255.12C688.429 259.807 688.349 264.445 687.976 269.015L687.603 268.984C687.224 273.631 686.542 278.206 685.576 282.686L685.943 282.766C684.959 287.326 683.682 291.788 682.129 296.129L681.776 296.003C680.213 300.37 678.371 304.614 676.269 308.711L676.603 308.882C674.481 313.016 672.095 317 669.465 320.809L669.157 320.596C666.53 324.399 663.659 328.028 660.563 331.457L660.841 331.708C657.737 335.146 654.408 338.383 650.874 341.395L650.63 341.11C647.124 344.098 643.415 346.863 639.523 349.381L639.727 349.696C635.854 352.202 631.801 354.464 627.586 356.458L627.425 356.119C623.281 358.08 618.98 359.781 614.54 361.2L614.655 361.558C610.287 362.953 605.786 364.077 601.168 364.906L601.102 364.537C598.842 364.943 596.554 365.278 594.24 365.54C591.926 365.802 589.621 365.987 587.328 366.096L587.346 366.471C582.659 366.695 578.021 366.606 573.452 366.223L573.483 365.849C568.839 365.459 564.266 364.762 559.789 363.777L559.708 364.143C555.154 363.142 550.697 361.843 546.362 360.267L546.491 359.914C542.134 358.33 537.901 356.464 533.815 354.336L533.642 354.668C529.523 352.523 525.555 350.112 521.761 347.455L521.976 347.148C518.192 344.498 514.582 341.603 511.171 338.483L510.918 338.759C507.503 335.635 504.287 332.285 501.295 328.73L501.582 328.489C498.617 324.966 495.873 321.241 493.374 317.334L493.058 317.536C490.574 313.652 488.331 309.588 486.353 305.363L486.692 305.204C484.749 301.053 483.062 296.747 481.653 292.302L481.296 292.415Z" stroke="#BDDEFF" stroke-width="0.75" stroke-dasharray="15 15"/>
<path d="M637.047 607.936C635.783 605.641 634.801 603.157 634.152 600.524L634.516 600.434C634.206 599.174 633.973 597.879 633.823 596.555C633.673 595.23 633.61 593.916 633.631 592.618L633.256 592.612C633.3 589.901 633.702 587.26 634.421 584.74L634.782 584.843C635.509 582.294 636.565 579.872 637.907 577.631L637.585 577.438C638.953 575.152 640.614 573.052 642.523 571.197L642.784 571.466C644.659 569.644 646.775 568.061 649.089 566.772L648.906 566.445C651.196 565.169 653.677 564.179 656.308 563.526L656.398 563.89C657.658 563.577 658.952 563.343 660.277 563.193C661.601 563.043 662.915 562.982 664.213 563.005L664.219 562.63C666.929 562.678 669.569 563.089 672.086 563.82L671.982 564.18C674.525 564.919 676.941 565.989 679.176 567.346L679.37 567.025C681.645 568.407 683.734 570.081 685.579 572.004L685.308 572.264C687.117 574.148 688.688 576.273 689.967 578.595L690.295 578.414C691.559 580.709 692.541 583.193 693.19 585.826L692.826 585.916C693.137 587.176 693.37 588.471 693.52 589.796C693.67 591.12 693.732 592.434 693.711 593.732L694.086 593.738C694.042 596.449 693.64 599.091 692.921 601.61L692.561 601.507C691.833 604.056 690.777 606.479 689.436 608.72L689.758 608.912C688.389 611.199 686.728 613.298 684.819 615.153L684.558 614.884C682.683 616.706 680.567 618.289 678.254 619.578L678.436 619.905C676.146 621.181 673.665 622.172 671.035 622.824L670.944 622.461C669.685 622.773 668.39 623.007 667.066 623.157C665.741 623.307 664.427 623.368 663.13 623.345L663.123 623.72C660.413 623.672 657.773 623.261 655.256 622.53L655.361 622.17C652.818 621.431 650.401 620.361 648.167 619.004L647.972 619.325C645.697 617.944 643.608 616.269 641.763 614.346L642.034 614.086C640.226 612.202 638.655 610.077 637.376 607.755L637.047 607.936Z" stroke="#BDDEFF" stroke-width="0.75" stroke-dasharray="9 9"/>
<circle cx="582.063" cy="260.607" r="8.9625" transform="rotate(173.54 582.063 260.607)" stroke="#BDDEFF" stroke-width="1.5" stroke-dasharray="7.88 7.88"/>
<path d="M584.245 277.534L580.406 243.626" stroke="#BDDEFF" stroke-width="1.5" stroke-dasharray="4.72 4.72"/>
<path d="M566.123 262.149L597.945 258.547" stroke="#BDDEFF" stroke-width="1.5" stroke-dasharray="4.72 4.72"/>
<circle cx="582.063" cy="260.607" r="154.913" transform="rotate(173.54 582.063 260.607)" stroke="#BDDEFF" stroke-width="1.5" stroke-dasharray="31.5 31.5"/>
<path d="M614.616 412.787L611.338 383.834L631.703 377.038L643.642 403.16M584.62 416.183L581.342 387.231L559.191 385.248L553.074 412.886M524.678 404.742L533.172 377.098L511.03 365.868L497.196 390.682M670.021 388.814L655.099 364.35L673.559 347.73L693.634 368.705M712.108 345.215L689.027 328.015L699.42 307.818L725.907 317.763M735.036 288.727L707.339 282.088L708.623 258.431L737.639 258.052M734.273 228.317L706.541 233.042L699.099 209.316L724.848 198.739M709.399 171.957L685.777 187.312L671.101 169.689L689.812 148.286M666.73 131.086L651.469 152.627L630.027 142.902L639.131 115.982M611.025 108.069L604.327 135.245L583.047 133.956L579.769 105.003M549.773 108.4L553.051 137.352L533.149 143.568L520.225 118.085M474.258 372.409L492.619 350.252L477.274 331.384L453.888 348.826M439.251 322.216L465.344 310.015L458.518 289.39L430.087 292.609M426.691 262.613L455.122 259.394L457.312 239.069L429.063 232.228M437.438 203.541L464.447 213.428L474.782 192.709L451.73 175.77M470.204 152.28L490.279 173.254L509.551 156.807L494.078 132.141" stroke="#BDDEFF"/>
<path d="M528.076 322.894C540.133 334.985 556.522 341.849 573.198 342.592C576.434 342.737 578.984 340.03 578.953 336.791L578.469 285.642C578.421 280.572 572.496 277.843 568.612 281.103L528.633 314.655C526.107 316.775 525.747 320.559 528.076 322.894Z" stroke="#BDDEFF"/>
<path d="M612.522 337.911C628.296 331.375 640.892 318.842 647.938 303.71C649.305 300.774 647.775 297.384 644.769 296.177L597.301 277.12C592.596 275.231 587.814 279.668 589.346 284.501L605.117 334.254C606.114 337.397 609.475 339.173 612.522 337.911Z" stroke="#BDDEFF"/>
<path d="M635.619 201.23C623.826 188.881 607.589 181.663 590.934 180.559C587.702 180.345 585.094 182.996 585.054 186.235L584.431 237.382C584.369 242.452 590.234 245.308 594.187 242.134L634.883 209.455C637.454 207.39 637.896 203.615 635.619 201.23Z" stroke="#BDDEFF"/>
<path d="M555.121 184.126C538.644 188.609 524.562 199.444 515.654 213.56C513.925 216.3 515.013 219.856 517.842 221.434L562.511 246.356C566.939 248.826 572.245 245.031 571.338 240.043L562.002 188.692C561.412 185.448 558.303 183.26 555.121 184.126Z" stroke="#BDDEFF"/>
<path d="M504.165 244.114C499.769 260.613 502.067 278.232 509.803 293.024C511.304 295.894 514.925 296.739 517.71 295.085L561.692 268.969C566.052 266.381 565.434 259.887 560.665 258.166L511.569 240.456C508.467 239.337 505.014 240.927 504.165 244.114Z" stroke="#BDDEFF"/>
<path d="M660.224 276.629C664.62 260.129 662.321 242.51 654.586 227.718C653.085 224.848 649.463 224.003 646.678 225.657L602.696 251.773C598.337 254.361 598.954 260.855 603.724 262.576L652.819 280.286C655.922 281.405 659.374 279.815 660.224 276.629Z" stroke="#BDDEFF"/>
<path d="M160.811 475H447.206M140 521H367.271M248.787 505.018H569" stroke="#BDDEFF" stroke-dasharray="12 12"/>
</svg>
