<svg width="559" height="675" viewBox="0 0 559 675" fill="none" xmlns="http://www.w3.org/2000/svg">
<path d="M148.464 572.552C170.247 569.415 189.005 567.433 201.536 568.231C223.805 569.649 236.716 572.447 215.223 577.986C206.034 580.354 210.909 577.62 195.377 584.296C195.377 584.296 184.114 586.788 170.119 587.359L100.504 595.801L84.0763 595.801L127.827 584.738L13.0438 591.863C51.5376 588.941 99.7818 579.896 139.795 573.834L145.715 571.293C146.628 571.732 147.544 572.151 148.464 572.552Z" fill="black" fill-opacity="0.1"/>
<line y1="-3" x2="21.0709" y2="-3" transform="matrix(-0.748541 0.663088 0.606212 0.795303 23.3752 560.135)" stroke="#DFBAAA" stroke-width="6"/>
<line y1="-3" x2="22.0759" y2="-3" transform="matrix(0 1 1 0 87.4871 565.752)" stroke="#DFBAAA" stroke-width="6"/>
<path d="M94.908 467.313L81.5381 465.717L80.5023 579.384H88.8989L94.908 467.313Z" fill="#3D3D3D"/>
<path d="M74.3906 463.905L56.4491 459.131C56.4491 459.131 60.9345 522.786 14.5855 557.796L19.0709 565.753C66.915 532.334 74.3906 463.905 74.3906 463.905Z" fill="#3D3D3D"/>
<path d="M100.583 600.511L87.1957 587.829H80.5022V598.699L100.583 600.511Z" fill="black"/>
<path d="M10.3271 586.496L11.5456 568.753L7.28576 563.164L-1.07191e-05 567.862L10.3271 586.496Z" fill="black"/>
<path fill-rule="evenodd" clip-rule="evenodd" d="M95.0081 446.238V468.562L79.5365 466.723L56.3291 459.366V442.404L95.0081 446.238Z" fill="#3D3D3D"/>
<path fill-rule="evenodd" clip-rule="evenodd" d="M122.508 349.823C111.393 360.06 96.5968 368.264 81.5311 370.592L80.1022 362.532C93.7018 360.56 106.311 353.485 116.68 343.859C127.001 334.318 134.24 322.768 136.514 312.442L144.705 314.295C141.996 326.604 133.672 339.502 122.508 349.823Z" fill="#DFBAAA"/>
<path fill-rule="evenodd" clip-rule="evenodd" d="M112.225 357.965C102.929 364.277 92.2418 368.986 81.4229 370.678L80.0077 362.607C89.7592 361.175 99.0086 357.13 107.296 351.409L112.225 357.965Z" fill="#A6D669"/>
<path d="M63.9471 369.143C69.5297 358.647 82.5557 354.773 88.3709 356.023L100.583 447.867L53.4798 451.616C52.8982 427.874 58.3645 379.64 63.9471 369.143Z" fill="#689332"/>
<path fill-rule="evenodd" clip-rule="evenodd" d="M112.146 393.013C96.6436 392.509 82.7976 389.414 69.9057 380.167L71.5294 371.549C83.0759 379.993 97.4707 383.93 111.986 384.344C126.407 384.786 139.937 381.494 148.898 375.491L153.714 382.832C143.033 389.988 127.744 393.49 112.146 393.013Z" fill="#DFBAAA"/>
<path fill-rule="evenodd" clip-rule="evenodd" d="M69.7822 375.408L71.0146 370.955C79.4276 377.26 89.3179 381.165 99.6834 383.042L98.6922 392.092C88.3393 390.26 78.523 386.654 69.1766 380.937L69.7822 375.408Z" fill="#A6D669"/>
<path d="M67.0636 327.477C57.1637 325.337 51.342 325.227 61.692 355.173C59.3431 354.071 75.31 363.256 69.7845 353.736C64.259 344.215 59.3829 327.896 67.0636 327.477Z" fill="#6E604F"/>
<path d="M63.3104 339.743C65.9765 346.764 73.1378 350.474 79.3056 348.03C85.4734 345.586 88.312 337.913 85.6458 330.892C82.9797 323.871 75.8184 320.161 69.6506 322.605C63.4829 325.05 60.6442 332.723 63.3104 339.743Z" fill="#6F604F"/>
<ellipse rx="10.7255" ry="13.8183" transform="matrix(-0.92966 0.36842 0.355015 0.934861 77.7027 337.517)" fill="#DFBAAA"/>
<path d="M76.8477 329.247C80.5521 328.826 83.3686 326.771 83.1385 324.657C82.9084 322.543 79.7188 321.17 76.0144 321.591C72.3099 322.011 69.4934 324.066 69.7235 326.181C69.9536 328.295 73.1432 329.668 76.8477 329.247Z" fill="#6F604F"/>
<path d="M83.6692 332.885C84.2457 334.403 86.4359 336.883 87.459 337.933L82.5752 339.868" stroke="black" stroke-width="2.25"/>
<path d="M90.4175 340.791C86.7704 346.599 84.3545 345.375 80.2429 344.823" stroke="black" stroke-width="2.25"/>
<path d="M76.2004 310.759C76.2004 309.979 76.2971 309.358 76.4905 308.896C76.6838 308.433 77.0647 307.926 77.6331 307.375C78.2073 306.818 78.5706 306.423 78.7229 306.188C78.9573 305.831 79.0745 305.444 79.0745 305.028C79.0745 304.478 78.9368 304.059 78.6614 303.771C78.3918 303.479 77.9934 303.332 77.4661 303.332C76.9622 303.332 76.5549 303.476 76.2444 303.763C75.9397 304.044 75.7874 304.428 75.7874 304.914H73.6516C73.6633 303.877 74.0149 303.057 74.7063 302.453C75.4036 301.85 76.3235 301.548 77.4661 301.548C78.6438 301.548 79.5608 301.847 80.217 302.444C80.8792 303.042 81.2102 303.877 81.2102 304.949C81.2102 305.904 80.7649 306.845 79.8743 307.771L78.7932 308.834C78.4065 309.273 78.2073 309.915 78.1956 310.759H76.2004ZM76.051 313.492C76.051 313.146 76.1594 312.868 76.3762 312.657C76.593 312.44 76.886 312.332 77.2551 312.332C77.6301 312.332 77.926 312.443 78.1428 312.666C78.3596 312.883 78.468 313.158 78.468 313.492C78.468 313.814 78.3625 314.084 78.1516 314.301C77.9407 314.518 77.6418 314.626 77.2551 314.626C76.8684 314.626 76.5696 314.518 76.3586 314.301C76.1536 314.084 76.051 313.814 76.051 313.492Z" fill="#2F80ED"/>
<path d="M381.479 592.14C406.814 591.787 332.882 586.277 407.095 567.252C428.945 561.651 495.699 548.026 558.536 565.139C548.351 567.284 437.023 616.129 437.023 616.129L420.243 615.677L394.162 618.175L406.501 619.066L381.166 619.42L394.162 618.175L369.397 616.386L381.479 592.14Z" fill="black" fill-opacity="0.1"/>
<rect x="164.144" y="134.57" width="280.642" height="482.478" rx="15" fill="#3C3C67"/>
<rect x="164.144" y="134.57" width="268.321" height="482.478" rx="15" fill="#565656"/>
<rect x="164.163" y="158.369" width="268.321" height="404.163" fill="#BDDEFF"/>
<path d="M164.051 309.283L164.143 267.427L432.413 556.128L432.327 595.034L164.051 309.283Z" fill="white" fill-opacity="0.15"/>
<path d="M163.815 364.536L163.909 339.304L424.935 617.182L401.746 617.271L163.815 364.536Z" fill="white" fill-opacity="0.15"/>
<path d="M282.592 134.875L292.828 134.875L432.354 282.327L432.354 293.299L282.592 134.875Z" fill="white" fill-opacity="0.15"/>
<path d="M164.828 545.725L164.828 533.838L239.438 616.213L228.997 616.213L164.828 545.725Z" fill="white" fill-opacity="0.15"/>
<ellipse cx="293.855" cy="588.031" rx="17.4546" ry="17.8307" fill="black"/>
<ellipse cx="297.278" cy="588.031" rx="17.4546" ry="17.8307" fill="#414141"/>
<rect x="272.997" y="488.412" width="58.8664" height="60.135" rx="7.5" fill="#BA7070"/>
<rect x="264.783" y="488.412" width="58.8664" height="60.135" rx="7.5" fill="#F0A4A4"/>
<rect x="195.65" y="195.43" width="58.8664" height="60.135" rx="7.5" fill="#F8CB2C"/>
<rect x="187.435" y="195.429" width="58.8664" height="60.135" rx="7.5" fill="#FCD858"/>
<rect x="324.334" y="347.165" width="58.8664" height="60.135" rx="7.5" fill="#9E8BE8"/>
<rect x="316.12" y="347.165" width="58.8664" height="60.135" rx="7.5" fill="#AF9DF2"/>
<path d="M386.704 338.525C392.615 342.112 386.704 338.525 404.522 333.182C422.447 338.97 418.686 358.562 411.411 358.562H392.314C388.649 358.562 380.794 334.938 386.704 338.525Z" fill="black"/>
<path d="M373.618 638.054C386.015 638.054 455.757 607.986 455.757 607.986L555.693 564.633L427.692 641.933L417.425 641.933L445.489 621.304L402.366 638.054L386.015 641.933L373.618 638.054Z" fill="black" fill-opacity="0.1"/>
<ellipse rx="12.0525" ry="14.4986" transform="matrix(0.997849 -0.0655489 0.0633926 0.997989 401.256 353.75)" fill="#BD8A5A"/>
<line y1="-3.75" x2="24.8536" y2="-3.75" transform="matrix(-0.0729551 0.997335 -0.997099 -0.0761152 382.012 604.232)" stroke="#BD8A5A" stroke-width="7.5"/>
<path d="M423.5 614.152L425.691 633.503" stroke="#BD8A5A" stroke-width="7.5"/>
<path d="M414.687 643.381L422.051 632.237L430.036 631.329L430.036 643.381L414.687 643.381Z" fill="#BD7433"/>
<path d="M383.227 483.777L399.282 484.456L389.733 620.88L379.699 620.456L383.227 483.777Z" fill="#1F3C5F"/>
<path d="M403.694 487.941L424.489 491.484C426.551 503.316 426.529 584.058 429.772 625.303C425.601 627.5 419.464 627.836 419.464 627.836C410.621 585.019 406.118 481.458 403.694 487.941Z" fill="#1F3C5F"/>
<path d="M371.564 640.362L380.178 627.934H388.213V640.362H371.564Z" fill="#BD7433"/>
<path fill-rule="evenodd" clip-rule="evenodd" d="M424.642 469.224V494.206L408.052 492.151L383.166 483.929V464.766L424.642 469.224Z" fill="#1F3C5F"/>
<ellipse rx="14.1722" ry="13.2111" transform="matrix(0.923426 0.383776 -0.337899 0.941183 403.404 349.302)" fill="black"/>
<path d="M408.514 386.482C417.519 392.742 404.641 379.84 436.47 406.061C440.503 409.384 452.957 418.889 436.47 437.527C429.048 445.918 418.439 450.463 418.439 450.463" stroke="#BD8A5A" stroke-width="9.75"/>
<rect width="29.8986" height="13.0634" transform="matrix(0.841495 0.531444 -0.573783 0.824727 410.767 379.074)" fill="white"/>
<path d="M420.159 387.134C414.473 377.016 401.42 375.624 395.497 376.828L382.606 466.722L431.519 470.44C432.112 447.552 425.845 397.253 420.159 387.134Z" fill="white"/>
<path d="M396.429 382.163C389.098 392.112 372.663 412.667 367.34 412.792C362.017 412.917 353.686 389.271 354.879 384.728C355.833 381.094 358.475 374.802 359.676 372.11" stroke="#BD8A5A" stroke-width="9.75"/>
<rect width="23.4684" height="10.5831" transform="matrix(-0.669386 0.744699 -0.668882 -0.741627 402.431 384.623)" fill="white"/>
<path d="M364.782 4.53666C383.774 -0.822853 387.857 10.5244 385.331 31.5198L357.952 39.3173C353.3 23.0774 348.448 8.73528 364.782 4.53666Z" fill="#C69378"/>
<ellipse rx="11.1942" ry="13.4925" transform="matrix(0.966347 -0.257241 0.247172 0.968972 367.397 21.37)" fill="#EBC9A9"/>
<path fill-rule="evenodd" clip-rule="evenodd" d="M389.341 70.687C389.341 70.6115 389.341 70.536 389.341 70.4606C389.341 38.085 381 38.085 370.71 38.085C357.257 39.546 352.911 48.9192 352.192 76.9164L352.079 76.936V125.499L374.436 131.975L389.341 133.593V70.687Z" fill="#2B2B2B"/>
<path fill-rule="evenodd" clip-rule="evenodd" d="M389.341 111.76V135.187L374.436 133.257L352.079 125.536V107.736L389.341 111.76Z" fill="#BD7433"/>
<path d="M358.485 31.7207C364.846 34.0163 366.173 31.6686 369.302 28.8411" stroke="black" stroke-width="1.9395"/>
<path d="M359.709 21.4214C360.09 22.9156 359.619 26.0993 359.335 27.5044L364.744 26.0646" stroke="black" stroke-width="1.9395"/>
<line x1="305.727" y1="183.909" x2="305.727" y2="207.07" stroke="#EBC9A9" stroke-width="5.54142"/>
<path d="M288.051 220.58L302.956 207.069H310.409V218.65L288.051 220.58Z" fill="white"/>
<line y1="-2.77071" x2="23.1359" y2="-2.77071" transform="matrix(0.17137 0.985207 -0.983021 0.183496 329.93 191.097)" stroke="#EBC9A9" stroke-width="5.54142"/>
<path d="M322.062 223.347L332.904 208.192L340.238 206.823L343.245 215.94L322.062 223.347Z" fill="white"/>
<path fill-rule="evenodd" clip-rule="evenodd" d="M332.758 139.073C339.769 135.418 349.18 131.832 362.009 127.368L356.801 112.029C343.997 116.485 333.582 120.401 325.424 124.653C317.189 128.945 310.641 133.885 306.1 140.715C301.539 147.575 299.554 155.51 298.921 164.755C298.297 173.88 298.959 184.897 300.162 198.285L311.514 197.087C311.514 183.909 312.16 173.641 312.687 165.939C313.206 158.356 314.929 152.85 317.378 149.167C319.846 145.455 325.823 142.687 332.758 139.073Z" fill="#BD7433"/>
<path fill-rule="evenodd" clip-rule="evenodd" d="M360.903 143.864C367.914 140.209 376.152 139.255 388.981 134.79L384.946 116.82C372.142 121.276 361.727 125.192 353.569 129.444C345.334 133.736 338.786 138.676 334.245 145.507C329.684 152.366 327.699 160.301 327.066 169.546C326.442 178.671 327.104 189.688 328.306 203.076L339.659 201.878C339.659 188.7 340.305 178.432 340.832 170.73C341.351 163.147 343.074 157.641 345.523 153.958C347.991 150.246 353.968 147.478 360.903 143.864Z" fill="#BD7433"/>
<ellipse rx="10.4023" ry="3.93182" transform="matrix(0.936871 0.349676 -0.336767 0.941588 369.716 12.1716)" fill="#C69378"/>
<path fill-rule="evenodd" clip-rule="evenodd" d="M343.67 87.9942C354.205 77.1366 362.928 62.4268 365.917 47.1639L358.103 45.3243C355.531 59.1081 348.017 71.6394 338.114 81.7645C328.296 91.8443 316.66 98.6853 306.455 100.516L307.879 108.963C320.044 106.78 333.049 98.8971 343.67 87.9942Z" fill="#DFBAAA"/>
<path fill-rule="evenodd" clip-rule="evenodd" d="M352.118 77.8874C358.729 68.7004 363.84 58.0187 366.006 47.0594L358.181 45.2334C356.319 55.1157 351.927 64.362 345.941 72.5477L352.118 77.8874Z" fill="#2A2A2A"/>
<path d="M277.099 76.2656L308.059 76.2906L319 111.253L288.246 111.228L277.099 76.2656Z" fill="#AEAEAE"/>
<rect x="288.775" y="108.268" width="57.0972" height="2.99685" fill="#AEAEAE"/>
<path fill-rule="evenodd" clip-rule="evenodd" d="M367.515 90.2999C377.627 78.2848 384.75 65.7674 386.788 49.8105L379.472 45.2102C377.763 59.6106 370.878 73.1112 361.368 84.322C351.943 95.4794 340.424 103.444 330.038 106.136L332.081 114.723C344.462 111.515 357.32 102.368 367.515 90.2999Z" fill="#DFBAAA"/>
<path fill-rule="evenodd" clip-rule="evenodd" d="M383.435 46.5002L379.391 44.4207C378.257 55.0172 374.391 65.1036 368.741 74.1778L375.941 79.5475C381.615 70.5133 385.646 60.6848 387.836 49.783L383.435 46.5002Z" fill="#2A2A2A"/>
<path d="M334.665 17.5024L343.673 20.9522" stroke="#2F80ED" stroke-width="2.25"/>
<path d="M333.917 31.3037L343.382 29.5465" stroke="#2F80ED" stroke-width="2.25"/>
<path d="M260.881 618.549C280.593 613.596 297.956 610.017 309.051 610.363C325.623 610.878 339.413 604.906 323.649 610.362C323.649 610.362 323.516 610.427 323.262 610.548C320.608 612.668 385.292 612.267 374.301 618.22L247.321 657.632L301.745 627.522L180.228 642.962L164.157 642.462C190.941 638.076 227.295 627.093 258.344 619.191L260.139 618.22C260.385 618.333 260.633 618.442 260.881 618.549Z" fill="black" fill-opacity="0.1"/>
<ellipse rx="12.5924" ry="14.2351" transform="matrix(-0.995168 -0.0950053 -0.111423 0.994111 219.113 450.641)" fill="#885C28"/>
<path fill-rule="evenodd" clip-rule="evenodd" d="M252.663 518.427C235.182 509.43 218.622 495.012 209.215 477.621L218.568 472.245C226.9 488.002 241.115 500.25 257.516 508.61C273.792 516.948 291.217 520.611 304.978 518.747L306.234 529.607C289.831 531.83 270.268 527.446 252.663 518.427Z" fill="#885C28"/>
<path fill-rule="evenodd" clip-rule="evenodd" d="M217.67 472.761L218.568 472.245C224.525 483.511 233.489 492.984 244.11 500.523L238.137 509.508C227.694 501.97 218.335 492.529 211.653 481.811L217.67 472.761Z" fill="#F5980C"/>
<line y1="-2.77071" x2="23.1561" y2="-2.77071" transform="matrix(-0.0331673 0.999624 0.99922 0.0345981 250.696 628.343)" stroke="#885C28" stroke-width="5.54142"/>
<path d="M266.004 660.522L250.947 647.189L243.495 647.278L243.626 658.857L266.004 660.522Z" fill="#135FC5"/>
<path d="M145.199 635.283L123.257 629.496" stroke="#885C28" stroke-width="5.54142"/>
<path d="M110.112 639.859L127.374 633.425L130.697 626.607L122.957 621.126L110.112 639.859Z" fill="#135FC5"/>
<path d="M213.066 565.95L197.235 561.45C194.489 589.88 196.835 600.627 196.372 629.283C176.917 638.535 163.065 634.597 139.978 628.033L136.815 639.374C153.306 644.062 177.624 648.642 204.09 639.049C207.522 623.723 210.441 592.047 213.066 565.95Z" fill="black"/>
<path d="M192.084 552.517L187.162 575.178C197.674 579.183 237.966 577.611 243.714 578.145C249.461 578.678 244.718 609.014 243.195 640.13L252.637 639.638C255.614 608.037 258.296 571.478 253.043 568.19C230.785 560.306 185.68 557.056 192.084 552.517Z" fill="black"/>
<path d="M226.833 515.004L190.533 506.41C190.533 506.41 179.299 554.577 177.659 563.062C176.018 571.548 181.844 574.535 189.247 575.772L213.858 574.513L226.833 515.004Z" fill="black"/>
<path fill-rule="evenodd" clip-rule="evenodd" d="M191.064 498.132L191.063 498.132L178.963 555.043L194.421 556.945L218.385 556.15L225.493 522.72C225.519 522.598 225.545 522.476 225.571 522.354C225.628 522.086 225.685 521.819 225.741 521.553L227.693 512.372L227.569 512.324C232.535 485.175 230.015 475.131 216.726 470.696C206.269 468.376 197.791 466.494 191.064 498.132Z" fill="#F5980C"/>
<path d="M230.738 459.924C224.019 463.369 222.157 461.148 218.207 458.727" stroke="black" stroke-width="1.9395"/>
<path d="M222.458 427.124C211.594 428.09 208.163 432.013 205.224 443.105L234.382 447.368C234.96 435.345 231.969 431.226 222.458 427.124Z" fill="#232323"/>
<path d="M216.344 449.764C216.465 452.24 218.676 454.17 221.318 454.035C223.96 453.9 225.971 451.754 225.849 449.278C225.728 446.801 223.517 444.872 220.875 445.007C218.233 445.142 216.222 447.288 216.344 449.764Z" fill="white" fill-opacity="0.2" stroke="#B4A572" stroke-width="0.75"/>
<path d="M227.436 452.348C227.551 454.685 229.344 456.426 231.367 456.322C233.391 456.219 235.005 454.304 234.891 451.967C234.776 449.63 232.983 447.889 230.959 447.993C228.935 448.096 227.322 450.011 227.436 452.348Z" fill="white" fill-opacity="0.2" stroke="#B4A572" stroke-width="0.75"/>
<path d="M227.694 449.418C227.513 451.035 228.558 454.268 229.103 455.682L222.837 455.084" stroke="black" stroke-width="1.9395"/>
</svg>
