<svg width="603" height="347" viewBox="0 0 603 347" fill="none" xmlns="http://www.w3.org/2000/svg">
<g opacity="0.3">
<path d="M443.132 154.886C423.365 154.886 403.717 161.78 389.74 173.619C380.933 181.079 374.451 190.444 370.856 200.539C362.215 201.92 354.054 205.492 347.832 210.763C339.721 217.633 335 227.285 335 237.001C335 246.716 339.721 256.372 347.832 263.241C355.942 270.111 367.342 274.11 378.812 274.11H575.035C582.356 274.11 589.634 271.559 594.811 267.174C599.988 262.789 603 256.624 603 250.423C603 244.222 599.988 238.061 594.811 233.676C589.665 229.318 582.445 226.774 575.169 226.742C573.75 215.507 567.74 204.692 558.299 196.696C547.428 187.487 532.148 182.126 516.774 182.126C513.041 182.126 509.317 182.45 505.657 183.06C502.979 179.675 499.929 176.503 496.525 173.619C482.547 161.78 462.9 154.886 443.132 154.886Z" fill="#E0F0FF"/>
</g>
<g opacity="0.3">
<path d="M144.358 125.663C162.208 125.663 179.949 131.889 192.571 142.581C200.523 149.317 206.376 157.775 209.623 166.892C217.425 168.139 224.794 171.365 230.413 176.125C237.737 182.329 242 191.046 242 199.82C242 208.593 237.737 217.313 230.413 223.517C223.089 229.721 212.796 233.333 202.438 233.333H25.2523C18.6413 233.333 12.0696 231.028 7.39491 227.069C2.72015 223.109 3.05176e-05 217.542 3.05176e-05 211.941C3.05176e-05 206.341 2.72015 200.777 7.39491 196.817C12.0408 192.881 18.5609 190.584 25.1306 190.556C26.4126 180.409 31.8392 170.643 40.3641 163.421C50.1809 155.105 63.9779 150.263 77.8609 150.263C81.2315 150.263 84.5947 150.556 87.8994 151.107C90.3177 148.05 93.0716 145.185 96.1458 142.581C108.767 131.889 126.509 125.663 144.358 125.663Z" fill="#E0F0FF"/>
</g>
<g opacity="0.1">
<path d="M256.604 51.1858C266.461 42.8409 280.317 37.9814 294.257 37.9814C308.198 37.9814 322.054 42.8409 331.911 51.1858C334.312 53.2182 336.463 55.4542 338.351 57.8401C340.932 57.4099 343.559 57.1814 346.191 57.1814C357.034 57.1814 367.809 60.9606 375.476 67.4511C382.134 73.0874 386.372 80.7099 387.373 88.6292C392.504 88.6513 397.596 90.4445 401.225 93.5163C404.876 96.607 407 100.95 407 105.321C407 109.691 404.876 114.037 401.225 117.127C397.574 120.218 392.441 122.016 387.278 122.016C367.519 129.344 314.5 152.501 248.897 122.016C240.808 122.016 232.769 119.197 227.049 114.355C221.33 109.513 218 102.708 218 95.8597C218 89.0119 221.33 82.2083 227.049 77.3663C231.438 73.6514 237.193 71.1336 243.286 70.1598C245.822 63.0442 250.393 56.4434 256.604 51.1858Z" fill="#E0F0FF"/>
</g>
<path d="M158.8 118.999C156.067 113.666 146.84 102.999 131.8 102.999H125.8L116.8 199.199C114.067 210.866 113.24 234.559 131.8 235.999C139.467 237.266 158 239.039 170.8 235.999C183.133 233.666 199.8 230.199 195.2 219.799C192.546 213.799 183.48 207.439 180.6 193.999C175.667 173.599 164.4 130.039 158.8 118.999Z" fill="#EF5D5D"/>
<path d="M116.705 93.3762L119.8 88.2389L122.895 93.3762H116.705Z" stroke="#D5C960" stroke-width="1.2"/>
<path d="M178.51 282.251C193.44 279.362 206.563 277.391 214.852 278.059C227.23 279.057 228.647 282.274 216.653 285.679C211.526 287.135 214.252 285.479 205.574 289.538C205.574 289.538 200.531 290.773 193.876 291.32L155.873 297.108L143.698 297.108L167.952 290.097L117.283 297.108L105.278 296.139C125.476 293.93 153.076 287.249 176.593 282.625L177.972 281.981C178.151 282.073 178.33 282.163 178.51 282.251Z" fill="black" fill-opacity="0.1"/>
<path d="M345.957 321.639C365.395 319.113 382.495 317.463 393.344 318.338C409.546 319.644 411.477 322.902 395.888 326.018C389.223 327.349 392.745 325.758 381.504 329.61C381.504 329.61 374.945 330.723 366.262 331.106L316.742 335.965L300.831 335.664L332.353 329.239L266.312 335.01L250.6 333.743C276.94 332.029 312.842 326.018 343.461 321.966L345.246 321.355C345.483 321.451 345.72 321.546 345.957 321.639Z" fill="black" fill-opacity="0.1"/>
<ellipse rx="9.0271" ry="10.632" transform="matrix(0.997939 -0.0641719 0.064753 0.997901 128.699 85.798)" fill="#885C28"/>
<line x1="122.045" y1="203.695" x2="115.971" y2="287.86" stroke="#885C28" stroke-width="6.10501"/>
<path d="M141 208.275L152.632 289.226" stroke="#885C28" stroke-width="6.10501"/>
<path d="M139.07 300.549L149.773 288.576L155.749 287.868L156.82 296.918L139.07 300.549Z" fill="black"/>
<path d="M100.874 298.501L112.911 287.869H118.929V296.982L100.874 298.501Z" fill="black"/>
<path fill-rule="evenodd" clip-rule="evenodd" d="M146.216 170.471V188.789L133.789 187.282L115.149 181.254V167.202L146.216 170.471Z" fill="#1F3C5F"/>
<path d="M120.085 92.4414C124.786 95.1831 126.189 93.5709 129.093 91.8621" stroke="black" stroke-width="2.13675"/>
<path d="M122.595 84.6701C122.674 85.8826 121.824 88.271 121.389 89.3136L125.893 89.024" stroke="black" stroke-width="2.13675"/>
<path d="M118.571 80.33L138.295 80.4944C138.048 76.676 135.742 69.1561 128.494 69.6241C121.246 70.0921 118.859 76.9564 118.571 80.33Z" fill="white"/>
<path fill-rule="evenodd" clip-rule="evenodd" d="M122.635 79.0657L136.372 81.4261C136.26 80.2985 135.984 79.1047 135.449 77.9637C134.597 76.062 133.175 74.6452 130.609 74.3946C127.851 74.1252 125.874 75.173 124.422 76.6636C123.652 77.428 123.07 78.2537 122.635 79.0657Z" fill="black"/>
<path fill-rule="evenodd" clip-rule="evenodd" d="M141.187 84.53C141.382 82.4362 141.135 78.9148 139.867 75.9895C138.466 72.8655 135.737 70.0323 131.073 69.5768C126.602 69.1402 123.238 70.9348 120.951 73.284C118.81 75.5369 117.458 78.5233 116.988 80.3627L116.988 83.3395C123.655 80.4285 131.09 80.963 138.795 85.5916C139.747 86.1637 141.01 85.6259 141.187 84.53ZM122.635 79.0657L136.372 81.4261C136.26 80.2985 135.984 79.1047 135.449 77.9637C134.597 76.062 133.175 74.6452 130.609 74.3946C127.851 74.1252 125.874 75.173 124.422 76.6636C123.652 77.428 123.07 78.2537 122.635 79.0657Z" fill="black"/>
<path d="M150.442 76.9162C150.442 79.5893 155.54 83.8332 152.865 83.8332C152.865 87.9162 140.758 79.5893 140.758 76.9162C140.758 74.2431 142.926 72.0762 145.6 72.0762C148.275 72.0762 150.442 74.2431 150.442 76.9162Z" fill="black"/>
<mask id="mask0" mask-type="alpha" maskUnits="userSpaceOnUse" x="97" y="104" width="35" height="61">
<path d="M129.423 107.341C120.664 112.666 102.27 125.363 100.956 132.326C99.6426 139.289 114.533 160.588 118.037 160.998C120.84 161.326 125.92 160.588 128.11 160.179" stroke="#F7D4BB" stroke-width="6.71736"/>
</mask>
<g mask="url(#mask0)">
<path d="M129.423 107.341C120.664 112.666 102.27 125.363 100.956 132.326C99.6426 139.289 114.533 160.588 118.037 160.998C120.84 161.326 125.92 160.588 128.11 160.179" stroke="#885C28" stroke-width="6.71736"/>
<rect width="30.3544" height="17.6396" transform="matrix(-0.819415 0.573201 0.624567 0.780971 131.368 95.5498)" fill="#FFBCBC"/>
</g>
<path d="M142.858 110.28C138.599 102.86 126.822 101.839 122.385 102.722L110 208.202L148.639 210.928C149.082 194.146 147.117 117.699 142.858 110.28Z" fill="#FFBCBC"/>
<path d="M137.22 129.855C136.574 134.771 132.86 137.834 129.399 137.38C125.938 136.925 123.141 133.007 123.787 128.091C124.432 123.175 128.146 120.111 131.607 120.565C135.068 121.02 137.865 124.938 137.22 129.855Z" stroke="#BA7070" stroke-width="3"/>
<path d="M131.459 120.524L130.328 129.136M129.197 137.748L130.328 129.136M130.328 129.136L134.595 135.474M130.328 129.136L124.721 134.178" stroke="#BA7070" stroke-width="3"/>
<path d="M131.534 134.053C132.57 132.102 134.992 131.361 136.943 132.398L163.706 146.623C165.656 147.659 166.397 150.081 165.36 152.032L156.688 168.348C155.651 170.299 153.229 171.04 151.279 170.003L124.516 155.778C122.565 154.741 121.825 152.319 122.861 150.369L131.534 134.053Z" fill="#D7D7D7"/>
<path d="M145.453 149.692C146.091 149.117 145.34 149.207 145.163 149.282C144.653 149.736 144.625 150.037 144.559 150.159C144.364 149.999 144.815 150.268 145.453 149.692Z" fill="white" fill-opacity="0.5"/>
<path d="M124.343 147.599L160.422 144.88L157.5 143.327L125.373 145.66L124.343 147.599Z" fill="white" fill-opacity="0.7"/>
<path d="M126.791 142.98L153.095 140.999L152.023 140.429L127.218 142.176L126.791 142.98Z" fill="white" fill-opacity="0.85"/>
<path d="M150.661 169.657L156.133 169.392L156.454 168.788L149.559 169.071L150.661 169.657Z" fill="white" fill-opacity="0.85"/>
<path d="M145.764 152.307C145.682 152.807 145.425 153.261 145.039 153.589C144.653 153.916 144.162 154.096 143.656 154.095C143.15 154.094 142.66 153.913 142.275 153.584C141.89 153.255 141.634 152.8 141.554 152.3C141.474 151.8 141.574 151.288 141.837 150.855C142.1 150.422 142.508 150.097 142.989 149.938C143.469 149.779 143.991 149.795 144.46 149.986C144.93 150.176 145.316 150.527 145.55 150.976C144.87 151.211 144.861 151.828 144.861 151.828C144.861 151.828 145.313 152.282 145.764 152.307Z" fill="white" fill-opacity="0.5"/>
<mask id="mask1" mask-type="alpha" maskUnits="userSpaceOnUse" x="123" y="105" width="40" height="63">
<path d="M135.703 107.877C143.527 115.29 159.61 132.381 159.372 139.692C159.135 147.002 138.886 164.918 135.175 164.507C132.206 164.177 127.13 162.242 124.963 161.315" stroke="#F7D4BB" stroke-width="6.71736"/>
</mask>
<g mask="url(#mask1)">
<path d="M135.703 107.877C143.527 115.29 159.61 132.381 159.372 139.692C159.135 147.002 138.886 164.918 135.175 164.507C132.206 164.177 127.13 162.242 124.963 161.315" stroke="#885C28" stroke-width="6.71736"/>
<rect width="31.8674" height="18.3821" transform="matrix(0.680807 0.732463 -0.790329 0.612683 136.394 95.5605)" fill="#FFBCBC"/>
</g>
<path d="M133.505 93.3762L136.6 88.2389L139.695 93.3762H133.505Z" stroke="#D5C960" stroke-width="1.2"/>
<path d="M122.2 105.368C123.924 105.721 125.694 105.882 127.4 105.907C131.752 105.97 135.689 105.151 137.4 104.4" stroke="#EF5D5D" stroke-width="2.4"/>
<path d="M122.6 110.199C123.4 107.599 126.2 107.359 126.2 104.799C126.2 106.332 125.812 108.439 124.262 110.199H122.6Z" fill="#EF5D5D"/>
<path d="M129.8 109.799C128.733 109.022 126 107.255 126 105.599C126 106.591 126.345 108.86 127.723 109.999L129.8 109.799Z" fill="#EF5D5D"/>
<path d="M408.105 114.999C410.833 109.666 420.041 98.999 435.05 98.999H441.037L450.019 195.2C452.747 206.867 453.571 230.56 435.05 232C427.399 233.267 408.904 235.041 396.13 232C383.822 229.667 367.19 226.2 371.78 215.8C374.429 209.8 383.476 203.44 386.35 190C391.274 169.6 402.517 126.039 408.105 114.999Z" fill="#EF5D5D"/>
<path d="M489.595 277.333C503.975 273.37 516.732 270.417 525.332 270.14C538.103 269.729 539.924 272.852 528.057 277.719C522.983 279.8 525.579 277.793 517.177 282.944L452.97 302.398L443.273 300.392L478.779 287.866L427.79 300.89L418.961 297.162C436.652 293.177 458.686 286.225 478.893 280.367C468.884 279.081 459.563 277.163 454.778 274.304L457.02 272.338C464.618 275.189 477.153 276.632 489.595 277.333Z" fill="black" fill-opacity="0.1"/>
<ellipse rx="10.07" ry="11.9208" transform="matrix(-0.792654 0.609672 0.609902 0.792477 433.627 85.2036)" fill="#C69378"/>
<path fill-rule="evenodd" clip-rule="evenodd" d="M423.326 88.3159L437.592 74.3045C433.558 70.817 428.041 70.167 424.282 73.0577C419.966 76.3778 419.57 83.1376 423.326 88.3159Z" fill="#1F3C5F"/>
<line y1="-1.54929" x2="20.4242" y2="-1.54929" transform="matrix(-0.174888 0.984588 0.9837 0.179815 423.661 281.983)" stroke="#C69378" stroke-width="3.09857"/>
<line y1="-1.54929" x2="20.4334" y2="-1.54929" transform="matrix(0 1 1 0 451.496 272.036)" stroke="#C69378" stroke-width="3.09857"/>
<path d="M454.854 173.275H441.426L444.783 285.659H453.176L454.854 173.275Z" fill="#1F3C5F"/>
<path d="M438.069 176.682L421.284 180.087C421.284 180.087 421.284 253.307 414.57 289.065C418.425 290.099 424.641 290.768 424.641 290.768C429.677 258.415 438.069 176.682 438.069 176.682Z" fill="#1F3C5F"/>
<path d="M464.925 304.39L451.497 292.471H444.783V302.687L464.925 304.39Z" fill="#9E8BE8"/>
<path d="M430.751 310.437L420.983 297.066L414.375 295.858L411.667 303.902L430.751 310.437Z" fill="#9E8BE8"/>
<path fill-rule="evenodd" clip-rule="evenodd" d="M421.058 132.337C421.058 132.263 421.058 132.19 421.058 132.117C421.058 98.0615 428.573 98.0615 437.843 98.0615C449.963 99.5984 453.879 109.458 454.527 138.908L454.629 138.929V190.012L434.486 196.823L421.058 198.526V132.337Z" fill="#9E8BE8"/>
<path fill-rule="evenodd" clip-rule="evenodd" d="M421.058 182.153V200.602L434.486 198.9L454.629 192.088V178.604L421.058 182.153Z" fill="#1F3C5F"/>
<path d="M445.437 67.5254L423.568 88.6428" stroke="#1F3C5F" stroke-width="1.54929"/>
<path d="M445.764 84.4629C443.85 90.2317 441.481 89.9054 437.782 90.6023" stroke="black" stroke-width="2.14"/>
<path d="M437.91 79.7615C438.741 80.8412 441.22 82.2283 442.356 82.787L438.365 85.8567" stroke="black" stroke-width="2.14"/>
<path fill-rule="evenodd" clip-rule="evenodd" d="M471.128 79.0884C465.916 93.8276 456.474 108.478 444.078 117.874L439.08 111.177C450.329 102.814 458.336 90.2526 463.164 76.4334C467.987 62.7143 469.128 48.641 466.393 38.0823L474.573 35.8314C477.833 48.4176 476.345 64.249 471.128 79.0884Z" fill="#C69378"/>
<path fill-rule="evenodd" clip-rule="evenodd" d="M458.26 87.8734L465.693 91.5033C460.315 101.723 452.954 111.146 444.079 117.874L439.081 111.177C447.123 105.197 453.509 97.0711 458.26 87.8734Z" fill="#9E8BE8"/>
<mask id="mask2" mask-type="alpha" maskUnits="userSpaceOnUse" x="390" y="110" width="41" height="49">
<path d="M426.121 113.34C401.698 125.388 391.837 133.312 394.649 140.896C397.46 148.481 421.513 147.858 423.223 150.32C424.594 152.292 426.514 155.727 427.327 156.985" stroke="#F4CB8F" stroke-width="6.8927"/>
</mask>
<g mask="url(#mask2)">
<path d="M425.975 112.881C402.8 127.697 391.691 132.853 394.502 140.438C397.996 149.861 421.366 147.399 423.077 149.861C424.448 151.833 426.368 155.268 427.181 156.526" stroke="#C69378" stroke-width="6.8927"/>
<rect width="22.6772" height="23.9781" transform="matrix(0.952522 -0.30447 -0.30447 -0.952522 413.148 128.137)" fill="#9E8BE8"/>
</g>
<path d="M441.535 98.3886C439.889 99.1862 438.148 99.798 436.436 100.255C432.068 101.42 427.892 101.577 425.976 101.241" stroke="#EF5D5D" stroke-width="2.39077"/>
<path d="M443.094 104.739C441.367 101.617 438.181 102.089 437.354 98.7952C437.849 100.768 438.96 103.37 441.25 105.202L443.094 104.739Z" fill="#EF5D5D"/>
<path d="M436 107.798C436.83 106.792 436 101.198 437.548 99.5685C437.789 100.527 439.07 106.063 438.031 107.493L436 107.798Z" fill="#EF5D5D"/>
<path d="M298.073 135.663C295.34 130.33 289.64 125.405 274.6 125.405L264.6 129.395L256.073 215.863C253.34 227.53 250.64 251.803 269.2 253.243C276.866 254.51 295.8 255.364 310.073 252.663C322.406 250.33 339.073 246.863 334.473 236.463C331.819 230.463 322.753 224.103 319.873 210.663C314.94 190.263 303.673 146.703 298.073 135.663Z" fill="#EF5D5D"/>
<path d="M254.158 140.307C256.801 135.159 265.724 124.863 280.269 124.863L286.4 126.776L294.775 217.721C297.418 228.983 300.6 254.057 283 253.994C272.6 253.994 277 254.863 242.553 253.243C230.626 250.991 214.508 247.645 218.956 237.606C221.523 231.814 230.29 225.675 233.076 212.702C237.847 193.011 248.742 150.964 254.158 140.307Z" fill="#EF5D5D"/>
<path d="M266.8 91.2627C271.725 94.2517 265.783 91.1762 280.631 86.7236C295.567 91.5472 292.433 107.873 286.371 107.873H270.458C267.403 107.873 261.874 88.2737 266.8 91.2627Z" fill="black"/>
<line y1="-2" x2="20.7104" y2="-2" transform="matrix(-0.0729551 0.997335 -0.997099 -0.0761152 261.874 308.59)" stroke="#F8DCCD" stroke-width="4"/>
<path d="M296.445 316.855L298.271 332.98" stroke="#F8DCCD" stroke-width="4"/>
<path d="M289.101 341.212L295.237 331.926L301.891 331.169L301.891 341.212L289.101 341.212Z" fill="#AB8E28"/>
<path d="M262.885 208.215L276.263 208.781L268.306 322.462L259.944 322.108L262.885 208.215Z" fill="#7EB9F0"/>
<path d="M279.941 211.684L297.269 214.636C298.987 224.496 298.969 291.777 301.671 326.147C298.195 327.977 293.082 328.258 293.082 328.258C285.713 292.578 281.961 206.282 279.941 211.684Z" fill="#7EB9F0"/>
<path d="M253.167 338.696L260.345 328.34H267.04V338.696H253.167Z" fill="#AB8E28"/>
<path fill-rule="evenodd" clip-rule="evenodd" d="M297.397 196.087V216.905L283.572 215.192L262.835 208.341V192.372L297.397 196.087Z" fill="#7EB9F0"/>
<ellipse rx="11.8096" ry="11.0088" transform="matrix(0.923426 0.383776 -0.337899 0.941183 279.699 100.156)" fill="black"/>
<path d="M300.611 196.807C300.78 177.729 294.845 135.91 289.965 127.56C286.812 122.166 267.382 121.323 265.908 127.969C263.669 138.068 259.313 165.495 259.805 194.402L300.611 196.807Z" fill="white"/>
<ellipse rx="10.0433" ry="12.0816" transform="matrix(0.997849 -0.0655489 0.0633926 0.997989 277.909 103.862)" fill="#F8DCCD"/>
<path d="M268.2 125.065C269.2 127.065 274.494 126.639 276.2 126.664C280.552 126.727 285.4 126.865 286.2 124.665" stroke="#EF5D5D" stroke-width="2.4"/>
<path d="M273.8 131.663C274.6 128.967 277.4 128.718 277.4 126.063C277.4 127.654 277.012 129.838 275.461 131.663H273.8Z" fill="#EF5D5D"/>
<path d="M281 131.045C279.989 130.198 277.4 128.27 277.4 126.463C277.4 127.545 277.726 130.021 279.032 131.263L281 131.045Z" fill="#EF5D5D"/>
<mask id="mask3" mask-type="alpha" maskUnits="userSpaceOnUse" x="229" y="135" width="40" height="49">
<path d="M267.562 138.463C241.782 147.241 230.976 153.818 232.779 161.703C234.583 169.588 258.513 172.092 259.89 174.755C260.993 176.888 262.451 180.543 263.094 181.897" stroke="#F4CB8F" stroke-width="6.8927"/>
</mask>
<g mask="url(#mask3)">
<path d="M267.476 137.989C242.574 149.673 230.89 153.343 232.693 161.228C234.934 171.025 258.427 171.617 259.804 174.28C260.906 176.414 262.365 180.069 263.008 181.422" stroke="#F8DCCD" stroke-width="6.8927"/>
<rect width="22.6772" height="23.9781" transform="matrix(0.983979 -0.178284 -0.178284 -0.983979 252.778 151.453)" fill="white"/>
</g>
<mask id="mask4" mask-type="alpha" maskUnits="userSpaceOnUse" x="287" y="135" width="41" height="48">
<path d="M288.5 138.463C314.669 146.001 325.776 152.055 324.351 160.017C322.925 167.979 299.143 171.621 297.894 174.347C296.894 176.53 295.612 180.251 295.034 181.633" stroke="#F4CB8F" stroke-width="5.84259"/>
</mask>
<g mask="url(#mask4)">
<path d="M288.563 137.986C313.993 148.469 325.839 151.578 324.413 159.54C322.642 169.432 299.205 171.144 297.957 173.87C296.957 176.053 295.674 179.773 295.097 181.156" stroke="#F8DCCD" stroke-width="5.84259"/>
<rect x="303.886" y="150.732" width="22.6768" height="23.9777" transform="rotate(-172.464 303.886 150.732)" fill="white"/>
</g>
<path d="M288.621 84.0813C288.621 86.7668 289.689 92.726 283.19 92.726C280.775 92.726 276.181 93.2195 273.4 94.1421C270.619 95.0648 265.086 98.1958 265.086 96.508C263.6 91.8631 265.991 83.541 275.948 84.0812C285.905 84.6214 288.621 81.3958 288.621 84.0813Z" fill="black"/>
<path d="M273.8 109.627C278.501 112.369 279.904 110.756 282.808 109.048" stroke="black" stroke-width="2.13675"/>
<path d="M276.311 101.856C276.389 103.068 275.539 105.457 275.104 106.499L279.608 106.21" stroke="black" stroke-width="2.13675"/>
</svg>
