<svg width="251" height="223" viewBox="0 0 251 223" fill="none" xmlns="http://www.w3.org/2000/svg">
<rect width="250.003" height="222.999" fill="white"/>
<path opacity="0.3" d="M48.4486 122.192C2.32506 62.7649 -37.8801 -18.7046 66.6535 15.9404C171.187 50.5855 203.731 -95.436 247.237 130.875C274.007 239.314 94.5722 181.618 48.4486 122.192Z" fill="#BDAEF8"/>
<line y1="-2" x2="14.8511" y2="-2" transform="matrix(0.759757 0.650207 -0.61941 0.785068 161.876 194.938)" stroke="#DFBAAA" stroke-width="4"/>
<line x1="118.14" y1="198.979" x2="118.14" y2="214.15" stroke="#DFBAAA" stroke-width="4"/>
<path d="M110.63 131.646L120.208 130.543L120.95 209.093H114.935L110.63 131.646Z" fill="#F8CB2C"/>
<path d="M125.531 128.337L138.302 125.028C138.302 125.028 135.11 169.145 168.102 193.409L164.909 198.924C130.853 175.763 125.531 128.337 125.531 128.337Z" fill="#F8CB2C"/>
<path d="M106.515 222.999L116.139 214.149H120.952V221.735L106.515 222.999Z" fill="#0573E8"/>
<path d="M171.213 213.156L170.341 200.893L173.388 197.031L178.6 200.278L171.213 213.156Z" fill="#0573E8"/>
<path fill-rule="evenodd" clip-rule="evenodd" d="M110.628 116.217V131.646L121.696 130.375L138.299 125.29V113.567L110.628 116.217Z" fill="#F8CB2C"/>
<path fill-rule="evenodd" clip-rule="evenodd" d="M105.036 83.4017C112.568 75.9068 118.795 65.7425 120.912 55.1849L115.31 53.8974C113.489 63.4321 108.125 72.0909 101.045 79.0801C94.0259 86.0381 85.6991 90.7512 78.3894 91.9995L79.4238 97.8479C88.1371 96.3598 97.4436 90.9278 105.036 83.4017Z" fill="#DFBAAA"/>
<path fill-rule="evenodd" clip-rule="evenodd" d="M111.096 76.393C115.808 70.054 119.443 62.6821 120.974 55.1131L115.363 53.8342C114.048 60.6585 110.925 67.0394 106.66 72.686L111.096 76.393Z" fill="#1F3C5F"/>
<path d="M132.724 62.9686C128.73 55.7101 119.411 53.0314 115.251 53.8955L106.515 117.407L140.212 120C140.628 103.582 136.718 70.2271 132.724 62.9686Z" fill="#1F3C5F"/>
<path fill-rule="evenodd" clip-rule="evenodd" d="M114.514 87.1082C121.742 78.8145 126.826 70.1671 128.259 59.1293L123.006 55.9311C121.806 65.8925 116.894 75.2207 110.097 82.9591C103.36 90.6607 95.117 96.1488 87.676 97.9901L89.156 103.937C98.0258 101.742 107.227 95.4388 114.514 87.1082Z" fill="#DFBAAA"/>
<path fill-rule="evenodd" clip-rule="evenodd" d="M125.897 56.8634L122.938 55.3872C122.148 62.7024 119.407 69.6596 115.389 75.916L120.564 79.6486C124.602 73.4178 127.464 66.6347 129.007 59.1071L125.897 56.8634Z" fill="#1F3C5F"/>
<ellipse cx="119.013" cy="40.5581" rx="7.74579" ry="9.52587" fill="#DFBAAA"/>
<path d="M113.851 39.1982C113.851 40.2868 112.99 42.3733 112.56 43.2804H116.432" stroke="black" stroke-width="2"/>
<path d="M111.268 46.001C115.14 48.7224 116.431 47.3617 119.013 46.001" stroke="black" stroke-width="2"/>
<path d="M112.772 37.8937C112.772 41.1529 112.182 43.7951 109.668 43.7951C107.155 43.7951 105.117 41.1529 105.117 37.8937C105.117 34.6344 107.155 31.9922 109.668 31.9922C112.182 31.9922 112.772 34.6344 112.772 37.8937Z" fill="#0573E8"/>
<path fill-rule="evenodd" clip-rule="evenodd" d="M113.126 34.0437L124.572 34.1507C124.332 33.2161 123.951 32.2479 123.368 31.3597C122.426 29.874 121.087 28.8749 118.974 29.0152C116.702 29.1661 115.238 30.3198 114.257 31.7747C113.734 32.5244 113.371 33.2998 113.126 34.0437Z" fill="black"/>
<path fill-rule="evenodd" clip-rule="evenodd" d="M128.886 34.694C128.836 33.5268 128.102 31.3822 126.689 29.091C125.142 26.6503 122.555 24.6369 118.715 24.892C115.033 25.1365 112.543 27.1095 110.998 29.4025C109.56 31.5942 108.857 34.2958 108.719 35.9102L108.538 38.1325L110.685 38.1526L127.161 38.1471C128.113 38.1468 128.886 37.3728 128.886 36.4202C128.886 36.4202 128.936 35.8611 128.886 34.694ZM113.126 34.0437L124.572 34.1507C124.332 33.2161 123.951 32.2479 123.368 31.3597C122.426 29.874 121.087 28.8749 118.974 29.0152C116.702 29.1661 115.238 30.3198 114.257 31.7747C113.734 32.5244 113.371 33.2998 113.126 34.0437Z" fill="black"/>
<ellipse cx="124.795" cy="23.1326" rx="4.02106" ry="4.13166" fill="black"/>
<path d="M53.9424 74.7363L76.3236 74.7363L84.2145 98.9074L61.9831 98.9074L53.9424 74.7363Z" fill="black"/>
<rect x="62.3877" y="96.8555" width="41.3013" height="2.0711" fill="black"/>
<path d="M132.864 37.8927C132.864 41.152 130.829 43.7941 128.319 43.7941C125.809 43.7941 123.774 41.152 123.774 37.8927C123.774 34.6334 125.809 31.9912 128.319 31.9912C130.829 31.9912 132.864 34.6334 132.864 37.8927Z" fill="#0573E8"/>
<path d="M128.535 32.5172C128.628 31.0068 128.446 29.4909 128 28.0631C127.553 26.6354 126.852 25.3263 125.939 24.2167C125.026 23.1071 123.921 22.2207 122.692 21.6123C121.463 21.004 120.137 20.6866 118.795 20.6798C117.454 20.673 116.125 20.977 114.891 21.5729C113.658 22.1688 112.546 23.044 111.624 24.1443C110.703 25.2446 109.991 26.5466 109.533 27.9698C109.075 29.3929 108.881 30.907 108.962 32.4182L110.232 32.331C110.161 31.0158 110.33 29.6981 110.729 28.4595C111.127 27.2209 111.746 26.0878 112.549 25.1302C113.351 24.1726 114.319 23.4109 115.392 22.8923C116.466 22.3736 117.622 22.1091 118.79 22.115C119.957 22.1209 121.112 22.3971 122.181 22.9266C123.25 23.4561 124.212 24.2275 125.007 25.1932C125.801 26.1588 126.412 27.2982 126.8 28.5408C127.189 29.7833 127.347 31.1027 127.266 32.4171L128.535 32.5172Z" fill="#0573E8"/>
</svg>
