<svg width="212" height="204" viewBox="0 0 212 204" fill="none" xmlns="http://www.w3.org/2000/svg">
<path opacity="0.3" d="M41.1223 111.446C2.1991 60.5725 -31.6682 -9.2193 56.7535 20.2754C145.175 49.7701 173.028 -75.5415 209.389 118.474C231.827 211.426 80.0454 162.319 41.1223 111.446Z" fill="#BDAEF8"/>
<line y1="-2" x2="14.9524" y2="-2" transform="matrix(0.763528 0.645775 -0.623907 0.781499 145.893 175.923)" stroke="#DFBAAA" stroke-width="4"/>
<line x1="101.617" y1="179.963" x2="101.617" y2="195.134" stroke="#DFBAAA" stroke-width="4"/>
<path d="M94.043 112.636L103.734 111.533L104.485 190.077H98.3987L94.043 112.636Z" fill="#F8CB2C"/>
<path d="M109.119 109.328L122.041 106.02C122.041 106.02 118.81 150.133 152.191 174.395L148.961 179.909C114.503 156.75 109.119 109.328 109.119 109.328Z" fill="#F8CB2C"/>
<path d="M89.8789 203.982L99.617 195.133H104.486V202.718L89.8789 203.982Z" fill="#0573E8"/>
<path d="M155.339 194.14L154.457 181.878L157.54 178.016L162.814 181.262L155.339 194.14Z" fill="#0573E8"/>
<path fill-rule="evenodd" clip-rule="evenodd" d="M94.0401 97.2084V112.636L105.239 111.365L122.037 106.28V94.5586L94.0401 97.2084Z" fill="#F8CB2C"/>
<path fill-rule="evenodd" clip-rule="evenodd" d="M88.3624 64.3765C95.9886 56.8729 102.302 46.7071 104.466 36.159L98.81 34.8876C96.9483 44.4135 91.5092 53.0738 84.3412 60.0712C77.2343 67.0373 68.8122 71.765 61.4255 73.0303L62.4565 78.8678C71.2616 77.3595 80.6752 71.9114 88.3624 64.3765Z" fill="#DFBAAA"/>
<path fill-rule="evenodd" clip-rule="evenodd" d="M94.4758 57.392C99.2614 51.0428 102.961 43.6604 104.529 36.0862L98.8648 34.8242C97.517 41.6542 94.3377 48.0446 90.0044 53.7018L94.4758 57.392Z" fill="#1F3C5F"/>
<path d="M116.397 43.964C112.356 36.7061 102.927 34.0275 98.7182 34.8916L89.8789 98.3985L123.973 100.991C124.394 84.5739 120.438 51.2219 116.397 43.964Z" fill="#1F3C5F"/>
<path fill-rule="evenodd" clip-rule="evenodd" d="M97.9484 68.0805C105.268 59.777 110.423 51.1263 111.899 40.0986L106.603 36.9193C105.366 46.8714 100.382 56.2015 93.4991 63.9492C86.6764 71.66 78.3392 77.1644 70.8212 79.0245L72.3001 84.9594C81.2617 82.7422 90.5686 76.421 97.9484 68.0805Z" fill="#DFBAAA"/>
<path fill-rule="evenodd" clip-rule="evenodd" d="M109.479 37.8167L106.544 36.3752C105.723 43.6978 102.925 50.6679 98.8359 56.9387L104.048 60.6491C108.154 54.4056 111.072 47.6131 112.657 40.0789L109.479 37.8167Z" fill="#1F3C5F"/>
<ellipse cx="102.525" cy="21.5554" rx="7.83702" ry="9.52512" fill="#DFBAAA"/>
<path d="M97.3013 20.1953C97.3013 21.2839 96.4305 23.3704 95.9951 24.2775H99.9136" stroke="black" stroke-width="2"/>
<path d="M94.6875 26.998C98.606 29.7195 99.9122 28.3588 102.525 26.998" stroke="black" stroke-width="2"/>
<path d="M94.844 18.8917C94.844 22.151 94.254 24.7932 91.7388 24.7932C89.2236 24.7932 87.1846 22.151 87.1846 18.8917C87.1846 15.6324 89.2236 12.9902 91.7388 12.9902C94.254 12.9902 94.844 15.6324 94.844 18.8917Z" fill="#0573E8"/>
<path fill-rule="evenodd" clip-rule="evenodd" d="M96.5677 15.041L108.149 15.1481C107.907 14.2135 107.521 13.2454 106.93 12.3573C105.978 10.8718 104.623 9.87267 102.485 10.013C100.187 10.1638 98.7048 11.3175 97.713 12.7723C97.1833 13.5219 96.8165 14.2972 96.5677 15.041Z" fill="black"/>
<path fill-rule="evenodd" clip-rule="evenodd" d="M112.514 15.6913C112.463 14.5242 111.721 12.3798 110.29 10.0887C108.725 7.64829 106.109 5.63505 102.223 5.8901C98.4981 6.1346 95.9784 8.10747 94.4153 10.4003C92.9599 12.5918 92.2493 15.2932 92.1091 16.9074L91.9262 19.1296L94.0986 19.1496L110.788 19.1442C111.741 19.1439 112.514 18.3703 112.514 17.4174C112.514 17.4174 112.564 16.8584 112.514 15.6913ZM96.5677 15.041L108.149 15.1481C107.907 14.2135 107.521 13.2454 106.93 12.3573C105.978 10.8718 104.623 9.87267 102.485 10.013C100.187 10.1638 98.7048 11.3175 97.713 12.7723C97.1833 13.5219 96.8165 14.2972 96.5677 15.041Z" fill="black"/>
<ellipse cx="106.875" cy="4.13166" rx="4.02372" ry="4.13166" fill="black"/>
<path d="M35.9766 55.7314L58.3725 55.7314L66.2686 79.9006L44.0226 79.9006L35.9766 55.7314Z" fill="black"/>
<rect x="44.4277" y="77.8486" width="41.3286" height="2.0711" fill="black"/>
<path d="M114.95 18.8907C114.95 22.15 112.914 24.7922 110.402 24.7922C107.891 24.7922 105.854 22.15 105.854 18.8907C105.854 15.6314 107.891 12.9893 110.402 12.9893C112.914 12.9893 114.95 15.6314 114.95 18.8907Z" fill="#0573E8"/>
<path d="M110.618 13.5153C110.712 12.005 110.529 10.4892 110.082 9.06158C109.636 7.63396 108.934 6.32491 108.02 5.21542C107.107 4.10593 106.001 3.21961 104.772 2.61129C103.542 2.00297 102.215 1.68561 100.872 1.67882C99.5296 1.67204 98.2 1.97598 96.9657 2.57185C95.7314 3.16772 94.6187 4.04283 93.6964 5.14304C92.7741 6.24326 92.0618 7.54517 91.6036 8.96822C91.1455 10.3913 90.9512 11.9052 91.0328 13.4163L92.3032 13.3291C92.2322 12.014 92.4013 10.6964 92.8 9.45791C93.1988 8.21942 93.8186 7.08637 94.6213 6.12884C95.424 5.17132 96.3924 4.40971 97.4666 3.89112C98.5408 3.37253 99.698 3.10801 100.867 3.11391C102.035 3.11982 103.19 3.39602 104.26 3.92544C105.33 4.45487 106.292 5.22624 107.087 6.19183C107.883 7.15742 108.493 8.2967 108.882 9.53917C109.271 10.7816 109.43 12.1009 109.348 13.4152L110.618 13.5153Z" fill="#0573E8"/>
</svg>
