<svg width="250" height="219" viewBox="0 0 250 219" fill="none" xmlns="http://www.w3.org/2000/svg">
<path d="M36.2209 188.893C16.823 177.035 103.021 16.2177 127.519 7.10608C152.017 -2.00552 247.522 71.7069 238.185 114.164C228.847 156.621 177.9 95.2381 170.6 109.236C163.3 123.235 215.663 171.098 200.84 195.9C186.017 220.702 55.6188 200.751 36.2209 188.893Z" fill="#FFC6C6" fill-opacity="0.3"/>
<path d="M168.259 41.3309C175.627 40.8206 178.59 43.7825 180.783 57.6923H157.756C160.03 46.9348 161.583 41.5669 168.259 41.3309Z" fill="black"/>
<ellipse cx="167.853" cy="53.4726" rx="7.12495" ry="8.01557" transform="rotate(-15 167.853 53.4726)" fill="#8A5935"/>
<path fill-rule="evenodd" clip-rule="evenodd" d="M163.043 48.2352L172.28 48.9377C172.135 48.1987 171.878 47.426 171.453 46.7045C170.77 45.4996 169.74 44.651 168.027 44.6457C166.185 44.64 164.942 45.4569 164.075 46.534C163.613 47.088 163.28 47.6707 163.043 48.2352Z" fill="black"/>
<path fill-rule="evenodd" clip-rule="evenodd" d="M175.735 49.593C175.755 48.6837 175.274 46.9781 174.252 45.1219C173.13 43.1424 171.147 41.4386 168.032 41.4289C165.047 41.4197 162.934 42.8175 161.567 44.515C160.291 46.1396 159.584 48.2001 159.388 49.4466L159.126 51.1631L160.859 51.2948L174.214 52.1854C174.955 52.2348 175.595 51.6749 175.645 50.9339C175.645 50.9339 175.715 50.5023 175.735 49.593ZM163.043 48.2352L172.28 48.9377C172.135 48.1987 171.878 47.426 171.453 46.7045C170.77 45.4996 169.74 44.651 168.027 44.6457C166.185 44.64 164.942 45.4569 164.075 46.534C163.613 47.088 163.28 47.6707 163.043 48.2352Z" fill="black"/>
<path fill-rule="evenodd" clip-rule="evenodd" d="M165.254 60.6006C164.177 60.761 163.036 60.4121 161.498 59.3427L162.182 58.3025C163.601 59.2894 164.431 59.4545 165.079 59.3579C165.626 59.2763 166.092 59.0194 166.746 58.6581C166.965 58.5371 167.206 58.4044 167.477 58.2627L168.029 59.3826C167.839 59.4819 167.648 59.5878 167.456 59.6944C166.753 60.0848 166.034 60.4842 165.254 60.6006Z" fill="black"/>
<path fill-rule="evenodd" clip-rule="evenodd" d="M162.578 54.8367C162.795 54.2775 162.93 53.791 162.93 53.5127H164.218C164.218 54.0238 164.006 54.6883 163.789 55.2474C163.707 55.4596 163.618 55.6709 163.53 55.8702H165.654V57.0752H162.534H161.498L161.956 56.2062C162.124 55.8873 162.37 55.3751 162.578 54.8367Z" fill="black"/>
<line x1="161.321" y1="190.056" x2="161.321" y2="203.712" stroke="#F7D4BB" stroke-width="2.01992"/>
<path d="M182.874 194.806V206.087" stroke="#F7D4BB" stroke-width="2.01992"/>
<path d="M171.593 213.806L181.093 206.087H185.843V212.703L171.593 213.806Z" fill="white"/>
<path d="M151.404 211.431L160.508 203.712H165.06V210.328L151.404 211.431Z" fill="white"/>
<path fill-rule="evenodd" clip-rule="evenodd" d="M144.022 89.9C153.514 87.6652 163.178 82.7531 169.715 75.5988L165.795 71.9619C159.966 78.4661 151.685 82.6223 142.788 84.68C133.953 86.742 125.094 86.4537 118.64 83.9695L116.796 88.9739C124.489 91.9351 134.466 92.1304 144.022 89.9Z" fill="#8A5935"/>
<path fill-rule="evenodd" clip-rule="evenodd" d="M199.74 73.7019C192.462 76.8406 185.473 78.4145 177.791 76.9197L176.952 72.5594C183.863 73.9731 191.261 72.6719 198.065 69.7061C204.83 66.7736 210.493 62.299 213.537 57.5581L217.125 59.9238C213.496 65.575 207.057 70.5299 199.74 73.7019Z" fill="#8A5935"/>
<line x1="84.429" y1="27.9195" x2="86.8589" y2="52.1994" stroke="black" stroke-width="1.61593"/>
<path d="M68.6768 31.7588L85.5547 30.0198L86.7554 41.6736L69.8775 43.4126L68.6768 31.7588Z" fill="#0573E8"/>
<path fill-rule="evenodd" clip-rule="evenodd" d="M152.452 81.5252C164.437 81.5007 177.151 78.2999 186.5 71.5205L182.441 66.0396C174.08 72.2348 163.195 74.9137 151.969 74.8923C140.82 74.8937 130.099 72.0579 122.731 67.253L119.511 72.7614C128.293 78.4889 140.392 81.5268 152.452 81.5252Z" fill="#003884"/>
<path d="M152.452 81.5247C164.437 81.5002 177.152 78.2993 186.5 71.52L182.442 66.0391C174.08 72.2343 163.195 74.9132 151.97 74.8917L152.452 81.5247Z" fill="#E6BF99"/>
<path d="M130.345 52.8464C130.345 57.1971 127.151 60.7241 123.211 60.7241C119.27 60.7241 116.076 57.1971 116.076 52.8464C116.076 48.4957 119.27 44.9688 123.211 44.9688C127.151 44.9688 130.345 48.4957 130.345 52.8464Z" fill="#E6BF99"/>
<path fill-rule="evenodd" clip-rule="evenodd" d="M138.266 210.288L135.741 196.874L139.872 196.161L142.398 209.576L138.266 210.288Z" fill="#E6BF99"/>
<path fill-rule="evenodd" clip-rule="evenodd" d="M104.197 75.8632C93.7524 69.8043 84.2704 60.606 79.5287 49.9813L85.831 47.2434C90.0058 56.8612 98.1541 64.6823 107.96 70.3186C117.688 75.9368 128.471 78.8633 137.32 78.3823L137.355 84.8111C126.807 85.3845 114.72 81.9401 104.197 75.8632Z" fill="#003884"/>
<path d="M104.197 75.8637C93.7521 69.8049 84.2701 60.6066 79.5285 49.9818L85.8307 47.2439C90.0056 56.8618 98.1539 64.6829 107.959 70.3192L104.197 75.8637Z" fill="#E6BF99"/>
<path fill-rule="evenodd" clip-rule="evenodd" d="M116.076 203.733V190.401H119.968V203.733H116.076Z" fill="#E6BF99"/>
<path fill-rule="evenodd" clip-rule="evenodd" d="M137.263 85.8801L137.263 130.209L127.923 129.072L113.914 124.526V97.3184C113.914 97.2944 113.914 97.2704 113.914 97.2464C113.914 97.1934 113.914 97.1404 113.914 97.0876V90.4266L113.985 90.4128C114.436 70.7547 117.159 64.1733 125.588 63.1475C132.036 63.1475 137.263 63.1475 137.263 85.8801Z" fill="#003884"/>
<path d="M113.914 124.553H122.994L120.724 199.29H115.049L113.914 124.553Z" fill="#BD7433"/>
<path d="M125.589 126.573L137.634 128.84C137.634 128.84 137.634 177.584 142.452 201.389C139.686 202.076 135.225 202.522 135.225 202.522C131.611 180.984 125.589 126.573 125.589 126.573Z" fill="#BD7433"/>
<path d="M106.563 211.813L116.076 203.733H120.832V210.659L106.563 211.813Z" fill="black"/>
<path d="M130.728 215.853L137.635 206.933L142.307 206.128L144.222 211.493L130.728 215.853Z" fill="black"/>
<path fill-rule="evenodd" clip-rule="evenodd" d="M137.263 116.418V130.209L127.923 129.073L113.914 124.528V114.05L137.263 116.418Z" fill="#BD7433"/>
<path fill-rule="evenodd" clip-rule="evenodd" d="M120.119 59.0696C118.836 59.2334 117.476 58.8772 115.644 57.7859L116.458 56.7243C118.149 57.7314 119.138 57.8999 119.91 57.8014C120.563 57.7181 121.117 57.4559 121.897 57.0871C122.159 56.9637 122.445 56.8282 122.769 56.6836L123.427 57.8265C123.2 57.9279 122.972 58.036 122.744 58.1447C121.906 58.5432 121.049 58.9508 120.119 59.0696Z" fill="black"/>
<path fill-rule="evenodd" clip-rule="evenodd" d="M117.312 53.0832C117.56 52.3857 117.715 51.7787 117.715 51.4316H119.189C119.189 52.0691 118.946 52.8981 118.698 53.5955C118.604 53.8602 118.502 54.1238 118.401 54.3724H120.832V55.8755H117.261H116.076L116.6 54.7916C116.793 54.3937 117.074 53.7548 117.312 53.0832Z" fill="black"/>
<line x1="113.149" y1="44.4094" x2="135.756" y2="49.6189" stroke="black" stroke-width="2.01992"/>
<path d="M123.014 38.7065L130.487 40.7264L132.137 48.3865L117.156 44.7661L123.014 38.7065Z" fill="black"/>
<rect x="55.3457" y="101.929" width="16.5633" height="5.25178" fill="#FFDA56"/>
<rect x="58.4062" y="81.3262" width="16.5633" height="5.25178" transform="rotate(20.6079 58.4062 81.3262)" fill="#FFDA56"/>
<rect x="56.9619" y="122.07" width="16.5633" height="5.25178" transform="rotate(-22.753 56.9619 122.07)" fill="#FFDA56"/>
<rect width="16.5633" height="5.25178" transform="matrix(-1 0 0 1 250 97.4854)" fill="#FFDA56"/>
<rect width="16.5633" height="5.25178" transform="matrix(-0.936011 0.351971 0.351971 0.936011 246.939 76.8818)" fill="#FFDA56"/>
<rect width="16.5633" height="5.25178" transform="matrix(-0.922181 -0.386759 -0.386759 0.922181 248.384 117.626)" fill="#FFDA56"/>
<path d="M161.346 115.261H183.403L195.124 200.501H177.542L172.658 141.091L168.751 200.501H151.494L161.346 115.261Z" fill="#1F3C5F"/>
<path d="M181.026 73.3443C177.511 67.2304 169.309 64.9741 165.647 65.7019L157.957 119.199L187.617 121.382C187.984 107.553 184.542 79.4583 181.026 73.3443Z" fill="#A6D669"/>
<path fill-rule="evenodd" clip-rule="evenodd" d="M152.129 87.4363C158.834 84.7634 165.147 80.7811 169.852 75.6508L165.922 72.0172C161.732 76.6744 156.286 80.1323 150.256 82.4815L152.129 87.4363Z" fill="#A6D669"/>
<path fill-rule="evenodd" clip-rule="evenodd" d="M177.032 74.468L176.781 72.1298C181.844 73.2312 187.149 72.8947 192.3 71.5121L193.512 75.9359C188.375 77.3367 183.16 77.7961 177.773 77.1712L177.032 74.468Z" fill="#A6D669"/>
</svg>
