<svg width="251" height="223" viewBox="0 0 251 223" fill="none" xmlns="http://www.w3.org/2000/svg">
<g clip-path="url(#clip0_2526_18164)">
<rect width="250" height="223" transform="translate(0.00292969)" fill="white"/>
<path d="M152.585 48.3309C159.952 47.8206 162.915 50.7825 165.108 64.6923H142.081C144.355 53.9348 145.908 48.5669 152.585 48.3309Z" fill="black"/>
<ellipse cx="152.179" cy="60.4726" rx="7.12495" ry="8.01557" transform="rotate(-15 152.179 60.4726)" fill="#8A5935"/>
<path fill-rule="evenodd" clip-rule="evenodd" d="M147.368 55.2352L156.605 55.9377C156.46 55.1987 156.203 54.426 155.778 53.7045C155.095 52.4996 154.065 51.651 152.352 51.6457C150.51 51.64 149.268 52.4569 148.4 53.534C147.939 54.088 147.605 54.6707 147.368 55.2352Z" fill="black"/>
<path fill-rule="evenodd" clip-rule="evenodd" d="M160.06 56.593C160.08 55.6837 159.599 53.9781 158.577 52.1219C157.455 50.1424 155.472 48.4386 152.358 48.4289C149.372 48.4197 147.259 49.8175 145.892 51.515C144.616 53.1396 143.909 55.2001 143.713 56.4466L143.451 58.1631L145.184 58.2948L158.539 59.1854C159.28 59.2348 159.921 58.6749 159.97 57.9339V57.9339C159.97 57.9339 160.04 57.5023 160.06 56.593ZM147.368 55.2352L156.605 55.9377C156.46 55.1987 156.203 54.426 155.778 53.7045C155.095 52.4996 154.065 51.651 152.352 51.6457C150.51 51.64 149.268 52.4569 148.4 53.534C147.939 54.088 147.605 54.6707 147.368 55.2352Z" fill="black"/>
<path fill-rule="evenodd" clip-rule="evenodd" d="M149.58 67.6006C148.503 67.761 147.362 67.4121 145.824 66.3427L146.508 65.3025C147.927 66.2894 148.757 66.4545 149.405 66.3579C149.952 66.2763 150.418 66.0194 151.072 65.6581C151.291 65.5371 151.532 65.4044 151.803 65.2627L152.355 66.3826C152.165 66.4819 151.974 66.5878 151.783 66.6944C151.08 67.0848 150.361 67.4842 149.58 67.6006Z" fill="black"/>
<path fill-rule="evenodd" clip-rule="evenodd" d="M146.905 61.8367C147.121 61.2775 147.256 60.791 147.256 60.5127H148.544C148.544 61.0238 148.332 61.6883 148.116 62.2474C148.033 62.4596 147.944 62.6709 147.856 62.8702H149.98V64.0752H146.86H145.824L146.282 63.2062C146.45 62.8873 146.696 62.3751 146.905 61.8367Z" fill="black"/>
<line x1="145.647" y1="197.056" x2="145.647" y2="210.712" stroke="#F7D4BB" stroke-width="2.01992"/>
<path d="M167.199 201.806V213.087" stroke="#F7D4BB" stroke-width="2.01992"/>
<path d="M155.918 220.806L165.418 213.087H170.168V219.703L155.918 220.806Z" fill="black"/>
<path d="M135.73 218.432L144.835 210.713H149.387V217.329L135.73 218.432Z" fill="black"/>
<path fill-rule="evenodd" clip-rule="evenodd" d="M128.348 96.9C137.841 94.6652 147.504 89.7531 154.041 82.5988L150.121 78.9619C144.292 85.4661 136.011 89.6223 127.114 91.68C118.28 93.742 109.421 93.4537 102.966 90.9695L101.122 95.9739C108.816 98.9351 118.792 99.1304 128.348 96.9Z" fill="#8A5935"/>
<path fill-rule="evenodd" clip-rule="evenodd" d="M184.066 80.7019C176.788 83.8406 169.8 85.4145 162.117 83.9197L161.278 79.5594C168.189 80.9731 175.587 79.6719 182.391 76.7061C189.156 73.7736 194.819 69.299 197.863 64.5581L201.451 66.9238C197.822 72.575 191.383 77.5299 184.066 80.7019Z" fill="#8A5935"/>
<line x1="68.7541" y1="34.9195" x2="71.1841" y2="59.1994" stroke="black" stroke-width="1.61593"/>
<path d="M53.0029 38.7588L69.8809 37.0198L71.0816 48.6736L54.2037 50.4126L53.0029 38.7588Z" fill="#0573E8"/>
<path fill-rule="evenodd" clip-rule="evenodd" d="M136.777 88.5252C148.762 88.5007 161.477 85.2999 170.825 78.5205L166.767 73.0396C158.405 79.2348 147.52 81.9137 136.295 81.8923C125.145 81.8937 114.424 79.0579 107.056 74.253L103.836 79.7614C112.618 85.4889 124.717 88.5268 136.777 88.5252Z" fill="#003884"/>
<path d="M136.777 88.5247C148.762 88.5002 161.477 85.2993 170.825 78.52L166.767 73.0391C158.405 79.2343 147.52 81.9132 136.295 81.8917L136.777 88.5247Z" fill="#E6BF99"/>
<path d="M114.67 59.8464C114.67 64.1971 111.476 67.7241 107.536 67.7241C103.596 67.7241 100.401 64.1971 100.401 59.8464C100.401 55.4957 103.596 51.9688 107.536 51.9688C111.476 51.9688 114.67 55.4957 114.67 59.8464Z" fill="#E6BF99"/>
<path fill-rule="evenodd" clip-rule="evenodd" d="M122.592 217.288L120.066 203.874L124.197 203.161L126.723 216.576L122.592 217.288Z" fill="#E6BF99"/>
<path fill-rule="evenodd" clip-rule="evenodd" d="M88.5225 82.8632C78.0776 76.8043 68.5956 67.606 63.8539 56.9813L70.1562 54.2434C74.331 63.8612 82.4793 71.6823 92.2849 77.3186C102.013 82.9368 112.796 85.8633 121.645 85.3823L121.68 91.8111C111.132 92.3845 99.0449 88.9401 88.5225 82.8632Z" fill="#003884"/>
<path d="M88.5222 82.8637C78.0773 76.8049 68.5953 67.6066 63.8537 56.9818L70.1559 54.2439C74.3308 63.8618 82.4791 71.6829 92.2846 77.3192L88.5222 82.8637Z" fill="#E6BF99"/>
<path fill-rule="evenodd" clip-rule="evenodd" d="M100.401 210.733V197.401H104.293V210.733H100.401Z" fill="#E6BF99"/>
<path fill-rule="evenodd" clip-rule="evenodd" d="M121.588 92.8801L121.588 137.209L112.249 136.072L98.2393 131.526V104.318C98.2393 104.294 98.2393 104.27 98.2393 104.246C98.2393 104.193 98.2393 104.14 98.2393 104.088V97.4266L98.3101 97.4128C98.7608 77.7547 101.484 71.1733 109.914 70.1475C116.361 70.1475 121.588 70.1475 121.588 92.8801Z" fill="#003884"/>
<path d="M98.2393 131.553H107.319L105.049 206.29H99.3743L98.2393 131.553Z" fill="#BD7433"/>
<path d="M109.914 133.573L121.959 135.84C121.959 135.84 121.959 184.584 126.777 208.389C124.011 209.076 119.55 209.522 119.55 209.522C115.937 187.984 109.914 133.573 109.914 133.573Z" fill="#BD7433"/>
<path d="M90.8887 218.813L100.401 210.733H105.157V217.659L90.8887 218.813Z" fill="black"/>
<path d="M115.053 222.853L121.96 213.933L126.632 213.128L128.548 218.493L115.053 222.853Z" fill="black"/>
<path fill-rule="evenodd" clip-rule="evenodd" d="M121.588 123.418V137.209L112.249 136.073L98.2393 131.528V121.05L121.588 123.418Z" fill="#BD7433"/>
<path fill-rule="evenodd" clip-rule="evenodd" d="M104.444 66.0696C103.161 66.2334 101.801 65.8772 99.9688 64.7859L100.783 63.7243C102.474 64.7314 103.463 64.8999 104.236 64.8014C104.888 64.7181 105.443 64.4559 106.223 64.0871C106.484 63.9637 106.77 63.8282 107.094 63.6836L107.752 64.8265C107.525 64.9279 107.298 65.036 107.069 65.1447C106.231 65.5432 105.375 65.9508 104.444 66.0696Z" fill="black"/>
<path fill-rule="evenodd" clip-rule="evenodd" d="M101.638 60.0832C101.886 59.3857 102.04 58.7787 102.04 58.4316H103.514C103.514 59.0691 103.272 59.8981 103.024 60.5955C102.929 60.8602 102.827 61.1238 102.726 61.3724H105.158V62.8755H101.587H100.401L100.926 61.7916C101.118 61.3937 101.399 60.7548 101.638 60.0832Z" fill="black"/>
<line x1="97.4739" y1="51.4094" x2="120.081" y2="56.6189" stroke="black" stroke-width="2.01992"/>
<path d="M107.339 45.7065L114.813 47.7264L116.462 55.3865L101.481 51.7661L107.339 45.7065Z" fill="black"/>
<rect x="21.3486" y="95.9287" width="16.5633" height="5.25178" fill="#FFDA56"/>
<rect x="24.4092" y="75.3262" width="16.5633" height="5.25178" transform="rotate(20.6079 24.4092 75.3262)" fill="#FFDA56"/>
<rect x="22.9648" y="116.07" width="16.5633" height="5.25178" transform="rotate(-22.753 22.9648 116.07)" fill="#FFDA56"/>
<rect width="16.5633" height="5.25178" transform="matrix(-1 0 0 1 250.003 91.4854)" fill="#FFDA56"/>
<rect width="16.5633" height="5.25178" transform="matrix(-0.936011 0.351971 0.351971 0.936011 246.942 71.8818)" fill="#FFDA56"/>
<rect width="16.5633" height="5.25178" transform="matrix(-0.922181 -0.386759 -0.386759 0.922181 248.387 111.626)" fill="#FFDA56"/>
<path d="M145.671 122.261H167.728L179.45 207.501H161.867L156.983 148.091L153.076 207.501H135.819L145.671 122.261Z" fill="#1F3C5F"/>
<path d="M165.352 80.3443C161.837 74.2304 153.635 71.9741 149.973 72.7019L142.283 126.199L171.944 128.382C172.31 114.553 168.868 86.4583 165.352 80.3443Z" fill="#A6D669"/>
<path fill-rule="evenodd" clip-rule="evenodd" d="M136.455 94.4363C143.16 91.7634 149.473 87.7811 154.178 82.6508L150.248 79.0172C146.058 83.6744 140.612 87.1323 134.582 89.4815L136.455 94.4363Z" fill="#A6D669"/>
<path fill-rule="evenodd" clip-rule="evenodd" d="M161.358 81.468L161.107 79.1298C166.171 80.2312 171.476 79.8947 176.626 78.5121L177.838 82.9359C172.702 84.3367 167.486 84.7961 162.099 84.1712L161.358 81.468Z" fill="#A6D669"/>
<path d="M4.91234 193.796C-17.8459 181.256 82.6108 12.2406 111.277 2.7233C139.943 -6.79395 252.041 71.0809 241.238 115.742C230.435 160.404 170.567 95.6407 162.06 110.353C153.553 125.066 215.038 175.603 197.754 201.665C180.47 227.726 27.6706 206.335 4.91234 193.796Z" fill="#FFC6C6" fill-opacity="0.3"/>
</g>
<defs>
<clipPath id="clip0_2526_18164">
<rect width="250" height="223" fill="white" transform="translate(0.00292969)"/>
</clipPath>
</defs>
</svg>
