<svg width="251" height="223" viewBox="0 0 251 223" fill="none" xmlns="http://www.w3.org/2000/svg">
<g clip-path="url(#clip0_2526_7976)">
<rect width="250" height="223" transform="translate(0.00292969)" fill="white"/>
<path d="M1.84143 124.264C-10.4518 105.139 61.3724 -10.2352 147.206 21.9882C233.04 54.2117 243.09 110.851 216.187 144.998C189.284 179.145 182.726 158.615 163.242 156.405C143.758 154.195 121.692 142.402 90.5705 191.775C59.449 241.148 14.1347 143.389 1.84143 124.264Z" fill="#FFFB92" fill-opacity="0.3"/>
<path opacity="0.2" d="M195.722 16.1944L91.0025 104L217.003 110L195.722 16.1944Z" fill="url(#paint0_linear_2526_7976)"/>
<ellipse rx="32.0391" ry="55.9976" transform="matrix(0.992051 -0.125839 0.0981292 0.995174 216.544 56.3293)" fill="#99CEFF"/>
<path d="M199.889 13.582C204.823 10.4018 212.137 4.23548 201.914 5.01112C209.119 -3.9786 228.982 0.584827 239.069 20.4626C239.06 21.5866 237.971 22.5035 233.685 17.1799C230.234 14.0801 223.061 9.02875 221.976 13.6214C221.33 21.1379 219.285 33.2906 216.279 21.7694C215.61 19.6019 212.376 15.8688 204.785 18.2765C198.799 19.6061 189.44 20.5286 199.889 13.582Z" fill="url(#paint1_linear_2526_7976)"/>
<path d="M215.453 79.028C212.857 81.924 209.468 92.4776 216.684 111.524C220.769 112.765 230.836 112.395 238.424 100.982C243.51 92.6615 252.778 70.8723 247.996 49.9197C247.27 46.7393 238.446 52.8319 233.921 66.3599C229.438 77.8809 221.011 97.5526 223.169 84.0716C223.593 78.658 222.642 70.0704 215.453 79.028Z" fill="url(#paint2_linear_2526_7976)"/>
<path d="M190.23 48.0564C190.542 44.1566 189.857 38.3559 184.618 46.3511C183.212 58.4252 186.096 71.8893 188.006 77.1254C193.27 79.0125 203.126 81.6341 200.439 77.0241C199.645 75.9783 199.059 72.294 203.061 65.9232C205.1 63.0941 208.126 57.1164 203.921 55.8385C202.597 55.7521 199.893 54.6489 199.676 50.9274C199.327 47.5736 197.516 42.4769 193.071 48.9199C191.998 50.3468 189.927 52.1719 190.23 48.0564Z" fill="url(#paint3_linear_2526_7976)"/>
<g opacity="0.9">
<mask id="mask0_2526_7976" style="mask-type:alpha" maskUnits="userSpaceOnUse" x="7" y="135" width="30" height="39">
<path d="M7.16309 139.664L36.4969 135.616V168.902L10.4965 173.525L7.16309 172.95V139.664Z" fill="black"/>
</mask>
<g mask="url(#mask0_2526_7976)">
<path d="M7.16309 139.664L36.4969 135.616V168.902L10.4965 173.525L7.16309 172.95V139.664Z" fill="black"/>
<path d="M10.4971 139.862L39.8309 135.524V171.188L10.4971 175.525V139.862Z" fill="#1E1E1E"/>
</g>
</g>
<g opacity="0.9">
<path d="M77.1642 184.192C77.1642 197.816 68.1434 208.86 57.0157 208.86C45.888 208.86 36.8672 197.816 36.8672 184.192C36.8672 170.569 45.888 159.525 57.0157 159.525C68.1434 159.525 77.1642 170.569 77.1642 184.192ZM39.2957 184.192C39.2957 196.174 47.2292 205.886 57.0157 205.886C66.8022 205.886 74.7357 196.174 74.7357 184.192C74.7357 172.211 66.8022 162.498 57.0157 162.498C47.2292 162.498 39.2957 172.211 39.2957 184.192Z" fill="#1E1E1E"/>
<path d="M74.7931 184.192C74.7931 197.816 65.7723 208.86 54.6446 208.86C43.5169 208.86 34.4961 197.816 34.4961 184.192C34.4961 170.569 43.5169 159.525 54.6446 159.525C65.7723 159.525 74.7931 170.569 74.7931 184.192ZM37.3037 184.192C37.3037 195.917 45.0675 205.422 54.6446 205.422C64.2217 205.422 71.9855 195.917 71.9855 184.192C71.9855 172.468 64.2217 162.963 54.6446 162.963C45.0675 162.963 37.3037 172.468 37.3037 184.192Z" fill="black"/>
<path d="M70.3489 184.858C70.3489 187.134 70.0117 189.388 69.3565 191.491C68.7013 193.594 67.741 195.505 66.5304 197.115C65.3198 198.724 63.8826 200.001 62.3008 200.872C60.7191 201.743 59.0237 202.191 57.3117 202.191L57.3117 196.557C58.4673 196.557 59.6116 196.255 60.6792 195.667C61.7468 195.079 62.7169 194.217 63.534 193.131C64.3512 192.044 64.9994 190.755 65.4416 189.335C65.8838 187.916 66.1114 186.394 66.1114 184.858H70.3489Z" fill="white" fill-opacity="0.56"/>
</g>
<path d="M10.4961 179.525V170.858L34.4965 166.858L67.1637 175.525V182.859L43.83 190.859L10.4961 179.525Z" fill="black"/>
<path d="M10.4961 179.525V170.858L34.4965 166.858L67.1637 175.525V182.859L43.83 190.859L10.4961 179.525Z" fill="black"/>
<path d="M10.4961 170.858L34.4965 166.858L66.4971 174.192L44.4967 179.525L10.4961 170.858Z" fill="#323232"/>
<path d="M10.4961 170.858L34.4965 166.858L66.4971 174.192L44.4967 179.525L10.4961 170.858Z" fill="#323232"/>
<ellipse rx="6.35498" ry="7.51848" transform="matrix(-1 0 0 1 38.9351 109.979)" fill="#EBC9A9"/>
<path fill-rule="evenodd" clip-rule="evenodd" d="M62.2095 121.748C54.5262 125.978 45.1405 128.527 36.5193 127.697L36.9872 122.911C44.7494 123.734 52.7606 121.514 59.9399 117.525C67.0797 113.576 72.842 108.045 75.6915 102.5L79.8949 104.724C76.4983 111.334 69.9323 117.476 62.2095 121.748Z" fill="#EBC9A9"/>
<path fill-rule="evenodd" clip-rule="evenodd" d="M36.9425 123.37L36.9874 122.911C42.5374 123.5 48.2146 122.533 53.6241 120.475L55.3096 124.906C49.9466 126.898 44.1801 128.019 38.6406 127.834L36.9425 123.37Z" fill="#F5980C"/>
<path fill-rule="evenodd" clip-rule="evenodd" d="M26.2249 160.647V173.684L34.6982 172.61L47.4082 168.314V158.408L26.2249 160.647Z" fill="#1F3C5F"/>
<path d="M45.29 114.276C42.1125 116.425 41.0534 115.35 38.9351 114.276" stroke="black" stroke-width="1.14053"/>
<path d="M43.1713 108.905C43.1713 109.765 43.8774 111.411 44.2305 112.127H41.053" stroke="black" stroke-width="1.14053"/>
<line y1="-1.62933" x2="12.8888" y2="-1.62933" transform="matrix(0 1 1 0 75.333 200.798)" stroke="#EBC9A9" stroke-width="3.25866"/>
<path d="M83.8066 221.205L75.3333 213.687H71.0967V220.131L83.8066 221.205Z" fill="#AB8E28"/>
<line y1="-1.62933" x2="12.8832" y2="-1.62933" transform="matrix(-0.174951 0.984577 0.983712 0.179751 59.999 204.798)" stroke="#EBC9A9" stroke-width="3.25866"/>
<path d="M64.4716 222.745L58.3079 214.311L54.1384 213.549L52.4292 218.623L64.4716 222.745Z" fill="#AB8E28"/>
<path fill-rule="evenodd" clip-rule="evenodd" d="M58.3917 175.848C54.4058 173.814 49.0559 171.818 41.7627 169.334L44.7234 160.798C52.0022 163.278 57.9229 165.456 62.5607 167.823C67.2422 170.211 70.9648 172.96 73.5465 176.762C76.139 180.579 77.2677 184.995 77.6273 190.139C77.9823 195.218 77.6056 201.348 76.9222 208.799L70.4683 208.132C70.4683 200.799 70.1012 195.084 69.8016 190.798C69.5066 186.579 68.5269 183.514 67.1349 181.465C65.732 179.399 62.3339 177.859 58.3917 175.848Z" fill="#003884"/>
<path fill-rule="evenodd" clip-rule="evenodd" d="M42.392 178.514C38.4061 176.48 33.7229 175.949 26.4297 173.464L28.7237 163.464C36.0025 165.944 41.9232 168.122 46.561 170.489C51.2425 172.877 54.9651 175.626 57.5468 179.428C60.1393 183.245 61.268 187.661 61.6276 192.805C61.9826 197.884 61.6059 204.014 60.9225 211.465L54.4686 210.798C54.4686 203.465 54.1015 197.75 53.8019 193.464C53.5069 189.245 52.5272 186.18 51.1352 184.131C49.7323 182.065 46.3342 180.525 42.392 178.514Z" fill="#003884"/>
<path fill-rule="evenodd" clip-rule="evenodd" d="M26.2249 137.694V172.797L34.6982 171.897L47.4082 168.293V141.268L47.3439 141.257C46.935 125.677 44.4642 120.461 36.8166 119.647C30.967 119.647 26.2249 119.647 26.2249 137.664C26.2249 137.674 26.2249 137.684 26.2249 137.694Z" fill="#F5980C"/>
<g opacity="0.9">
<path d="M46.4972 190.858C46.4972 204.482 37.4764 215.526 26.3487 215.526C15.221 215.526 6.2002 204.482 6.2002 190.858C6.2002 177.235 15.221 166.191 26.3487 166.191C37.4764 166.191 46.4972 177.235 46.4972 190.858ZM9.14672 190.858C9.14672 202.489 16.8483 211.918 26.3487 211.918C35.8491 211.918 43.5506 202.489 43.5506 190.858C43.5506 179.228 35.8491 169.799 26.3487 169.799C16.8483 169.799 9.14672 179.228 9.14672 190.858Z" fill="#1E1E1E"/>
<path d="M44.1271 190.858C44.1271 204.482 35.1063 215.526 23.9786 215.526C12.8509 215.526 3.83008 204.482 3.83008 190.858C3.83008 177.235 12.8509 166.191 23.9786 166.191C35.1063 166.191 44.1271 177.235 44.1271 190.858ZM6.96901 190.858C6.96901 202.359 14.5844 211.683 23.9786 211.683C33.3727 211.683 40.9881 202.359 40.9881 190.858C40.9881 179.358 33.3727 170.034 23.9786 170.034C14.5844 170.034 6.96901 179.358 6.96901 190.858Z" fill="black"/>
<path d="M38.3489 191.524C38.3489 193.8 38.0117 196.054 37.3565 198.157C36.7013 200.26 35.741 202.171 34.5304 203.781C33.3198 205.39 31.8826 206.667 30.3008 207.538C28.7191 208.409 27.0237 208.857 25.3117 208.857L25.3117 203.223C26.4673 203.223 27.6116 202.921 28.6792 202.333C29.7468 201.745 30.7169 200.883 31.534 199.797C32.3512 198.71 32.9994 197.421 33.4416 196.001C33.8838 194.582 34.1114 193.06 34.1114 191.524H38.3489Z" fill="white" fill-opacity="0.56"/>
</g>
<rect opacity="0.9" x="1.16309" y="140.857" width="8.00014" height="4.00007" fill="black"/>
<rect x="63.2207" y="102.479" width="19.8178" height="13.3181" rx="2.50614" transform="rotate(-11.3028 63.2207 102.479)" fill="url(#paint4_linear_2526_7976)"/>
<ellipse cx="82.9765" cy="105.087" rx="2.94329" ry="4.41493" transform="rotate(-16.5845 82.9765 105.087)" fill="#CECECE"/>
<ellipse cx="83.767" cy="104.819" rx="2.03784" ry="3.05677" transform="rotate(-16.5845 83.767 104.819)" fill="#707070"/>
<ellipse cx="84.7173" cy="104.539" rx="1.04555" ry="1.56832" transform="rotate(-16.5845 84.7173 104.539)" fill="#333333"/>
<rect x="70.4219" y="108.471" width="7.78845" height="1.94711" rx="0.973557" transform="rotate(-11.4204 70.4219 108.471)" fill="#9F9F9F"/>
<path d="M47.1216 100.218C47.1216 101.945 47.8003 105.775 43.6696 105.775C42.135 105.775 39.2149 106.093 37.4474 106.686C35.6798 107.279 32.1631 109.292 32.1631 108.207C32.1631 106.48 32.7384 99.8709 39.067 100.218C45.3956 100.565 47.1216 98.4918 47.1216 100.218Z" fill="black"/>
</g>
<defs>
<linearGradient id="paint0_linear_2526_7976" x1="238.714" y1="53.1297" x2="94.4348" y2="118.654" gradientUnits="userSpaceOnUse">
<stop offset="1" stop-color="#C2C2C2"/>
</linearGradient>
<linearGradient id="paint1_linear_2526_7976" x1="221.122" y1="2.40724" x2="214.202" y2="25.1768" gradientUnits="userSpaceOnUse">
<stop stop-color="#A6D669"/>
<stop offset="1" stop-color="#7FC526"/>
</linearGradient>
<linearGradient id="paint2_linear_2526_7976" x1="238.453" y1="46.4478" x2="218.507" y2="112.078" gradientUnits="userSpaceOnUse">
<stop stop-color="#A6D669"/>
<stop offset="1" stop-color="#7FC526"/>
</linearGradient>
<linearGradient id="paint3_linear_2526_7976" x1="197.219" y1="44.887" x2="187.45" y2="77.0322" gradientUnits="userSpaceOnUse">
<stop stop-color="#A6D669"/>
<stop offset="1" stop-color="#7FC526"/>
</linearGradient>
<linearGradient id="paint4_linear_2526_7976" x1="73.1296" y1="102.479" x2="73.1296" y2="115.797" gradientUnits="userSpaceOnUse">
<stop stop-color="#9F9F9F"/>
<stop offset="1" stop-color="#E3DEDE"/>
</linearGradient>
<clipPath id="clip0_2526_7976">
<rect width="250" height="223" fill="white" transform="translate(0.00292969)"/>
</clipPath>
</defs>
</svg>
