<svg width="260" height="243" viewBox="0 0 260 243" fill="none" xmlns="http://www.w3.org/2000/svg">
<path d="M1.67932 160.742C-10.6139 141.617 61.2103 26.2423 147.044 58.4658C232.878 90.6893 242.928 147.329 216.025 181.475C189.122 215.622 182.564 195.092 163.08 192.882C143.596 190.673 121.53 178.88 90.4083 228.253C59.2869 277.626 13.9725 179.867 1.67932 160.742Z" fill="#FFFB92" fill-opacity="0.3"/>
<path opacity="0.2" d="M170.088 47.3529L85.602 123.381L185.747 144.784L170.088 47.3529Z" fill="url(#paint0_linear_1379_23335)"/>
<ellipse rx="32.0391" ry="55.9976" transform="matrix(0.992051 -0.125839 0.0981292 0.995174 191.143 92.3293)" fill="#99CEFF"/>
<path d="M174.488 49.582C179.422 46.4018 186.735 40.2355 176.512 41.0111C183.718 32.0214 203.581 36.5848 213.667 56.4626C213.659 57.5866 212.569 58.5035 208.284 53.1799C204.833 50.0801 197.66 45.0288 196.575 49.6214C195.928 57.1379 193.884 69.2906 190.877 57.7694C190.209 55.6019 186.974 51.8688 179.384 54.2765C173.398 55.6061 164.039 56.5286 174.488 49.582Z" fill="url(#paint1_linear_1379_23335)"/>
<path d="M190.052 115.028C187.455 117.924 184.066 128.478 191.283 147.524C195.368 148.765 205.435 148.395 213.023 136.982C218.108 128.661 227.376 106.872 222.595 85.9197C221.869 82.7393 213.044 88.8319 208.52 102.36C204.037 113.881 195.61 133.553 197.768 120.072C198.191 114.658 197.241 106.07 190.052 115.028Z" fill="url(#paint2_linear_1379_23335)"/>
<path d="M164.828 84.0564C165.14 80.1566 164.455 74.3559 159.217 82.3511C157.811 94.4252 160.695 107.889 162.605 113.125C167.868 115.012 177.724 117.634 175.037 113.024C174.244 111.978 173.658 108.294 177.66 101.923C179.699 99.0941 182.725 93.1164 178.52 91.8385C177.195 91.7521 174.492 90.6489 174.275 86.9274C173.925 83.5736 172.115 78.4769 167.669 84.9199C166.596 86.3468 164.526 88.1719 164.828 84.0564Z" fill="url(#paint3_linear_1379_23335)"/>
<g opacity="0.9">
<mask id="mask0_1379_23335" style="mask-type:alpha" maskUnits="userSpaceOnUse" x="7" y="153" width="30" height="39">
<path d="M7 157.142L36.3338 153.094V186.379L10.3334 191.002L7 190.428V157.142Z" fill="black"/>
</mask>
<g mask="url(#mask0_1379_23335)">
<path d="M7 157.142L36.3338 153.094V186.379L10.3334 191.002L7 190.428V157.142Z" fill="black"/>
<path d="M10.334 157.339L39.6678 153.002V188.665L10.334 193.003V157.339Z" fill="#1E1E1E"/>
</g>
</g>
<g opacity="0.9">
<path d="M77.0011 201.67C77.0011 215.293 67.9803 226.337 56.8526 226.337C45.7249 226.337 36.7041 215.293 36.7041 201.67C36.7041 188.047 45.7249 177.003 56.8526 177.003C67.9803 177.003 77.0011 188.047 77.0011 201.67ZM39.1326 201.67C39.1326 213.651 47.0661 223.364 56.8526 223.364C66.6391 223.364 74.5726 213.651 74.5726 201.67C74.5726 189.689 66.6391 179.976 56.8526 179.976C47.0661 179.976 39.1326 189.689 39.1326 201.67Z" fill="#1E1E1E"/>
<path d="M74.63 201.67C74.63 215.293 65.6092 226.337 54.4815 226.337C43.3538 226.337 34.333 215.293 34.333 201.67C34.333 188.047 43.3538 177.003 54.4815 177.003C65.6092 177.003 74.63 188.047 74.63 201.67ZM37.1406 201.67C37.1406 213.395 44.9044 222.9 54.4815 222.9C64.0586 222.9 71.8224 213.395 71.8224 201.67C71.8224 189.945 64.0586 180.44 54.4815 180.44C44.9044 180.44 37.1406 189.945 37.1406 201.67Z" fill="black"/>
<path d="M70.1858 202.335C70.1858 204.612 69.8486 206.866 69.1934 208.969C68.5383 211.072 67.5779 212.982 66.3673 214.592C65.1567 216.202 63.7195 217.478 62.1377 218.35C60.556 219.221 58.8607 219.669 57.1486 219.669L57.1486 214.035C58.3042 214.035 59.4485 213.732 60.5161 213.144C61.5837 212.556 62.5538 211.695 63.371 210.608C64.1881 209.522 64.8363 208.232 65.2785 206.813C65.7207 205.393 65.9484 203.872 65.9484 202.335H70.1858Z" fill="white" fill-opacity="0.56"/>
</g>
<path d="M10.333 197.003V188.336L34.3334 184.336L67.0006 193.003V200.336L43.6669 208.336L10.333 197.003Z" fill="black"/>
<path d="M10.333 197.003V188.336L34.3334 184.336L67.0006 193.003V200.336L43.6669 208.336L10.333 197.003Z" fill="black"/>
<path d="M10.333 188.336L34.3334 184.336L66.334 191.669L44.3336 197.003L10.333 188.336Z" fill="#323232"/>
<path d="M10.333 188.336L34.3334 184.336L66.334 191.669L44.3336 197.003L10.333 188.336Z" fill="#323232"/>
<ellipse rx="6.35498" ry="7.51848" transform="matrix(-1 0 0 1 38.772 127.457)" fill="#EBC9A9"/>
<path fill-rule="evenodd" clip-rule="evenodd" d="M62.0464 139.225C54.3631 143.456 44.9774 146.005 36.3562 145.175L36.8241 140.388C44.5863 141.211 52.5975 138.992 59.7768 135.002C66.9166 131.053 72.6789 125.523 75.5284 119.977L79.7319 122.202C76.3352 128.812 69.7692 134.954 62.0464 139.225Z" fill="#EBC9A9"/>
<path fill-rule="evenodd" clip-rule="evenodd" d="M36.7794 140.848L36.8243 140.389C42.3743 140.977 48.0516 140.01 53.461 137.953L55.1466 142.384C49.7836 144.376 44.0171 145.496 38.4775 145.312L36.7794 140.848Z" fill="#F5980C"/>
<path fill-rule="evenodd" clip-rule="evenodd" d="M26.0618 178.125V191.162L34.5351 190.087L47.2451 185.791V175.886L26.0618 178.125Z" fill="#1F3C5F"/>
<path d="M45.127 131.754C41.9495 133.902 40.8903 132.828 38.772 131.754" stroke="black" stroke-width="1.14053"/>
<path d="M43.0082 126.383C43.0082 127.242 43.7143 128.889 44.0674 129.605H40.8899" stroke="black" stroke-width="1.14053"/>
<line y1="-1.62933" x2="12.8888" y2="-1.62933" transform="matrix(0 1 1 0 75.1699 218.275)" stroke="#EBC9A9" stroke-width="3.25866"/>
<path d="M83.6436 238.683L75.1702 231.164H70.9336V237.608L83.6436 238.683Z" fill="#AB8E28"/>
<line y1="-1.62933" x2="12.8832" y2="-1.62933" transform="matrix(-0.174951 0.984577 0.983712 0.179751 59.8359 222.275)" stroke="#EBC9A9" stroke-width="3.25866"/>
<path d="M64.3086 240.222L58.1448 231.788L53.9753 231.026L52.2661 236.1L64.3086 240.222Z" fill="#AB8E28"/>
<path fill-rule="evenodd" clip-rule="evenodd" d="M58.2286 193.325C54.2427 191.291 48.8928 189.296 41.5996 186.811L44.5603 178.275C51.8391 180.755 57.7598 182.934 62.3976 185.3C67.0791 187.689 70.8018 190.438 73.3834 194.239C75.976 198.056 77.1046 202.472 77.4642 207.617C77.8192 212.695 77.4425 218.826 76.7591 226.276L70.3052 225.61C70.3052 218.276 69.9381 212.562 69.6385 208.276C69.3435 204.056 68.3638 200.992 66.9718 198.942C65.5689 196.877 62.1708 195.337 58.2286 193.325Z" fill="#003884"/>
<path fill-rule="evenodd" clip-rule="evenodd" d="M42.2289 195.991C38.243 193.957 33.5598 193.426 26.2666 190.942L28.5606 180.941C35.8394 183.421 41.7601 185.6 46.3979 187.966C51.0794 190.355 54.8021 193.104 57.3837 196.905C59.9763 200.722 61.1049 205.138 61.4645 210.283C61.8195 215.361 61.4428 221.492 60.7594 228.942L54.3055 228.276C54.3055 220.942 53.9384 215.228 53.6388 210.942C53.3438 206.722 52.3641 203.658 50.9721 201.608C49.5692 199.543 46.1711 198.003 42.2289 195.991Z" fill="#003884"/>
<path fill-rule="evenodd" clip-rule="evenodd" d="M26.0618 155.171V190.275L34.5351 189.374L47.2451 185.771V158.745L47.1809 158.734C46.772 143.154 44.3012 137.938 36.6535 137.125C30.8039 137.125 26.0618 137.125 26.0618 155.142C26.0618 155.152 26.0618 155.162 26.0618 155.171Z" fill="#F5980C"/>
<g opacity="0.9">
<path d="M46.3341 208.336C46.3341 221.959 37.3133 233.003 26.1856 233.003C15.0579 233.003 6.03711 221.959 6.03711 208.336C6.03711 194.713 15.0579 183.669 26.1856 183.669C37.3133 183.669 46.3341 194.713 46.3341 208.336ZM8.98363 208.336C8.98363 219.967 16.6852 229.396 26.1856 229.396C35.686 229.396 43.3876 219.967 43.3876 208.336C43.3876 196.705 35.686 187.276 26.1856 187.276C16.6852 187.276 8.98363 196.705 8.98363 208.336Z" fill="#1E1E1E"/>
<path d="M43.964 208.336C43.964 221.959 34.9432 233.003 23.8155 233.003C12.6878 233.003 3.66699 221.959 3.66699 208.336C3.66699 194.713 12.6878 183.669 23.8155 183.669C34.9432 183.669 43.964 194.713 43.964 208.336ZM6.80593 208.336C6.80593 219.837 14.4214 229.16 23.8155 229.16C33.2096 229.16 40.825 219.837 40.825 208.336C40.825 196.835 33.2096 187.512 23.8155 187.512C14.4214 187.512 6.80593 196.835 6.80593 208.336Z" fill="black"/>
<path d="M38.1858 209.001C38.1858 211.278 37.8486 213.532 37.1934 215.635C36.5383 217.738 35.5779 219.648 34.3673 221.258C33.1567 222.868 31.7195 224.144 30.1377 225.016C28.556 225.887 26.8607 226.335 25.1486 226.335L25.1486 220.701C26.3042 220.701 27.4485 220.398 28.5161 219.81C29.5837 219.222 30.5538 218.361 31.371 217.274C32.1881 216.188 32.8363 214.898 33.2785 213.479C33.7207 212.059 33.9484 210.538 33.9484 209.001H38.1858Z" fill="white" fill-opacity="0.56"/>
</g>
<rect opacity="0.9" x="1" y="158.335" width="8.00014" height="4.00007" fill="black"/>
<rect x="63.0576" y="119.956" width="19.8178" height="13.3181" rx="2.50614" transform="rotate(-11.3028 63.0576 119.956)" fill="url(#paint4_linear_1379_23335)"/>
<ellipse cx="82.8134" cy="122.565" rx="2.94329" ry="4.41493" transform="rotate(-16.5845 82.8134 122.565)" fill="#CECECE"/>
<ellipse cx="83.6039" cy="122.296" rx="2.03784" ry="3.05677" transform="rotate(-16.5845 83.6039 122.296)" fill="#707070"/>
<ellipse cx="84.5542" cy="122.016" rx="1.04555" ry="1.56832" transform="rotate(-16.5845 84.5542 122.016)" fill="#333333"/>
<rect x="70.2588" y="125.948" width="7.78845" height="1.94711" rx="0.973557" transform="rotate(-11.4204 70.2588 125.948)" fill="#9F9F9F"/>
<path d="M46.9585 117.696C46.9585 119.422 47.6372 123.253 43.5065 123.253C41.9719 123.253 39.0519 123.57 37.2843 124.163C35.5167 124.757 32 126.769 32 125.684C32 123.958 32.5753 117.348 38.9039 117.696C45.2325 118.043 46.9585 115.969 46.9585 117.696Z" fill="black"/>
<defs>
<linearGradient id="paint0_linear_1379_23335" x1="203.645" y1="77.9872" x2="84.474" y2="126.915" gradientUnits="userSpaceOnUse">
<stop offset="1" stop-color="#C2C2C2"/>
</linearGradient>
<linearGradient id="paint1_linear_1379_23335" x1="195.72" y1="38.4072" x2="188.801" y2="61.1768" gradientUnits="userSpaceOnUse">
<stop stop-color="#A6D669"/>
<stop offset="1" stop-color="#7FC526"/>
</linearGradient>
<linearGradient id="paint2_linear_1379_23335" x1="213.051" y1="82.4478" x2="193.106" y2="148.078" gradientUnits="userSpaceOnUse">
<stop stop-color="#A6D669"/>
<stop offset="1" stop-color="#7FC526"/>
</linearGradient>
<linearGradient id="paint3_linear_1379_23335" x1="171.818" y1="80.887" x2="162.048" y2="113.032" gradientUnits="userSpaceOnUse">
<stop stop-color="#A6D669"/>
<stop offset="1" stop-color="#7FC526"/>
</linearGradient>
<linearGradient id="paint4_linear_1379_23335" x1="72.9665" y1="119.956" x2="72.9665" y2="133.274" gradientUnits="userSpaceOnUse">
<stop stop-color="#9F9F9F"/>
<stop offset="1" stop-color="#E3DEDE"/>
</linearGradient>
</defs>
</svg>
