<svg width="280" height="177" viewBox="0 0 280 177" fill="none" xmlns="http://www.w3.org/2000/svg">
<path d="M61.7798 110.853C43.0121 80.2039 36.7563 5.38376 73.0404 0.876511C109.324 -3.63073 246.119 9.44043 258.214 35.5823C270.31 61.7242 188.983 211.815 156.869 168.997C124.755 126.178 80.5475 141.503 61.7798 110.853Z" fill="#BDDEFF" fill-opacity="0.5"/>
<path fill-rule="evenodd" clip-rule="evenodd" d="M64.305 75.449C59.6336 67.4714 56.3305 57.6475 56.2064 48.5285L60.6462 48.8783C60.6887 57.0909 63.5484 65.4748 67.947 72.928C72.304 80.3407 77.9708 86.2529 83.352 89.0921L81.7428 93.5929C75.3283 90.2086 69.0179 83.467 64.305 75.449Z" fill="#F7D4BB"/>
<ellipse rx="4.39082" ry="5.5562" transform="matrix(-0.997619 -0.0689659 -0.0602496 0.998183 58.7859 36.3253)" fill="#F7D4BB"/>
<line y1="-1" x2="9.52742" y2="-1" transform="matrix(0 1 1 0 63.2666 132.322)" stroke="#F7D4BB" stroke-width="2"/>
<path d="M49.0293 135.768V143.234" stroke="#F7D4BB" stroke-width="2"/>
<path d="M56.1758 148.792L50.3231 143.234H47.3968V147.998L56.1758 148.792Z" fill="#9F9F9F"/>
<path d="M64.7295 86.2725H58.8768L60.34 138.673H63.9979L64.7295 86.2725Z" fill="#1F3C5F"/>
<path d="M57.4141 87.8604L50.0983 89.4483C50.0983 89.4483 50.0983 123.588 47.172 140.261C48.8521 140.743 51.5614 141.055 51.5614 141.055C53.7562 125.97 57.4141 87.8604 57.4141 87.8604Z" fill="#1F3C5F"/>
<path d="M69.1191 147.407L63.2665 141.85H60.3402V146.613L69.1191 147.407Z" fill="#9F9F9F"/>
<path fill-rule="evenodd" clip-rule="evenodd" d="M50.0979 80.6053V90.2421L55.9505 89.4481L64.7295 86.2723V78.9502L50.0979 80.6053Z" fill="#1F3C5F"/>
<path d="M62.9736 39.7979C60.6878 41.231 60.0056 40.3883 58.5933 39.495" stroke="black"/>
<path d="M61.7533 35.7347C61.7151 36.3685 62.1285 37.617 62.3399 38.1621L60.1498 38.0107" stroke="black"/>
<path d="M51.6448 50.5781C53.7158 46.6996 58.548 45.2682 60.7052 45.73L65.2354 79.6672L47.7618 81.0524C47.5461 72.2795 49.5739 54.4567 51.6448 50.5781Z" fill="black"/>
<path fill-rule="evenodd" clip-rule="evenodd" d="M50.1478 76.272C48.4315 68.2348 48.535 59.0882 51.2936 51.4997L55.2018 53.1501C52.6547 59.9632 52.6033 67.7815 54.2377 75.3008C55.8473 82.774 59.1148 89.4061 63.0912 93.4062L60.2177 96.6397C55.4777 91.8715 51.8889 84.3554 50.1478 76.272Z" fill="#F7D4BB"/>
<path fill-rule="evenodd" clip-rule="evenodd" d="M48.9475 66.4634C48.9055 61.3356 49.6676 56.1774 51.4171 51.5742L55.4037 53.1692C53.8286 57.2023 53.1386 61.5726 53.1662 66.0153L48.9475 66.4634Z" fill="black"/>
<path fill-rule="evenodd" clip-rule="evenodd" d="M116.794 75.6515L119.61 69.3718L123.01 71.0645L120.194 77.3441L116.794 75.6515Z" fill="white"/>
<path fill-rule="evenodd" clip-rule="evenodd" d="M108.006 75.2497L107.446 68.5769L111.231 68.0738L111.791 74.7466L108.006 75.2497Z" fill="white"/>
<path fill-rule="evenodd" clip-rule="evenodd" d="M124.468 80.0133L129.836 75.0686L132.243 78.1649L126.874 83.1097L124.468 80.0133Z" fill="white"/>
<path d="M63.9713 30.4648C63.9713 31.6158 64.4238 34.1697 61.67 34.1697C60.647 34.1697 58.7003 34.3812 57.5219 34.7766C56.3435 35.172 53.999 36.5139 53.999 35.7905C53.999 34.6396 54.3826 30.2333 58.6016 30.4648C62.8207 30.6963 63.9713 29.3139 63.9713 30.4648Z" fill="black"/>
<ellipse rx="5.23184" ry="6.72874" transform="matrix(-1 0 0 1 172.359 22.9465)" fill="#DFBAAA"/>
<line y1="-1" x2="9.03873" y2="-1" transform="matrix(0.748825 0.662768 -0.606543 0.795051 196.336 116.111)" stroke="#E6BF99" stroke-width="2"/>
<line x1="169.899" y1="119.416" x2="169.899" y2="128.828" stroke="#E6BF99" stroke-width="2"/>
<path fill-rule="evenodd" clip-rule="evenodd" d="M165.596 46.9209V77.6463L172.235 76.8577L182.194 73.7034V50.046L182.144 50.0364C181.824 36.3979 179.888 31.8319 173.895 31.1201C169.312 31.1201 165.596 31.1201 165.596 46.8917C165.596 46.9014 165.596 46.9111 165.596 46.9209Z" fill="#AF9DF2"/>
<path d="M165.595 77.6461L171.34 76.9619L171.785 125.691H168.177L165.595 77.6461Z" fill="black"/>
<path d="M174.533 75.5936L182.194 73.541C182.194 73.541 180.279 100.909 200.069 115.962L198.154 119.383C177.725 105.015 174.533 75.5936 174.533 75.5936Z" fill="black"/>
<path d="M163.126 134.318L168.899 128.828H171.786V133.534L163.126 134.318Z" fill="white"/>
<path d="M201.935 128.212L201.412 120.604L203.24 118.208L206.367 120.222L201.935 128.212Z" fill="white"/>
<path fill-rule="evenodd" clip-rule="evenodd" d="M165.596 68.0746V77.6462L172.235 76.8576L182.194 73.7033V66.4307L165.596 68.0746Z" fill="black"/>
<path fill-rule="evenodd" clip-rule="evenodd" d="M173.593 54.0588C176.804 47.7129 178.676 39.9178 177.912 32.7055L174.17 33.0174C174.917 39.5124 173.285 46.1651 170.256 52.0942C167.258 57.9908 163.004 62.7113 158.7 64.9993L160.497 68.5458C165.628 65.8185 170.351 60.437 173.593 54.0588Z" fill="#DFBAAA"/>
<path fill-rule="evenodd" clip-rule="evenodd" d="M177.846 32.9103L177.58 32.7958L174.036 33.0361C174.685 38.1291 173.862 43.2972 172.037 48.1263L175.61 49.6676C177.537 44.379 178.479 38.4869 177.846 32.9103Z" fill="#AF9DF2"/>
<path fill-rule="evenodd" clip-rule="evenodd" d="M159.761 54.9684C164.886 50.0669 169.177 43.2878 170.735 36.1025L167.018 35.0325C165.673 41.5246 161.977 47.2977 157.161 51.8666C152.386 56.4161 146.771 59.3797 141.881 59.9958L142.489 64.0491C148.318 63.3146 154.596 59.8894 159.761 54.9684Z" fill="#DFBAAA"/>
<path fill-rule="evenodd" clip-rule="evenodd" d="M170.708 36.2141L170.523 36.0431L167.015 35.0323C166.064 39.6246 163.937 43.8568 161.07 47.5574L163.978 50.2471C167.129 46.1165 169.593 41.2679 170.708 36.2141Z" fill="#AF9DF2"/>
<path d="M168.26 27.6494C170.425 29.2181 171.146 28.4338 172.59 27.6494" stroke="black"/>
<path d="M169.703 23.7275C169.703 24.355 169.222 25.5577 168.981 26.0805H171.146" stroke="black"/>
<g opacity="0.9">
<mask id="mask0_1379_23192" style="mask-type:alpha" maskUnits="userSpaceOnUse" x="238" y="80" width="28" height="38">
<path d="M265.187 84.3136L238.06 80.2891V113.38L262.104 117.976L265.187 117.404V84.3136Z" fill="black"/>
</mask>
<g mask="url(#mask0_1379_23192)">
<path d="M265.187 84.3136L238.06 80.2891V113.38L262.104 117.976L265.187 117.404V84.3136Z" fill="black"/>
<path d="M262.104 84.5102L234.977 80.1982V115.653L262.104 119.965V84.5102Z" fill="#1E1E1E"/>
</g>
</g>
<g opacity="0.9">
<path d="M200.448 128.579C200.448 142.123 208.79 153.102 219.08 153.102C229.37 153.102 237.712 142.123 237.712 128.579C237.712 115.036 229.37 104.057 219.08 104.057C208.79 104.057 200.448 115.036 200.448 128.579ZM235.466 128.579C235.466 140.49 228.13 150.146 219.08 150.146C210.03 150.146 202.693 140.49 202.693 128.579C202.693 116.668 210.03 107.012 219.08 107.012C228.13 107.012 235.466 116.668 235.466 128.579Z" fill="#1E1E1E"/>
<path d="M202.639 128.579C202.639 142.123 210.981 153.102 221.271 153.102C231.561 153.102 239.903 142.123 239.903 128.579C239.903 115.036 231.561 104.057 221.271 104.057C210.981 104.057 202.639 115.036 202.639 128.579ZM237.307 128.579C237.307 140.235 230.128 149.685 221.271 149.685C212.415 149.685 205.235 140.235 205.235 128.579C205.235 116.923 212.415 107.474 221.271 107.474C230.128 107.474 237.307 116.923 237.307 128.579Z" fill="black"/>
<path d="M206.751 129.242C206.751 131.505 207.063 133.745 207.669 135.836C208.275 137.927 209.163 139.826 210.282 141.426C211.402 143.027 212.731 144.296 214.194 145.162C215.656 146.028 217.224 146.474 218.807 146.474L218.807 140.873C217.739 140.873 216.68 140.572 215.693 139.987C214.706 139.403 213.809 138.546 213.053 137.466C212.298 136.386 211.698 135.104 211.289 133.693C210.88 132.281 210.67 130.769 210.67 129.242H206.751Z" fill="white" fill-opacity="0.56"/>
</g>
<path d="M262.096 123.941V115.325L239.902 111.349L209.693 119.965V127.255L231.271 135.208L262.096 123.941Z" fill="black"/>
<path d="M262.096 123.941V115.325L239.902 111.349L209.693 119.965V127.255L231.271 135.208L262.096 123.941Z" fill="black"/>
<path d="M262.096 115.325L239.902 111.349L210.309 118.639L230.654 123.941L262.096 115.325Z" fill="#323232"/>
<path d="M262.096 115.325L239.902 111.349L210.309 118.639L230.654 123.941L262.096 115.325Z" fill="#323232"/>
<path d="M232.373 51.3274C233.58 60.0499 227.374 59.0131 225.247 57.6931" stroke="#683124" stroke-width="5.01258"/>
<ellipse cx="235.8" cy="54.8045" rx="5.8767" ry="7.47442" fill="#EBC9A9"/>
<path fill-rule="evenodd" clip-rule="evenodd" d="M247.554 82.5012C247.554 82.4429 247.554 82.3846 247.554 82.3263C247.554 64.415 243.169 64.415 237.76 64.415C230.687 65.2233 228.403 70.409 228.025 85.8982L227.965 85.9091V112.776L239.718 116.358L247.554 117.254V82.5012Z" fill="white"/>
<path fill-rule="evenodd" clip-rule="evenodd" d="M247.554 105.174V118.135L239.718 117.068L227.965 112.796V102.948L247.554 105.174Z" fill="#1F3C5F"/>
<path d="M229.923 59.0771C232.861 61.2127 233.841 60.1449 235.8 59.0771" stroke="black"/>
<path d="M231.882 53.7363C231.882 54.5905 231.229 56.2278 230.902 56.9396H233.841" stroke="black"/>
<path d="M230.082 51.8073L242.083 51.8375C241.946 49.5441 240.567 45.0339 236.155 45.3403C231.743 45.6467 230.268 49.7793 230.082 51.8073Z" fill="#683124"/>
<path d="M242.083 51.8375C242.549 59.5776 246.83 60.1632 250.403 58.1878M242.083 51.8375L230.082 51.8073C230.268 49.7793 231.743 45.6467 236.155 45.3403C240.567 45.0339 241.946 49.5441 242.083 51.8375Z" stroke="#683124" stroke-width="3"/>
<line x1="203.641" y1="145.089" x2="203.641" y2="157.902" stroke="#EBC9A9" stroke-width="3"/>
<path d="M194.306 165.379L202.141 157.904H206.059V164.311L194.306 165.379Z" fill="#F8CB2C"/>
<line y1="-1.5" x2="12.7813" y2="-1.5" transform="matrix(0.163074 0.986614 -0.981247 0.192757 216.323 149.066)" stroke="#EBC9A9" stroke-width="3"/>
<path d="M212.186 166.909L217.886 158.524L221.741 157.767L223.322 162.811L212.186 166.909Z" fill="#F8CB2C"/>
<path fill-rule="evenodd" clip-rule="evenodd" d="M217.807 120.285C221.493 118.263 226.44 116.279 233.185 113.809L230.447 105.323C223.716 107.788 218.241 109.954 213.952 112.307C209.623 114.682 206.18 117.415 203.793 121.193C201.395 124.988 200.352 129.378 200.019 134.493C199.691 139.541 200.039 145.636 200.671 153.043L206.639 152.38C206.639 145.09 206.979 139.409 207.256 135.148C207.529 130.953 208.435 127.907 209.722 125.869C211.019 123.816 214.162 122.284 217.807 120.285Z" fill="#1F3C5F"/>
<path fill-rule="evenodd" clip-rule="evenodd" d="M232.607 122.935C236.293 120.913 240.624 120.385 247.368 117.915L245.247 107.974C238.516 110.439 233.041 112.605 228.752 114.957C224.423 117.332 220.98 120.065 218.593 123.844C216.196 127.639 215.152 132.029 214.819 137.143C214.491 142.192 214.839 148.287 215.471 155.693L221.44 155.03C221.44 147.74 221.779 142.059 222.056 137.798C222.329 133.603 223.235 130.557 224.522 128.52C225.819 126.466 228.962 124.935 232.607 122.935Z" fill="#1F3C5F"/>
<g opacity="0.9">
<path d="M228.807 135.207C228.807 148.751 237.149 159.73 247.439 159.73C257.729 159.73 266.071 148.751 266.071 135.207C266.071 121.664 257.729 110.685 247.439 110.685C237.149 110.685 228.807 121.664 228.807 135.207ZM263.347 135.207C263.347 146.77 256.225 156.143 247.439 156.143C238.654 156.143 231.532 146.77 231.532 135.207C231.532 123.644 238.654 114.271 247.439 114.271C256.225 114.271 263.347 123.644 263.347 135.207Z" fill="#1E1E1E"/>
<path d="M230.999 135.207C230.999 148.751 239.34 159.73 249.631 159.73C259.921 159.73 268.263 148.751 268.263 135.207C268.263 121.664 259.921 110.685 249.631 110.685C239.34 110.685 230.999 121.664 230.999 135.207ZM265.36 135.207C265.36 146.641 258.318 155.909 249.631 155.909C240.944 155.909 233.901 146.641 233.901 135.207C233.901 123.774 240.944 114.505 249.631 114.505C258.318 114.505 265.36 123.774 265.36 135.207Z" fill="black"/>
<path d="M236.34 135.87C236.34 138.132 236.652 140.373 237.258 142.464C237.864 144.555 238.752 146.454 239.871 148.054C240.991 149.655 242.32 150.924 243.782 151.79C245.245 152.656 246.813 153.102 248.396 153.102L248.396 147.501C247.327 147.501 246.269 147.2 245.282 146.615C244.295 146.031 243.398 145.174 242.642 144.094C241.886 143.014 241.287 141.732 240.878 140.321C240.469 138.909 240.259 137.397 240.259 135.87H236.34Z" fill="white" fill-opacity="0.56"/>
</g>
<rect opacity="0.9" width="7.39803" height="3.97663" transform="matrix(-1 0 0 1 270.731 85.501)" fill="black"/>
<mask id="mask1_1379_23192" style="mask-type:alpha" maskUnits="userSpaceOnUse" x="35" y="85" width="208" height="43">
<path d="M138.15 86.0386C137.263 85.9405 136.367 85.9724 135.491 86.1333L40.184 103.628C33.3181 104.888 33.638 114.833 40.572 115.69L134.169 127.262C135.083 127.375 136.008 127.349 136.914 127.186L237.501 109.063C244.427 107.815 244.055 97.7628 237.055 96.9878L138.15 86.0386Z" fill="white"/>
</mask>
<g mask="url(#mask1_1379_23192)">
<path d="M138.15 86.0386C137.263 85.9405 136.367 85.9724 135.491 86.1333L47.917 102.208C39.6935 103.718 40.0767 115.629 48.3817 116.656L134.446 127.296C135.176 127.386 135.915 127.366 136.639 127.236L237.501 109.063C244.427 107.815 244.055 97.7628 237.055 96.9878L138.15 86.0386Z" fill="white"/>
<path d="M138.15 79.858C137.263 79.7598 136.367 79.7917 135.491 79.9526L40.184 97.4472C33.3181 98.7075 33.638 108.652 40.572 109.509L134.169 121.081C135.083 121.194 136.008 121.169 136.914 121.005L237.501 102.882C244.427 101.634 244.055 91.5821 237.055 90.8071L138.15 79.858Z" fill="black" fill-opacity="0.07"/>
</g>
<path fill-rule="evenodd" clip-rule="evenodd" d="M216.268 90.1992C224.561 85.6061 231.088 78.7675 235.499 70.0014L233.499 67.5014C229.594 75.4429 221.695 81.0295 213.913 85.2977C206.191 89.5545 197.902 91.4723 191.335 90.6002L190.782 96.053C198.609 97.0924 207.915 94.8037 216.268 90.1992Z" fill="#EBC9A9"/>
<path fill-rule="evenodd" clip-rule="evenodd" d="M233.721 66.5057L233.276 66.2591C230.2 72.1216 225.64 77.1274 220.27 81.1794L223.172 85.6464C228.453 81.5987 233.21 76.6012 236.643 71.0036L233.721 66.5057Z" fill="white"/>
<path fill-rule="evenodd" clip-rule="evenodd" d="M233.533 95.3764C239.795 87.9419 244.207 80.1966 245.469 70.3232L240.938 67.4767C239.88 76.3871 235.616 84.7407 229.726 91.6775C223.889 98.5812 216.756 103.51 210.324 105.175L211.589 110.489C219.256 108.504 227.219 102.844 233.533 95.3764Z" fill="#EBC9A9"/>
<path fill-rule="evenodd" clip-rule="evenodd" d="M243.398 68.2796L240.888 66.9898C240.185 73.5461 237.791 79.7867 234.293 85.4012L238.752 88.7233C242.266 83.1333 244.762 77.0517 246.118 70.3061L243.398 68.2796Z" fill="white"/>
<path d="M79.2302 95.2896C78.2528 95.1632 77.2622 95.1953 76.2965 95.3847L38.2493 102.846L118.657 113.171C119.641 113.297 120.637 113.263 121.608 113.07L159.066 105.614L79.2302 95.2896Z" fill="black" fill-opacity="0.05"/>
<path d="M73.042 81.0732L96.058 81.0732L104.173 107.066L81.3108 107.066L73.042 81.0732Z" fill="black"/>
<rect x="81.7246" y="104.859" width="42.4727" height="2.22733" fill="black"/>
</svg>
