<svg width="251" height="223" viewBox="0 0 251 223" fill="none" xmlns="http://www.w3.org/2000/svg">
<g clip-path="url(#clip0_2526_18046)">
<rect width="250" height="223" transform="translate(0.00292969)" fill="white"/>
<path d="M33.0807 139.954C14.2873 101.259 8.0229 6.79709 44.3568 1.10661C80.6907 -4.58387 217.673 11.9187 229.785 44.9233C241.897 77.9279 160.459 267.421 128.301 213.362C96.1423 159.302 51.8742 178.65 33.0807 139.954Z" fill="#BDDEFF" fill-opacity="0.5"/>
<path fill-rule="evenodd" clip-rule="evenodd" d="M28.6018 100.427C23.9304 92.4499 20.6274 82.626 20.5033 73.507L24.9431 73.8568C24.9856 82.0695 27.8453 90.4533 32.2438 97.9065C36.6009 105.319 42.2677 111.231 47.6489 114.071L46.0397 118.571C39.6252 115.187 33.3147 108.446 28.6018 100.427Z" fill="#F7D4BB"/>
<ellipse rx="4.39082" ry="5.5562" transform="matrix(-0.997619 -0.0689659 -0.0602496 0.998183 23.0827 61.3038)" fill="#F7D4BB"/>
<line y1="-1" x2="9.52742" y2="-1" transform="matrix(0 1 1 0 27.5635 157.301)" stroke="#F7D4BB" stroke-width="2"/>
<path d="M13.3262 160.746L13.3262 168.213" stroke="#F7D4BB" stroke-width="2"/>
<path d="M20.4727 173.771L14.62 168.213H11.6937V172.977L20.4727 173.771Z" fill="#9F9F9F"/>
<path d="M29.0264 111.251H23.1737L24.6369 163.652H28.2948L29.0264 111.251Z" fill="#1F3C5F"/>
<path d="M21.7109 112.839L14.3952 114.427C14.3952 114.427 14.3951 148.567 11.4688 165.24C13.149 165.722 15.8583 166.034 15.8583 166.034C18.053 150.949 21.7109 112.839 21.7109 112.839Z" fill="#1F3C5F"/>
<path d="M33.416 172.386L27.5634 166.828H24.6371V171.592L33.416 172.386Z" fill="#9F9F9F"/>
<path fill-rule="evenodd" clip-rule="evenodd" d="M14.3947 105.584V115.221L20.2473 114.427L29.0263 111.251V103.929L14.3947 105.584Z" fill="#1F3C5F"/>
<path d="M27.2705 64.7764C24.9847 66.2096 24.3024 65.3668 22.8901 64.4736" stroke="black"/>
<path d="M26.0502 60.7132C26.012 61.347 26.4253 62.5956 26.6368 63.1406L24.4466 62.9892" stroke="black"/>
<path d="M15.9417 75.5567C18.0126 71.6781 22.8448 70.2468 25.0021 70.7085L29.5322 104.646L12.0587 106.031C11.843 97.258 13.8708 79.4352 15.9417 75.5567Z" fill="black"/>
<path fill-rule="evenodd" clip-rule="evenodd" d="M14.4447 101.25C12.7284 93.2133 12.8318 84.0668 15.5905 76.4782L19.4987 78.1286C16.9515 84.9417 16.9001 92.76 18.5346 100.279C20.1442 107.752 23.4116 114.385 27.3881 118.385L24.5146 121.618C19.7746 116.85 16.1858 109.334 14.4447 101.25Z" fill="#F7D4BB"/>
<path fill-rule="evenodd" clip-rule="evenodd" d="M13.2444 91.4419C13.2024 86.3141 13.9645 81.1559 15.7139 76.5527L19.7006 78.1477C18.1255 82.1809 17.4355 86.5511 17.4631 90.9938L13.2444 91.4419Z" fill="black"/>
<path fill-rule="evenodd" clip-rule="evenodd" d="M81.0905 100.63L83.9067 94.3503L87.3066 96.043L84.4905 102.323L81.0905 100.63Z" fill="white"/>
<path fill-rule="evenodd" clip-rule="evenodd" d="M72.3031 100.228L71.7426 93.5555L75.5276 93.0523L76.0881 99.7251L72.3031 100.228Z" fill="white"/>
<path fill-rule="evenodd" clip-rule="evenodd" d="M88.765 104.992L94.1332 100.047L96.5396 103.143L91.1714 108.088L88.765 104.992Z" fill="white"/>
<path d="M28.2682 55.4433C28.2682 56.5943 28.7207 59.1482 25.9669 59.1482C24.9439 59.1482 22.9971 59.3597 21.8188 59.7551C20.6404 60.1505 18.2959 61.4924 18.2959 60.769C18.2959 59.6181 18.6794 55.2118 22.8985 55.4433C27.1176 55.6748 28.2682 54.2924 28.2682 55.4433Z" fill="black"/>
<ellipse rx="5.23184" ry="6.72874" transform="matrix(-1 0 0 1 136.656 47.925)" fill="#DFBAAA"/>
<line y1="-1" x2="9.03873" y2="-1" transform="matrix(0.748825 0.662768 -0.606543 0.795051 160.633 141.09)" stroke="#E6BF99" stroke-width="2"/>
<line x1="134.196" y1="144.395" x2="134.196" y2="153.807" stroke="#E6BF99" stroke-width="2"/>
<path fill-rule="evenodd" clip-rule="evenodd" d="M129.893 71.8994V102.625L136.532 101.836L146.491 98.6819V75.0245L146.441 75.015C146.12 61.3764 144.184 56.8104 138.192 56.0986C133.608 56.0986 129.893 56.0986 129.893 71.8702C129.893 71.8799 129.893 71.8897 129.893 71.8994Z" fill="#AF9DF2"/>
<path d="M129.892 102.625L135.637 101.94L136.082 150.669H132.474L129.892 102.625Z" fill="black"/>
<path d="M138.83 100.572L146.491 98.5195C146.491 98.5195 144.576 125.888 164.366 140.94L162.451 144.361C142.022 129.993 138.83 100.572 138.83 100.572Z" fill="black"/>
<path d="M127.423 159.297L133.196 153.807H136.083V158.513L127.423 159.297Z" fill="white"/>
<path d="M166.232 153.19L165.709 145.583L167.537 143.187L170.663 145.201L166.232 153.19Z" fill="white"/>
<path fill-rule="evenodd" clip-rule="evenodd" d="M129.893 93.0532V102.625L136.532 101.836L146.491 98.6819V91.4092L129.893 93.0532Z" fill="black"/>
<path fill-rule="evenodd" clip-rule="evenodd" d="M137.89 79.0373C141.101 72.6915 142.973 64.8964 142.209 57.684L138.467 57.9959C139.214 64.4909 137.582 71.1437 134.553 77.0727C131.555 82.9693 127.301 87.6898 122.996 89.9778L124.794 93.5243C129.925 90.797 134.647 85.4155 137.89 79.0373Z" fill="#DFBAAA"/>
<path fill-rule="evenodd" clip-rule="evenodd" d="M142.142 57.8889L141.877 57.7743L138.333 58.0146C138.981 63.1077 138.159 68.2757 136.334 73.1048L139.907 74.6461C141.834 69.3575 142.776 63.4655 142.142 57.8889Z" fill="#AF9DF2"/>
<path fill-rule="evenodd" clip-rule="evenodd" d="M124.058 79.9469C129.183 75.0454 133.474 68.2663 135.031 61.081L131.315 60.011C129.97 66.5031 126.274 72.2762 121.458 76.8451C116.683 81.3946 111.067 84.3582 106.178 84.9744L106.786 89.0276C112.615 88.2931 118.893 84.8679 124.058 79.9469Z" fill="#DFBAAA"/>
<path fill-rule="evenodd" clip-rule="evenodd" d="M135.005 61.1926L134.82 61.0216L131.312 60.0108C130.361 64.6031 128.234 68.8353 125.367 72.5359L128.275 75.2257C131.426 71.095 133.89 66.2464 135.005 61.1926Z" fill="#AF9DF2"/>
<path d="M132.557 52.6279C134.722 54.1966 135.443 53.4123 136.887 52.6279" stroke="black"/>
<path d="M134 48.7061C134 49.3335 133.519 50.5362 133.278 51.0591H135.443" stroke="black"/>
<g opacity="0.9">
<mask id="mask0_2526_18046" style="mask-type:alpha" maskUnits="userSpaceOnUse" x="217" y="104" width="28" height="39">
<path d="M244.506 108.905L217.38 104.881V137.972L241.423 142.567L244.506 141.996V108.905Z" fill="black"/>
</mask>
<g mask="url(#mask0_2526_18046)">
<path d="M244.506 108.905L217.38 104.881V137.972L241.423 142.567L244.506 141.996V108.905Z" fill="black"/>
<path d="M241.423 109.102L214.297 104.79V140.244L241.423 144.556V109.102Z" fill="#1E1E1E"/>
</g>
</g>
<g opacity="0.9">
<path d="M179.767 153.171C179.767 166.714 188.109 177.694 198.399 177.694C208.689 177.694 217.031 166.714 217.031 153.171C217.031 139.628 208.689 128.648 198.399 128.648C188.109 128.648 179.767 139.628 179.767 153.171ZM214.786 153.171C214.786 165.082 207.449 174.738 198.399 174.738C189.349 174.738 182.013 165.082 182.013 153.171C182.013 141.26 189.349 131.604 198.399 131.604C207.449 131.604 214.786 141.26 214.786 153.171Z" fill="#1E1E1E"/>
<path d="M181.959 153.171C181.959 166.714 190.3 177.694 200.591 177.694C210.881 177.694 219.223 166.714 219.223 153.171C219.223 139.628 210.881 128.648 200.591 128.648C190.3 128.648 181.959 139.628 181.959 153.171ZM216.626 153.171C216.626 164.827 209.447 174.276 200.591 174.276C191.734 174.276 184.555 164.827 184.555 153.171C184.555 141.515 191.734 132.066 200.591 132.066C209.447 132.066 216.626 141.515 216.626 153.171Z" fill="black"/>
<path d="M186.071 153.833C186.071 156.096 186.382 158.337 186.988 160.428C187.594 162.518 188.482 164.418 189.602 166.018C190.721 167.618 192.05 168.888 193.513 169.754C194.976 170.62 196.543 171.065 198.127 171.065L198.127 165.465C197.058 165.465 196 165.164 195.012 164.579C194.025 163.995 193.128 163.138 192.372 162.058C191.617 160.978 191.017 159.696 190.609 158.284C190.2 156.873 189.989 155.361 189.989 153.833H186.071Z" fill="white" fill-opacity="0.56"/>
</g>
<path d="M241.415 148.533V139.917L219.221 135.94L189.012 144.556V151.847L210.59 159.8L241.415 148.533Z" fill="black"/>
<path d="M241.415 148.533V139.917L219.221 135.94L189.012 144.556V151.847L210.59 159.8L241.415 148.533Z" fill="black"/>
<path d="M241.415 139.917L219.221 135.94L189.629 143.231L209.973 148.533L241.415 139.917Z" fill="#323232"/>
<path d="M241.415 139.917L219.221 135.94L189.629 143.231L209.973 148.533L241.415 139.917Z" fill="#323232"/>
<path d="M211.693 75.9192C212.899 84.6417 206.693 83.6049 204.566 82.2849" stroke="#683124" stroke-width="5.01258"/>
<ellipse cx="215.119" cy="79.3963" rx="5.8767" ry="7.47442" fill="#EBC9A9"/>
<path fill-rule="evenodd" clip-rule="evenodd" d="M226.873 107.093C226.873 107.035 226.873 106.976 226.873 106.918C226.873 89.0068 222.488 89.0068 217.079 89.0068C210.007 89.8151 207.722 95.0008 207.344 110.49L207.284 110.501V137.368L219.038 140.95L226.873 141.846V107.093Z" fill="white"/>
<path fill-rule="evenodd" clip-rule="evenodd" d="M226.873 129.766V142.727L219.038 141.659L207.284 137.388V127.54L226.873 129.766Z" fill="#1F3C5F"/>
<path d="M209.242 83.6689C212.181 85.8045 213.16 84.7367 215.119 83.6689" stroke="black"/>
<path d="M211.201 78.3281C211.201 79.1823 210.548 80.8196 210.222 81.5314H213.16" stroke="black"/>
<path d="M209.402 76.399L221.403 76.4293C221.265 74.1359 219.886 69.6257 215.474 69.9321C211.062 70.2385 209.588 74.3711 209.402 76.399Z" fill="#683124"/>
<path d="M221.403 76.4293C221.868 84.1694 226.149 84.755 229.722 82.7796M221.403 76.4293L209.402 76.399C209.588 74.3711 211.062 70.2385 215.474 69.9321C219.886 69.6257 221.265 74.1359 221.403 76.4293Z" stroke="#683124" stroke-width="3"/>
<line x1="182.96" y1="169.681" x2="182.96" y2="182.494" stroke="#EBC9A9" stroke-width="3"/>
<path d="M173.625 189.971L181.461 182.496H185.378V188.903L173.625 189.971Z" fill="#F8CB2C"/>
<line y1="-1.5" x2="12.7813" y2="-1.5" transform="matrix(0.163074 0.986614 -0.981247 0.192757 195.643 173.658)" stroke="#EBC9A9" stroke-width="3"/>
<path d="M191.505 191.5L197.205 183.116L201.061 182.359L202.641 187.402L191.505 191.5Z" fill="#F8CB2C"/>
<path fill-rule="evenodd" clip-rule="evenodd" d="M197.126 144.877C200.812 142.855 205.76 140.871 212.504 138.401L209.766 129.915C203.035 132.38 197.56 134.546 193.271 136.899C188.942 139.273 185.5 142.006 183.112 145.785C180.715 149.58 179.671 153.97 179.339 159.084C179.01 164.133 179.359 170.228 179.991 177.635L185.959 176.972C185.959 169.681 186.298 164.001 186.575 159.74C186.848 155.545 187.754 152.498 189.041 150.461C190.339 148.407 193.481 146.876 197.126 144.877Z" fill="#1F3C5F"/>
<path fill-rule="evenodd" clip-rule="evenodd" d="M211.927 147.527C215.612 145.505 219.943 144.977 226.688 142.507L224.566 132.565C217.835 135.031 212.36 137.197 208.071 139.549C203.742 141.924 200.3 144.657 197.912 148.436C195.515 152.231 194.471 156.62 194.139 161.735C193.81 166.783 194.159 172.878 194.791 180.285L200.759 179.622C200.759 172.332 201.098 166.651 201.375 162.39C201.648 158.195 202.554 155.149 203.841 153.111C205.139 151.058 208.281 149.527 211.927 147.527Z" fill="#1F3C5F"/>
<g opacity="0.9">
<path d="M208.126 159.799C208.126 173.342 216.468 184.321 226.759 184.321C237.049 184.321 245.391 173.342 245.391 159.799C245.391 146.255 237.049 135.276 226.759 135.276C216.468 135.276 208.126 146.255 208.126 159.799ZM242.666 159.799C242.666 171.362 235.544 180.735 226.759 180.735C217.973 180.735 210.851 171.362 210.851 159.799C210.851 148.236 217.973 138.863 226.759 138.863C235.544 138.863 242.666 148.236 242.666 159.799Z" fill="#1E1E1E"/>
<path d="M210.318 159.799C210.318 173.342 218.66 184.321 228.95 184.321C239.24 184.321 247.582 173.342 247.582 159.799C247.582 146.255 239.24 135.276 228.95 135.276C218.66 135.276 210.318 146.255 210.318 159.799ZM244.679 159.799C244.679 171.232 237.637 180.501 228.95 180.501C220.263 180.501 213.221 171.232 213.221 159.799C213.221 148.365 220.263 139.097 228.95 139.097C237.637 139.097 244.679 148.365 244.679 159.799Z" fill="black"/>
<path d="M215.659 160.461C215.659 162.724 215.971 164.965 216.577 167.056C217.183 169.146 218.071 171.046 219.191 172.646C220.31 174.246 221.639 175.516 223.102 176.382C224.564 177.248 226.132 177.693 227.715 177.693L227.715 172.092C226.647 172.092 225.589 171.792 224.601 171.207C223.614 170.623 222.717 169.766 221.961 168.686C221.206 167.606 220.606 166.324 220.197 164.912C219.788 163.501 219.578 161.989 219.578 160.461H215.659Z" fill="white" fill-opacity="0.56"/>
</g>
<rect opacity="0.9" width="7.39803" height="3.97663" transform="matrix(-1 0 0 1 250.051 110.093)" fill="black"/>
<mask id="mask1_2526_18046" style="mask-type:alpha" maskUnits="userSpaceOnUse" x="7" y="110" width="208" height="42">
<path d="M110.447 110.657C109.56 110.559 108.664 110.591 107.788 110.751L12.4809 128.246C5.61497 129.506 5.93488 139.451 12.8689 140.308L106.465 151.88C107.38 151.993 108.305 151.967 109.211 151.804L209.798 133.681C216.723 132.433 216.352 122.381 209.352 121.606L110.447 110.657Z" fill="white"/>
</mask>
<g mask="url(#mask1_2526_18046)">
<path d="M110.447 110.657C109.56 110.559 108.664 110.591 107.788 110.751L20.2138 126.827C11.9904 128.336 12.3735 140.247 20.6786 141.274L106.743 151.914C107.473 152.005 108.212 151.984 108.936 151.854L209.797 133.681C216.723 132.433 216.352 122.381 209.352 121.606L110.447 110.657Z" fill="white"/>
<path d="M110.447 104.476C109.56 104.378 108.664 104.41 107.788 104.571L12.4809 122.065C5.61497 123.326 5.93487 133.27 12.8689 134.127L106.465 145.699C107.38 145.812 108.305 145.787 109.211 145.624L209.797 127.5C216.723 126.252 216.352 116.2 209.352 115.425L110.447 104.476Z" fill="black" fill-opacity="0.07"/>
</g>
<path fill-rule="evenodd" clip-rule="evenodd" d="M195.587 114.791C203.881 110.198 210.408 103.359 214.818 94.5932L212.818 92.0931C208.913 100.035 201.014 105.621 193.233 109.889C185.51 114.146 177.221 116.064 170.655 115.192L170.102 120.645C177.929 121.684 187.234 119.395 195.587 114.791Z" fill="#EBC9A9"/>
<path fill-rule="evenodd" clip-rule="evenodd" d="M213.04 91.0975L212.595 90.8509C209.52 96.7134 204.959 101.719 199.589 105.771L202.491 110.238C207.772 106.19 212.53 101.193 215.962 95.5954L213.04 91.0975Z" fill="white"/>
<path fill-rule="evenodd" clip-rule="evenodd" d="M212.851 119.968C219.114 112.534 223.525 104.788 224.787 94.915L220.256 92.0685C219.198 100.979 214.934 109.332 209.045 116.269C203.207 123.173 196.074 128.101 189.642 129.767L190.907 135.08C198.575 133.095 206.537 127.436 212.851 119.968Z" fill="#EBC9A9"/>
<path fill-rule="evenodd" clip-rule="evenodd" d="M222.716 92.8714L220.206 91.5816C219.504 98.1379 217.11 104.379 213.611 109.993L218.071 113.315C221.584 107.725 224.081 101.644 225.436 94.8979L222.716 92.8714Z" fill="white"/>
<path d="M51.5271 119.909C50.5497 119.782 49.5591 119.814 48.5934 120.004L10.5462 127.466L90.9543 137.79C91.9375 137.916 92.9339 137.882 93.9047 137.689L131.363 130.233L51.5271 119.909Z" fill="black" fill-opacity="0.05"/>
<path d="M37.3389 106.052L60.3548 106.052L68.4695 132.044L45.6076 132.044L37.3389 106.052Z" fill="black"/>
<rect x="46.0215" y="129.838" width="42.4727" height="2.22733" fill="black"/>
</g>
<defs>
<clipPath id="clip0_2526_18046">
<rect width="250" height="223" fill="white" transform="translate(0.00292969)"/>
</clipPath>
</defs>
</svg>
