<svg width="424" height="295" viewBox="0 0 424 295" fill="none" xmlns="http://www.w3.org/2000/svg">
<path d="M51.5559 3.86035C57.6048 5.26514 66.5621 12.8874 66.657 72.3604H47.5287C47.5154 23.1353 43.8801 5.60992 51.5559 3.86035Z" fill="#573515"/>
<ellipse rx="11.2839" ry="13.29" transform="matrix(0.997939 -0.0641719 0.064753 0.997901 39.7809 26.2645)" fill="#BD8A5A"/>
<line x1="31.4627" y1="173.635" x2="23.8707" y2="278.841" stroke="#BD8A5A" stroke-width="7.63126"/>
<path d="M55.157 179.36L69.6971 280.549" stroke="#BD8A5A" stroke-width="7.63126"/>
<path d="M52.7445 294.703L66.123 279.737L73.5935 278.852L74.9328 290.165L52.7445 294.703Z" fill="#9E8BE8"/>
<path d="M5 292.142L20.0454 278.853H27.5682V290.244L5 292.142Z" fill="#9E8BE8"/>
<path d="M29.0125 34.5674C34.8886 37.9945 36.6425 35.9792 40.273 33.8433" stroke="black" stroke-width="2.67094"/>
<path d="M32.1512 24.8529C32.2495 26.3686 31.1869 29.3541 30.6432 30.6574L36.2735 30.2953" stroke="black" stroke-width="2.67094"/>
<path d="M26.9472 16.741L51.577 16.5629C51.3346 12.8129 48.5848 5.45935 39.5243 6.04434C30.4638 6.62934 27.3643 13.4192 26.9472 16.741Z" fill="white"/>
<mask id="mask0" mask-type="alpha" maskUnits="userSpaceOnUse" x="0" y="49" width="43" height="76">
<path d="M40.686 53.1914C29.7372 59.8474 6.74469 75.7192 5.10237 84.4232C3.46004 93.1271 22.073 119.751 26.4526 120.263C29.9562 120.673 36.3065 119.751 39.0437 119.239" stroke="#F7D4BB" stroke-width="8.3967"/>
</mask>
<g mask="url(#mask0)">
<path d="M40.686 53.1914C29.7372 59.8474 6.74469 75.7192 5.10237 84.4232C3.46004 93.1271 22.073 119.751 26.4526 120.263C29.9562 120.673 36.3065 119.751 39.0437 119.239" stroke="#BD8A5A" stroke-width="8.3967"/>
<rect width="37.943" height="22.0495" transform="matrix(-0.819415 0.573201 0.624567 0.780971 43.1179 38.4502)" fill="#003884"/>
</g>
<path d="M55.896 55.4736C50.8945 46.0158 37.0641 44.7147 31.8542 45.8406L26 134.501H58.8813C59.4023 113.108 60.8975 64.9314 55.896 55.4736Z" fill="#003884"/>
<path d="M33.1182 79.5645L45.8105 79.5645L43.272 96.3601L35.5412 96.3601L33.1182 79.5645Z" fill="white"/>
<path d="M33.0029 84.2617L45.926 84.2617L44.7722 94.2252L34.5029 94.2252L33.0029 84.2617Z" fill="#BEA597"/>
<rect x="32.6567" y="78.1416" width="13.5" height="2.41971" fill="#8A5935"/>
<rect x="32.6567" y="78.1416" width="13.5" height="2.41971" fill="#8A5935"/>
<rect x="33.926" y="76.8604" width="10.9615" height="2.41971" fill="#8A5935"/>
<rect x="33.926" y="76.8604" width="10.9615" height="2.41971" fill="#8A5935"/>
<mask id="mask1" mask-type="alpha" maskUnits="userSpaceOnUse" x="28" y="50" width="48" height="55">
<path d="M49.3306 53.3604C57.0366 62.1988 72.6503 81.9145 71.4921 87.9386C70.3339 93.9627 45.8399 102.07 41.8042 100.47C38.5756 99.1904 33.2235 95.856 30.951 94.3488" stroke="#F7D4BB" stroke-width="8.3967"/>
</mask>
<g mask="url(#mask1)">
<path d="M49.3306 53.3604C57.0366 62.1988 72.6503 81.9145 71.4921 87.9386C70.3339 93.9627 45.8399 102.07 41.8042 100.47C38.5756 99.1904 33.2235 95.856 30.951 94.3488" stroke="#BD8A5A" stroke-width="8.3967"/>
<path d="M51.7939 48.0137L70.5173 71.9084L56.0449 75.6454L37.3215 51.7506L51.7939 48.0137Z" fill="#003884"/>
</g>
<path d="M25.786 120.36H59.657L77.657 252.36H50.657L43.157 160.36L37.157 252.36H10.657L25.786 120.36Z" fill="#9F9F9F"/>
<ellipse cx="46.3752" cy="14.1835" rx="10.5" ry="6.25" transform="rotate(31.5798 46.3752 14.1835)" fill="#573515"/>
<path d="M46.4719 7.40016C48.081 10.4601 46.0211 14.7098 41.871 16.8921C37.7209 19.0745 28.6243 23.4196 27.0153 20.3597C25.4062 17.2998 27.3796 7.99351 31.5296 5.81116C35.6797 3.62881 44.8628 4.34023 46.4719 7.40016Z" fill="#573515"/>
<path d="M144.917 84.7407C155.16 58.7055 125.456 75.152 119.765 76.355L115.944 158.516L155.16 164.138C150.144 141.678 140.687 95.4919 144.917 84.7407Z" fill="#FFC6C6"/>
<path d="M117.971 177.464L132.184 175.554V280.03L114.225 283.479L116.135 225.459L117.971 177.464Z" fill="#573515"/>
<path d="M136.371 173.291L152.143 169.118C152.143 169.118 156.976 225.283 197.719 255.89L188.943 269.279C146.885 240.064 136.371 173.291 136.371 173.291Z" fill="#573515"/>
<path d="M112.888 292.698L124.773 281.535H130.716V291.104L112.888 292.698Z" fill="#EAEAEA"/>
<path d="M192.785 280.281L191.708 264.812L195.472 259.94L201.908 264.035L192.785 280.281Z" fill="#EAEAEA"/>
<path fill-rule="evenodd" clip-rule="evenodd" d="M106.7 137.04C114.75 126.98 120.844 113.995 121.915 101.227L114.961 100.638C114.104 112.154 108.84 123.225 101.266 132.616C93.761 141.96 84.3588 148.879 75.6977 151.555L77.7728 158.263C88.0971 155.074 98.5823 147.147 106.7 137.04Z" fill="#F8DCCD"/>
<path fill-rule="evenodd" clip-rule="evenodd" d="M81.6941 149.089C88.5397 145.603 95.4694 139.832 101.267 132.614C108.841 123.223 114.105 112.152 114.962 100.636L121.916 101.225C120.845 113.993 114.751 126.977 106.701 137.038C100.933 144.219 93.9702 150.299 86.719 154.362L81.6941 149.089Z" fill="#93C94F"/>
<path fill-rule="evenodd" clip-rule="evenodd" d="M117.97 144.034L117.97 177.464L131.639 175.861L152.142 169.447L152.142 140.691L117.97 144.034Z" fill="#573515"/>
<path fill-rule="evenodd" clip-rule="evenodd" d="M177.406 107.46C166.976 114.362 154.038 118.901 141.914 118.358L142.206 111.207C153.128 111.809 164.169 107.869 173.911 101.365C183.601 94.9244 191.245 86.2439 194.812 77.7744L200.861 80.7437C196.609 90.8396 187.887 100.493 177.406 107.46Z" fill="#F8DCCD"/>
<path fill-rule="evenodd" clip-rule="evenodd" d="M191.56 83.8876C187.451 90.2899 181.272 96.474 173.911 101.366C165.202 107.18 155.455 110.945 145.683 111.249L150.858 117.892C160.184 116.554 169.513 112.684 177.406 107.46C184.78 102.56 191.282 96.3292 195.971 89.5503L191.56 83.8876Z" fill="#93C94F"/>
<path d="M120.758 48.9922C120.21 57.6335 124.351 61.6136 132.753 65.4929C138.107 67.9651 146.185 59.3421 146.733 50.7008C147.281 42.0595 141.911 34.6718 134.738 34.2C127.565 33.7282 121.306 40.3509 120.758 48.9922Z" fill="#F8DCCD"/>
<path fill-rule="evenodd" clip-rule="evenodd" d="M138.424 63.0137C140.767 63.5182 143.321 62.9244 146.846 60.8216L145.488 58.4614C142.235 60.4019 140.389 60.6409 138.98 60.3374C137.789 60.0809 136.802 59.4551 135.414 58.575C134.949 58.2803 134.44 57.9571 133.863 57.6097L132.496 59.9647C132.9 60.2081 133.305 60.4659 133.711 60.7253C135.201 61.6757 136.725 62.6479 138.424 63.0137Z" fill="black"/>
<path fill-rule="evenodd" clip-rule="evenodd" d="M144.428 51.3169C144.057 50.0206 143.847 48.8998 143.887 48.2695L141.206 48.0931C141.133 49.2509 141.478 50.7854 141.849 52.0816C141.99 52.5736 142.145 53.0646 142.3 53.5281L137.878 53.2373L137.705 55.9671L144.199 56.3942L146.354 56.536L145.526 54.5048C145.222 53.7592 144.784 52.5652 144.428 51.3169Z" fill="black"/>
<path d="M150.25 31.9319C151.291 33.0298 151.651 43.3246 143.127 43.3246C134.604 43.3246 119.384 51.8481 119.384 48.3089C119.384 44.7696 125.33 31.4791 133.63 31.9318C141.929 32.3845 141.651 22.863 150.25 31.9319Z" fill="#573515"/>
<path d="M141.547 69.4561L154.037 74.2234L151.155 120.38L158.36 164.803H141.547V117.13V69.4561Z" fill="#93C94F"/>
<path d="M127.408 70.6732L113.439 74.9109L115.834 118.347L109.448 166.02H127.408V118.347V70.6732Z" fill="#93C94F"/>
<path d="M123.014 75.7452V68.442L145.75 64.7904V68.2391L150.145 71.6879L152.246 73.5137L145.75 71.6879L161.799 202.131L152.246 211.057L140.974 72.5402L123.014 75.7452Z" fill="#AF9DF2"/>
<path d="M332.05 153.756V141.304L333.887 102.241L335.941 54.0162C335.941 54.0162 333.887 52.797 331.576 52.7969C329.334 52.7968 323.181 55.3078 321.783 58.7821C320.702 61.468 319.513 65.6184 318.217 78.5582C316.92 91.498 317.676 138.131 317.676 138.131L332.05 153.756Z" fill="#131313" stroke="#131313" stroke-width="0.5"/>
<path fill-rule="evenodd" clip-rule="evenodd" d="M337.104 53.0564L346.893 54.6497C344.636 66.4241 345.774 78.6974 349.354 90.5575L339.326 93.5131C335.471 80.358 334.102 66.2817 336.403 53.2628L337.104 53.0564Z" fill="#0078E8"/>
<path fill-rule="evenodd" clip-rule="evenodd" d="M416.027 261.598L398.801 247.811L402.915 242.935L420.141 256.722L416.027 261.598Z" fill="#F8DCCD"/>
<path fill-rule="evenodd" clip-rule="evenodd" d="M346.451 119.156C337.109 102.886 331.275 82.8916 332.67 64.3817L342.883 65.1666C341.466 81.8357 346.539 98.8998 355.346 114.101C364.064 129.219 376.091 141.315 388.024 147.168L383.468 156.276C369.245 149.298 355.881 135.509 346.451 119.156Z" fill="#F8DCCD"/>
<path fill-rule="evenodd" clip-rule="evenodd" d="M332.629 64.3763L342.882 65.1681C342.629 99.9032 368.2 134.026 380.246 139.832L373.814 152.965C349.667 133.728 327.593 94.1209 332.629 64.3763Z" fill="black"/>
<path fill-rule="evenodd" clip-rule="evenodd" d="M328.973 277.079V255.417H335.472V277.079H328.973Z" fill="#F8DCCD"/>
<path fill-rule="evenodd" clip-rule="evenodd" d="M320.565 88.503L320.564 159.284L337.462 157.469L362.809 150.21V106.754C362.809 106.72 362.809 106.686 362.809 106.652C362.809 106.577 362.809 106.502 362.809 106.427V95.7626L362.681 95.7406C361.865 64.3518 356.938 53.8431 341.687 52.2051C330.021 52.2051 320.565 52.2051 320.565 88.503Z" fill="#9E8BE8"/>
<path d="M320.564 159.284L337.481 156.696L340.048 271.623H323.618L320.564 159.284Z" fill="black"/>
<path d="M343.899 153.511L362.809 149.838C363.376 148.608 362.754 209.715 412.187 246.384L402.175 262.802C389.082 248.099 371.812 230.271 362.809 211.832C348.211 181.936 343.899 153.511 343.899 153.511Z" fill="black"/>
<path d="M313.948 290.086L328.642 277.45H335.989V288.281L313.948 290.086Z" fill="#A6D669"/>
<path d="M412.721 276.032L411.39 258.523L416.043 253.008L424 257.644L412.721 276.032Z" fill="#A6D669"/>
<path fill-rule="evenodd" clip-rule="evenodd" d="M320.565 137.255V159.284L334.657 164.783L348.777 162.577L362.809 150.209V133.472L320.565 137.255Z" fill="black"/>
<path d="M331.32 152.531V140.033L326.956 100.826L335.684 57.2076C335.684 57.2076 340.588 50.1805 344.669 51.3265C349.034 52.5518 352.388 53.7205 355.708 57.2076C358.276 59.9034 361.1 64.0691 364.18 77.0564C367.261 90.0437 365.464 136.848 365.464 136.848L331.32 152.531Z" fill="#131313" stroke="#131313" stroke-width="0.5"/>
<path fill-rule="evenodd" clip-rule="evenodd" d="M342.183 121.317C350.142 104.281 354.111 83.8514 350.789 65.5487L340.356 67.2468C343.512 83.7149 340.028 101.159 332.51 117.083C325.075 132.917 313.926 146.038 302.238 152.937L307.856 161.595C321.788 153.372 334.14 138.444 342.183 121.317Z" fill="#F8DCCD"/>
<path fill-rule="evenodd" clip-rule="evenodd" d="M350.831 65.5388L340.357 67.2474C344.156 101.806 321.308 138.073 309.499 144.934L317.457 157.432C340.357 136.112 359.046 94.6995 350.831 65.5388Z" fill="#1F1F1F"/>
<path d="M324.87 39.0794V30.1535V29.498C324.87 27.7149 325.431 25.9771 326.473 24.5302L327.974 22.4463C329.572 20.2285 332.138 18.9141 334.871 18.9141H340.428C343.365 18.9141 346.094 20.4304 347.646 22.9245L348.747 24.6939C349.585 26.0414 350.029 27.5966 350.029 29.1835V38.1933C350.029 41.5668 348.034 44.621 344.945 45.9767L339.292 48.4574C336.697 49.5965 333.704 49.3669 331.313 47.8452L328.807 46.2505C326.355 44.6903 324.87 41.9855 324.87 39.0794Z" fill="#F8DCCD"/>
<path d="M324.871 31.1662V37.8488L325.641 31.9014C325.641 31.9014 325.333 28.6157 326.154 26.7554C326.902 25.0614 327.732 24.229 329.235 23.0797C330.951 21.7675 334.369 20.8743 334.369 20.8743H336.68L343.354 22.3446L345.408 20.1391C345.408 20.1391 344.755 19.3837 344.125 19.1589C342.982 18.7511 342.227 18.7061 341.044 18.4238C337.963 17.6887 335.616 17.9467 332.572 18.9139C330.955 19.4278 330.05 19.8552 328.721 20.8743C326.641 22.4704 325.545 23.7998 324.871 26.2653C324.364 28.1172 324.871 31.1662 324.871 31.1662Z" fill="black" stroke="black" stroke-width="0.5"/>
<path fill-rule="evenodd" clip-rule="evenodd" d="M333.923 46.7444C331.916 47.0262 329.789 46.4135 326.924 44.536L328.198 42.7096C330.842 44.4423 332.389 44.7322 333.597 44.5627C334.617 44.4194 335.484 43.9683 336.704 43.3339C337.113 43.1215 337.56 42.8885 338.067 42.6396L339.095 44.6059C338.741 44.7803 338.385 44.9662 338.028 45.1534C336.718 45.8389 335.378 46.5401 333.923 46.7444Z" fill="black"/>
<path d="M346.723 37.8493L346.948 32.3922C346.948 32.3922 347.244 27.4615 346.178 25.5309C345.672 24.6151 344.381 23.0804 344.381 23.0804L346.435 20.875C346.435 20.875 349.123 23.2533 349.772 25.2858C350.357 27.1166 349.772 32.3922 349.772 32.3922C349.772 32.3922 349.033 32.4582 348.777 33.1934C348.52 33.9285 347.75 37.8493 347.75 37.8493H346.723Z" fill="black" stroke="black" stroke-width="0.5"/>
<path d="M329.8 21.2328C328.423 22.0452 326.924 24.014 326.924 24.014C326.924 24.014 328.947 22.0767 330.352 22.5164C331.463 22.8642 331.219 24.2279 332.676 24.5132C334.134 24.7985 336.054 25.0391 338.389 24.3349C339.558 23.9825 340.156 23.8556 341.266 23.3722C342.072 23.021 343.354 22.5164 343.354 22.5164C343.354 22.5164 340.121 20.725 337.798 20.2701C336.096 19.9366 335.064 19.7583 333.346 20.0205C331.886 20.2433 331.04 20.5012 329.8 21.2328Z" fill="url(#paint0_linear)"/>
<path d="M329.8 21.2328C328.423 22.0452 326.924 24.014 326.924 24.014C326.924 24.014 328.947 22.0767 330.352 22.5164C331.463 22.8642 331.219 24.2279 332.676 24.5132C334.134 24.7985 336.054 25.0391 338.389 24.3349C339.558 23.9825 340.156 23.8556 341.266 23.3722C342.072 23.021 343.354 22.5164 343.354 22.5164C343.354 22.5164 340.121 20.725 337.798 20.2701C336.096 19.9366 335.064 19.7583 333.346 20.0205C331.886 20.2433 331.04 20.5012 329.8 21.2328Z" fill="url(#paint1_linear)"/>
<rect x="322.967" y="33.5674" width="6.43816" height="4.15093" rx="1.125" fill="white" fill-opacity="0.7" stroke="#796DC4" stroke-width="0.75"/>
<path fill-rule="evenodd" clip-rule="evenodd" d="M329.477 37.0189C329.859 35.996 330.097 35.1058 330.097 34.5967H332.372C332.372 35.5317 331.998 36.7475 331.615 37.7703C331.47 38.1586 331.312 38.5452 331.156 38.9098H334.908V41.1144H329.398H327.569L328.378 39.5246C328.675 38.9411 329.109 38.004 329.477 37.0189Z" fill="black"/>
<rect x="334.262" y="33.5674" width="6.9516" height="4.15093" rx="1.125" fill="white" fill-opacity="0.7" stroke="#796DC4" stroke-width="0.75"/>
<path d="M326.956 100.826C326.956 100.826 334.914 57.9432 335.427 57.2081C335.941 56.473 341.075 50.5916 343.899 51.0817C346.723 51.5718 349.29 52.3072 349.29 52.3072L343.129 63.5793L339.278 62.5991L342.102 65.2946L326.956 100.826Z" fill="black" stroke="black" stroke-width="0.5"/>
<path d="M320.281 98.3753C320.281 98.3753 323.873 62.1078 325.671 57.9423C327.469 53.7769 334.657 52.5518 334.657 52.5518C334.657 52.5518 332.096 52.2223 328.753 52.0611C324.299 51.8463 321.308 60.8833 320.281 63.5789L323.105 62.8437L320.024 65.7843L320.281 98.3753Z" fill="black"/>
<path d="M209.548 234.99L231.349 72.1926C231.349 72.1926 257.734 72.1912 259.609 82.5406C261.483 92.89 292.309 240.96 292.309 240.96L209.548 234.99Z" fill="url(#paint2_linear)"/>
<path d="M255.256 40.8741C255.931 40.4675 256.744 40.3202 257.539 40.5277C259.148 40.9475 260.074 42.6605 259.608 44.3537C259.45 44.9272 259.153 45.4249 258.767 45.816C258.824 45.8276 258.882 45.8409 258.94 45.856C260.647 46.3014 261.63 48.1193 261.136 49.9163C260.833 51.0147 260.049 51.851 259.095 52.2335C260.449 52.814 261.183 54.3754 260.758 55.9204C260.487 56.9071 259.802 57.6694 258.96 58.0507C259.322 58.5754 259.455 59.2685 259.265 59.957C258.993 60.9456 258.141 61.6188 257.212 61.668C257.233 62.0191 257.197 62.3822 257.097 62.7443C256.631 64.4376 254.95 65.47 253.341 65.0502C252.735 64.892 252.226 64.5503 251.852 64.0952C251.101 65.0254 249.89 65.4907 248.718 65.1848C248.425 65.1083 248.155 64.989 247.911 64.8348C247.135 65.966 245.755 66.5576 244.423 66.2098C242.85 65.7994 241.892 64.2249 242.137 62.5747C241.568 62.4842 240.997 62.3649 240.425 62.2157C238.06 61.5984 235.958 60.5391 234.218 59.1792C233.5 59.462 232.703 59.5297 231.92 59.3253C230.307 58.9043 229.236 57.4558 229.155 55.8065C228.861 55.8048 228.564 55.767 228.27 55.6901C226.267 55.1675 225.114 53.035 225.694 50.927C225.805 50.5236 225.971 50.1504 226.182 49.8142C225.402 49.3189 225.01 48.3208 225.282 47.3321C225.469 46.6512 225.931 46.1199 226.505 45.8391C226.184 45.1714 226.096 44.3725 226.314 43.5778C226.739 42.0347 228.173 41.0404 229.642 41.194C229.629 40.9491 229.655 40.6963 229.725 40.4441C229.988 39.4864 230.796 38.8247 231.691 38.7395C231.611 38.2108 231.639 37.6516 231.793 37.0942C232.354 35.0553 234.378 33.8123 236.315 34.3177C236.838 34.4543 237.302 34.7046 237.688 35.0375C238.227 34.4073 239.069 34.0976 239.884 34.3104C240.213 34.3962 240.502 34.5578 240.739 34.773C241.183 33.7653 242.264 33.1879 243.303 33.4591C244.204 33.6942 244.805 34.4971 244.863 35.4159C245.485 35.1127 246.2 35.0198 246.901 35.2028C247.416 35.3373 247.862 35.6046 248.213 35.9615C248.939 35.406 249.877 35.1748 250.792 35.4136C252.351 35.8205 253.269 37.4423 252.9 39.0835C253.168 39.0444 253.445 39.0569 253.72 39.1285C254.551 39.3454 255.127 40.0455 255.256 40.8741Z" fill="#430914"/>
<path d="M251.858 55.7444C249.637 62.9647 242.501 67.2916 235.919 65.4089C229.336 63.5262 225.8 56.1468 228.021 48.9265C230.241 41.7062 236.492 43.2724 243.605 42.2376C241.401 52.1254 254.079 48.5242 251.858 55.7444Z" fill="#573515"/>
<path fill-rule="evenodd" clip-rule="evenodd" d="M205.919 107.573C205.85 98.4513 219.956 86.0203 229.977 76.1815L236.012 81.6063C226.886 90.3885 215.017 96.0803 213.045 109.012C211.058 121.854 226.891 130.114 236.432 137.353L233.075 144.429C217.185 133.885 202.874 123.027 205.919 107.573Z" fill="#573515"/>
<line y1="-3.14266" x2="22.9593" y2="0.216115" transform="matrix(-0.124663 0.992199 -0.992896 -0.118984 224.672 255.145)" stroke="#573515" stroke-width="6.28531"/>
<path d="M206.212 291.613L221.009 277.588H228.407V289.61L206.212 291.613Z" fill="#9F9F9F"/>
<path fill-rule="evenodd" clip-rule="evenodd" d="M233.259 62.4111C231.581 62.1869 230.041 61.1744 228.239 58.9155L229.733 57.657C231.396 59.7416 232.556 60.3456 233.566 60.4805C234.419 60.5946 235.229 60.4114 236.369 60.1539C236.751 60.0677 237.17 59.9731 237.639 59.8786L237.95 61.7883C237.621 61.8545 237.288 61.9305 236.954 62.007C235.728 62.2871 234.475 62.5737 233.259 62.4111Z" fill="black"/>
<path fill-rule="evenodd" clip-rule="evenodd" d="M231.879 52.6442C232.452 51.9011 232.871 51.2317 232.998 50.8163L234.883 51.3613C234.65 52.1243 234.036 53.0267 233.463 53.7697C233.246 54.0517 233.019 54.3295 232.798 54.5896L235.907 55.4885L235.356 57.2875L230.791 55.9674L229.276 55.5292L230.343 54.4257C230.735 54.0207 231.328 53.36 231.879 52.6442Z" fill="black"/>
<path d="M226.521 143.068L248.089 150.492L237.947 269.36L220.797 266.062L226.521 143.068Z" fill="#FFC6C6"/>
<path d="M233.484 154.955L261.98 146.875C261.98 146.875 266.345 205.659 266.345 216.207C266.345 227.566 250.117 230.406 248.9 216.207C247.683 202.008 233.484 154.955 233.484 154.955Z" fill="#FFC6C6"/>
<line y1="-3.14266" x2="22.8251" y2="-2.48992" transform="matrix(0.0462396 0.99893 -0.998146 0.0608719 260.525 262.924)" stroke="#573515" stroke-width="6.28531"/>
<path d="M248.811 294.181L261.317 280.027L268.754 279.64L270.689 289.492L248.811 294.181Z" fill="#9F9F9F"/>
<path d="M248.9 214.185C248.9 211.345 261.776 207.413 263.507 211.742C265.13 215.8 273.024 229.357 278.11 269.359C274.148 270.514 254.174 270.982 254.174 270.982C251.742 235.686 248.9 217.025 248.9 214.185Z" fill="#FFC6C6"/>
<path fill-rule="evenodd" clip-rule="evenodd" d="M262.257 148.536V169.175L248.548 167.27L227.985 159.651V144.565L262.257 148.536Z" fill="#FFC6C6"/>
<path d="M258.136 81.5995C252.097 72.2823 238.963 70.6783 232.673 71.7875L225.143 148.168H262.519C263.148 127.094 264.175 90.9167 258.136 81.5995Z" fill="#573515"/>
<mask id="mask2" mask-type="alpha" maskUnits="userSpaceOnUse" x="221" y="71" width="46" height="86">
<path d="M260.606 82.8734C253.488 72.5579 238.058 70.557 230.644 71.785L221.719 156.575H265.771C266.513 133.242 267.723 93.1889 260.606 82.8734Z" fill="#573515"/>
</mask>
<g mask="url(#mask2)">
<path d="M239.164 84.7694L227.399 71.3816L209.143 152.52L269.996 158.199L273.647 105.46L255.391 71.3816L239.164 84.7694Z" fill="#222222"/>
</g>
<path d="M251.74 169.963V76.2486C251.74 76.2486 251.745 75.1829 252.146 73.8145C253.481 69.2529 261.477 76.2486 261.477 76.2486L291.903 240.148L264.316 242.582L251.74 169.963Z" fill="#EAEAEA"/>
<path fill-rule="evenodd" clip-rule="evenodd" d="M287.013 111.944C287.013 102.209 272.439 88.3101 262.077 77.3603L257.42 83.1448C266.854 92.9268 277.586 99.2696 279.71 113.163C281.848 126.961 265.662 135.073 255.926 142.376L259.854 148.461C276.081 137.912 290.258 128.578 287.013 111.944Z" fill="#573515"/>
<path d="M205.897 96.534C214.417 81.5234 230.644 68.1356 230.644 68.1356L232.267 70.5698L230.644 85.5803C230.644 85.5803 226.887 89.611 223.747 92.4771C218.923 96.8811 213.728 105.454 214.417 111.95C214.97 117.168 220.908 123.715 220.908 123.715L214.417 132.235C214.417 132.235 208.251 125.62 205.897 119.658C202.567 111.227 201.422 104.418 205.897 96.534Z" fill="#EFEFEF"/>
<path d="M233.078 69.3489C233.256 67.9431 229.995 67.1323 229.833 68.5401C225.776 103.838 208.331 234.059 208.331 234.059L218.879 239.333L227.398 168.337C227.398 168.337 229.832 94.9075 233.078 69.3489Z" fill="#EAEAEA"/>
<path d="M273.242 86.3914C266.625 80.1466 257.42 73.4093 257.42 73.4093L256.203 87.2028C256.203 87.2028 264.861 92.8541 269.185 97.7508C273.287 102.396 277.522 105.427 278.11 111.95C278.504 116.314 278.516 118.035 275.676 122.904C272.836 127.772 262.288 135.886 262.288 135.886L269.185 145.622C269.185 145.622 280.866 135.942 283.384 132.235C286.26 128 287.576 125.878 288.658 120.875C290.032 114.526 289.751 112.6 288.658 107.487C286.524 97.5091 280.639 93.3729 273.242 86.3914Z" fill="#EDEDED"/>
<path d="M265.128 186.596H278.11L281.356 209.72L276.487 218.24L268.373 211.749L265.128 186.596Z" fill="#FAFAFA"/>
<path d="M251.74 146.027C251.74 146.027 251.335 77.0591 251.335 73.0003C251.334 68.9414 259.043 72.5952 258.637 75.0311C258.231 77.467 257.826 89.634 257.826 89.634H254.174L257.014 91.6624L251.74 146.027Z" fill="#F7F7F7"/>
<path d="M228.21 146.84C228.21 146.84 232.757 74.6789 233.033 70.6073C233.308 66.5357 229.833 67.3234 228.21 69.7576C226.587 72.1917 227.399 87.6094 227.399 87.6094L229.833 87.6094L227.399 89.6378L228.21 146.84Z" fill="#F8F8F8"/>
<path d="M253.092 100.32C253.754 105.996 258.502 117.9 261.657 112.04M262.108 100.748C259.813 109.226 256.248 117.449 253.543 111.589" stroke="#9F9F9F" stroke-width="0.901536"/>
<path d="M251.741 101.726C251.771 102.472 252.4 103.053 253.146 103.023C253.893 102.994 254.473 102.364 254.444 101.618L251.741 101.726ZM260.309 101.56C260.247 102.304 260.8 102.958 261.545 103.02C262.289 103.082 262.942 102.529 263.005 101.784L260.309 101.56ZM254.566 70.009L254.007 71.2401L256.469 72.3592L257.029 71.1281L254.566 70.009ZM227.626 68.1639L228.376 69.2891L230.626 67.7887L229.876 66.6636L227.626 68.1639ZM231.081 110.684C231.328 111.389 232.1 111.76 232.805 111.513C233.509 111.266 233.881 110.495 233.634 109.79L231.081 110.684ZM254.444 101.618C254.226 96.1729 255.438 93.7704 256.398 92.7275C256.88 92.203 257.348 91.9655 257.662 91.8549C257.822 91.7985 257.947 91.7735 258.02 91.7627C258.056 91.7573 258.078 91.7555 258.084 91.755C258.087 91.7548 258.086 91.755 258.081 91.7551C258.078 91.7552 258.074 91.7553 258.069 91.7554C258.067 91.7555 258.064 91.7555 258.061 91.7555C258.06 91.7555 258.058 91.7555 258.056 91.7556C258.055 91.7556 258.054 91.7556 258.054 91.7556C258.052 91.7556 258.051 91.7556 258.051 90.4033C258.051 89.051 258.05 89.051 258.048 89.051C258.048 89.051 258.046 89.051 258.045 89.051C258.043 89.051 258.041 89.051 258.039 89.051C258.035 89.051 258.03 89.0511 258.025 89.0512C258.015 89.0514 258.003 89.0516 257.99 89.0521C257.964 89.0529 257.933 89.0544 257.897 89.057C257.824 89.062 257.73 89.0712 257.619 89.0879C257.398 89.121 257.104 89.1841 256.764 89.3038C256.078 89.5452 255.221 90.0121 254.407 90.8962C252.775 92.6705 251.508 95.9024 251.741 101.726L254.444 101.618ZM258.051 90.4033C257.917 91.7489 257.915 91.7487 257.913 91.7485C257.913 91.7485 257.911 91.7483 257.91 91.7482C257.908 91.748 257.907 91.7478 257.905 91.7476C257.901 91.7472 257.898 91.7468 257.894 91.7464C257.888 91.7457 257.882 91.7449 257.878 91.7443C257.868 91.743 257.863 91.742 257.86 91.7416C257.856 91.7408 257.864 91.7421 257.884 91.7475C257.923 91.7584 258.007 91.7854 258.12 91.8438C258.339 91.957 258.703 92.2058 259.08 92.7505C259.843 93.8529 260.747 96.3069 260.309 101.56L263.005 101.784C263.468 96.219 262.569 93.0385 261.304 91.2111C260.667 90.2908 259.961 89.7509 259.362 89.4415C259.067 89.2887 258.806 89.196 258.602 89.14C258.5 89.1119 258.413 89.093 258.343 89.0803C258.307 89.074 258.277 89.0691 258.25 89.0655C258.237 89.0636 258.225 89.0621 258.214 89.0608C258.209 89.0602 258.204 89.0596 258.199 89.0591C258.197 89.0588 258.194 89.0586 258.192 89.0583C258.191 89.0582 258.189 89.058 258.189 89.058C258.187 89.0578 258.186 89.0577 258.051 90.4033ZM258.051 90.4033C259.403 90.4033 259.403 90.4031 259.403 90.4029C259.403 90.4026 259.403 90.4023 259.403 90.4019C259.403 90.4011 259.403 90.3998 259.403 90.3983C259.403 90.3951 259.403 90.3904 259.403 90.3843C259.403 90.3721 259.403 90.354 259.403 90.3303C259.403 90.2829 259.403 90.2128 259.403 90.1219C259.402 89.9401 259.401 89.6745 259.399 89.3387C259.395 88.6671 259.386 87.7138 259.368 86.5856C259.333 84.3312 259.262 81.3697 259.12 78.5583C258.979 75.7727 258.765 73.05 258.428 71.3174C258.342 70.8795 258.242 70.4663 258.12 70.1138C258.016 69.8144 257.83 69.3533 257.469 69.0134C257.263 68.8191 256.93 68.5996 256.476 68.5651C256.015 68.5301 255.642 68.702 255.394 68.8837C254.971 69.1945 254.72 69.6699 254.566 70.009L257.029 71.1281C257.156 70.8474 257.17 70.9354 256.994 71.0647C256.87 71.1556 256.617 71.2882 256.271 71.2619C255.933 71.2363 255.712 71.0736 255.614 70.981C255.469 70.8446 255.483 70.766 255.565 71.0017C255.628 71.1843 255.7 71.4587 255.773 71.8344C256.069 73.3559 256.278 75.9018 256.419 78.6947C256.559 81.4618 256.629 84.3886 256.664 86.628C256.681 87.7467 256.69 88.6916 256.694 89.3565C256.697 89.6889 256.698 89.9512 256.698 90.1302C256.698 90.2196 256.699 90.2882 256.699 90.3343C256.699 90.3573 256.699 90.3747 256.699 90.3863C256.699 90.3921 256.699 90.3964 256.699 90.3992C256.699 90.4006 256.699 90.4017 256.699 90.4024C256.699 90.4027 256.699 90.4029 256.699 90.4031C256.699 90.4032 256.699 90.4033 258.051 90.4033ZM229.876 66.6636C229.768 66.502 229.526 66.1768 229.095 66.0025C228.523 65.7706 227.961 65.9297 227.588 66.23C227.297 66.4643 227.144 66.7578 227.068 66.9232C226.98 67.1156 226.914 67.3207 226.864 67.5135C226.667 68.2572 226.54 69.4003 226.46 70.7619C226.296 73.5368 226.309 77.6122 226.544 82.22C227.011 91.4053 228.37 102.947 231.081 110.684L233.634 109.79C231.055 102.434 229.709 91.2117 229.245 82.0826C229.014 77.5331 229.004 73.5636 229.16 70.921C229.239 69.5739 229.357 68.665 229.479 68.203C229.492 68.152 229.504 68.1136 229.513 68.0862C229.523 68.0582 229.528 68.0478 229.526 68.0507C229.526 68.0521 229.513 68.0808 229.483 68.1247C229.455 68.166 229.392 68.2495 229.284 68.3363C229.008 68.5586 228.547 68.6985 228.08 68.5091C227.904 68.4377 227.789 68.3419 227.729 68.2843C227.668 68.2254 227.635 68.1781 227.626 68.1639L229.876 66.6636Z" fill="#AF9DF2"/>
<circle cx="233.258" cy="112.941" r="3.60614" fill="#C4C4C4"/>
<circle cx="233.258" cy="112.941" r="2.70461" fill="#EAEAEA"/>
<circle cx="233.258" cy="112.941" r="2.70461" fill="#EAEAEA"/>
<circle cx="233.258" cy="112.941" r="2.70461" fill="#EAEAEA"/>
<circle cx="233.258" cy="112.941" r="0.901536" fill="#EAEAEA"/>
<circle cx="233.258" cy="112.941" r="0.901536" fill="#EAEAEA"/>
<circle cx="233.258" cy="112.941" r="0.901536" fill="#707070"/>
<circle cx="253.994" cy="112.04" r="0.901536" fill="#333333"/>
<circle cx="261.206" cy="112.04" r="0.901536" fill="#333333"/>
<defs>
<linearGradient id="paint0_linear" x1="327.437" y1="23.5702" x2="342.237" y2="19.5605" gradientUnits="userSpaceOnUse">
<stop/>
<stop offset="1" stop-color="#333333"/>
</linearGradient>
<linearGradient id="paint1_linear" x1="335.139" y1="23.0801" x2="335.139" y2="24.7955" gradientUnits="userSpaceOnUse">
<stop stop-color="white" stop-opacity="0"/>
<stop offset="1" stop-color="#F8DCCD" stop-opacity="0.39"/>
</linearGradient>
<linearGradient id="paint2_linear" x1="250.929" y1="72.1926" x2="251.125" y2="88.9087" gradientUnits="userSpaceOnUse">
<stop stop-color="#F5F5F5"/>
<stop offset="1" stop-color="#C4C4C4"/>
</linearGradient>
</defs>
</svg>
