<svg width="1440" height="3441" viewBox="0 0 1440 3441" fill="none" xmlns="http://www.w3.org/2000/svg">
<circle cx="342.169" cy="556.995" r="13.125" transform="rotate(170.328 342.169 556.995)" stroke="#BDDEFF" stroke-width="1.5" stroke-dasharray="11.25 11.25"/>
<path d="M346.635 580.96L338.444 532.903" stroke="#BDDEFF" stroke-width="1.5" stroke-dasharray="6.75 6.75"/>
<path d="M319.557 560.469L364.656 552.782" stroke="#BDDEFF" stroke-width="1.5" stroke-dasharray="6.75 6.75"/>
<circle cx="342.167" cy="556.996" r="221.625" transform="rotate(170.328 342.167 556.996)" stroke="#BDDEFF" stroke-width="1.5" stroke-dasharray="45 45"/>
<path d="M400.781 771.446L393.788 730.412L422.29 719.088L441.411 755.391M358.269 778.691L351.276 737.658L319.522 736.603L313.01 776.514M271.855 767.171L281.757 727.062L249.277 712.816L231.532 749.316M477.887 732.817L454.645 699.118L479.644 673.935L509.956 702.244M534.427 667.261L500.128 644.576L513.336 614.935L551.911 627.001M562.607 584.855L522.57 577.603L522.507 543.758L563.864 540.894M556.682 498.751L517.505 507.711L504.992 474.466L540.871 457.319M516.692 420.356L484.228 444.148L461.884 420.186L486.859 388.16M452.56 365.475L432.517 397.422L401.155 385.268L411.985 346.143M371.263 337.106L363.886 376.404L333.43 376.269L326.437 335.236M283.925 342.481L290.918 383.514L263.029 393.974L242.555 358.662M197.351 725.09L221.767 692.018L198.369 666.334L166.409 693.084M143.402 656.301L179.643 636.81L168.255 607.938L127.961 614.806M120.715 572.294L161.009 565.426L162.505 536.26L121.666 528.765M131.316 487.178L170.631 499.117L183.712 468.737L149.477 446.422M173.947 411.439L204.259 439.748L230.43 414.746L206.386 380.803" stroke="#BDDEFF" stroke-width="1.5"/>
<circle cx="341.736" cy="556.688" r="146.25" transform="rotate(170.328 341.736 556.688)" stroke="#BDDEFF" stroke-width="1.5"/>
<path d="M266.275 594.581C263.835 589.67 261.844 584.466 260.363 579.013L260.724 578.914C260.006 576.269 259.408 573.565 258.938 570.806C258.468 568.048 258.136 565.298 257.938 562.565L257.564 562.592C257.155 556.955 257.31 551.385 257.986 545.944L258.358 545.99C259.047 540.443 260.279 535.03 262.007 529.818L261.651 529.7C263.409 524.397 265.679 519.301 268.411 514.482L268.738 514.667C271.47 509.846 274.668 505.303 278.281 501.108L277.996 500.864C281.615 496.662 285.648 492.808 290.047 489.371L290.278 489.666C294.607 486.283 299.292 483.306 304.286 480.801L304.118 480.466C309.021 478.007 314.22 476.003 319.67 474.515L319.769 474.877C322.413 474.155 325.117 473.555 327.875 473.085C330.633 472.615 333.383 472.285 336.117 472.09L336.09 471.716C341.726 471.315 347.295 471.484 352.736 472.18L352.688 472.552C358.229 473.261 363.636 474.518 368.842 476.276L368.962 475.921C374.251 477.707 379.333 480.008 384.139 482.774L383.952 483.099C388.75 485.86 393.272 489.087 397.447 492.73L397.694 492.448C401.868 496.09 405.698 500.147 409.114 504.568L408.817 504.797C412.174 509.142 415.129 513.841 417.617 518.847L417.952 518.68C420.392 523.591 422.384 528.795 423.865 534.249L423.503 534.347C424.221 536.992 424.819 539.696 425.289 542.455C425.76 545.213 426.091 547.963 426.29 550.696L426.664 550.669C427.073 556.306 426.917 561.876 426.242 567.317L425.87 567.271C425.181 572.818 423.949 578.231 422.221 583.443L422.577 583.561C420.818 588.864 418.548 593.96 415.816 598.779L415.49 598.594C412.757 603.415 409.56 607.958 405.947 612.153L406.231 612.397C402.613 616.599 398.579 620.453 394.181 623.891L393.95 623.595C389.62 626.978 384.935 629.955 379.942 632.46L380.11 632.795C375.207 635.254 370.008 637.258 364.557 638.746L364.459 638.384C361.814 639.106 359.111 639.706 356.353 640.176C353.594 640.646 350.845 640.976 348.111 641.171L348.138 641.545C342.502 641.946 336.932 641.777 331.492 641.081L331.539 640.709C325.998 640 320.591 638.743 315.386 636.985L315.266 637.34C309.977 635.554 304.895 633.253 300.089 630.488L300.276 630.163C295.477 627.401 290.956 624.174 286.78 620.531L286.534 620.813C282.359 617.171 278.53 613.114 275.114 608.693L275.411 608.464C272.054 604.119 269.098 599.42 266.611 594.414L266.275 594.581Z" stroke="#BDDEFF" stroke-width="0.75" stroke-dasharray="15 15"/>
<path d="M4.95133 290.229C3.32408 285.943 1.95778 281.509 0.874725 276.944L1.23961 276.857C0.709629 274.623 0.24769 272.357 -0.143571 270.062C-0.534833 267.766 -0.849511 265.475 -1.08948 263.191L-1.46243 263.231C-1.95284 258.564 -2.13231 253.928 -2.01662 249.345L-1.64174 249.355C-1.52409 244.694 -1.10006 240.088 -0.386342 235.56L-0.756765 235.502C-0.0303008 230.894 0.995221 226.367 2.30233 221.946L2.66194 222.052C3.97707 217.604 5.57828 213.263 7.44765 209.056L7.10496 208.903C8.99151 204.657 11.1502 200.546 13.5628 196.595L13.8828 196.791C16.292 192.846 18.9553 189.062 21.8543 185.465L21.5623 185.229C24.4687 181.623 27.6112 178.205 30.9714 174.999L31.2303 175.27C34.5635 172.091 38.1116 169.122 41.8566 166.389L41.6356 166.086C45.3615 163.368 49.2818 160.882 53.3786 158.655L53.5577 158.984C57.5853 156.794 61.7843 154.854 66.1376 153.189L66.0037 152.839C70.286 151.2 74.7172 149.827 79.2814 148.74L79.3683 149.104C81.6018 148.573 83.8673 148.11 86.1629 147.718C88.4586 147.327 90.7495 147.014 93.0331 146.776L92.9943 146.403C97.6608 145.916 102.297 145.745 106.88 145.872L106.87 146.247C111.529 146.376 116.133 146.816 120.659 147.548L120.719 147.178C125.322 147.922 129.845 148.969 134.261 150.3L134.153 150.659C138.591 151.997 142.923 153.623 147.121 155.519L147.275 155.177C151.507 157.089 155.605 159.273 159.542 161.713L159.344 162.032C163.271 164.466 167.037 167.154 170.617 170.078L170.855 169.787C174.439 172.716 177.838 175.88 181.025 179.262L180.752 179.519C183.909 182.87 186.858 186.435 189.572 190.196L189.877 189.977C192.574 193.715 195.041 197.647 197.253 201.755L196.923 201.932C199.096 205.968 201.022 210.173 202.677 214.532L203.028 214.399C204.655 218.685 206.021 223.118 207.104 227.684L206.739 227.771C207.269 230.005 207.731 232.271 208.122 234.566C208.514 236.862 208.828 239.153 209.068 241.436L209.441 241.397C209.932 246.064 210.111 250.7 209.995 255.283L209.621 255.273C209.503 259.934 209.079 264.54 208.365 269.067L208.736 269.126C208.009 273.734 206.984 278.261 205.677 282.682L205.317 282.576C204.002 287.024 202.401 291.365 200.531 295.572L200.874 295.725C198.987 299.971 196.829 304.082 194.416 308.033L194.096 307.837C191.687 311.782 189.024 315.566 186.125 319.163L186.417 319.398C183.51 323.004 180.368 326.423 177.007 329.629L176.749 329.357C173.415 332.537 169.867 335.506 166.122 338.238L166.343 338.541C162.617 341.26 158.697 343.746 154.6 345.973L154.421 345.644C150.394 347.834 146.195 349.773 141.841 351.439L141.975 351.789C137.693 353.427 133.262 354.801 128.697 355.888L128.611 355.523C126.377 356.055 124.112 356.518 121.816 356.909C119.52 357.301 117.229 357.614 114.946 357.852L114.985 358.225C110.318 358.712 105.682 358.883 101.099 358.756L101.109 358.381C96.4498 358.252 91.8454 357.812 87.3198 357.08L87.2599 357.45C82.6565 356.705 78.1342 355.659 73.718 354.328L73.8263 353.969C69.3875 352.631 65.0563 351.005 60.858 349.109L60.7037 349.451C56.4714 347.539 52.3739 345.354 48.437 342.915L48.6346 342.596C44.7078 340.162 40.9415 337.474 37.3615 334.55L37.1243 334.84C33.5394 331.912 30.1407 328.748 26.954 325.366L27.227 325.109C24.0694 321.758 21.1208 318.193 18.4064 314.431L18.1023 314.651C15.4046 310.912 12.9374 306.981 10.7255 302.873L11.0557 302.695C8.88262 298.66 6.95683 294.455 5.30191 290.096L4.95133 290.229Z" stroke="#BDDEFF" stroke-width="0.75" stroke-dasharray="15 15"/>
<path d="M178.14 596.525C176.749 594.305 175.629 591.88 174.834 589.287L175.193 589.177C174.812 587.937 174.507 586.657 174.283 585.343C174.059 584.028 173.923 582.72 173.871 581.423L173.496 581.438C173.388 578.729 173.641 576.069 174.218 573.514L174.584 573.596C175.167 571.01 176.086 568.532 177.3 566.22L176.967 566.045C178.206 563.686 179.747 561.497 181.548 559.538L181.824 559.791C183.594 557.867 185.618 556.168 187.856 554.752L187.655 554.435C189.87 553.033 192.292 551.905 194.881 551.106L194.992 551.464C196.232 551.081 197.511 550.775 198.825 550.551C200.139 550.327 201.448 550.192 202.745 550.143L202.73 549.768C205.439 549.664 208.097 549.927 210.652 550.516L210.567 550.881C213.148 551.476 215.62 552.409 217.928 553.638L218.104 553.307C220.453 554.559 222.632 556.114 224.582 557.93L224.326 558.205C226.237 559.985 227.925 562.019 229.332 564.265L229.65 564.066C231.04 566.286 232.16 568.712 232.956 571.304L232.597 571.414C232.978 572.655 233.283 573.935 233.507 575.249C233.731 576.563 233.867 577.872 233.919 579.169L234.293 579.154C234.402 581.863 234.148 584.523 233.572 587.078L233.206 586.995C232.622 589.581 231.704 592.059 230.49 594.372L230.822 594.546C229.584 596.906 228.043 599.095 226.242 601.054L225.966 600.8C224.196 602.724 222.172 604.424 219.934 605.84L220.135 606.157C217.92 607.559 215.498 608.687 212.908 609.486L212.798 609.128C211.558 609.51 210.278 609.817 208.964 610.041C207.65 610.265 206.342 610.399 205.045 610.449L205.059 610.824C202.351 610.927 199.692 610.665 197.138 610.076L197.222 609.711C194.642 609.116 192.169 608.183 189.862 606.953L189.686 607.284C187.337 606.033 185.158 604.477 183.208 602.661L183.464 602.387C181.553 600.607 179.865 598.573 178.458 596.326L178.14 596.525Z" stroke="#BDDEFF" stroke-width="0.75" stroke-dasharray="9 9"/>
<path d="M339.944 711.314C338.553 709.094 337.433 706.669 336.638 704.077L336.996 703.967C336.616 702.726 336.31 701.446 336.086 700.132C335.862 698.818 335.727 697.509 335.675 696.212L335.3 696.227C335.192 693.518 335.445 690.858 336.022 688.303L336.388 688.385C336.971 685.799 337.89 683.321 339.103 681.009L338.771 680.834C340.009 678.475 341.55 676.286 343.352 674.327L343.628 674.58C345.398 672.656 347.422 670.957 349.659 669.541L349.459 669.224C351.674 667.822 354.095 666.694 356.685 665.895L356.796 666.253C358.036 665.87 359.315 665.564 360.629 665.34C361.943 665.116 363.252 664.981 364.548 664.932L364.534 664.557C367.242 664.453 369.901 664.716 372.455 665.305L372.371 665.67C374.951 666.265 377.424 667.198 379.731 668.427L379.908 668.096C382.257 669.348 384.436 670.903 386.385 672.719L386.13 672.994C388.041 674.774 389.729 676.808 391.136 679.054L391.453 678.855C392.844 681.075 393.964 683.501 394.759 686.093L394.401 686.203C394.782 687.444 395.087 688.724 395.311 690.038C395.535 691.352 395.671 692.661 395.722 693.958L396.097 693.943C396.205 696.652 395.952 699.312 395.375 701.867L395.01 701.784C394.426 704.37 393.507 706.848 392.294 709.161L392.626 709.335C391.388 711.695 389.847 713.884 388.045 715.843L387.769 715.589C386 717.513 383.975 719.213 381.738 720.629L381.938 720.946C379.723 722.348 377.302 723.476 374.712 724.275L374.601 723.917C373.361 724.299 372.082 724.606 370.768 724.83C369.454 725.054 368.146 725.188 366.849 725.238L366.863 725.613C364.155 725.716 361.496 725.454 358.942 724.865L359.026 724.5C356.446 723.905 353.973 722.972 351.666 721.742L351.489 722.073C349.141 720.822 346.962 719.267 345.012 717.45L345.267 717.176C343.356 715.396 341.669 713.362 340.261 711.115L339.944 711.314Z" stroke="#BDDEFF" stroke-width="0.75" stroke-dasharray="9 9"/>
<path d="M364.041 857.016C362.941 854.121 362.019 851.127 361.287 848.043L361.652 847.956C361.295 846.45 360.983 844.922 360.719 843.374C360.455 841.826 360.243 840.281 360.081 838.741L359.708 838.78C359.377 835.628 359.256 832.496 359.334 829.401L359.709 829.41C359.788 826.267 360.074 823.161 360.555 820.109L360.185 820.05C360.676 816.938 361.368 813.88 362.251 810.893L362.611 811C363.498 808 364.577 805.073 365.838 802.236L365.495 802.084C366.77 799.215 368.228 796.438 369.857 793.77L370.177 793.965C371.802 791.305 373.598 788.754 375.553 786.328L375.261 786.093C377.224 783.657 379.347 781.348 381.616 779.183L381.875 779.454C384.123 777.31 386.515 775.308 389.041 773.465L388.82 773.162C391.336 771.326 393.984 769.647 396.752 768.142L396.931 768.472C399.647 766.995 402.478 765.687 405.413 764.564L405.279 764.214C408.172 763.107 411.165 762.179 414.248 761.445L414.335 761.81C415.841 761.451 417.369 761.139 418.917 760.875C420.465 760.612 422.01 760.4 423.549 760.24L423.511 759.867C426.663 759.538 429.794 759.422 432.89 759.508L432.88 759.883C436.021 759.97 439.126 760.267 442.178 760.76L442.238 760.39C445.347 760.893 448.402 761.6 451.385 762.499L451.277 762.858C454.27 763.76 457.19 764.857 460.021 766.135L460.175 765.794C463.034 767.085 465.802 768.56 468.461 770.208L468.264 770.527C470.912 772.168 473.451 773.981 475.865 775.953L476.103 775.662C478.524 777.64 480.82 779.778 482.972 782.062L482.699 782.319C484.829 784.579 486.817 786.983 488.647 789.519L488.951 789.3C490.773 791.825 492.44 794.481 493.934 797.255L493.604 797.433C495.069 800.154 496.368 802.99 497.484 805.929L497.834 805.796C498.933 808.691 499.856 811.686 500.588 814.769L500.223 814.856C500.58 816.363 500.892 817.89 501.156 819.439C501.42 820.987 501.632 822.532 501.794 824.071L502.167 824.032C502.498 827.184 502.619 830.316 502.541 833.411L502.166 833.402C502.087 836.545 501.801 839.651 501.319 842.704L501.69 842.762C501.199 845.875 500.506 848.932 499.624 851.919L499.264 851.812C498.377 854.812 497.297 857.739 496.037 860.576L496.38 860.728C495.105 863.597 493.647 866.374 492.018 869.042L491.698 868.847C490.073 871.507 488.277 874.059 486.322 876.484L486.614 876.719C484.651 879.155 482.528 881.464 480.259 883.63L480 883.358C477.752 885.502 475.36 887.504 472.834 889.347L473.055 889.65C470.539 891.486 467.891 893.165 465.123 894.67L464.944 894.34C462.228 895.817 459.397 897.125 456.462 898.248L456.596 898.598C453.703 899.705 450.71 900.633 447.627 901.367L447.54 901.002C446.034 901.361 444.506 901.673 442.958 901.937C441.41 902.201 439.865 902.412 438.325 902.573L438.364 902.946C435.212 903.274 432.081 903.39 428.985 903.304L428.995 902.929C425.854 902.842 422.749 902.546 419.697 902.052L419.637 902.422C416.528 901.919 413.473 901.212 410.49 900.313L410.598 899.954C407.605 899.052 404.685 897.955 401.854 896.677L401.699 897.019C398.841 895.728 396.073 894.252 393.414 892.604L393.611 892.285C390.963 890.644 388.424 888.831 386.01 886.859L385.772 887.15C383.351 885.172 381.055 883.035 378.903 880.75L379.176 880.493C377.046 878.234 375.058 875.83 373.228 873.293L372.924 873.513C371.101 870.987 369.435 868.332 367.941 865.557L368.271 865.379C366.806 862.658 365.507 859.823 364.391 856.883L364.041 857.016Z" stroke="#BDDEFF" stroke-width="0.75" stroke-dasharray="9 9"/>
<path d="M371.572 857.108C370.303 854.123 369.251 851.008 368.441 847.779L368.805 847.688C368.411 846.116 368.074 844.517 367.797 842.893C367.52 841.268 367.308 839.648 367.16 838.035L366.786 838.069C366.481 834.754 366.441 831.466 366.65 828.23L367.025 828.254C367.237 824.966 367.708 821.731 368.421 818.574L368.055 818.491C368.782 815.269 369.759 812.127 370.968 809.091L371.316 809.23C372.528 806.188 373.973 803.253 375.634 800.452L375.312 800.261C376.988 797.434 378.882 794.743 380.976 792.213L381.265 792.452C383.343 789.941 385.618 787.591 388.073 785.428L387.825 785.146C390.278 782.984 392.908 781.008 395.698 779.242L395.898 779.559C398.634 777.827 401.525 776.3 404.552 775.002L404.404 774.657C407.385 773.378 410.497 772.321 413.726 771.507L413.817 771.871C415.388 771.475 416.987 771.137 418.611 770.86C420.235 770.584 421.856 770.373 423.469 770.226L423.435 769.852C426.751 769.551 430.038 769.518 433.274 769.736L433.249 770.111C436.535 770.333 439.768 770.817 442.923 771.544L443.007 771.179C446.224 771.921 449.361 772.915 452.391 774.142L452.251 774.49C455.283 775.718 458.209 777.182 461.001 778.862L461.195 778.541C464.008 780.234 466.687 782.146 469.205 784.258L468.964 784.545C471.459 786.638 473.795 788.929 475.946 791.398L476.229 791.152C478.375 793.615 480.337 796.256 482.091 799.056L481.773 799.255C483.491 801.998 485.007 804.894 486.297 807.926L486.642 807.78C487.911 810.764 488.962 813.879 489.773 817.108L489.409 817.199C489.803 818.771 490.14 820.37 490.417 821.994C490.694 823.619 490.906 825.239 491.054 826.852L491.428 826.818C491.733 830.134 491.773 833.421 491.564 836.657L491.189 836.633C490.977 839.921 490.506 843.156 489.793 846.313L490.159 846.396C489.432 849.618 488.455 852.76 487.246 855.796L486.898 855.657C485.686 858.699 484.241 861.634 482.58 864.435L482.902 864.627C481.226 867.453 479.332 870.144 477.238 872.674L476.949 872.435C474.871 874.946 472.596 877.296 470.141 879.46L470.389 879.741C467.936 881.903 465.306 883.88 462.516 885.645L462.316 885.328C459.58 887.06 456.689 888.587 453.662 889.886L453.81 890.23C450.829 891.509 447.716 892.566 444.488 893.38L444.397 893.016C442.826 893.412 441.227 893.75 439.603 894.027C437.979 894.303 436.358 894.514 434.745 894.661L434.779 895.035C431.463 895.336 428.176 895.37 424.94 895.151L424.965 894.776C421.679 894.554 418.446 894.07 415.291 893.343L415.207 893.708C411.989 892.966 408.853 891.973 405.823 890.745L405.963 890.398C402.931 889.169 400.005 887.705 397.213 886.025L397.019 886.346C394.206 884.653 391.527 882.741 389.009 880.629L389.25 880.342C386.755 878.249 384.419 875.958 382.268 873.489L381.985 873.736C379.839 871.272 377.877 868.631 376.123 865.832L376.441 865.632C374.723 862.889 373.207 859.993 371.917 856.961L371.572 857.108Z" stroke="#BDDEFF" stroke-width="0.75" stroke-dasharray="9 9"/>
<path d="M381.365 856.586C380.314 854.117 379.444 851.54 378.774 848.867L379.138 848.776C378.812 847.477 378.533 846.156 378.305 844.813C378.076 843.471 377.901 842.132 377.778 840.799L377.405 840.833C377.152 838.089 377.119 835.369 377.292 832.692L377.666 832.716C377.842 829.998 378.231 827.325 378.82 824.715L378.454 824.633C379.056 821.967 379.864 819.367 380.865 816.855L381.213 816.994C382.214 814.48 383.409 812.054 384.782 809.739L384.459 809.548C385.846 807.209 387.413 804.982 389.146 802.889L389.435 803.128C391.152 801.053 393.033 799.111 395.061 797.323L394.813 797.041C396.843 795.253 399.019 793.617 401.328 792.156L401.528 792.473C403.789 791.042 406.178 789.779 408.679 788.707L408.532 788.362C410.998 787.304 413.574 786.429 416.245 785.756L416.337 786.119C417.635 785.792 418.956 785.513 420.298 785.284C421.641 785.056 422.98 784.881 424.313 784.76L424.279 784.386C427.023 784.137 429.743 784.109 432.421 784.29L432.395 784.665C435.111 784.848 437.783 785.248 440.39 785.849L440.474 785.484C443.136 786.098 445.732 786.92 448.239 787.936L448.099 788.283C450.605 789.299 453.023 790.508 455.33 791.897L455.524 791.576C457.852 792.977 460.068 794.559 462.152 796.306L461.911 796.594C463.973 798.323 465.903 800.216 467.681 802.257L467.964 802.011C469.739 804.049 471.363 806.234 472.814 808.551L472.496 808.75C473.916 811.017 475.169 813.41 476.235 815.916L476.58 815.77C477.631 818.239 478.5 820.816 479.171 823.489L478.807 823.58C479.133 824.879 479.412 826.2 479.64 827.543C479.869 828.885 480.044 830.224 480.167 831.557L480.54 831.523C480.793 834.267 480.826 836.987 480.653 839.665L480.279 839.64C480.103 842.358 479.714 845.031 479.125 847.641L479.491 847.723C478.889 850.389 478.08 852.989 477.08 855.501L476.732 855.362C475.731 857.876 474.536 860.302 473.163 862.617L473.486 862.808C472.099 865.147 470.531 867.374 468.799 869.467L468.51 869.228C466.793 871.303 464.912 873.245 462.884 875.033L463.132 875.315C461.102 877.104 458.926 878.739 456.617 880.2L456.417 879.883C454.156 881.314 451.767 882.577 449.266 883.649L449.413 883.994C446.947 885.052 444.371 885.927 441.7 886.6L441.608 886.237C440.31 886.564 438.989 886.843 437.646 887.072C436.304 887.301 434.965 887.475 433.632 887.596L433.666 887.97C430.922 888.219 428.202 888.247 425.524 888.066L425.55 887.691C422.834 887.508 420.162 887.108 417.555 886.507L417.47 886.872C414.808 886.258 412.213 885.436 409.706 884.42L409.846 884.073C407.34 883.057 404.922 881.848 402.615 880.459L402.421 880.78C400.093 879.379 397.876 877.797 395.793 876.05L396.034 875.762C393.972 874.033 392.041 872.14 390.264 870.099L389.981 870.345C388.205 868.307 386.581 866.122 385.131 863.805L385.448 863.606C384.028 861.339 382.776 858.946 381.71 856.44L381.365 856.586Z" stroke="#BDDEFF" stroke-width="0.75" stroke-dasharray="9 9"/>
<circle cx="103.777" cy="252.823" r="8.9625" transform="rotate(170.328 103.777 252.823)" stroke="#BDDEFF" stroke-width="1.5" stroke-dasharray="7.88 7.88"/>
<path d="M106.905 269.602L101.172 235.962" stroke="#BDDEFF" stroke-width="1.5" stroke-dasharray="4.72 4.72"/>
<path d="M87.9493 255.257L119.519 249.877" stroke="#BDDEFF" stroke-width="1.5" stroke-dasharray="4.72 4.72"/>
<circle cx="103.777" cy="252.824" r="154.913" transform="rotate(170.328 103.777 252.824)" stroke="#BDDEFF" stroke-width="1.5" stroke-dasharray="31.5 31.5"/>
<path d="M144.808 402.941L139.912 374.217L159.864 366.29L173.249 391.702M115.049 408.012L110.154 379.289L87.9265 378.551L83.3681 406.489M54.5598 399.948L61.4912 371.872L38.7552 361.9L26.3338 387.45M198.782 375.901L182.513 352.311L200.012 334.683L221.231 354.5M238.36 330.011L214.351 314.132L223.596 293.384L250.599 301.829M258.086 272.327L230.06 267.251L230.016 243.559L258.966 241.554M253.938 212.055L226.515 218.326L217.755 195.055L242.871 183.052M225.946 157.178L203.221 173.833L187.58 157.059L205.062 134.641M181.053 118.762L167.023 141.124L145.069 132.617L152.651 105.229M124.145 98.9029L118.981 126.412L97.6621 126.317L92.7667 97.5937M63.0083 102.665L67.9037 131.389L48.3813 138.71L34.0496 113.992M2.40694 370.492L19.4979 347.341L3.11941 329.362L-19.2526 348.087M-35.3574 322.34L-9.98909 308.696L-17.9605 288.485L-46.1662 293.293M-51.2381 263.534L-23.0323 258.727L-21.985 238.311L-50.5729 233.064M-43.8178 203.953L-16.2975 212.311L-7.14016 191.045L-31.1053 175.424M-13.9761 150.936L7.24245 170.753L25.5624 153.251L8.73124 129.491" stroke="#BDDEFF"/>
<path d="M53.3657 318.039C66.0819 329.435 82.8297 335.37 99.5206 335.177C102.76 335.14 105.154 332.294 104.942 329.062L101.592 278.021C101.26 272.961 95.1911 270.569 91.4961 274.041L53.4604 309.781C51.057 312.039 50.9097 315.838 53.3657 318.039Z" stroke="#BDDEFF"/>
<path d="M138.52 328.3C153.904 320.89 165.778 307.671 171.964 292.168C173.165 289.159 171.448 285.861 168.379 284.825L119.917 268.457C115.113 266.835 110.587 271.533 112.388 276.272L130.923 325.063C132.094 328.146 135.549 329.731 138.52 328.3Z" stroke="#BDDEFF"/>
<path d="M153.921 190.539C141.455 178.87 124.839 172.574 108.148 172.405C104.909 172.372 102.454 175.165 102.596 178.401L104.84 229.503C105.062 234.569 111.078 237.092 114.847 233.7L153.648 198.793C156.099 196.587 156.329 192.792 153.921 190.539Z" stroke="#BDDEFF"/>
<path d="M72.5914 177.973C56.3922 183.373 42.9388 194.98 34.8363 209.573C33.2639 212.405 34.5492 215.895 37.462 217.312L83.4577 239.692C88.0169 241.91 93.1017 237.824 91.9166 232.894L79.7175 182.147C78.9466 178.941 75.7201 176.931 72.5914 177.973Z" stroke="#BDDEFF"/>
<path d="M25.0774 240.722C21.6129 257.442 24.8952 274.905 33.4473 289.239C35.1069 292.021 38.77 292.662 41.4582 290.855L83.9073 262.315C88.115 259.486 87.1344 253.037 82.2761 251.586L32.265 236.655C29.1049 235.712 25.7465 237.493 25.0774 240.722Z" stroke="#BDDEFF"/>
<path d="M182.713 264.441C186.178 247.72 182.895 230.258 174.343 215.923C172.683 213.141 169.02 212.501 166.332 214.308L123.883 242.848C119.675 245.677 120.656 252.126 125.514 253.576L175.525 268.507C178.686 269.451 182.044 267.67 182.713 264.441Z" stroke="#BDDEFF"/>
<path d="M16 970.189L16 683.794M62 991L62 763.729M46.0181 882.213L46.0181 562" stroke="#BDDEFF" stroke-dasharray="12 12"/>
<path d="M-1 1032.82L-1.00003 596.128M34.7412 1013.43L34.7412 533M76.531 641.76L76.531 1082M101 939.903L101 562.791M88.7655 611.733L88.7655 829.252" stroke="#BDDEFF" stroke-width="0.5"/>
<path d="M1344 3116.82L1344 2680.13M1379.74 3097.43L1379.74 2617M1421.53 2725.76L1421.53 3166M1446 3023.9L1446 2646.79M1433.77 2695.73L1433.77 2913.25" stroke="#BDDEFF" stroke-width="0.5"/>
<path d="M1361 3391.82L1361 2955.13M1396.74 3372.43L1396.74 2892M1438.53 3000.76L1438.53 3441M1463 3298.9L1463 2921.79M1450.77 2970.73L1450.77 3188.25" stroke="#BDDEFF" stroke-width="0.5"/>
</svg>
