<svg width="1440" height="536" viewBox="0 0 1440 536" fill="none" xmlns="http://www.w3.org/2000/svg">
<path d="M0 0H1440V530H0V0Z" fill="#0573E8"/>
<path d="M337.5 529.5C166.619 529.5 67.5 513 0 487.5V531.5L1440 536V495.5C1367.5 471 1199.4 452 1055 452C814.167 452 508.381 529.5 337.5 529.5Z" fill="white"/>
<path d="M1037 230V449C1037 450.657 1038.36 452 1040.02 452.002C1223.86 452.211 1359.33 471.464 1435.67 493.858C1437.6 494.424 1439.5 492.97 1439.5 490.958V209.5C1439.5 207.843 1438.16 206.5 1436.5 206.5H1406C1404.34 206.5 1403 207.843 1403 209.5V213C1403 214.657 1401.66 216 1400 216H1379C1377.34 216 1376 217.343 1376 219V368.5C1376 370.157 1374.66 371.5 1373 371.5H1345.5C1343.84 371.5 1342.5 370.157 1342.5 368.5V145.5C1342.5 143.843 1341.16 142.5 1339.5 142.5H1290C1288.34 142.5 1287 143.843 1287 145.5V246.5C1287 248.157 1285.66 249.5 1284 249.5H1257.5C1255.84 249.5 1254.5 250.843 1254.5 252.5V302.5C1254.5 304.157 1253.16 305.5 1251.5 305.5H1228.5C1226.84 305.5 1225.5 304.157 1225.5 302.5V190.5C1225.5 188.843 1224.16 187.5 1222.5 187.5H1173C1171.34 187.5 1170 186.157 1170 184.5V163C1170 161.343 1168.66 160 1167 160H1121.5C1119.84 160 1118.5 161.343 1118.5 163V258C1118.5 259.657 1117.16 261 1115.5 261H1099.5C1097.84 261 1096.5 259.657 1096.5 258V230C1096.5 228.343 1095.16 227 1093.5 227H1040C1038.34 227 1037 228.343 1037 230Z" fill="#7EB9F0" fill-opacity="0.25"/>
</svg>
