<svg width="555" height="814" viewBox="0 0 555 814" fill="none" xmlns="http://www.w3.org/2000/svg">
<path d="M452.527 617.58L380.334 647.606C360.598 655.814 344.18 630.253 339.247 618.394C321.858 576.585 309.594 565.406 302.095 559.827C201.88 485.27 169.275 433.828 161.39 414.871C134.234 335.515 155.319 267.712 171.516 245.868C197.119 211.338 243.969 181.314 267.341 171.593M453.306 617.256L525.498 587.231C545.234 579.022 538.691 549.373 533.761 537.521C516.382 495.736 517.105 479.165 518.438 469.918C536.247 346.341 522.769 286.982 514.889 268.036C477.779 192.872 414.842 160.049 387.935 156.142C345.401 149.965 291.08 162.024 267.708 171.745" stroke="#BDDEFF" stroke-width="1.5"/>
<rect x="382.573" y="666.457" width="172.312" height="10.7224" rx="5.36119" transform="rotate(-19.9113 382.573 666.457)" stroke="#BDDEFF" stroke-width="1.5"/>
<rect x="391.214" y="687.234" width="172.312" height="10.7224" rx="5.36119" transform="rotate(-19.9113 391.214 687.234)" stroke="#BDDEFF" stroke-width="1.5"/>
<rect x="397.694" y="702.812" width="172.312" height="10.7224" rx="5.36119" transform="rotate(-19.9113 397.694 702.812)" stroke="#BDDEFF" stroke-width="1.5"/>
<path d="M379.253 648.665L385.95 664.765M390.486 675.672L394.482 685.28M399.234 696.706L401.07 701.121M405.823 712.547C409.797 722.104 421.41 719.264 426.719 716.65L551.818 671.016C566.361 664.968 563.177 658.778 559.768 656.44M555.015 645.013L552.963 640.079M544.539 619.824L548.535 629.432M540.111 609.177L529.958 584.767" stroke="#BDDEFF" stroke-width="1.5"/>
<path d="M371.849 488.782L253.325 369.326C253.031 355.437 260.158 328.043 291.016 329.586M421.708 468.045L426.358 303.452C417.386 292.867 391.988 277.356 362.17 299.992M378.834 392.058L362.17 299.992M362.17 299.992C325.592 283.526 299.493 312.861 291.016 329.586M345.075 406.099L291.016 329.586" stroke="#BDDEFF" stroke-width="1.5"/>
<path d="M373.211 489.126L428.942 623.123M422.551 468.605L478.282 602.602M361.716 398.87L344.966 405.836L451.145 613.889M361.716 398.87L378.466 391.903L451.145 613.889M361.716 398.87L451.145 613.889" stroke="#BDDEFF" stroke-width="1.5"/>
<circle cx="350.009" cy="369.627" r="172.031" transform="rotate(-22.583 350.009 369.627)" stroke="#BDDEFF" stroke-width="0.75" stroke-dasharray="8.44 8.44"/>
<circle cx="345.997" cy="351.191" r="264.281" transform="rotate(-22.583 345.997 351.191)" stroke="#BDDEFF" stroke-width="0.75" stroke-dasharray="8.44 8.44"/>
<circle cx="500.226" cy="557.23" r="37.3125" transform="rotate(-22.583 500.226 557.23)" stroke="#BDDEFF" stroke-width="0.75" stroke-dasharray="8.44 8.44"/>
<circle cx="378.695" cy="607.779" r="37.3125" transform="rotate(-22.583 378.695 607.779)" stroke="#BDDEFF" stroke-width="0.75" stroke-dasharray="8.44 8.44"/>
<path d="M379.202 392.209C369.58 383.722 349.513 374.584 346.222 405.926L394.724 477.135L379.202 392.209Z" stroke="#BDDEFF" stroke-width="0.75"/>
<path d="M371.977 490.556C375.434 471.329 386.838 470.871 392.108 473.045C400.123 468.391 399.842 457.948 422.616 469.495" stroke="#BDDEFF" stroke-width="0.75"/>
<path d="M282.513 330.381L280.684 314.998L295.24 321.432" stroke="#BDDEFF" stroke-width="0.75"/>
<path d="M370.545 293.765L360.6 282.061L353.692 297.188" stroke="#BDDEFF" stroke-width="0.75"/>
<path d="M379.201 392.211L425.773 302.781M345.961 406.035L253.54 369.846M290.128 329.651L361.802 399.447L362.84 299.409" stroke="#BDDEFF" stroke-width="0.75"/>
<path d="M379.236 475.049L440.259 621.771M402.867 465.221L463.89 611.943M471.94 608.594L412.537 465.768M434.546 624.147L375.143 481.321" stroke="#BDDEFF" stroke-width="0.75"/>
</svg>
