<svg width="482" height="317" viewBox="0 0 482 317" fill="none" xmlns="http://www.w3.org/2000/svg">
<path d="M396.161 72.5883C387.371 74.0966 387.406 75.347 387.406 75.347C387.406 75.347 377.396 141.508 407.105 134.935C417.526 132.63 433.006 128.038 433.006 117.279C433.006 112.314 418.048 75.8982 412.577 74.2428C405.91 72.2259 403.023 71.411 396.161 72.5883Z" fill="#FCD858"/>
<path d="M176.611 25.2817C175.748 22.7338 173.761 19.5885 179.936 18.6811C177.993 17.9894 178.784 14.1594 182.377 14.8984C180.29 13.94 181.46 11.3953 184.212 12.0806C184.949 9.10336 187.233 7.52793 189.437 10.9805C188.87 8.19043 190.421 6.34664 193.704 8.5536C194.251 6.89848 198.938 6.89731 198.938 9.88037C200.27 7.68018 205.742 7.44905 206.063 12.0806C209.572 11.3112 212.149 13.4256 210.338 16.4809C214.131 16.2902 214.872 17.5424 215.089 20.8813C218.451 22.1086 220.516 24.0025 218.889 29.1321C223.799 30.6234 221.78 34.2573 218.889 36.8327C221.45 41.407 224.893 46.6239 221.739 51.684C224.346 53.7965 222.376 56.2067 220.314 57.7346C223.252 56.5552 224.893 60.4848 222.689 62.685C225.988 66.4866 224.346 70.9357 220.314 70.9357C223.462 71.6246 223.689 73.0043 222.689 76.4362C227.082 80.9153 222.118 81.5084 215.089 83.0368L190.387 80.8365C185.041 81.4756 182.092 84.2712 176.611 78.0863C173.302 76.9287 172.906 75.1721 173.761 70.9357C168.533 68.6936 170.722 62.685 175.186 60.4848C171.269 59.314 171.623 57.0923 174.552 52.6931C171.816 51.684 171.269 46.6239 175.186 45.0835C173.454 43.3219 170.722 41.1044 175.186 32.4323C171.816 31.1752 172.911 27.313 176.611 25.2817Z" fill="#573515"/>
<path d="M378.652 52.3946C379.054 56.9408 378.526 60.7031 374.883 61.0308C371.24 61.3586 367.961 57.939 367.559 53.3928C367.156 48.8466 369.783 44.8955 373.426 44.5678C377.069 44.24 378.249 47.8485 378.652 52.3946Z" fill="#707070"/>
<path d="M379.548 31.4287C394.541 29.0908 397.188 40.9373 401.132 60.6355L364.69 67.6745C366.456 48.0905 363.306 33.9613 379.548 31.4287Z" fill="black"/>
<ellipse rx="11.1182" ry="12.3917" transform="matrix(0.94014 -0.341855 0.345474 0.938033 380.876 50.0444)" fill="#F8DCCD"/>
<path fill-rule="evenodd" clip-rule="evenodd" d="M377.803 61.3755C376.15 61.7731 374.328 61.3959 371.791 59.9656L372.712 58.2692C375.054 59.5892 376.367 59.7271 377.362 59.4879C378.202 59.2857 378.891 58.8252 379.86 58.1776C380.184 57.9607 380.54 57.7229 380.943 57.4668L381.954 59.1128C381.671 59.2923 381.389 59.4819 381.105 59.6728C380.065 60.3719 379.002 61.0872 377.803 61.3755Z" fill="black"/>
<path fill-rule="evenodd" clip-rule="evenodd" d="M372.857 52.8808C373.118 51.9901 373.262 51.2224 373.224 50.7943L375.227 50.614C375.297 51.4004 375.058 52.4527 374.797 53.3433C374.698 53.6814 374.588 54.019 374.477 54.3381L377.782 54.0407L377.946 55.8949L373.093 56.3317L371.482 56.4766L372.076 55.0754C372.294 54.5611 372.607 53.7384 372.857 52.8808Z" fill="black"/>
<line y1="-1.25" x2="21.174" y2="-1.25" transform="matrix(-0.511857 0.859882 -0.864099 -0.501943 314.744 224.433)" stroke="#F8DCCD" stroke-width="2.5"/>
<path d="M423.485 265.427L425.021 282.786" stroke="#F8DCCD" stroke-width="2.5"/>
<path d="M379.205 145.634L394.309 162.446L343.858 197.063L314.734 240.1L303.805 238.263L330.317 190.762L379.205 145.634Z" fill="#F8DCCD"/>
<path d="M391.783 174.661L414.765 152.037C414.765 152.037 419.063 247.99 429.539 282.216C425.386 283.606 423.521 282.216 423.521 282.216C415.186 251.146 391.783 174.661 391.783 174.661Z" fill="#F8DCCD"/>
<path d="M285.805 245.974L304.171 242.794L310.291 246.349L305.041 255.17L285.805 245.974Z" fill="#333333"/>
<path fill-rule="evenodd" clip-rule="evenodd" d="M409.927 144.191L411.811 165.479L397.606 164.989L375.911 159.869L374.48 143.695L409.927 144.191Z" fill="#99CEFF"/>
<path fill-rule="evenodd" clip-rule="evenodd" d="M366.783 122.619C376.567 110.957 384.158 95.7359 385.852 80.5745L377.717 79.5993C376.318 93.2782 369.765 106.254 360.561 117.137C351.44 127.968 340.177 135.837 329.928 138.683L332.132 146.752C344.348 143.36 356.916 134.334 366.783 122.619Z" fill="#F8DCCD"/>
<path fill-rule="evenodd" clip-rule="evenodd" d="M374.512 113.311C380.842 103.014 385.376 91.316 386.653 79.6421L377.886 78.5695C376.835 89.0865 372.945 99.2092 367.2 108.394L374.512 113.311Z" fill="#1F3C5F"/>
<path d="M404.071 78.7799C397.771 69.8637 384.706 67.5395 379.11 69.172L371.505 151.654L420.864 151.779C419.55 130.447 410.371 87.6961 404.071 78.7799Z" fill="#1F3C5F"/>
<path fill-rule="evenodd" clip-rule="evenodd" d="M433.225 76.7086C422.332 82.5571 411.678 85.9571 399.525 84.732L397.627 78.1397C408.567 79.348 419.897 76.3103 430.075 70.7944C440.197 65.3351 448.396 57.6569 452.485 49.9356L458.387 53.0738C453.513 62.2777 444.173 70.8036 433.225 76.7086Z" fill="#F8DCCD"/>
<path fill-rule="evenodd" clip-rule="evenodd" d="M398.012 81.0693L397.302 77.5018C405.327 78.488 413.531 77.2279 421.354 74.3797L423.841 81.0176C416.043 83.8918 407.994 85.3285 399.53 85.1208L398.012 81.0693Z" fill="#1F3C5F"/>
<ellipse rx="10.5195" ry="4.45485" transform="matrix(0.845605 0.532481 -0.512657 0.859406 384.546 42.0758)" fill="black"/>
<path d="M205.666 34.2166C203.028 42.2761 194.844 47.1855 187.388 45.1822C179.932 43.1788 176.027 35.0214 178.666 26.9619C181.304 18.9025 188.388 20.5584 196.493 19.3102C193.831 30.3357 208.305 26.1572 205.666 34.2166Z" fill="#BD8A5A"/>
<line y1="-3.87321" x2="26.2535" y2="0.207592" transform="matrix(-0.132566 0.991174 -0.993723 -0.111867 172.522 262.257)" stroke="#BD8A5A" stroke-width="7.74643"/>
<path d="M150.075 303.915L168.068 287.894H177.064V301.627L150.075 303.915Z" fill="#EAEAEA"/>
<path fill-rule="evenodd" clip-rule="evenodd" d="M237.542 108.811C233.879 92.0134 225.134 74.7352 211.93 62.789L204.769 69.416C216.78 80.0786 224.173 94.8807 227.536 110.622C230.911 126.253 229.813 141.768 224.688 152.919L234.093 156.491C240.202 143.2 241.192 125.718 237.542 108.811Z" fill="#BD8A5A"/>
<path fill-rule="evenodd" clip-rule="evenodd" d="M233.2 94.5172C228.531 82.5786 221.348 71.2398 211.881 62.6429L204.726 69.2892C213.324 76.951 219.564 86.7348 223.659 97.4663L233.2 94.5172Z" fill="#99CEFF"/>
<path fill-rule="evenodd" clip-rule="evenodd" d="M167.929 111.929C179.835 98.9334 189.038 81.8663 191.023 64.7466L181.062 63.4777C179.428 78.926 171.484 93.4736 160.284 105.6C149.184 117.669 135.446 126.343 122.921 129.354L125.664 138.529C140.595 134.94 155.922 124.983 167.929 111.929Z" fill="#BD8A5A"/>
<path fill-rule="evenodd" clip-rule="evenodd" d="M177.311 99.9622C184.511 89.19 189.667 76.9155 191.117 64.6211L181.143 63.3683C179.95 74.4456 175.526 85.0676 168.992 94.675L177.311 99.9622Z" fill="#99CEFF"/>
<path fill-rule="evenodd" clip-rule="evenodd" d="M182.962 42.0978C180.923 41.8417 179.05 40.6851 176.859 38.1048L178.675 36.6672C180.697 39.0484 182.109 39.7384 183.336 39.8925C184.373 40.0228 185.359 39.8136 186.745 39.5194C187.209 39.4209 187.718 39.3129 188.289 39.2049L188.667 41.3863C188.267 41.462 187.863 41.5488 187.456 41.6362C185.966 41.9562 184.441 42.2836 182.962 42.0978Z" fill="black"/>
<path fill-rule="evenodd" clip-rule="evenodd" d="M181.285 30.943C181.982 30.0942 182.492 29.3295 182.646 28.855L184.938 29.4775C184.654 30.3491 183.908 31.38 183.212 32.2287C182.947 32.5508 182.671 32.8682 182.403 33.1653L186.183 34.192L185.513 36.247L179.962 34.7391L178.12 34.2386L179.417 32.978C179.894 32.5154 180.616 31.7606 181.285 30.943Z" fill="black"/>
<path d="M174.769 134.229L196.195 135.469L181.26 275.506L167.869 274.731L174.769 134.229Z" fill="#333333"/>
<path d="M196.908 134.229L217.887 138.577C217.887 138.577 220.731 205.727 220.731 217.776C220.731 230.751 206.918 233.995 205.438 217.776C203.958 201.556 196.908 134.229 196.908 134.229Z" fill="#333333"/>
<line y1="-3.87321" x2="26.0768" y2="-3.07967" transform="matrix(0.0492152 0.998788 -0.998363 0.0571959 216.118 271.143)" stroke="#BD8A5A" stroke-width="7.74643"/>
<path d="M201.875 306.849L217.081 290.68L226.124 290.238L228.477 301.492L201.875 306.849Z" fill="#EAEAEA"/>
<path d="M205.438 214.995C205.438 211.751 217.639 207.733 219.744 212.678C221.718 217.313 219.744 232.606 225.929 278.3C221.111 279.619 213.341 280.474 213.341 280.474C207.048 239.17 205.438 218.239 205.438 214.995Z" fill="#333333"/>
<path fill-rule="evenodd" clip-rule="evenodd" d="M218.224 140.481V164.057L201.554 161.881L176.55 153.177V135.945L218.224 140.481Z" fill="#333333"/>
<path d="M213.213 64.0164C205.87 53.3734 188.736 49.4456 181.087 50.7126L173.094 140.058H218.542C219.307 115.985 220.556 74.6595 213.213 64.0164Z" fill="#99CEFF"/>
<line x1="283.838" y1="265.979" x2="283.838" y2="292.089" stroke="#E6BF99" stroke-width="7.74643"/>
<path d="M277.852 140.483H317.72C317.72 140.483 325.476 223.564 326.411 230.516C327.944 241.912 303.494 246.147 302.569 234.686C301.634 223.101 295.09 183.71 295.09 183.71L292.122 281.764H263.56L277.852 140.483Z" fill="#FCD858"/>
<path d="M262.241 307.319L279.965 292.088H288.826V305.143L262.241 307.319Z" fill="#796DC4"/>
<path fill-rule="evenodd" clip-rule="evenodd" d="M320.14 80.189C320.14 80.1882 320.14 80.1873 320.14 80.1865C320.14 43.6646 310.221 43.6646 297.985 43.6646C281.988 45.3128 276.82 55.8868 275.965 87.4713L275.832 87.4932V97.3036C275.831 97.6824 275.831 98.0637 275.831 98.4474C275.831 98.622 275.831 98.7961 275.832 98.9698V147.037L302.418 149.58L320.141 151.407V80.1888L320.14 80.189Z" fill="#333333"/>
<path fill-rule="evenodd" clip-rule="evenodd" d="M256.748 98.545C260.968 80.2897 270.42 62.2546 284.306 50.8525L291.478 59.3383C278.853 69.4816 270.857 84.947 266.974 102.064C263.081 119.057 263.784 136.587 268.743 149.832L258.987 152.429C253.076 136.64 252.538 116.925 256.748 98.545Z" fill="#E6BF99"/>
<path fill-rule="evenodd" clip-rule="evenodd" d="M272.739 92.6898L258.627 87.1895C263.865 72.5331 272.589 59.0983 284.747 49.467L295.913 59.5146C284.89 68.0427 277.304 79.5848 272.739 92.6898Z" fill="#333333"/>
<ellipse rx="14.6935" ry="15.8218" transform="matrix(0.913053 0.407841 -0.435929 0.899981 301.156 22.8874)" fill="black"/>
<path d="M286.255 21.4256C284.233 28.7569 284.545 41.9499 291.905 41.5145C301.991 40.9178 305.841 41.0443 310.17 32.108C313.903 24.4011 311.576 15.7621 304.972 12.8122C298.368 9.86234 289.988 13.7187 286.255 21.4256Z" fill="#E6BF99"/>
<path d="M289.706 17.0296C295.06 20.3068 316.766 18.4878 316.766 18.4878C316.766 18.4878 292.609 5.50462 290.877 0.281116C286.478 5.07578 284.352 13.7524 289.706 17.0296Z" fill="black"/>
<path fill-rule="evenodd" clip-rule="evenodd" d="M288.93 36.737C286.569 36.0569 284.549 34.3404 282.384 30.8779L284.755 29.5095C286.753 32.7048 288.305 33.7831 289.725 34.1924C290.926 34.5382 292.12 34.4723 293.801 34.3796C294.363 34.3486 294.98 34.3145 295.67 34.2919L295.763 36.9469C295.28 36.9628 294.79 36.991 294.297 37.0195C292.49 37.1237 290.642 37.2302 288.93 36.737Z" fill="black"/>
<path fill-rule="evenodd" clip-rule="evenodd" d="M289.175 23.6503C290.163 22.6783 290.918 21.7853 291.198 21.2069L293.729 22.3375C293.215 23.3997 292.129 24.5949 291.141 25.5668C290.765 25.9355 290.377 26.2966 290.003 26.6332L294.178 28.4979L292.965 31.0025L286.833 28.2638L284.798 27.3548L286.573 25.9507C287.225 25.4355 288.224 24.5866 289.175 23.6503Z" fill="black"/>
<path d="M329.578 78.0297L320.551 68.1984L315.662 78.0297C320.551 84.9481 340.403 103.518 332.504 110.437L308.81 130.828L314.075 137.746L341.531 114.806C350.558 102.79 338.426 93.6871 329.578 78.0297Z" fill="#E6BF99"/>
<path d="M337.018 86.4061L313.323 48.173L312.194 82.038C314.576 83.3731 320.093 89.3191 324.606 93.6886L337.018 86.4061Z" fill="#333333"/>
<line y1="-3.87321" x2="25.9959" y2="-3.87321" transform="matrix(0.417841 0.915341 -0.908737 0.404131 328.946 279.383)" stroke="#E6BF99" stroke-width="7.74643"/>
<path d="M328.765 316.903L337.091 297.227L345.174 293.633L351.158 302.744L328.765 316.903Z" fill="#796DC4"/>
<path d="M348.118 277.52C348.118 277.52 331.563 244.364 325.212 226.83C322.044 218.084 300.002 226.38 302.764 235.261C307.867 251.67 322.722 291.458 322.722 291.458L348.118 277.52Z" fill="#FCD858"/>
<g opacity="0.9">
<mask id="mask0" mask-type="alpha" maskUnits="userSpaceOnUse" x="97" y="123" width="57" height="83">
<path d="M153.885 132.228L97.8527 123.485V195.373L147.518 205.358L153.885 204.116V132.228Z" fill="black"/>
</mask>
<g mask="url(#mask0)">
<path d="M153.885 132.228L97.8527 123.485V195.373L147.518 205.358L153.885 204.116V132.228Z" fill="black"/>
<path d="M147.517 132.654L91.4845 123.287V200.31L147.517 209.677V132.654Z" fill="#1E1E1E"/>
</g>
</g>
<g opacity="0.9">
<path d="M20.1707 228.395C20.1707 257.817 37.402 281.669 58.6579 281.669C79.9137 281.669 97.145 257.817 97.145 228.395C97.145 198.972 79.9137 175.121 58.6579 175.121C37.402 175.121 20.1707 198.972 20.1707 228.395ZM92.5062 228.395C92.5062 254.271 77.3518 275.248 58.6579 275.248C39.9639 275.248 24.8095 254.271 24.8095 228.395C24.8095 202.519 39.9639 181.542 58.6579 181.542C77.3518 181.542 92.5062 202.519 92.5062 228.395Z" fill="#1E1E1E"/>
<path d="M24.699 228.395C24.699 257.817 41.9303 281.669 63.1862 281.669C84.442 281.669 101.673 257.817 101.673 228.395C101.673 198.972 84.442 175.121 63.1862 175.121C41.9303 175.121 24.699 198.972 24.699 228.395ZM96.3104 228.395C96.3104 253.717 81.4802 274.245 63.1862 274.245C44.8922 274.245 30.062 253.717 30.062 228.395C30.062 203.072 44.8922 182.544 63.1862 182.544C81.4802 182.544 96.3104 203.072 96.3104 228.395Z" fill="black"/>
<path d="M33.1884 229.833C33.1884 234.749 33.8326 239.617 35.0841 244.159C36.3356 248.701 38.17 252.828 40.4825 256.304C42.795 259.78 45.5403 262.538 48.5618 264.419C51.5832 266.3 54.8215 267.269 58.0919 267.269L58.0919 255.101C55.8845 255.101 53.6987 254.447 51.6593 253.178C49.62 251.908 47.7669 250.047 46.2061 247.7C44.6452 245.354 43.407 242.568 42.5623 239.503C41.7176 236.437 41.2828 233.151 41.2828 229.833H33.1884Z" fill="white" fill-opacity="0.56"/>
</g>
<path d="M147.518 218.315V199.597L101.673 190.958L39.2729 209.676V225.514L83.8444 242.792L147.518 218.315Z" fill="black"/>
<path d="M147.518 218.315V199.597L101.673 190.958L39.2729 209.676V225.514L83.8444 242.792L147.518 218.315Z" fill="black"/>
<path d="M147.518 199.597L101.673 190.958L40.5464 206.796L82.571 218.315L147.518 199.597Z" fill="#323232"/>
<path d="M147.518 199.597L101.673 190.958L40.5464 206.796L82.571 218.315L147.518 199.597Z" fill="#323232"/>
<ellipse cx="93.1965" cy="68.1184" rx="12.1391" ry="16.2378" fill="#E6BF99"/>
<path fill-rule="evenodd" clip-rule="evenodd" d="M41.6449 80.5201C52.1923 95.3482 67.9804 107.262 85.9981 110.698L90.376 99.076C74.07 96.1603 60.6427 85.8875 50.8277 71.9453C41.0459 58.1245 35.7492 41.423 36.2456 26.5113L25.4434 29.143C24.8516 46.9182 31.0643 65.5706 41.6449 80.5201Z" fill="#E6BF99"/>
<path fill-rule="evenodd" clip-rule="evenodd" d="M84.0084 110.28L86.709 108.793L88.6501 103.644L86.0599 98.1238C71.6754 94.3028 59.7324 84.6601 50.7857 71.9771C43.7413 62.0442 39.0192 50.6212 37.1072 39.4455L26.6004 45.2304C28.8874 57.7706 34.1673 70.0694 41.5979 80.5469C51.7679 94.8156 66.8026 106.382 84.0084 110.28Z" fill="white"/>
<path fill-rule="evenodd" clip-rule="evenodd" d="M117.475 177.544V205.7L101.29 203.381L77.0112 194.102V172.708L117.475 177.544Z" fill="#1F3C5F"/>
<path d="M81.0574 77.3975C87.1269 82.0368 89.1501 79.7171 93.1965 77.3975" stroke="black" stroke-width="2.73058"/>
<path d="M85.104 65.8003C85.104 67.656 83.7552 71.2129 83.0808 72.7594H89.1504" stroke="black" stroke-width="2.73058"/>
<line x1="27.57" y1="264.258" x2="27.57" y2="292.095" stroke="#EAEAEA" stroke-width="7.80165"/>
<path d="M7.4834 308.334L23.6689 292.096H31.7617V306.014L7.4834 308.334Z" fill="#99CEFF"/>
<path fill-rule="evenodd" clip-rule="evenodd" d="M56.9076 212.345C64.5215 207.953 73.8633 201.669 87.7947 196.303L82.1393 177.868C68.2354 183.223 57.5587 189.932 48.6999 195.043C39.7573 200.202 31.19 207.733 25.7181 212.345C20.7659 220.589 18.7445 230.126 18.0575 241.237C16.416 252.424 12.0385 271.735 9.30259 287.184L39.3293 284.425C39.3293 268.587 38.757 250.493 39.3293 241.237C39.8928 232.123 38.9275 227.056 41.5865 222.63C47.0583 218.216 49.3774 216.689 56.9076 212.345Z" fill="#1F3C5F"/>
<line y1="-3.90082" x2="27.7313" y2="-3.90082" transform="matrix(0.155254 0.987875 -0.979318 0.202326 52.96 272.896)" stroke="#EAEAEA" stroke-width="7.80165"/>
<path d="M44.4153 311.658L56.6702 293.257L64.8718 291.52L68.1379 302.477L44.4153 311.658Z" fill="#99CEFF"/>
<path fill-rule="evenodd" clip-rule="evenodd" d="M86.5931 216.131C94.207 211.738 103.153 210.591 117.084 205.225L112.702 183.628C98.7982 188.983 87.4886 193.689 78.6297 198.8C69.6872 203.959 56.3671 213.316 51.4358 221.526C46.4835 229.77 45.5565 231.932 44.8696 243.043C44.1914 254.011 43.5641 272.747 44.8696 288.838L72.776 286.631C69.8921 269.527 68.9457 261.251 67.8513 251.32C68.4147 242.206 67.8513 233.664 69.8921 228.263C72.5719 223.802 79.0629 220.475 86.5931 216.131Z" fill="#1F3C5F"/>
<path fill-rule="evenodd" clip-rule="evenodd" d="M117.475 127.92C117.475 127.916 117.475 127.912 117.475 127.908C117.475 88.9966 108.417 88.9966 97.2433 88.9966C82.6348 90.7526 77.9152 102.018 77.1341 135.667L77.0111 135.691L77.0109 179.596L65.1152 185.113C65.1152 185.113 80.5223 200.481 93.0216 205.527C94.065 205.949 95.0141 206.364 95.9123 206.756C99.2833 208.23 101.936 209.39 106.154 209.39C111.496 209.39 119.498 209.39 119.286 205.527C119.076 201.693 117.498 128.958 117.475 127.92Z" fill="white"/>
<g opacity="0.9">
<path d="M78.75 242.793C78.75 272.216 95.9813 296.067 117.237 296.067C138.493 296.067 155.724 272.216 155.724 242.793C155.724 213.371 138.493 189.519 117.237 189.519C95.9813 189.519 78.75 213.371 78.75 242.793ZM150.096 242.793C150.096 267.913 135.385 288.276 117.237 288.276C99.0898 288.276 84.3784 267.913 84.3784 242.793C84.3784 217.673 99.0898 197.31 117.237 197.31C135.385 197.31 150.096 217.673 150.096 242.793Z" fill="#1E1E1E"/>
<path d="M83.2774 242.793C83.2774 272.216 100.509 296.067 121.765 296.067C143.02 296.067 160.252 272.216 160.252 242.793C160.252 213.371 143.02 189.519 121.765 189.519C100.509 189.519 83.2774 213.371 83.2774 242.793ZM154.256 242.793C154.256 267.632 139.709 287.768 121.765 287.768C103.82 287.768 89.2733 267.632 89.2733 242.793C89.2733 217.954 103.82 197.819 121.765 197.819C139.709 197.819 154.256 217.954 154.256 242.793Z" fill="black"/>
<path d="M94.3147 244.229C94.3147 249.145 94.9588 254.013 96.2103 258.555C97.4618 263.097 99.2962 267.224 101.609 270.7C103.921 274.176 106.667 276.934 109.688 278.815C112.709 280.696 115.948 281.665 119.218 281.665L119.218 269.497C117.011 269.497 114.825 268.843 112.786 267.574C110.746 266.304 108.893 264.442 107.332 262.096C105.771 259.75 104.533 256.964 103.689 253.899C102.844 250.833 102.409 247.547 102.409 244.229H94.3147Z" fill="white" fill-opacity="0.56"/>
</g>
<rect opacity="0.9" width="15.2817" height="8.63903" transform="matrix(-1 0 0 1 165.346 134.805)" fill="black"/>
<path d="M108.481 79.6886C98.6161 63.2431 93.7582 55.8998 85.7598 55.3849C93.5183 46.9094 101.687 55.9484 108.481 79.6886Z" fill="black"/>
<path d="M108.68 80.0194C98.6808 63.3415 93.8116 55.9032 85.7598 55.3849C93.6439 46.7722 101.951 56.2455 108.81 80.8527" stroke="black"/>
<path fill-rule="evenodd" clip-rule="evenodd" d="M120.707 158.801C125.464 138.652 124.372 116.458 115.01 98.9994L102.784 104.408C111.412 120.057 112.229 139.042 107.687 157.903C103.221 176.642 93.4389 193.93 81.194 205.074L90.555 211.906C105.151 198.622 115.876 179.071 120.707 158.801Z" fill="#E6BF99"/>
<path fill-rule="evenodd" clip-rule="evenodd" d="M114.702 98.0582C124.957 115.343 126.489 137.472 121.762 157.644C117.956 173.716 110.21 189.392 99.5445 201.907L89.4556 196.294L89.6653 194.706C98.0872 184.192 104.572 170.946 107.89 156.935C112.407 138.059 111.225 119.137 101.793 103.65L101.844 103.603L114.702 98.0582Z" fill="white"/>
<path d="M96.7291 55.4145C95.4872 52.8207 93.5173 51.2645 89.8468 51.7832C94.0379 47.5096 97.6465 47.6333 102.693 48.1521C110.645 50.2024 113.86 50.8972 116.151 57.9837C117.255 67.8087 117.986 68.8774 112.939 80.2899C111.563 87.0337 112.719 89.0418 113.705 95.3584C101.928 114.528 91.3752 119.196 86.3282 114.009C81.2813 108.821 88.0285 94.5878 88.4704 92.7646C89.6906 88.3545 90.4576 87.5525 90.4576 83.9212C94.5869 84.9587 96.881 83.9212 99.4819 81.3521C101.01 76.1399 101.308 75.4466 100.4 67.3458C100.085 62.8822 99.0331 60.2264 96.7291 55.4145Z" fill="#FCD858"/>
<path d="M408.527 296.241L422.531 282.378L430.087 281.698L431.035 292.415L408.527 296.241Z" fill="#333333"/>
<path d="M336.519 181.801L372.633 150.904H415.861L431.182 213.802C431.182 213.802 396.492 212.311 375.369 203.319C359.069 196.38 336.519 181.801 336.519 181.801Z" fill="#BDAEF8"/>
<path d="M419.69 268.457L422.973 282.803L429.539 282.251L426.256 267.354L419.69 268.457Z" fill="#EAEAEA"/>
<path d="M419.691 270.632L426.803 269.561" stroke="#EF5D5D"/>
<path d="M420.238 272.839L427.351 271.768" stroke="#FCD858"/>
<path d="M420.786 275.046L424.616 274.494L427.898 273.974" stroke="#A6D669"/>
<path d="M421.333 277.252L425.163 276.701L428.445 276.181" stroke="#7EB9F0"/>
<path d="M397.255 78.6592C399.444 77.5538 399.991 78.6574 407.105 77.5556C410.732 76.9938 397.873 73.0958 393.425 76.2012C386.311 81.1676 396.876 108.754 400.159 112.616C406.942 120.593 408.367 123.099 412.198 119.237C413.839 117.582 411.65 117.03 405.084 108.754C401.766 104.571 391.72 81.4548 397.255 78.6592Z" fill="#796DC4"/>
<path d="M420.784 135.486L420.56 135.656C419.844 136.198 418.819 135.588 418.888 134.693C419.391 128.134 416.668 127.034 409.293 120.589L410.935 119.486C420.237 127.762 420.784 126.659 420.784 135.486Z" fill="#333333"/>
</svg>
